<?xml version="1.0" encoding="UTF-8" standalone="no"?>
<svg
   xmlns:dc="http://purl.org/dc/elements/1.1/"
   xmlns:cc="http://creativecommons.org/ns#"
   xmlns:rdf="http://www.w3.org/1999/02/22-rdf-syntax-ns#"
   xmlns:svg="http://www.w3.org/2000/svg"
   xmlns="http://www.w3.org/2000/svg"
   xmlns:sodipodi="http://sodipodi.sourceforge.net/DTD/sodipodi-0.dtd"
   xmlns:inkscape="http://www.inkscape.org/namespaces/inkscape"
   sodipodi:docname="assassinbug.svg"
   inkscape:version="1.0 (4035a4fb49, 2020-05-01)"
   id="svg228"
   version="1.1"
   viewBox="0 0 29.887259 38.821217"
   height="38.821217mm"
   width="29.887259mm">
  <defs
     id="defs222" />
  <sodipodi:namedview
     inkscape:window-maximized="1"
     inkscape:window-y="0"
     inkscape:window-x="0"
     inkscape:window-height="1144"
     inkscape:window-width="1920"
     fit-margin-bottom="0"
     fit-margin-right="0"
     fit-margin-left="0"
     fit-margin-top="0"
     showgrid="false"
     inkscape:document-rotation="0"
     inkscape:current-layer="layer1"
     inkscape:document-units="mm"
     inkscape:cy="544.06542"
     inkscape:cx="395.24852"
     inkscape:zoom="0.35"
     inkscape:pageshadow="2"
     inkscape:pageopacity="0.0"
     borderopacity="1.0"
     bordercolor="#666666"
     pagecolor="#ffffff"
     id="base" />
  <metadata
     id="metadata225">
    <rdf:RDF>
      <cc:Work
         rdf:about="">
        <dc:format>image/svg+xml</dc:format>
        <dc:type
           rdf:resource="http://purl.org/dc/dcmitype/StillImage" />
        <dc:title></dc:title>
      </cc:Work>
    </rdf:RDF>
  </metadata>
  <g
     transform="translate(-1.2571623,-4.2160232)"
     id="layer1"
     inkscape:groupmode="layer"
     inkscape:label="Layer 1">
    <path
       id="path2502"
       d="m 21.407892,4.2160832 -0.64914,2.11666 -0.29633,1.43934 -0.74786,0.43745 -1.60867,0.67733 -0.67733,0.66322 c 0,-0.25985 -0.0847,-0.51099 -0.0847,-0.762 0,-0.25934 0.15477,-0.49463 0.0565,-0.762 -0.11837,-0.32184 -0.58996,-0.35029 -0.79028,-0.0847 -0.14918,0.19783 -0.0492,0.37698 -0.0282,0.59266 0.0311,0.31952 -0.0825,0.63157 -0.16933,0.93134 h -0.0847 c -0.23775,-0.60232 -0.79672,-0.66206 -1.35467,-0.83256 -0.51054,-0.15599 -1.14105,-0.3769 -1.60867,-0.62089 -0.42401,-0.22123 -0.25908,-0.54254 -0.3528,-0.91722 -0.17238,-0.68963 -0.6632,-1.30479 -0.6632,-2.032 l -0.508,0.16933 c 0.30429,0.52561 0.90611,1.22065 0.7902,1.86267 -0.0379,0.20974 0.032,0.56794 -0.254,0.62089 -0.39006,0.0722 -0.96351,-0.19756 -1.382859,-0.19756 v 0.0847 l 1.566329,0.508 -0.11286,1.18534 -0.0988,1.9473298 -0.0565,0.67733 0.3528,0.67734 1.08653,1.778 0.77614,1.016 -0.635,0.67733 -1.10067,1.778 -0.33866,0.62086 -1.016,-0.35272 -2.2013387,-0.84667 -0.846661,0.1552 -0.846669,-0.0847 -1.778,0.0847 -1.693331,-0.0847 -1.27,0.0847 -1.524,-0.42334 v 0.33867 l 1.60866,0.33867 0.59267,0.254 1.524001,-0.0847 1.69333,0.0423 0.84667,-0.0423 1.524,0.47981 1.4393297,0.52205 1.439339,0.508 0.46566,0.26814 0.127,1.69333 0.0423,1.35467 -0.77614,1.016 -0.536189,0.90314 -0.931331,0.381 -1.1006687,0.56439 -1.439331,0.77614 -0.508,0.508 0.225801,1.18533 0.70553,2.20133 0.79019,2.794 0.691479,2.70934 -0.465669,1.86266 h 0.592669 l 0.112861,-1.778 0.2257987,-0.67733 -0.8184697,-2.62467 -1.185329,-3.97933 -0.366861,-1.016 1.947331,-0.95953 1.1853287,-0.64914 c -0.0155,0.58962 -0.27457,1.19939 -0.395139,1.778 -0.129281,0.62086 -0.220721,1.31505 -0.28219,1.94734 -0.15172,1.56015 0.0805,3.14655 0.395139,4.65666 0.316401,1.51867 0.57556,3.00677 1.31233,4.40267 0.45432,0.86097 1.17636,1.57319 1.905,2.20133 0.33892,0.29219 0.65659,0.61519 1.0442,0.84667 0.30708,0.18339 0.66158,0.26822 0.93133,0.508 0.32241,0.2866 0.69122,0.83862 1.18533,0.80433 0.53213,-0.0369 0.74617,-0.56074 1.10067,-0.8608 0.30014,-0.25392 0.68724,-0.45813 1.016,-0.67734 0.79832,-0.53221 1.57065,-1.04521 2.17314,-1.80619 1.53204,-1.93531 1.99746,-4.88222 2.13072,-7.28133 0.0488,-0.8769 0.10126,-1.89789 0.0141,-2.794 -0.0538,-0.55423 -0.15663,-1.13555 -0.0847,-1.69334 0.49234,0.28508 0.78935,0.78935 1.18533,1.18534 0.13784,0.13783 0.37626,0.22233 0.43748,0.42333 0.0681,0.22386 -0.11125,0.62052 -0.15528,0.84667 -0.1055,0.54288 -0.20371,1.06891 -0.33867,1.60866 -0.37812,1.51257 -0.62907,3.05283 -0.98772,4.572 -0.0918,0.38854 -0.28812,0.78275 -0.31047,1.18534 -0.0168,0.30386 0.19194,0.51079 0.32453,0.762 0.27186,0.51502 0.79976,1.2987 0.6068,1.86266 l 0.59267,-0.254 -0.71967,-1.18533 -0.29633,-0.762 0.4798,-1.94733 0.73373,-3.72534 0.508,-2.20133 0.15527,-0.84667 0.14106,-0.42333 -0.6632,-0.93133 -1.93319,-1.89086 -0.29633,-0.73381 -0.56448,-1.27 -1.143,-1.60867 v -1.69333 l -0.0141,-0.74786 0.98781,-0.29633 1.69333,-0.66328 0.508,-0.26806 1.27,0.33867 2.793999,0.84667 1.27,-0.0565 1.524,0.0847 v -0.33867 h -1.862658 l -2.540001,-0.70552 -2.286,-0.67734 -0.84667,-0.2258 -1.86267,0.53619 -0.66319,0.18347 -0.23995,-0.635 -0.73372,-1.524 -1.143,-1.43933 0.57853,-0.93133 1.34053,-2.286 0.18347,-1.94734 0.0847,-0.6773298 -0.0565,-1.27 1.41114,-1.18533 -1.35467,0.42333 0.0847,-0.84667 -0.0847,-0.42333 0.67734,-1.86267 -0.42334,-0.0847 m -8.29733,3.97934 2.032,0.73378 0.73381,0.29633 0.11286,1.1712198 -0.0141,0.59267 -0.55034,0.84667 0.29634,0.6068 -0.0564,0.49386 0.28219,0.42334 -0.127,0.57852 -0.42333,-0.0423 -0.508,-0.0705 -0.77614,-1.05833 -1.2982,-1.524 0.0423,-1.18534 0.254,-1.8626598 m 7.45067,0 c 0,0.55561 -0.0538,1.14074 0,1.69333 0.0291,0.2993498 0.20413,0.7238698 0.0423,1.0159998 -0.0975,0.17602 -0.32876,0.27805 -0.46566,0.42333 -0.3413,0.36229 -0.64821,0.8432 -0.90314,1.27001 -0.16714,0.2799 -0.37347,0.55744 -0.52206,0.84666 -0.0621,0.12074 -0.0759,0.29828 -0.19761,0.381 -0.10541,0.0716 -0.28719,0.0468 -0.4092,0.0705 -0.1303,0.0254 -0.28202,0.10321 -0.40919,0.0141 -0.29625,-0.20735 0.0965,-0.54102 0.19753,-0.71967 0.13927,-0.24638 -0.0648,-0.4406 0.0141,-0.67733 0.0865,-0.25967 0.350011,-0.3733 0.366861,-0.67733 0.0207,-0.37288 -0.371351,-0.43595 -0.423331,-0.76201 -0.0423,-0.26539 0.0632,-0.5051 0.0847,-0.762 0.0296,-0.3552098 -0.19076,-0.6799098 0.0423,-1.0159998 0.15113,-0.21791 0.48793,-0.27035 0.71966,-0.36688 0.599021,-0.24959 1.1999,-0.68146 1.862671,-0.73378 m -4.487331,3.3019998 v 0.508 l -0.42334,-0.0847 0.0847,-0.42333 h 0.33867 m 1.778001,0.67733 h -0.0847 l -0.169341,-0.59266 c 0.44467,0.0117 0.49852,0.24849 0.254,0.59266 m -1.778,2.55414 c 0.26196,-0.0655 0.43561,0.1176 0.677341,0.14106 0.2369,0.023 0.442129,-0.1552 0.677329,-0.1552 1.01617,0 0.723141,1.22504 1.11481,1.778 0.34222,0.48311 0.884091,0.70841 1.157051,1.27 0.32741,0.67336 0.327579,1.80323 -0.493861,2.08848 -1.13817,0.39513 -2.63576,0.22699 -3.81,0.11286 -0.5251,-0.0511 -1.2904,0.0563 -1.66514,-0.42334 -0.6107,-0.78172 0.0364,-2.06375 0.64914,-2.62466 0.2656,-0.24317 0.6267,-0.43401 0.80433,-0.762 0.26941,-0.49734 0.20024,-1.25307 0.889,-1.4252 m 1.86267,5.7432 c 0,1.0524 -0.84387,1.96545 -0.889,3.048 -0.009,0.21996 0.20261,0.90314 -0.21167,0.90314 -0.35788,0 -0.24409,-0.67556 -0.254,-0.90314 -0.0318,-0.73246 -0.4693,-1.46694 -0.776129,-2.11667 -0.146731,-0.31073 -0.372541,-0.58302 -0.409201,-0.93133 h 2.54 m 3.81,4.26152 c 0.424011,-0.0424 0.37778,0.48083 0.45153,0.73381 0.081,0.27762 0.375411,0.63178 0.296331,0.93133 -0.0586,0.22234 -0.283721,0.39226 -0.395051,0.59267 -0.0792,0.14241 -0.14571,0.39514 -0.35281,0.39514 -0.28439,0 -0.254,-0.37626 -0.254,-0.56447 0,-0.54339 -0.165269,-1.16586 -0.0847,-1.69334 0.0282,-0.18457 0.13394,-0.37465 0.338671,-0.39514 m -9.736671,2.34248 c -0.797139,-0.0839 -0.61646,-0.62764 -0.508,-1.18534 0.0428,-0.22005 0.0989,-0.67665 0.26814,-0.83252 0.39218,-0.36145 0.51427,0.32825 0.46567,0.57852 -0.0388,0.19948 -0.04,0.39286 -0.0706,0.59267 -0.0434,0.28431 -0.13259,0.56024 -0.1552,0.84667 m 4.826,-1.4252 c 0.47888,-0.0599 0.75117,0.32258 1.00186,0.6632 0.62069,0.84319 1.09009,1.78502 1.55228,2.70933 0.70392,1.40792 1.18864,2.83997 1.34053,4.40267 0.0281,0.28896 0.11362,0.54855 0.0847,0.84666 -0.13691,1.40826 -0.63128,2.84319 -1.15714,4.14867 -0.47286,1.17416 -1.21666,2.73905 -2.65286,2.87867 -1.62806,0.15824 -2.53771,-1.49124 -3.14681,-2.70934 -0.43849,-0.87706 -0.905,-2.05172 -1.00186,-3.048 -0.0272,-0.27957 0.0272,-0.56709 0,-0.84666 -0.0281,-0.28897 -0.11362,-0.54856 -0.0847,-0.84667 0.18077,-1.85903 0.80899,-3.72119 1.74981,-5.334 0.40708,-0.69791 0.77597,-1.38532 1.27,-2.032 0.26001,-0.34036 0.58708,-0.77546 1.04419,-0.83253 m 6.01134,2.52586 -0.0423,2.10253 -0.45153,0.43747 -0.60681,0.508 v -1.778 l 0.0423,-0.83252 1.05834,-0.43748 m -11.00667,2.794 c -0.22352,-0.12937 -0.37804,-0.33071 -0.59267,-0.4798 -0.176269,-0.12243 -0.475819,-0.14715 -0.564469,-0.36686 -0.149271,-0.37025 0.10465,-0.89476 0.14114,-1.27 0.0123,-0.1259 -0.0383,-0.29735 0.0423,-0.4092 0.16146,-0.2242 0.799079,-2.5e-4 0.931329,0.18339 0.10651,0.148 0.0423,0.4765 0.0423,0.64914 v 1.69333 m 11.00667,0.84667 v 1.35467 l -0.0988,0.57852 -0.57853,0.14114 -0.67733,0.127 0.16933,-1.43933 0.0988,-0.57853 1.08653,-0.18347 m -10.668,2.54 -1.185329,-0.33867 -0.16934,-2.032 1.086529,0.11286 0.127,0.47981 0.14114,1.778 m 9.82133,2.96333 -0.508,-0.0847 -0.762,0.0847 c 0.1563,-0.53992 0.20557,-1.5179 0.62086,-1.93319 0.17907,-0.17907 0.9807,-0.0943 1.05834,0.15519 0.0472,0.15122 -0.0412,0.35747 -0.0705,0.508 -0.0834,0.42901 -0.14292,0.8785 -0.33867,1.27 m -9.22867,0.0847 c -0.20091,0 -0.49454,0.0544 -0.67733,-0.0423 -0.38134,-0.20193 -0.53171,-1.01101 -0.60681,-1.397 -0.0244,-0.12565 -0.10439,-0.28685 -0.0282,-0.4092 0.12523,-0.20108 0.69656,-0.2772 0.84667,-0.0847 0.19507,0.2501 0.2236,0.78376 0.32453,1.08652 0.0981,0.29423 0.14114,0.53704 0.14114,0.84668 m 8.55133,1.18532 c -0.14571,0.69215 -0.98645,2.00306 -1.778,1.524 l 0.57853,-1.27 0.3528,-0.47979 0.84667,0.22579 m -7.28133,1.524 c -0.48421,0.1911 -0.83626,-0.41622 -1.11481,-0.762 -0.11269,-0.13987 -0.31674,-0.30988 -0.29633,-0.508 0.0533,-0.51789 0.59834,-0.15476 0.71966,0.0847 0.0873,0.17204 0.16604,0.34095 0.26814,0.508 0.13945,0.22827 0.29684,0.44839 0.42334,0.67733 z"
       style="fill:#000000;stroke:none;stroke-width:0.0846667" />
  </g>
</svg>
