<?xml version="1.0" encoding="UTF-8" standalone="no"?>
<svg
   xmlns:dc="http://purl.org/dc/elements/1.1/"
   xmlns:cc="http://creativecommons.org/ns#"
   xmlns:rdf="http://www.w3.org/1999/02/22-rdf-syntax-ns#"
   xmlns:svg="http://www.w3.org/2000/svg"
   xmlns="http://www.w3.org/2000/svg"
   xmlns:sodipodi="http://sodipodi.sourceforge.net/DTD/sodipodi-0.dtd"
   xmlns:inkscape="http://www.inkscape.org/namespaces/inkscape"
   sodipodi:docname="butterfly.svg"
   inkscape:version="1.0 (4035a4fb49, 2020-05-01)"
   id="svg159"
   version="1.1"
   viewBox="0 0 63.85046 58.304451"
   height="58.304451mm"
   width="63.85046mm">
  <defs
     id="defs153" />
  <sodipodi:namedview
     inkscape:window-maximized="1"
     inkscape:window-y="0"
     inkscape:window-x="0"
     inkscape:window-height="1144"
     inkscape:window-width="1920"
     fit-margin-bottom="0"
     fit-margin-right="0"
     fit-margin-left="0"
     fit-margin-top="0"
     showgrid="false"
     inkscape:document-rotation="0"
     inkscape:current-layer="layer1"
     inkscape:document-units="mm"
     inkscape:cy="546.81485"
     inkscape:cx="380.94043"
     inkscape:zoom="0.35"
     inkscape:pageshadow="2"
     inkscape:pageopacity="0.0"
     borderopacity="1.0"
     bordercolor="#666666"
     pagecolor="#ffffff"
     id="base" />
  <metadata
     id="metadata156">
    <rdf:RDF>
      <cc:Work
         rdf:about="">
        <dc:format>image/svg+xml</dc:format>
        <dc:type
           rdf:resource="http://purl.org/dc/dcmitype/StillImage" />
        <dc:title></dc:title>
      </cc:Work>
    </rdf:RDF>
  </metadata>
  <g
     transform="translate(-5.0428443,-3.48857)"
     id="layer1"
     inkscape:groupmode="layer"
     inkscape:label="Layer 1">
    <path
       id="path2947"
       d="m 35.334413,33.018895 h 0.169342 c 0.30031,1.630521 -0.0755,3.347641 0.0847,4.995341 0.0278,0.285319 0.141571,0.56134 0.169341,0.846659 0.0563,0.578871 0.006,1.120402 0.14114,1.693341 0.146719,0.621541 0.23283,1.19955 0.522049,1.778 0.100841,0.201671 0.195072,0.429001 0.43747,0.493861 0.297521,0.0797 0.474731,-0.18288 0.592672,-0.409202 0.266869,-0.512059 0.584539,-1.024038 0.592669,-1.608659 0.01241,-0.898059 0.27508,-1.818301 0.32453,-2.709341 0.02051,-0.3683 -0.0395,-0.813049 -0.0705,-1.185328 -0.05,-0.60003 0.0356,-1.189821 0.0847,-1.778 0.01749,-0.20946 -0.0733,-0.389041 -0.0847,-0.592672 -0.0265,-0.47684 0.0469,-0.960538 0.0847,-1.439328 0.819578,0.58234 0.998058,1.627288 1.213529,2.54 0.121079,0.512659 0.305729,1.023879 0.45161,1.524 0.0575,0.197109 0.0314,0.397259 0.112861,0.592669 0.305818,0.73406 0.687919,1.426549 0.903139,2.201331 0.201681,0.726019 0.36771,1.502749 0.64906,2.201328 0.20125,0.499541 0.457279,1.011862 0.62094,1.524 0.0705,0.22098 0.0616,0.45974 0.155199,0.677341 0.303191,0.70417 0.616371,1.383541 0.860801,2.116659 0.137419,0.412332 0.17916,0.859031 0.31039,1.27 0.100921,0.315902 0.288711,0.600041 0.366951,0.931341 0.212849,0.90178 0.4997,1.79578 0.677328,2.709331 0.0742,0.381849 -0.217929,0.82931 0.0564,1.185328 0.375161,0.486921 0.82567,-0.046 1.15714,-0.211659 0.26272,-0.13141 0.72381,-0.0528 0.93133,0.14114 0.232921,0.21759 0.169331,0.54161 0.169331,0.832519 0,0.853191 -0.531032,2.121162 0.508,2.554142 0.17095,0.0712 0.40336,0.154268 0.592669,0.14106 0.809239,-0.0561 0.88578,-0.886291 1.35467,-1.34053 0.26289,-0.25468 0.843531,-0.502071 1.18533,-0.635 0.630259,-0.24511 1.092121,0.509609 1.778,0.268139 0.38109,-0.134199 0.43256,-0.626959 0.69147,-0.903139 0.419529,-0.447551 1.258999,-0.266531 1.66506,0.112858 0.945891,0.88392 1.40843,2.172041 1.820331,3.35847 0.178139,0.512911 0.50995,0.96334 0.56447,1.524 0.0473,0.48641 -0.0461,0.9652 0,1.439341 0.0726,0.74693 0.575649,1.86122 1.439339,1.933189 0.27736,0.0231 0.417999,-0.209299 0.592661,-0.381 0.71061,-0.698328 0.964438,-1.496309 0.649139,-2.48353 -0.198879,-0.622549 -0.787061,-1.146379 -1.12894,-1.693328 -0.75743,-1.211921 -1.179409,-2.685711 -1.524,-4.064 -0.0687,-0.274571 -0.0594,-0.579202 -0.14106,-0.846672 -0.274399,-0.89789 -0.702979,-1.540849 -0.55033,-2.54 0.0745,-0.48768 0.529079,-0.592579 0.635,-1.016 0.0755,-0.302088 -0.12641,-0.572849 0.19753,-0.81847 0.248409,-0.188299 0.56625,-0.0739 0.846661,-0.112858 0.39828,-0.0553 0.779608,-0.47625 0.903139,-0.846672 0.167299,-0.50215 0.0897,-1.36203 -0.0423,-1.862659 -0.0743,-0.281519 -0.33257,-0.6356 -0.225811,-0.931341 0.14868,-0.411808 0.442561,-0.831929 0.691481,-1.185328 0.114379,-0.16247 0.16171,-0.320802 0.36686,-0.395142 0.23427,-0.0848 0.519089,-0.005 0.762,-0.0282 0.39937,-0.0389 0.70044,-0.260271 1.016,-0.479809 0.124199,-0.0864 0.250609,-0.129122 0.31047,-0.282191 0.266949,-0.68352 -0.216662,-1.50114 -0.592671,-2.032 -0.19829,-0.279911 -0.570649,-0.47498 -0.606799,-0.84667 -0.0522,-0.536961 0.34171,-1.289981 0.663189,-1.69333 0.192111,-0.240959 0.514012,-0.3468 0.56447,-0.677339 0.130051,-0.851061 -0.315719,-1.742771 -0.87486,-2.370661 -0.155779,-0.174919 -0.39751,-0.23436 -0.536279,-0.423339 -0.184481,-0.251291 -0.0632,-0.580811 -0.225721,-0.846661 -0.227158,-0.371769 -0.585978,-0.59902 -0.846659,-0.931339 -0.345109,-0.439841 -0.42689,-1.003631 -0.762,-1.439331 -0.25096,-0.32622 -0.71967,-0.65168 -1.072481,-0.84667 v -0.0847 c 0.4186,-0.18728 0.887651,0 1.35467,0 1.39048,0 3.01227,0.0601 3.951141,-1.18534 0.274231,-0.36389 0.4351,-0.76216 0.564388,-1.18533 0.243917,-0.79815 0.681228,-1.5505 0.874938,-2.37066 0.0717,-0.30379 0.0643,-0.62417 0.14106,-0.93134 0.100751,-0.40276 0.25205,-0.79155 0.36694,-1.18533 0.136911,-0.46939 0.0391,-1.03471 0.14106,-1.524 0.620101,-2.97637 0.724831,-6.06908 1.693331,-8.974671 0.348739,-1.04605 0.8084,-2.08864 1.354669,-3.0480004 0.162639,-0.28549 0.419859,-0.53636 0.536281,-0.84666 0.126659,-0.33791 0.079,-0.66794 0.112858,-1.016 0.0446,-0.45932 0.19862,-0.88926 0.0565,-1.35467 -0.22996,-0.75244 -0.84718,-1.25849 -1.495811,-1.63689 -1.50486,-0.87785 -3.525351,-0.98606 -5.249326,-0.81844 -1.71755,0.16698 -3.139191,0.85482 -4.74133,1.41111 -1.300912,0.45171 -2.81568,0.88934 -3.979342,1.66508 -0.341119,0.22741 -0.572508,0.57599 -0.931328,0.79028 -1.23004,0.73457 -2.39632,1.44331 -3.47133,2.39886 -0.96469,0.8575004 -1.7692,1.8464104 -2.62467,2.7940004 -0.881721,0.976631 -1.87901,1.828631 -2.681142,2.878671 -0.805518,1.05452 -1.53924,2.20124 -2.257718,3.302 -0.52976,0.81153 -1.156801,1.52755 -1.63694,2.37066 -0.24257,0.42596 -0.53434,0.97155 -0.677342,1.43934 -0.13022,0.42629 0.0508,0.72771 -0.45153,0.93133 -0.0847,-0.40268 0.265602,-0.69334 0.141142,-1.10067 -0.125391,-0.41029 -0.606721,-0.6648 -0.649142,-1.10066 -0.0384,-0.39497 0.125402,-0.87453 0.169342,-1.27 0.0557,-0.50115 0.123528,-1.04784 0.282188,-1.524 0.202272,-0.60673 0.599612,-1.1005 0.959612,-1.60867 0.77919,-1.10008 1.584288,-2.15672 2.30006,-3.302 0.29963,-0.479381 0.712129,-1.117181 0.77614,-1.693331 0.0588,-0.52951 -0.23952,-1.01863 -0.169342,-1.524 0.0406,-0.29244 0.501571,-0.7779204 0.225812,-1.0724804 -0.258231,-0.27576 -0.769872,-0.003 -0.81847,0.31048 -0.129972,0.8390404 0.262969,1.7139004 0.0565,2.5400004 -0.120989,0.48395 -0.469141,0.94039 -0.733809,1.354661 -0.481661,0.75387 -1.02675,1.41732 -1.58047,2.11667 -0.679791,0.85869 -1.201081,1.91778 -1.72153,2.87867 -0.344252,0.6355 -0.423331,1.49275 -0.423331,2.20133 0,0.33392 0.003,0.71467 -0.42333,0.762 -0.24283,0.027 -0.48074,-0.10761 -0.56447,-0.33867 -0.0673,-0.18584 -0.01,-0.40098 -0.0282,-0.59266 -0.0426,-0.43782 -0.12573,-0.93481 -0.254,-1.35467 -0.0837,-0.27415 -0.10473,-0.57929 -0.19753,-0.84667 -0.17136,-0.49335 -0.610269,-0.9116 -0.87494,-1.35466 -0.197019,-0.32995 -0.34045,-0.69986 -0.56439,-1.016 -0.82668,-1.16705 -1.898399,-2.22953 -2.46947,-3.556001 -0.33909,-0.78766 0.0909,-1.59055 -0.0282,-2.37067 -0.0301,-0.1971904 0.0724,-0.5862304 -0.11294,-0.7196704 -0.165269,-0.11904 -0.66675,-0.0881 -0.73372,0.127 -0.10888,0.34951 0.3197,0.6698904 0.324521,1.0160004 0.004,0.2551 -0.144611,0.50766 -0.169331,0.762 -0.0489,0.50301 0.0329,1.05004 0.19753,1.524 0.118531,0.34138 0.38303,0.61426 0.550331,0.931341 0.745749,1.41291 1.999239,2.48936 2.779948,3.89466 0.117851,0.21218 0.135382,0.45297 0.225721,0.67734 0.32004,0.79459 0.63703,1.58115 0.64914,2.45533 0.004,0.28922 0.0831,0.56447 -0.0282,0.84667 -0.153241,0.38845 -0.596471,0.49504 -0.705609,0.93133 -0.103801,0.41529 0.223859,0.62306 0.141139,1.016 -0.388789,-0.47659 -0.395819,-0.98586 -0.635,-1.524 -0.259249,-0.58335 -0.57853,-1.23605 -0.917191,-1.778 -0.248248,-0.39717 -0.592079,-0.73034 -0.874948,-1.10067 -0.8426,-1.10304 -1.496061,-2.36338 -2.342391,-3.47133 -0.91812,-1.20184 -2.0706,-2.204551 -3.10447,-3.302001 -0.45627,-0.48438 -0.7719,-1.07434 -1.27,-1.524 -2.80653,-2.5336504 -5.87265,-4.7170304 -9.482664,-5.8702204 -1.061805,-0.33919 -2.028698,-0.95291 -3.132667,-1.21356 -0.224705,-0.053 -0.45085,-0.006 -0.677333,-0.0282 -0.234865,-0.0228 -0.442468,-0.1465 -0.677333,-0.16933 -0.820591,-0.0798 -1.804079,-0.0798 -2.624668,0 -0.234865,0.0228 -0.442468,0.1465 -0.677333,0.16933 -0.980339,0.0953 -1.93747,0.34061 -2.709334,1.016 -0.867614,0.75915 -1.170263,2.00118 -0.903114,3.13267 0.128718,0.54516 0.464694,0.95622 0.719667,1.43933 0.401668,0.7610704 0.857073,1.5754804 1.199448,2.3706704 0.274768,0.63821 0.405274,1.35856 0.536219,2.032001 0.232198,1.19413 0.447277,2.35077 0.564447,3.556 0.06816,0.70129 0.250444,1.42231 0.395139,2.11666 0.05842,0.28042 7.68e-4,0.56447 0.02819,0.84667 0.02862,0.29405 0.158665,0.56244 0.225805,0.84667 0.167726,0.7106 0.08729,1.503 0.310388,2.20133 0.118618,0.37109 0.341208,0.72221 0.451612,1.10067 0.394971,1.35424 0.485227,3.16636 1.552195,4.23333 0.532724,0.53272 1.314958,0.81847 2.032,0.9878 0.620693,0.14656 1.654134,0.12472 2.286001,0.0282 0.159512,-0.0244 0.268393,-0.14639 0.423333,-0.16934 0.111591,-0.0165 0.254,0.1524 0.254,0.254 0,0.17831 -0.303784,0.319619 -0.423333,0.409199 -0.326729,0.24511 -0.516382,0.52061 -0.733807,0.860801 -0.167725,0.262559 -0.197272,0.597159 -0.381,0.846669 -0.289135,0.392851 -0.721951,0.685041 -0.973665,1.10067 -0.161036,0.26594 -0.141649,0.598932 -0.310388,0.846661 -0.122174,0.179329 -0.324275,0.26484 -0.465667,0.423339 -0.185166,0.20743 -0.347558,0.52256 -0.493945,0.762002 -0.276777,0.452959 -0.463296,1.451269 -0.155194,1.933189 0.109728,0.171709 0.316907,0.266359 0.437471,0.43747 0.278047,0.394891 0.591058,1.114891 0.536194,1.608669 -0.03793,0.341292 -0.294215,0.500042 -0.479806,0.762 -0.386417,0.545592 -0.72644,1.256541 -0.620859,1.947331 0.189399,1.239441 1.922101,0.592759 2.469471,1.354669 0.202946,0.28262 0.672847,1.00847 0.663195,1.354672 -0.0096,0.345268 -0.308779,0.755309 -0.395139,1.100659 -0.149438,0.597921 -0.04403,1.124291 0.169332,1.693341 0.299552,0.798658 0.995596,0.46041 1.580474,0.762 0.350858,0.18093 0.18923,0.54229 0.282194,0.846659 0.142748,0.467111 0.649139,0.721961 0.649139,1.27 0,0.715521 -0.311743,1.27517 -0.479806,1.947341 -0.196088,0.78435 -0.296333,1.596729 -0.522055,2.370659 -0.08856,0.303699 -0.29193,0.555421 -0.409278,0.846669 -0.28956,0.718992 -0.521801,1.438741 -0.889,2.116672 -0.270342,0.49911 -0.715179,0.92193 -0.959527,1.439328 -0.309626,0.655662 -0.189569,1.723732 0.239859,2.286 0.153502,0.200912 0.406908,0.555922 0.64914,0.649142 0.484886,0.186428 1.226905,-0.40395 1.41114,-0.81847 0.15621,-0.35162 0.303614,-0.88511 0.282194,-1.27 -0.01753,-0.31615 -0.116417,-0.60444 -0.08467,-0.931341 0.0547,-0.562689 0.272796,-1.094819 0.479806,-1.608659 0.359325,-0.89214 0.639233,-1.753621 1.185332,-2.54 0.23622,-0.34019 0.59165,-1.023882 0.95953,-1.227672 0.12547,-0.0695 0.28761,-0.0338 0.42333,-0.0565 0.49581,-0.0826 0.82321,-0.14106 1.15714,0.352801 0.16925,0.250359 0.15375,0.536109 0.45153,0.691478 0.68351,0.356611 1.14528,-0.420968 1.778,-0.254 0.40614,0.107101 0.97002,0.358561 1.27,0.663191 0.35356,0.359159 0.42426,1.02057 0.93133,1.22767 0.18144,0.0741 0.40064,0.0423 0.59267,0.0423 0.13597,0 0.29226,0.0173 0.42333,-0.0282 1.0734,-0.372708 0.508,-1.868088 0.508,-2.681139 0,-0.27636 -0.044,-0.54864 0.16933,-0.762 0.69037,-0.69038 1.42079,0.718481 2.01786,0.155191 0.30226,-0.28507 0.0864,-0.599781 0.0423,-0.917191 -0.0296,-0.21286 0.0731,-0.472779 0.127,-0.677339 0.1899,-0.719661 0.33223,-1.487421 0.55033,-2.20133 0.21133,-0.69156 0.50952,-1.321142 0.67733,-2.032 0.0909,-0.38481 0.30599,-0.739051 0.45161,-1.10067 0.45077,-1.119201 0.748459,-2.263391 1.185339,-3.386661 0.35306,-0.907971 0.58462,-1.876809 0.903052,-2.794 0.239019,-0.68834 0.59123,-1.315551 0.790278,-2.032 0.285581,-1.02819 0.41783,-2.13817 0.818391,-3.132669 0.191849,-0.47625 0.546611,-0.880531 0.733801,-1.35467 m -18.372657,-4.572 c 0.563711,-0.35602 0.989918,-0.24654 1.608668,-0.36686 0.28668,-0.0558 0.56464,-0.13724 0.84666,-0.21166 0.24731,-0.0653 1.33037,-0.14969 1.143,-0.60681 -0.12183,-0.29718 -0.8846,-0.22885 -1.143,-0.254 -0.95665,-0.0931 -1.929717,-0.25104 -2.878661,-0.40919 -0.415375,-0.0693 -0.784776,-0.0486 -1.016,-0.43748 0.361188,-0.10456 0.741087,-0.0727 1.100666,-0.19752 0.773346,-0.26856 1.456095,-0.73093 2.201335,-1.07247 0.47735,-0.21878 0.96266,-0.35256 1.43933,-0.56448 0.39141,-0.17399 0.79468,-0.2479 1.18533,-0.39505 0.12438,-0.0469 0.28973,-0.16053 0.29634,-0.31047 0.0174,-0.39303 -1.02583,-0.50403 -1.31234,-0.508 -1.55854,-0.0217 -3.089481,-0.16934 -4.656661,-0.16934 v -0.33866 c 1.355428,0 2.632371,-0.72348 3.810001,-1.31234 0.23655,-0.11828 1.28058,-0.70485 0.762,-1.016 -0.25096,-0.15062 -0.81407,-0.0423 -1.10067,-0.0423 -0.3821,0 -0.72653,-0.0483 -1.10067,-0.0847 -0.508333,-0.0494 -1.023445,0.0617 -1.523995,-0.0565 -0.3948,-0.0932 -0.887391,0.0657 -1.016,-0.36686 l 4.148665,-1.60867 c -0.21666,-0.74862 -1.67437,-1.14173 -2.370665,-1.27 0.127085,-0.42756 0.40386,-0.27737 0.761995,-0.36686 0.22005,-0.055 0.38312,-0.21243 0.59267,-0.28228 0.29134,-0.0971 0.86944,-0.0251 0.95953,-0.45152 0.0393,-0.18593 -0.25316,-0.46677 -0.36686,-0.59267 -0.12912,-0.143 -0.27339,-0.28838 -0.42334,-0.4092 -0.2297,-0.18508 -0.51587,-0.28202 -0.762,-0.43747 0.17602,-0.28007 0.82694,-0.67733 1.18534,-0.67733 0.45609,0 0.57268,0.37143 1.016,-0.0282 0.21564,-0.194481 0.23088,-0.633901 0.14113,-0.903141 -0.0551,-0.16527 -0.24697,-0.31979 -0.21166,-0.508 0.0427,-0.22793 0.39624,-0.27246 0.57853,-0.31048 0.48082,-0.10016 0.83472,-0.26551 0.9878,-0.79019 0.0799,-0.27398 0.11633,-1.08094 0.45153,-1.1006704 0.72398,-0.0426 1.47201,0.8769004 1.8768,1.3546704 0.15986,0.18872 0.38168,0.35077 0.46567,0.59267 0.0752,0.21666 -0.0336,0.46905 0.0705,0.67733 0.14698,0.29405 0.46304,0.5798 0.66319,0.84667 0.14521,0.193541 0.28262,0.418671 0.47981,0.564471 0.24164,0.17856 0.51384,0.24993 0.66319,0.53619 0.0857,0.16426 0.0684,0.33909 0.127,0.508 0.19389,0.55829 0.57311,1.22437 0.93134,1.69334 0.41359,0.54144 0.93649,0.96469 1.41114,1.43933 0.21293,0.21294 0.36567,0.47244 0.59266,0.67733 0.4136,0.37338 0.89493,0.68512 1.27,1.10067 0.52248,0.5787 0.90009,1.25281 1.382859,1.86267 0.28321,0.35771 0.70748,0.62653 0.94547,1.016 0.292531,0.47862 0.346972,1.06857 0.663202,1.524 0.202438,0.2915 0.820669,0.59452 0.889,0.93133 0.0613,0.30217 -0.259932,0.50817 -0.493861,0.59267 -0.411059,0.14842 -0.631449,-0.029 -1.016,-0.14114 -0.192029,-0.056 -0.39743,-0.0125 -0.592669,-0.0423 -0.188471,-0.0288 -0.620522,-0.23715 -0.663191,0.0988 -0.0586,0.46135 0.777491,0.67005 1.086519,0.79019 0.59309,0.23063 1.228262,0.79147 1.552202,1.32647 0.117089,0.19321 0.357119,0.51486 0.296328,0.762 -0.0697,0.28347 -0.698918,0.16934 -0.917189,0.16934 -0.993399,0 -2.156211,0.006 -3.13267,-0.19753 -0.54441,-0.11345 -1.13589,-0.0565 -1.69333,-0.0565 -0.61104,0 -1.25493,-0.0591 -1.86267,0 -0.3749,0.0364 -0.72576,0.21751 -1.10066,0.254 -1.90949,0.18567 -3.82533,0.16933 -5.75734,0.16933 -0.8332,0 -1.7112,0.0806 -2.54,0 -0.417147,-0.0405 -0.777235,-0.20218 -0.931328,-0.59267 m 38.777329,-14.13933 -0.762,0.49386 -0.395142,0.35281 -0.437388,0.508 0.57853,0.4798 0.508,0.0705 0.508,0.26814 0.846669,0.36686 c -0.612571,0.0483 -1.14029,0.35459 -1.693341,0.59267 -0.399198,0.17187 -0.74921,0.27525 -0.762,0.762 l 2.032,0.66319 2.201341,0.86081 v 0.16933 c -1.06926,0.30954 -2.357969,0.33867 -3.471341,0.33867 -0.321389,0 -1.194729,-0.15172 -1.425189,0.0988 -0.328681,0.35721 0.591061,0.8388 0.83253,0.95953 0.61222,0.30607 1.22936,0.54923 1.862659,0.80434 0.561851,0.22631 1.074171,0.49165 1.693341,0.508 v 0.33866 c -1.48032,0 -2.928789,0.10795 -4.402669,0.16934 -0.28702,0.0119 -1.29472,0.12081 -1.312331,0.508 -0.008,0.16586 0.16577,0.25891 0.296331,0.31047 0.39116,0.15426 0.794599,0.21277 1.185328,0.381 0.448821,0.19321 0.908981,0.32402 1.354672,0.52205 0.720429,0.32021 1.382178,0.74846 2.116669,1.04428 0.40758,0.16417 0.87697,0.11667 1.27,0.28219 v 0.16934 c -0.371099,0.22462 -0.69334,0.19736 -1.100669,0.28219 -0.923631,0.19245 -1.864021,0.22606 -2.794,0.381 -0.247232,0.0412 -1.243581,0.008 -1.227672,0.35281 0.01651,0.3578 0.64085,0.38921 0.889,0.43747 0.452631,0.088 0.900602,0.24105 1.354672,0.31039 0.556429,0.085 0.933109,0.0464 1.439328,0.3528 -0.115398,0.54814 -0.611629,0.59267 -1.100659,0.59267 h -3.217341 c -0.722119,0 -1.483098,0.0699 -2.201328,0 -0.231312,-0.0225 -0.445011,-0.16933 -0.677331,-0.16933 -0.29346,0 -0.541869,0.19473 -0.846669,0.16933 -0.763691,-0.0637 -1.518161,-0.34866 -2.286,-0.42333 -1.005922,-0.0978 -2.211411,-0.0978 -3.217331,0 -0.285329,0.0278 -0.56134,0.14156 -0.846669,0.16933 -0.643041,0.0625 -1.30429,-0.0625 -1.947331,0 -0.512659,0.0499 -1.002199,0.0847 -1.524,0.0847 0,-1.04851 0.806789,-1.70519 1.693331,-2.17314 0.29854,-0.15757 1.252979,-0.4064 1.171189,-0.87486 -0.0577,-0.33079 -0.47294,-0.13047 -0.663189,-0.0988 -0.168651,0.0281 -0.339341,1.7e-4 -0.508,0.0283 -0.401831,0.067 -1.608672,0.5218 -1.608672,-0.3528 0,-0.33579 0.628991,-0.68699 0.83253,-0.93134 0.37719,-0.45263 0.4357,-1.02531 0.719672,-1.524 0.209889,-0.36855 0.538898,-0.62171 0.81847,-0.93133 0.595969,-0.66015 1.014479,-1.46854 1.622809,-2.11667 0.29582,-0.3153 0.680799,-0.55685 1.00186,-0.84666 0.80408,-0.72594 1.65345,-1.56481 2.271861,-2.45534 0.249338,-0.35907 0.574799,-0.86123 0.733798,-1.27 0.0886,-0.22775 0.0132,-0.45974 0.155202,-0.67733 0.184319,-0.28228 0.48192,-0.40293 0.719659,-0.62086 0.250621,-0.2297 0.40903,-0.553721 0.635,-0.804331 0.161459,-0.17907 0.41733,-0.29346 0.522139,-0.52214 0.0831,-0.18111 -0.0523,-0.32843 -0.0423,-0.508 0.01741,-0.31412 0.3937,-0.5544 0.592669,-0.762 0.48192,-0.50284 1.03818,-1.41309 1.862662,-1.4252 0.40573,-0.006 0.380748,0.97604 0.536199,1.25586 0.166031,0.29888 0.404029,0.51063 0.733801,0.60681 0.196008,0.0571 0.599019,0.0603 0.719669,0.254 0.133011,0.21361 -0.136909,0.47752 -0.211669,0.66319 -0.14622,0.36305 0.0527,0.69766 0.338669,0.931341 0.313769,0.25637 0.509521,-0.0612 0.846669,-0.0847 0.372782,-0.0259 0.99949,0.39006 1.185331,0.67733 m -21.336,15.663329 c -0.0607,0.576842 -0.86936,0.954881 -1.354669,1.157142 -0.21894,0.0912 -0.648711,0.22606 -0.635,0.536199 0.0113,0.254249 0.288798,0.25772 0.465669,0.225801 0.34934,-0.0631 1.422231,-0.539922 1.495809,0.112858 0.0302,0.26857 -0.255699,0.671412 -0.33867,0.931341 -0.357629,1.11955 -1.046559,2.050029 -1.467609,3.132659 -0.432821,1.113031 -0.940649,2.197952 -1.35467,3.302 -0.11083,0.295661 -0.11963,0.63763 -0.22572,0.931341 -0.11802,0.326811 -0.39378,0.6013 -0.52214,0.931331 -0.36644,0.94234 -0.62289,1.99576 -0.94547,2.963328 -0.29972,0.89916 -0.53789,1.820082 -0.84667,2.709341 -0.1082,0.31174 -0.12886,0.848699 -0.381,1.08652 -0.24909,0.235039 -0.70569,0.0867 -1.00186,0.352811 -0.25002,0.224708 -0.53043,0.614759 -0.64914,0.931328 -0.1474,0.39311 -0.0671,0.876562 -0.53619,1.016 -0.11701,-0.234019 -0.23131,-0.45728 -0.508,-0.522139 -0.2474,-0.0579 -0.45424,0.0925 -0.64914,-0.155189 -0.28558,-0.362971 -0.20955,-0.886881 -0.40919,-1.27 -0.16256,-0.311912 -0.80095,-0.62992 -1.143,-0.663192 -0.27695,-0.0269 -0.86191,0.16713 -1.10067,0.310381 -0.15807,0.0948 -0.28592,0.398621 -0.508,0.31048 -0.17729,-0.0704 -0.22056,-0.31251 -0.2822,-0.465669 -0.15671,-0.388961 -0.32088,-0.793242 -0.45161,-1.185331 -0.058,-0.174159 -0.021,-0.3385 -0.11286,-0.508 -0.2021,-0.373131 -0.58538,-0.888241 -1.016,-1.001861 -0.29142,-0.077 -0.65489,0.0817 -0.93133,-0.0565 -0.19956,-0.0997 -0.32605,-0.31106 -0.508,-0.43747 -0.5262,-0.365421 -1.041059,-0.2921 -1.608665,-0.11286 -0.221403,-0.52595 0.178732,-1.42892 0.52214,-1.86267 0.1905,-0.240699 0.618405,-0.581231 0.550325,-0.93133 -0.175167,-0.900679 -0.847675,-1.738879 -1.665131,-2.159 -0.272542,-0.140039 -0.988992,-0.0455 -1.143,-0.381 -0.100415,-0.218779 0.188129,-0.52282 0.310472,-0.677331 0.404961,-0.511559 1.031748,-0.649819 1.411055,-1.185339 0.456607,-0.644559 -0.484547,-1.550159 0.127,-2.187191 0.28829,-0.30031 1.271604,-0.0605 1.665134,-0.0988 0.74304,-0.0722 1.39006,-0.447712 2.032,-0.804331 0.2303,-0.127931 0.54102,-0.176109 0.74786,-0.338669 0.55448,-0.435692 -0.59503,-0.685631 -0.83252,-0.804331 l 1.66513,-1.19947 0.381,-0.95953 0.74787,-0.29633 1.60866,-0.5362 2.032,-0.4798 h 2.54 1.947331 l 0.762,0.16933 2.116669,0.169331 m 18.880669,3.132669 c -0.226988,0.113451 -0.865208,0.209971 -0.917199,0.508 -0.0644,0.368639 0.593259,0.51452 0.83253,0.620861 0.439251,0.195239 0.832699,0.49716 1.27,0.69147 0.266951,0.118618 0.80577,0.122939 1.100669,0.127 0.332142,0.005 1.091012,-0.17322 1.340522,0.0282 0.27001,0.21793 0.24901,0.934969 0.155279,1.241801 -0.0713,0.233259 -0.267121,0.413859 -0.197609,0.677339 0.28753,1.08957 1.819399,1.02277 1.919139,2.286 -1.040889,0.301331 -2.062819,0.621371 -2.554139,1.69333 -0.122341,0.266949 -0.29159,0.71315 -0.21167,1.016 0.0825,0.31251 0.355939,0.50182 0.52214,0.762 0.322839,0.505209 0.635,1.17433 0.635,1.778 -0.595882,-0.01569 -1.006261,-0.287099 -1.608662,0.0141 -0.263488,0.131741 -0.415459,0.475739 -0.677338,0.56439 -0.315381,0.10676 -0.69655,-0.0687 -1.016,0.0423 -0.327912,0.114051 -0.64329,0.528579 -0.804331,0.81847 -0.185841,0.334441 -0.330449,0.81865 -0.43747,1.185341 -0.100499,0.34476 -0.0714,0.720601 -0.39506,0.973659 -0.376679,0.294471 -0.78291,-0.24883 -1.157139,-0.352801 -0.540851,-0.150198 -1.067642,-0.0259 -1.524,0.324612 -0.48023,0.368808 -0.29133,1.055198 -0.635,1.495719 -0.13021,0.16696 -0.37465,0.0633 -0.550331,0.127 -0.338159,0.12251 -0.385569,0.483111 -0.762,0.56447 -0.277789,-0.65972 -0.434419,-1.4395 -1.016,-1.947331 -0.30802,-0.268988 -0.859959,-0.14351 -1.058331,-0.508 -0.251798,-0.462788 -0.300148,-1.110488 -0.493858,-1.608669 -0.628401,-1.615771 -1.146312,-3.24603 -1.608672,-4.910659 -0.441708,-1.59013 -1.36508,-3.01431 -1.862669,-4.572 -0.21463,-0.67192 -0.575051,-1.31945 -0.889,-1.947341 -0.12124,-0.24248 -0.139779,-0.524931 -0.268139,-0.762 -0.29387,-0.542539 -0.77656,-1.146969 -0.846662,-1.778 -0.10804,-0.97205 0.93404,-0.465151 1.439331,-0.366861 0.195239,0.0379 0.541949,-0.0394 0.493861,-0.31047 -0.0455,-0.256368 -0.468371,-0.3683 -0.663192,-0.465669 -0.511389,-0.255691 -1.224539,-0.52501 -1.354669,-1.143 0.69283,-0.291759 1.471509,-0.072 2.201331,-0.183469 1.045379,-0.15968 2.065189,-0.15519 3.132669,-0.15519 1.435349,0 2.701121,0.0255 4.064,0.479798 0.597659,0.199221 1.193379,0.371272 1.778,0.606732 0.168151,0.0677 0.440859,0.10735 0.57853,0.225798 0.207769,0.178652 0.103381,0.64194 0.296331,0.889 0.434678,0.55635 1.527558,0.50233 1.749808,1.27 z"
       style="fill:#000000;stroke:none;stroke-width:0.0846667" />
  </g>
</svg>
