<?xml version="1.0" encoding="UTF-8" standalone="no"?>
<svg
   xmlns:dc="http://purl.org/dc/elements/1.1/"
   xmlns:cc="http://creativecommons.org/ns#"
   xmlns:rdf="http://www.w3.org/1999/02/22-rdf-syntax-ns#"
   xmlns:svg="http://www.w3.org/2000/svg"
   xmlns="http://www.w3.org/2000/svg"
   xmlns:sodipodi="http://sodipodi.sourceforge.net/DTD/sodipodi-0.dtd"
   xmlns:inkscape="http://www.inkscape.org/namespaces/inkscape"
   sodipodi:docname="centipede.svg"
   inkscape:version="1.0 (4035a4fb49, 2020-05-01)"
   id="svg1964"
   version="1.1"
   viewBox="0 0 19.049999 19.103424"
   height="19.103424mm"
   width="19.049999mm">
  <defs
     id="defs1958" />
  <sodipodi:namedview
     inkscape:window-maximized="1"
     inkscape:window-y="0"
     inkscape:window-x="0"
     inkscape:window-height="1144"
     inkscape:window-width="1920"
     fit-margin-bottom="0"
     fit-margin-right="0"
     fit-margin-left="0"
     fit-margin-top="0"
     showgrid="false"
     inkscape:document-rotation="0"
     inkscape:current-layer="layer1"
     inkscape:document-units="mm"
     inkscape:cy="-17.210781"
     inkscape:cx="-55.944897"
     inkscape:zoom="2.8"
     inkscape:pageshadow="2"
     inkscape:pageopacity="0.0"
     borderopacity="1.0"
     bordercolor="#666666"
     pagecolor="#ffffff"
     id="base" />
  <metadata
     id="metadata1961">
    <rdf:RDF>
      <cc:Work
         rdf:about="">
        <dc:format>image/svg+xml</dc:format>
        <dc:type
           rdf:resource="http://purl.org/dc/dcmitype/StillImage" />
        <dc:title></dc:title>
      </cc:Work>
    </rdf:RDF>
  </metadata>
  <g
     transform="translate(-155.17218,-42.015753)"
     id="layer1"
     inkscape:groupmode="layer"
     inkscape:label="Layer 1">
    <path
       id="path2050"
       d="m 163.29995,44.185821 c -1.44086,-0.417094 -2.50192,1.192809 -2.62467,2.455333 -0.0341,0.350605 0.0577,0.67476 0.0847,1.016 h 0.16933 c 0,-0.38961 -0.0861,-0.895782 0.0282,-1.27 0.2914,-0.953651 1.02665,-1.919393 2.08845,-1.947333 0,0.205172 -0.004,0.394648 0.0565,0.592666 0.0457,0.14981 0.10524,0.289357 0.18339,0.423334 0.55753,0.955742 1.34375,-0.191863 2.13081,-0.254 0,-0.769333 -0.41351,-1.361517 -1.18534,-1.524 0.25883,-0.894055 1.03776,-1.561195 2.032,-1.326448 0.46635,0.110109 0.8012,0.515095 1.27,0.564448 -0.60147,-1.011623 -2.26093,-1.209049 -3.10447,-0.395114 -0.32901,0.317474 -0.2932,0.749833 -0.55033,1.072447 -0.206,0.258513 -0.47727,0.252078 -0.57853,0.592667 m 3.302,-0.423334 c -0.25789,0.408305 -1.09618,1.452203 -0.59267,1.778 0.21929,-0.347158 0.83719,-1.419377 0.59267,-1.778 m 0.67733,1.016 c -0.19879,0.503581 -1.0933,1.209159 -0.762,1.693334 h 0.0847 l 0.84667,-1.693334 h -0.16934 m -2.11666,0.620886 c -0.34028,0.07089 -0.86911,0.396689 -0.98781,0.733781 -0.13166,0.374024 0.0786,1.038691 0.56447,0.917219 0.35306,-0.08826 0.96402,-0.562466 1.07248,-0.917219 0.11988,-0.392328 -0.25451,-0.815992 -0.64914,-0.733781 m 3.13266,0.564448 c -0.45813,0.313444 -1.19515,0.718837 -1.35466,1.27 0.47311,0.186741 0.79061,-0.447591 1.10066,-0.762 0.17001,-0.172407 0.36272,-0.308619 0.254,-0.508 m -6.18066,0.677333 v 0.169333 l 1.94733,-0.08467 c -0.21725,-0.492489 -0.77597,-0.12446 -1.18533,-0.08467 -0.24875,0.02418 -0.5119,0 -0.762,0 m 3.72533,-0.127 c -0.34061,0.132444 -0.75048,0.460502 -0.889,0.804333 -0.12641,0.313919 -0.005,0.668681 0.381,0.508 0.30937,-0.128913 0.89069,-0.598398 0.98781,-0.931333 0.0915,-0.313927 -0.21252,-0.484937 -0.47981,-0.381 m 1.86267,1.312333 c 0.33722,0.521124 1.37346,-0.400515 1.778,-0.677333 -0.38193,-0.225696 -1.42283,0.434298 -1.778,0.677333 m -1.43934,-0.47978 c -0.3418,0.118686 -0.7167,0.469663 -0.81847,0.818447 -0.13614,0.466852 0.29744,0.800608 0.73381,0.64914 0.31707,-0.110152 0.80399,-0.578613 0.90314,-0.90314 0.14545,-0.476275 -0.45407,-0.690965 -0.81848,-0.564447 m 4.40267,0.22578 c -0.48641,0.243214 -1.43925,0.361493 -1.60867,0.931334 0.42097,0.166201 0.89976,-0.32021 1.27,-0.53622 0.18568,-0.108305 0.45585,-0.209609 0.33867,-0.395114 m -7.78933,0.592667 v 0.08467 l 1.86266,-0.254 -0.16933,-0.324553 -0.508,0.155219 -1.18533,0.338667 m 4.40266,-0.04233 c -0.355,0.138091 -0.8636,0.742357 -0.84666,1.143 0.0125,0.295741 0.41258,0.52578 0.67733,0.381 0.25696,-0.140547 0.63923,-0.855133 0.66319,-1.143 0.0251,-0.300482 -0.21522,-0.489348 -0.49386,-0.381 m 0.93134,0.324527 c -0.80019,0.247989 -1.15917,2.083647 0.0847,1.890946 0.38439,-0.05961 0.8879,-0.955125 0.84667,-1.326473 -0.0399,-0.359071 -0.58522,-0.671661 -0.93133,-0.564473 m 2.37066,0.39514 0.0847,0.338666 1.778,-0.508 c -0.39336,-0.286088 -1.39251,0.08272 -1.86267,0.169334 m -10.24466,-0.169334 c -0.015,0.568622 -0.42915,1.865969 0.33866,2.032 l -0.16933,-1.100666 -0.16933,-0.931334 m 3.38666,0.846667 v 0.08467 l 1.778,-0.592667 -0.254,-0.296333 -0.59266,0.324527 -0.93134,0.479806 m -7.62,-0.508 c 0.10305,0.356023 0.39399,0.561933 0.67734,0.790194 0.56598,0.45593 0.87763,0.649139 1.60866,0.649139 v -0.08467 l -1.60866,-0.874861 -0.67734,-0.479806 m 13.462,0.04233 c -0.34273,0.171366 -0.77876,0.831596 -0.762,1.227667 0.0144,0.341037 0.41131,0.402844 0.67734,0.310473 0.29913,-0.103886 0.99644,-0.665904 1.07247,-0.987806 0.10795,-0.45737 -0.65625,-0.716111 -0.98781,-0.550334 m -7.45066,0.381 -0.59267,1.778 0.33867,0.08467 0.42333,-1.862667 h -0.16933 m 4.23333,0.169334 -1.43933,1.100666 1.69333,-0.762 -0.254,-0.338666 m 4.318,0.296333 c -0.70688,0.284734 -1.47938,1.443567 -0.33867,1.792139 0.26654,0.08145 0.58006,-0.112183 0.84667,-0.127 0.1822,-0.01016 0.39353,0.139023 0.56447,0.02819 0.32724,-0.21209 0.16544,-0.618405 0.0564,-0.889 -0.18296,-0.454236 -0.53924,-1.041823 -1.12886,-0.804333 m -4.318,1.566333 v 0.08467 c 0.55931,-0.0442 1.41503,-0.535263 1.69333,-1.016 -0.5676,-0.239014 -1.21031,0.651679 -1.69333,0.931333 m -8.382,-0.762 c -0.0683,0.259673 -0.21758,0.419185 -0.0705,0.677334 0.095,0.166878 0.21857,0.430276 0.35277,0.564472 0.21256,0.212514 0.7573,0.322496 0.94545,0.02819 0.12171,-0.190415 0.0912,-0.467868 0.15522,-0.677333 0.0437,-0.143171 0.15142,-0.262382 0.11289,-0.423333 -0.0433,-0.180848 -0.21081,-0.328253 -0.39511,-0.338667 -0.35413,-0.01998 -0.73947,0.159851 -1.10067,0.169333 m 14.05467,-0.08467 0.11286,0.296333 0.7338,0.04233 1.10067,0.08467 c -0.44348,-0.383032 -1.37287,-0.423333 -1.94733,-0.423333 m -4.65667,1.016 v 0.08467 c 0.51325,-0.04056 1.5969,-0.420878 1.778,-0.931333 -0.70146,-0.129201 -1.15358,0.600202 -1.778,0.846667 m -7.53533,-0.804334 c -0.75668,0.42562 -0.28616,1.951228 0.59266,1.524 0.2603,-0.126576 0.81018,-0.742442 0.74786,-1.058333 -0.0849,-0.430699 -0.98889,-0.663448 -1.34052,-0.465667 m 4.064,-0.04233 c -0.39997,0.326305 -1.57311,0.872659 -1.18534,1.439333 h 0.0847 l 0.84667,-0.931333 0.254,-0.508 m -8.72067,0.338667 v 0.08467 l 1.016,0.08467 1.60867,0.338667 c -0.26322,-0.90932 -1.92247,-0.508 -2.62467,-0.508 m 12.86933,0.846666 v 0.08467 l 1.778,-0.338667 -0.0847,-0.338666 -1.69334,0.592666 m -7.366,0.931334 c 0.48354,-0.08907 0.83778,-0.405469 1.05834,-0.846667 0.092,-0.183896 0.18,-0.420624 -0.0423,-0.550333 -0.26941,-0.157142 -0.44119,0.115654 -0.57852,0.296333 -0.27271,0.358563 -0.63277,0.636863 -0.43748,1.100667 m 10.32934,-1.15714 c -0.4467,0.08687 -1.11438,0.499957 -0.508,0.973667 0.21615,0.16891 0.66226,0.141563 0.93133,0.197612 0.14715,0.03065 0.35856,0.156633 0.508,0.09872 0.30539,-0.118194 0.31183,-0.727456 0.14114,-0.945388 -0.24257,-0.309626 -0.70976,-0.395139 -1.07247,-0.324612 m 1.43933,0.564473 v 0.338667 c 0.60926,0 1.26729,-0.270172 1.778,-0.592667 l -0.508,0.01414 -1.27,0.239861 M 161.94551,52.10216 c -0.34196,0.168572 -0.8729,0.841333 -0.889,1.227667 -0.0242,0.579967 0.50182,0.794851 0.97367,0.578527 0.37008,-0.169587 0.762,-0.460248 0.762,-0.917194 0,-0.37211 -0.38523,-1.116499 -0.84667,-0.889 m 2.37067,-0.04233 c -0.3407,0.417576 -1.15748,1.071118 -1.016,1.608667 l 0.86081,-1.016 0.15519,-0.592667 m -6.096,1.524 1.524,-1.016 v -0.169333 c -0.63558,-0.167217 -1.26232,0.662008 -1.524,1.185333 m 9.99067,-1.100667 v 0.08467 l 1.86266,0.08467 v -0.338667 l -1.86266,0.169333 m -9.22867,1.524 1.60867,-0.846666 c -0.21054,-0.708152 -1.46765,0.449241 -1.60867,0.846666 m 8.89,-0.931333 0.93133,0.381 0.84667,0.381 0.0847,-0.338667 c -0.44222,-0.267631 -1.36458,-0.541274 -1.86267,-0.423333 m 1.94733,1.185334 c 0.23766,0.05004 0.47507,0.141816 0.67734,0.282194 0.18762,0.130302 0.35543,0.405468 0.59266,0.451612 0.18102,0.03514 0.30895,-0.111422 0.42334,-0.225806 0.28245,-0.282448 0.59233,-1.010328 0.381,-1.41114 -0.19812,-0.375835 -1.12675,-0.501989 -1.48167,-0.324527 -0.45424,0.227076 -0.59267,0.768011 -0.59267,1.227667 m -7.112,-0.635001 c -0.15468,0.06231 -0.27906,0.212175 -0.42333,0.296334 -0.20913,0.122005 -0.61189,0.177038 -0.71967,0.423333 -0.25603,0.585132 0.70452,0.514774 0.97367,0.39514 0.254,-0.112946 0.59275,-0.349335 0.635,-0.64914 0.0373,-0.264922 -0.1822,-0.579882 -0.46567,-0.465667 m 2.45534,-0.04233 -1.524,1.100667 0.16933,0.338667 1.10067,-0.931334 0.254,-0.508 m -5.75734,0.931334 v 0.08467 l 1.778,-0.592667 c -0.37661,-0.582083 -1.36067,0.22242 -1.778,0.508001 m 8.21267,-0.677334 v 0.08467 c 0.46287,0.316738 1.20904,0.91694 1.778,0.677333 v -0.169333 l -1.778,-0.592667 m -0.254,0.423334 1.10067,1.354666 c 0.34434,-0.102362 0.35644,-0.32241 0.0847,-0.564472 -0.32562,-0.289984 -0.76521,-0.67962 -1.18533,-0.790194 m 3.21733,1.778 c 0.87055,-0.517652 0.14419,-1.5483 -0.67733,-1.594528 -0.40217,-0.02269 -0.51139,0.391668 -0.254,0.649055 0.12878,0.128778 0.29117,0.224367 0.42333,0.352806 0.1889,0.183557 0.34231,0.389551 0.508,0.592667 m -5.16466,-1.524 -1.18534,1.524 c 0.53256,0.210227 0.80586,-0.537464 1.03014,-0.931334 0.11634,-0.204385 0.26399,-0.408601 0.1552,-0.592666 m 6.51933,0 -0.0847,0.338666 1.94734,0.254 -1.86267,-0.592666 m -12.192,0.592666 v 0.08467 l 1.69333,-0.254 v -0.338667 l -1.69333,0.508 m 3.21733,-0.395139 c -0.35797,0.08458 -0.94403,0.269325 -1.07247,0.649139 -0.15697,0.464482 0.2954,1.273387 0.81847,1.15714 0.3871,-0.08602 0.80264,-0.331894 0.90314,-0.733806 0.1193,-0.477436 -0.0315,-1.218269 -0.64914,-1.072473 m 4.14867,-0.02819 0.762,1.693333 0.254,-0.08467 c -0.0426,-0.539581 -0.55753,-1.33604 -1.016,-1.608667 m -1.524,0.254 c -0.0365,0.462365 -0.96681,1.700953 -0.254,1.778 l 0.42333,-1.778 h -0.16933 m 1.27,0.169333 v 1.862667 l 0.33867,-0.08467 -0.33867,-1.778 m 2.45533,0.112861 c -0.83549,0.208873 -0.7741,1.178899 -0.53619,1.749806 0.14842,0.356277 0.30319,0.791125 0.79019,0.649139 0.71645,-0.209042 1.0414,-1.106254 0.71967,-1.749806 -0.15172,-0.303445 -0.58318,-0.74676 -0.97367,-0.649139 m -3.048,0.141139 c -0.0134,0.50673 -0.54466,1.726608 0.0847,1.862667 0.0378,-0.478197 0.32156,-1.531705 -0.0847,-1.862667 m -4.65666,0.423334 -1.43934,1.185333 1.60867,-0.762 -0.16933,-0.423333 m 9.48266,0 -0.16933,0.338666 1.60867,0.846667 v -0.08467 l -1.43934,-1.100666 m -7.45066,0.381 c -0.24621,0.09914 -0.92456,0.427397 -1.05834,0.649139 -0.33672,0.557869 0.603,0.580813 0.889,0.465667 0.29786,-0.119973 0.62569,-0.324866 0.73381,-0.64914 0.12692,-0.38083 -0.23038,-0.600286 -0.56447,-0.465666 m 4.318,0.423333 c -0.13987,0.08026 -0.1756,0.23114 -0.16934,0.381 0.0166,0.398357 0.20684,1.543304 0.762,1.326473 0.51529,-0.201338 0.20227,-1.182286 -0.0282,-1.495806 -0.12548,-0.170604 -0.34646,-0.33672 -0.56447,-0.211667 m -3.64067,0.254 c -0.16459,0.0823 -0.27356,0.248751 -0.42333,0.352806 -0.23157,0.160782 -0.58293,0.219456 -0.6632,0.536194 -0.13064,0.515027 0.9183,1.049951 1.34053,0.903139 0.43392,-0.15096 0.89171,-0.96012 0.74786,-1.411139 -0.11294,-0.35433 -0.67327,-0.545338 -1.00186,-0.381 m 2.794,0.239861 c -0.55363,0.107696 -0.62052,0.714248 -0.762,1.157139 -0.054,0.169079 -0.14961,0.408771 -0.0423,0.578527 0.15942,0.252392 0.72136,0.232326 0.97366,0.155279 0.56439,-0.172466 0.6731,-0.830157 0.49386,-1.326473 -0.0958,-0.265176 -0.33104,-0.628988 -0.66319,-0.564472 m -6.096,1.326472 1.60867,-0.846666 c -0.20947,-0.704681 -1.487,0.437557 -1.60867,0.846666 m 4.74133,-1.058333 c -0.27152,0.152739 -0.47159,0.714671 -0.64914,0.973667 -0.0624,0.09119 -0.12115,0.225128 -0.0987,0.338666 0.0738,0.374481 0.57032,0.418338 0.83253,0.225806 0.26594,-0.195326 0.51257,-0.82677 0.508,-1.157139 -0.004,-0.306917 -0.2954,-0.548217 -0.59267,-0.381 m 4.23334,0.211667 c -0.35984,0.525864 0.58869,1.4605 1.10066,1.608666 l -0.56447,-0.846666 -0.53619,-0.762 m -7.02734,0.592666 -0.84666,1.693334 h 0.0847 c 0.17382,-0.244687 0.34511,-0.519346 0.5362,-0.747861 0.27872,-0.333417 0.60638,-0.464397 0.4798,-0.945473 h -0.254 m 5.50334,0.423334 c 0.26602,0.532045 0.84963,1.199473 1.43933,1.354667 l -1.10067,-1.524001 -0.33866,0.169334 m -4.40267,2.032 0.62086,-0.677333 0.56447,-0.762001 c -0.5577,-0.220133 -1.08635,0.969349 -1.18533,1.439334 m 2.54,-1.354667 0.16933,1.862667 h 0.0847 l 0.0847,-1.862667 z"
       style="fill:#000000;stroke:none;stroke-width:0.0846667" />
  </g>
</svg>
