<?xml version="1.0" encoding="UTF-8" standalone="no"?>
<svg
   xmlns:dc="http://purl.org/dc/elements/1.1/"
   xmlns:cc="http://creativecommons.org/ns#"
   xmlns:rdf="http://www.w3.org/1999/02/22-rdf-syntax-ns#"
   xmlns:svg="http://www.w3.org/2000/svg"
   xmlns="http://www.w3.org/2000/svg"
   xmlns:sodipodi="http://sodipodi.sourceforge.net/DTD/sodipodi-0.dtd"
   xmlns:inkscape="http://www.inkscape.org/namespaces/inkscape"
   sodipodi:docname="dragonfly.svg"
   inkscape:version="1.0 (4035a4fb49, 2020-05-01)"
   id="svg34"
   version="1.1"
   viewBox="0 0 35.31929 34.854115"
   height="34.854115mm"
   width="35.31929mm">
  <defs
     id="defs28" />
  <sodipodi:namedview
     inkscape:window-maximized="1"
     inkscape:window-y="0"
     inkscape:window-x="0"
     inkscape:window-height="1144"
     inkscape:window-width="1920"
     fit-margin-bottom="0"
     fit-margin-right="0"
     fit-margin-left="0"
     fit-margin-top="0"
     showgrid="false"
     inkscape:document-rotation="0"
     inkscape:current-layer="layer1"
     inkscape:document-units="mm"
     inkscape:cy="380.15175"
     inkscape:cx="-184.68345"
     inkscape:zoom="0.35"
     inkscape:pageshadow="2"
     inkscape:pageopacity="0.0"
     borderopacity="1.0"
     bordercolor="#666666"
     pagecolor="#ffffff"
     id="base" />
  <metadata
     id="metadata31">
    <rdf:RDF>
      <cc:Work
         rdf:about="">
        <dc:format>image/svg+xml</dc:format>
        <dc:type
           rdf:resource="http://purl.org/dc/dcmitype/StillImage" />
        <dc:title></dc:title>
      </cc:Work>
    </rdf:RDF>
  </metadata>
  <g
     transform="translate(-154.6975,-47.584849)"
     id="layer1"
     inkscape:groupmode="layer"
     inkscape:label="Layer 1">
    <path
       id="path2706"
       d="m 174.80432,47.991067 c 0.0493,-0.019 0.0676,-0.0781 0.10149,-0.12023 0.0422,-0.0522 0.12806,-0.0942 0.10162,-0.18034 -0.0244,-0.0792 -0.16226,-0.15804 -0.21003,-0.0601 -0.0541,0.11103 0.018,0.25226 0.007,0.36069 m 0.0138,0.015 c -0.1559,0.0312 -0.21474,0.15999 -0.24464,0.31559 -0.0105,0.0551 -0.004,0.11129 -0.023,0.16532 -0.0183,0.0527 -0.0541,0.0997 -0.0762,0.15028 -0.0725,0.16657 -0.10826,0.38582 -0.0277,0.55605 0.0194,0.0409 0.0523,0.068 0.0761,0.1052 0.0209,0.0327 0.0298,0.0725 0.0507,0.1052 0.0438,0.0682 0.12087,0.13611 0.17542,0.19536 0.0367,0.0399 0.0889,0.0586 0.12003,0.1052 0.0215,0.0322 0.0298,0.0725 0.0507,0.1052 0.0282,0.044 0.0713,0.0669 0.10384,0.1052 0.0343,0.0404 0.0554,0.0931 0.0878,0.13525 0.0431,0.0562 0.1019,0.10178 0.1361,0.16531 0.0435,0.0809 0.0911,0.15905 0.13387,0.24046 0.0419,0.08 0.0611,0.16526 0.11298,0.24045 0.0623,0.0901 0.0828,0.18739 0.1293,0.28554 0.0627,0.1327 0.19563,0.2734 0.0876,0.43331 -0.0324,0.0479 -0.0975,0.0592 -0.14537,0.0802 l -0.38765,0.16781 c -0.068,0.0297 -0.1156,0.0918 -0.17998,0.12774 -0.061,0.0341 -0.13263,0.046 -0.19383,0.0802 -0.098,0.0547 -0.19382,0.12334 -0.29073,0.18034 -0.0544,0.032 -0.0969,0.0835 -0.15229,0.11521 -0.0998,0.0572 -0.20214,0.12933 -0.30459,0.18034 -0.0318,0.0158 -0.0659,0.0193 -0.0969,0.0376 -0.10757,0.0633 -0.18511,0.16136 -0.31843,0.14528 -0.0775,-0.009 -0.11367,-0.09 -0.15686,-0.15029 -0.0386,-0.0538 -0.062,-0.11068 -0.0969,-0.16531 -0.0775,-0.12108 -0.15645,-0.22138 -0.0462,-0.36068 0.11712,-0.14786 0.3295,-0.0243 0.47999,-0.0651 0.0536,-0.0145 0.0955,-0.0602 0.13845,-0.0952 0.0914,-0.0744 0.17292,-0.15222 0.2492,-0.24545 0.0332,-0.0406 0.0487,-0.0885 0.0716,-0.13526 0.0293,-0.0605 0.0692,-0.11538 0.09,-0.18034 0.0411,-0.12888 0.0323,-0.28546 0.0323,-0.42079 0,-0.19469 0.002,-0.39794 -0.0461,-0.58611 -0.0204,-0.0796 -0.0598,-0.15008 -0.0878,-0.22542 -0.0245,-0.0661 -0.0407,-0.13635 -0.0784,-0.19537 -0.0249,-0.0389 -0.0612,-0.0676 -0.0878,-0.1052 -0.0444,-0.0631 -0.0665,-0.13609 -0.11768,-0.19536 -0.0821,-0.0951 -0.25502,-0.19057 -0.37145,-0.22043 -0.1318,-0.0338 -0.32244,-0.0645 -0.45688,-0.0301 -0.0638,0.0163 -0.10868,0.0682 -0.16613,0.0977 -0.0612,0.0314 -0.15437,0.0448 -0.20311,0.0977 -0.0174,0.019 -0.023,0.0484 -0.0368,0.0701 -0.0286,0.0447 -0.0712,0.077 -0.10162,0.12023 -0.0389,0.0553 -0.0597,0.11784 -0.0853,0.18034 -0.0194,0.0473 -0.0584,0.11774 -0.11311,0.12022 -0.12889,0.006 -0.17956,-0.23175 -0.23993,-0.31559 -0.0378,-0.0525 -0.11255,-0.0582 -0.16156,-0.0952 -0.0445,-0.0335 -0.0767,-0.0806 -0.12461,-0.11021 -0.0565,-0.0349 -0.121,-0.0318 -0.17998,-0.0576 -0.0946,-0.0413 -0.1732,-0.0867 -0.27689,-0.0977 -0.46172,-0.0487 -0.78777,0.35483 -0.96678,0.76644 -0.063,0.14456 -0.0577,0.29702 -0.0716,0.45085 -0.01,0.10936 -0.004,0.221 -0.0138,0.33063 -0.003,0.036 -0.0166,0.0682 -0.0138,0.1052 0.005,0.0604 0.0223,0.11998 0.0277,0.18034 0.008,0.0923 0.0115,0.1831 0.0461,0.27051 0.0634,0.15972 0.21058,0.321 0.34155,0.41578 0.11242,0.0814 0.21113,0.11631 0.34611,0.11021 0.10384,-0.005 0.18497,-0.0708 0.27233,0.0325 0.14246,0.16877 -0.0497,0.38043 -0.14315,0.50845 -0.0537,0.0736 -0.094,0.15214 -0.18455,0.17534 -0.16392,0.042 -0.28133,-0.0328 -0.42919,-0.0952 -0.0899,-0.0379 -0.18732,-0.0487 -0.27689,-0.0851 -0.0666,-0.0271 -0.1235,-0.074 -0.19383,-0.0952 -0.0775,-0.0234 -0.15741,-0.034 -0.23536,-0.0551 -0.0882,-0.024 -0.16655,-0.074 -0.2492,-0.11022 -0.0986,-0.0431 -0.20255,-0.0575 -0.30459,-0.0851 -0.0796,-0.0216 -0.15575,-0.0585 -0.23536,-0.0802 -0.11491,-0.0312 -0.3169,-0.0291 -0.39693,-0.14026 -0.035,-0.0488 -0.0322,-0.10701 -0.0322,-0.16531 0,-0.18401 0.10937,-0.34133 0.16157,-0.51097 0.0252,-0.0824 0.0255,-0.17308 0.0507,-0.255481 0.0259,-0.0839 0.0757,-0.15616 0.10162,-0.240449 0.0156,-0.0512 0.0215,-0.104501 0.0507,-0.15028 0.0314,-0.049 0.0773,-0.082 0.10384,-0.13526 0.0436,-0.0873 0.0659,-0.18781 0.11768,-0.27051 0.0336,-0.0536 0.0613,-0.1138 0.0969,-0.16531 0.1145,-0.16573 0.27773,-0.32334 0.30001,-0.54102 0.0186,-0.18124 -0.0321,-0.29382 -0.10839,-0.45085 -0.11574,-0.23807 -0.25294,-0.45892 -0.38073,-0.69131 -0.0489,-0.0887 -0.0814,-0.22461 -0.15229,-0.29556 -0.0293,-0.0293 -0.0878,-0.0263 -0.11768,0 -0.15202,0.13371 0.0919,0.2594 0.13374,0.35568 0.035,0.0805 0.0933,0.14577 0.12695,0.22542 0.0403,0.0954 0.0404,0.20836 0.0876,0.30057 0.0735,0.14359 0.18898,0.33758 0.18234,0.51096 -0.003,0.0786 -0.0357,0.12596 -0.0623,0.19537 -0.0172,0.0449 -0.0163,0.0948 -0.0439,0.13525 -0.0262,0.0386 -0.0647,0.0657 -0.09,0.1052 -0.0374,0.0585 -0.0422,0.13646 -0.0784,0.19537 -0.0299,0.0487 -0.0744,0.0833 -0.10162,0.13526 -0.0292,0.0557 -0.04,0.12219 -0.0645,0.18034 -0.0231,0.0547 -0.0662,0.0954 -0.09,0.150279 -0.0291,0.0666 -0.0382,0.148571 -0.0761,0.210401 -0.0295,0.048 -0.0723,0.0865 -0.10162,0.13525 -0.0363,0.0604 -0.048,0.13085 -0.0761,0.195369 -0.0295,0.068 -0.0757,0.127641 -0.10605,0.195371 -0.0312,0.0693 -0.0363,0.15273 -0.0623,0.22542 -0.0494,0.13772 -0.0919,0.27017 -0.0785,0.4208 0.009,0.0992 0.0569,0.16199 0.10618,0.240449 0.0295,0.0471 0.042,0.0953 0.0876,0.130251 0.066,0.0505 0.17168,0.0566 0.24921,0.0776 0.0987,0.0268 0.19189,0.0769 0.29074,0.1052 0.0688,0.0197 0.14287,0.0319 0.20767,0.0651 0.0788,0.0404 0.15215,0.0964 0.23536,0.12774 0.0645,0.0243 0.13152,0.0338 0.19382,0.0676 0.0624,0.0339 0.11657,0.0837 0.17998,0.1152 0.0442,0.022 0.0946,0.0257 0.13845,0.0501 0.12335,0.0688 0.22678,0.17739 0.34612,0.25297 0.0808,0.0512 0.18067,0.0467 0.26305,0.0927 0.0767,0.0428 0.15104,0.11468 0.22151,0.16781 0.18497,0.13947 0.0988,0.46813 0.14302,0.67127 0.0227,0.10431 0.0979,0.24505 -0.005,0.32561 -0.11007,0.0865 -0.19134,-0.0217 -0.29074,-0.0651 -0.0824,-0.036 -0.17721,-0.0318 -0.26305,-0.0551 -0.0958,-0.026 -0.18455,-0.079 -0.2769,-0.11522 -0.059,-0.0231 -0.12266,-0.0409 -0.17998,-0.0676 -0.0536,-0.025 -0.0982,-0.069 -0.15229,-0.0927 -0.0854,-0.0374 -0.17763,-0.0478 -0.26305,-0.0851 -0.0533,-0.0233 -0.0994,-0.0605 -0.15229,-0.0852 -0.0936,-0.0437 -0.19549,-0.0493 -0.29074,-0.0852 -0.0807,-0.0304 -0.15118,-0.0823 -0.23536,-0.1052 -0.16032,-0.0435 -0.3349,-0.0328 -0.49841,-0.0501 -0.20171,-0.0213 -0.39512,-0.09 -0.59532,-0.12023 -0.64406,-0.0971 -1.2913,-0.15713 -1.93826,-0.22542 -0.27069,-0.0286 -0.54616,-0.002 -0.81684,-0.0301 -0.33358,-0.0352 -0.66335,-0.11509 -0.99681,-0.15028 -0.15092,-0.0159 -0.30801,-0.0164 -0.45688,-0.0501 -0.0841,-0.019 -0.15438,-0.0683 -0.23536,-0.0952 -0.0902,-0.0299 -0.18856,-0.0315 -0.27689,-0.0701 -0.0748,-0.0327 -0.14187,-0.0898 -0.22152,-0.11022 -0.107,-0.0274 -0.21243,-0.0352 -0.31843,-0.0751 -0.0632,-0.0238 -0.11405,-0.0733 -0.17998,-0.0902 -0.0567,-0.0145 -0.11057,-0.0141 -0.16613,-0.0401 -0.0633,-0.0296 -0.11789,-0.0809 -0.17998,-0.11271 -0.11645,-0.0597 -0.24047,-0.0905 -0.35997,-0.14277 -0.0754,-0.033 -0.14328,-0.0819 -0.22151,-0.11022 -0.0492,-0.0178 -0.10328,-0.0216 -0.15229,-0.0401 -0.0903,-0.034 -0.16943,-0.0998 -0.26305,-0.12524 -0.15062,-0.0409 -0.30686,-0.0467 -0.45688,-0.0851 -0.0933,-0.0239 -0.18264,-0.0588 -0.27689,-0.0802 -0.12806,-0.0289 -0.26336,-0.0402 -0.38765,-0.0851 -0.0649,-0.0235 -0.12843,-0.0585 -0.19383,-0.0802 -0.23179,-0.0769 -0.49503,-0.07 -0.73377,-0.0952 -0.14591,-0.0154 -0.28327,-0.0898 -0.42918,-0.1052 -0.37792,-0.0399 -0.75755,-0.0653 -1.13527,-0.1052 -0.1404,-0.0148 -0.30223,-0.0449 -0.44303,-0.0301 -0.13431,0.0142 -0.26721,0.0459 -0.4015,0.0601 -0.25806,0.0272 -0.49099,0.0728 -0.73377,0.17533 -0.0805,0.034 -0.16911,0.0351 -0.2492,0.0701 -0.0583,0.0255 -0.10037,0.0734 -0.15229,0.11022 -0.11763,0.0833 -0.25556,0.15536 -0.35996,0.26048 -0.0506,0.0509 -0.0881,0.12075 -0.12922,0.18034 -0.15263,0.2209 -0.22967,0.42613 -0.29073,0.6913 -0.0463,0.20107 -0.0973,0.40576 -0.0785,0.61617 0.0103,0.11484 0.0645,0.1989 0.10614,0.30056 0.083,0.20281 0.19515,0.35081 0.31843,0.52599 0.0851,0.12095 0.14586,0.26255 0.23997,0.37571 0.0774,0.0931 0.16347,0.18649 0.24921,0.27051 0.0468,0.0459 0.1055,0.0744 0.15229,0.12023 0.14646,0.14354 0.27275,0.30541 0.44303,0.41579 0.0524,0.034 0.11282,0.0513 0.16614,0.0827 0.0545,0.032 0.0962,0.0848 0.15229,0.11521 0.14094,0.0765 0.29034,0.13586 0.42918,0.21542 0.0547,0.0314 0.0988,0.0796 0.15229,0.11271 0.0788,0.0487 0.1712,0.0646 0.24921,0.11521 0.11963,0.0776 0.23013,0.16328 0.34612,0.24547 0.0519,0.0367 0.1126,0.0521 0.16613,0.0851 0.0501,0.0309 0.0884,0.0793 0.13845,0.11022 0.0605,0.0374 0.1331,0.0476 0.19383,0.0851 0.0567,0.035 0.10527,0.0836 0.16613,0.11022 0.0634,0.0277 0.13139,0.0341 0.19383,0.0651 0.0546,0.0272 0.0988,0.0737 0.15229,0.1027 0.0566,0.0307 0.12194,0.0405 0.17998,0.0676 0.0727,0.034 0.13586,0.092 0.20767,0.12774 0.0526,0.0262 0.11281,0.0277 0.16614,0.0526 0.0479,0.0224 0.0905,0.0578 0.13844,0.0802 0.10747,0.0502 0.22364,0.0677 0.33228,0.11521 0.0717,0.0314 0.13594,0.0788 0.20767,0.11022 0.13626,0.0596 0.27835,0.10748 0.41534,0.16531 0.0669,0.0283 0.14154,0.0352 0.20767,0.0651 0.059,0.0267 0.10926,0.0718 0.16613,0.10268 0.0618,0.0336 0.13269,0.0451 0.19383,0.0802 0.0749,0.0429 0.13864,0.1015 0.22152,0.12774 0.10731,0.034 0.22374,0.0374 0.33227,0.0701 0.33543,0.1011 0.6714,0.20359 1.01066,0.2906 0.11695,0.0299 0.24229,0.0134 0.35997,0.04 0.20725,0.0469 0.4111,0.13796 0.62301,0.16035 0.13394,0.0141 0.26768,0.031 0.40149,0.0451 0.0594,0.006 0.12055,-0.006 0.17999,0 0.11686,0.0123 0.2296,0.0604 0.34611,0.0726 0.0773,0.008 0.15757,-0.006 0.23536,0.003 0.17526,0.0185 0.35069,0.0416 0.5261,0.0601 0.11293,0.0118 0.23258,0 0.34612,0 0.24955,0 0.50059,-0.004 0.74761,-0.0301 0.25239,-0.0266 0.50907,0.0266 0.76146,0 0.11325,-0.012 0.2211,-0.0449 0.33227,-0.0702 0.28327,-0.064 0.57082,-0.0691 0.85837,-0.0951 0.15119,-0.0137 0.30597,0.0159 0.45688,0 0.12488,-0.0132 0.23854,-0.0541 0.35996,-0.0852 0.15783,-0.0404 0.3367,-0.0479 0.49841,-0.0651 0.13845,-0.0146 0.29282,-0.009 0.42919,0 0.13914,0.009 0.27883,-0.015 0.41534,-0.015 0.0971,0 0.22165,0.047 0.31843,0.0101 0.0435,-0.0167 0.0665,-0.0658 0.0969,-0.100241 0.037,-0.0418 0.0889,-0.0736 0.12003,-0.12022 0.0649,-0.0974 0.0948,-0.23204 0.1869,-0.31059 0.10827,-0.0925 0.21072,0.0639 0.20075,0.17533 -0.0134,0.14923 -0.0691,0.2911 -0.2031,0.355721 -0.075,0.0362 -0.1588,0.0412 -0.23536,0.07 -0.0438,0.0165 -0.0808,0.0487 -0.1246,0.0652 -0.0908,0.0343 -0.19577,0.0307 -0.29074,0.035 -0.31524,0.0143 -0.63755,0.0266 -0.95528,0.0601 -0.23758,0.0251 -0.46837,0.11016 -0.70608,0.13525 -0.15146,0.0159 -0.30542,-9.79e-4 -0.45688,0.015 -0.12959,0.0137 -0.25806,0.0314 -0.38765,0.0451 -0.0723,0.008 -0.15035,0.004 -0.22152,0.02 -0.42032,0.0951 -0.84729,0.11542 -1.27371,0.16036 -0.13465,0.0143 -0.25358,0.0911 -0.38765,0.10519 -0.18414,0.0194 -0.36956,0.0257 -0.55379,0.0451 -0.12504,0.0132 -0.2489,0.0451 -0.3738,0.0601 -0.13156,0.0159 -0.25529,0.0762 -0.38766,0.0902 -0.15182,0.0161 -0.30649,0.003 -0.45687,0.035 -0.15402,0.0326 -0.30321,0.0905 -0.45687,0.12534 -0.13255,0.0299 -0.28039,0.0358 -0.41535,0.05 -0.13833,0.0146 -0.27949,0.0825 -0.41534,0.11527 -0.11437,0.0275 -0.23205,0.0293 -0.34611,0.055 -0.13315,0.0302 -0.24427,0.1052 -0.37381,0.14036 -0.17617,0.0478 -0.3621,0.0476 -0.53995,0.0851 -0.141,0.0298 -0.27454,0.0935 -0.41534,0.12533 -0.10008,0.0225 -0.2066,0.0182 -0.30458,0.055 -0.0674,0.0254 -0.12388,0.0741 -0.19383,0.0953 -0.11652,0.035 -0.24132,0.0433 -0.35996,0.07 -0.0828,0.0188 -0.1566,0.0655 -0.23536,0.0953 -0.11548,0.0434 -0.24232,0.0496 -0.35996,0.0851 -0.0879,0.0266 -0.16485,0.0784 -0.2492,0.11031 -0.1109,0.0418 -0.23297,0.0509 -0.34612,0.0851 -0.19027,0.0574 -0.37795,0.12323 -0.56763,0.18034 -0.0773,0.0233 -0.1473,0.0639 -0.22152,0.0953 -0.10274,0.0433 -0.2162,0.0554 -0.31843,0.10009 -0.21211,0.0927 -0.42334,0.20513 -0.63685,0.28553 -0.0983,0.0371 -0.18158,0.11076 -0.2769,0.1554 -0.0666,0.0311 -0.1422,0.032 -0.20767,0.0676 -0.0586,0.0317 -0.10818,0.0819 -0.16614,0.11512 -0.0531,0.0305 -0.11295,0.0464 -0.16613,0.0777 -0.22049,0.129689 -0.4225,0.303119 -0.62301,0.463319 -0.0295,0.0236 -0.0667,0.0304 -0.0969,0.0526 -0.11704,0.0866 -0.26174,0.22858 -0.3415,0.35572 -0.0237,0.0379 -0.0326,0.0827 -0.0577,0.120231 -0.0274,0.041 -0.0619,0.0742 -0.0831,0.120219 -0.0503,0.10911 -0.0671,0.234601 -0.11538,0.34566 -0.1321,0.30372 -0.15213,0.61375 -0.12229,0.94678 0.01,0.11121 0.0282,0.235801 0.0877,0.33062 0.0818,0.13045 0.18417,0.30403 0.29997,0.40081 0.045,0.0376 0.10533,0.0504 0.15229,0.0851 0.17528,0.12954 0.357,0.23264 0.53995,0.34565 0.13703,0.0848 0.25779,0.20664 0.40149,0.27803 0.0652,0.0325 0.14044,0.0383 0.20767,0.0676 0.099,0.0433 0.18446,0.111519 0.29074,0.140369 0.0879,0.0237 0.17789,0.0341 0.26305,0.07 0.0939,0.0397 0.17706,0.0996 0.27689,0.12534 0.0693,0.0178 0.13904,0.0263 0.20768,0.05 0.0842,0.0291 0.16417,0.0745 0.2492,0.10024 0.11422,0.0344 0.23175,0.0391 0.34612,0.07 0.0863,0.0234 0.164,0.0696 0.2492,0.0953 0.17587,0.0531 0.36078,0.0774 0.53995,0.11512 0.12399,0.0262 0.2482,0.072 0.3738,0.0852 0.22575,0.0239 0.45259,0.0362 0.67839,0.0601 0.15451,0.0162 0.3027,0.0866 0.45688,0.1052 0.23006,0.0278 0.46182,0.0358 0.69223,0.0601 0.20014,0.0212 0.39523,0.099 0.59533,0.12023 0.0525,0.006 0.10084,-0.0197 0.15229,-0.015 0.11559,0.0105 0.2304,0.0479 0.34611,0.0601 0.0549,0.006 0.11127,-0.006 0.16614,0 0.44121,0.0466 0.88796,0.0436 1.32909,0.0902 0.13666,0.0144 0.28045,-0.0158 0.41534,-0.0301 0.10972,-0.0115 0.22256,0.0116 0.33227,0 l 0.30459,-0.0301 c 0.15149,-0.0159 0.30539,0.001 0.45687,-0.015 0.15723,-0.0165 0.31343,-0.0436 0.47072,-0.0601 0.12483,-0.0132 0.23841,-0.0905 0.35997,-0.1052 0.15644,-0.0189 0.31566,-0.015 0.47071,-0.05 0.10453,-0.0238 0.20145,-0.0792 0.30459,-0.11031 0.10439,-0.0314 0.21321,-0.0313 0.31843,-0.055 0.13692,-0.031 0.26665,-0.0846 0.40149,-0.12533 0.16766,-0.0505 0.34723,-0.0404 0.51226,-0.10009 0.0757,-0.0275 0.14384,-0.0718 0.22151,-0.0953 0.0908,-0.0273 0.18774,-0.0365 0.2769,-0.07 0.0898,-0.034 0.17042,-0.10009 0.26304,-0.12534 0.0858,-0.0233 0.17971,-0.0236 0.26306,-0.055 0.0532,-0.0201 0.10023,-0.0567 0.15229,-0.0803 0.097,-0.0439 0.19867,-0.0735 0.29074,-0.12775 0.0435,-0.0255 0.0795,-0.0627 0.1246,-0.0851 0.0615,-0.0307 0.13249,-0.0318 0.19382,-0.0652 0.13042,-0.0708 0.24533,-0.18289 0.35997,-0.27802 0.1923,-0.1593 0.40149,-0.33619 0.54922,-0.54598 0.18468,-0.26255 0.24131,-0.62157 0.21223,-0.94679 -0.009,-0.10114 -0.0119,-0.22001 -0.0461,-0.31559 -0.0352,-0.0981 -0.10688,-0.18275 -0.12931,-0.28554 -0.0511,-0.23534 -0.009,-0.46618 0.09,-0.67628 0.0312,-0.0657 0.0752,-0.19957 0.15465,-0.20784 0.0781,-0.008 0.11851,0.11016 0.1246,0.17779 0.0202,0.22572 0.0176,0.4528 0.0577,0.67627 0.0926,0.51743 0.18386,1.0598 0.1361,1.59301 -0.0194,0.2164 -0.0471,0.43026 -0.0692,0.64622 -0.006,0.0544 -0.008,0.1115 -0.0184,0.16531 -0.0313,0.1626 -0.14301,0.39825 0.0323,0.51351 0.0249,0.0164 0.0543,0.0302 0.0831,0.0376 0.0933,0.0239 0.20877,0.005 0.30458,0.005 h 0.60917 c 0.0893,0 0.23674,0.0428 0.30001,-0.0451 0.12903,-0.17944 0.0226,-0.44544 0.005,-0.64622 -0.0159,-0.17778 -0.0673,-0.34911 -0.0831,-0.52599 -0.0109,-0.12188 0.0246,-0.2397 0.0138,-0.36068 -0.0104,-0.11602 -0.045,-0.22963 -0.0554,-0.34565 -0.014,-0.15555 0.0119,-0.31274 0.0139,-0.46588 0.002,-0.18921 0.0732,-0.35768 0.10618,-0.54102 0.0348,-0.19447 0.0323,-0.40276 0.0323,-0.60113 0,-0.0858 -0.0161,-0.29336 0.12003,-0.27547 0.18496,0.0242 0.22456,0.28493 0.25834,0.44078 0.045,0.20664 0.008,0.45085 -0.0645,0.64622 -0.0248,0.0667 -0.0676,0.12683 -0.0878,0.19537 -0.0338,0.11481 -0.0323,0.2415 -0.0323,0.36067 0,0.0609 -0.0112,0.13661 0.005,0.19537 0.0289,0.10745 0.0781,0.2113 0.11546,0.3156 0.0248,0.0694 0.0407,0.14757 0.0784,0.21039 0.0588,0.0977 0.14288,0.16006 0.21695,0.24046 0.0288,0.0313 0.0472,0.0723 0.0738,0.1052 0.0665,0.0822 0.16558,0.14758 0.24464,0.21535 0.0494,0.0425 0.0869,0.10084 0.13844,0.14037 0.14067,0.10805 0.30251,0.16862 0.45688,0.24541 0.0674,0.0335 0.12709,0.0836 0.19382,0.11767 0.0746,0.0383 0.15825,0.0536 0.23536,0.0827 0.0973,0.0367 0.18843,0.099 0.29074,0.12534 0.0597,0.0152 0.12198,0.0147 0.17999,0.04 0.0709,0.0311 0.13443,0.0849 0.20766,0.11031 0.10799,0.0374 0.22429,0.046 0.33228,0.0851 0.10245,0.0371 0.19784,0.0861 0.30458,0.1103 0.15146,0.0341 0.30666,0.0398 0.45688,0.0851 0.0892,0.0269 0.17347,0.0736 0.26305,0.0953 0.12294,0.0296 0.25363,0.0266 0.3738,0.07 0.11104,0.0403 0.21681,0.0858 0.33228,0.11031 0.1419,0.0299 0.28797,0.0252 0.42918,0.055 0.21626,0.0457 0.42974,0.10926 0.64835,0.14037 0.20642,0.0293 0.41811,0.0131 0.62536,0.035 0.0784,0.008 0.157,0.0218 0.23536,0.0301 0.1372,0.0144 0.27814,-0.0144 0.41534,0 0.19951,0.021 0.42158,0.0362 0.62302,0.015 0.55654,-0.0588 1.11837,-0.0464 1.67519,-0.105189 0.27967,-0.0294 0.55103,-0.120831 0.8307,-0.150291 0.16557,-0.0174 0.33281,-0.0126 0.4984,-0.0301 0.18233,-0.0192 0.35691,-0.100841 0.53994,-0.120231 0.27495,-0.029 0.55892,-0.0228 0.83069,-0.0801 0.11699,-0.0248 0.22982,-0.0672 0.34612,-0.0953 0.11948,-0.0287 0.24186,-0.0344 0.35996,-0.07 0.0713,-0.0215 0.13581,-0.0607 0.20766,-0.0803 0.10536,-0.0285 0.21349,-0.0416 0.31844,-0.07 0.13249,-0.0361 0.25599,-0.100541 0.38764,-0.140361 0.0773,-0.0233 0.15811,-0.0317 0.23536,-0.055 0.10149,-0.0307 0.19009,-0.095 0.29074,-0.12533 0.0723,-0.0218 0.15092,-0.0284 0.22152,-0.055 0.059,-0.0223 0.10812,-0.0699 0.16613,-0.0953 0.0897,-0.0392 0.18996,-0.0531 0.2769,-0.0977 0.15173,-0.0777 0.29184,-0.17448 0.42918,-0.27802 0.093,-0.07 0.20782,-0.11166 0.30458,-0.18034 0.0479,-0.034 0.10495,-0.0502 0.1523,-0.0851 0.30639,-0.226329 0.61236,-0.529 0.6507,-0.956859 0.0143,-0.158401 0.0277,-0.323411 -0.005,-0.480911 -0.0187,-0.0912 -0.0608,-0.16786 -0.0878,-0.25548 -0.0706,-0.22993 -0.12224,-0.49428 -0.25833,-0.691299 -0.18636,-0.269611 -0.43943,-0.46633 -0.70152,-0.636151 -0.0528,-0.0343 -0.0872,-0.089 -0.13844,-0.12534 -0.12681,-0.0899 -0.27038,-0.15434 -0.4015,-0.23534 -0.0534,-0.0331 -0.0969,-0.0828 -0.15228,-0.112709 -0.0829,-0.0451 -0.17916,-0.0523 -0.26305,-0.0953 -0.0627,-0.032 -0.11782,-0.0815 -0.17999,-0.11512 -0.0911,-0.0494 -0.19659,-0.0917 -0.29073,-0.132851 -0.0946,-0.0413 -0.19646,-0.0589 -0.29074,-0.10009 -0.0619,-0.0271 -0.11713,-0.0687 -0.17998,-0.0953 -0.0908,-0.0383 -0.18609,-0.0386 -0.2769,-0.07 -0.0914,-0.0317 -0.16655,-0.099 -0.26305,-0.12534 -0.1062,-0.0287 -0.21293,-0.0534 -0.31843,-0.0851 -0.0851,-0.0257 -0.16296,-0.0718 -0.2492,-0.0953 -0.0865,-0.0234 -0.17652,-0.0316 -0.26306,-0.055 -0.10106,-0.0275 -0.19258,-0.0897 -0.29074,-0.125331 -0.081,-0.0293 -0.16682,-0.0328 -0.24919,-0.055 -0.0972,-0.0265 -0.1822,-0.0789 -0.27691,-0.11031 -0.12071,-0.04 -0.25141,-0.0443 -0.37379,-0.0775 -0.14537,-0.0395 -0.28008,-0.11181 -0.42919,-0.14788 -0.0827,-0.0198 -0.16655,-0.0213 -0.24921,-0.04 -0.10342,-0.0234 -0.20061,-0.0717 -0.30458,-0.0953 -0.13291,-0.0301 -0.26873,-0.038 -0.4015,-0.07 -0.14107,-0.0341 -0.27509,-0.10219 -0.41533,-0.14036 -0.13099,-0.0355 -0.2686,-0.038 -0.40151,-0.07 -0.1574,-0.038 -0.31233,-0.0918 -0.47071,-0.12533 -0.11852,-0.0249 -0.24118,-0.015 -0.35996,-0.04 -0.18054,-0.0382 -0.35664,-0.1082 -0.53995,-0.13029 -0.16572,-0.02 -0.33254,-0.0275 -0.49841,-0.0451 -0.14052,-0.0149 -0.27384,-0.0903 -0.41534,-0.1052 -0.23466,-0.0248 -0.47127,-0.0353 -0.70607,-0.0601 -0.15105,-0.0159 -0.29254,-0.087 -0.44304,-0.105199 -0.31787,-0.0383 -0.63837,-0.0664 -0.95528,-0.105201 -0.0791,-0.01 -0.15631,-0.0356 -0.23536,-0.0451 -0.24477,-0.0294 -0.48858,-0.0643 -0.73377,-0.0902 -0.064,-0.007 -0.12986,0.007 -0.19383,0 -0.16115,-0.017 -0.32299,-0.0281 -0.48456,-0.0451 -0.0838,-0.009 -0.15575,-0.0655 -0.23536,-0.0751 -0.18414,-0.0223 -0.36938,-0.0257 -0.55379,-0.0451 -0.17375,-0.0183 -0.35041,-0.0451 -0.5261,-0.0451 -0.0772,0 -0.15852,0.008 -0.23536,0 -0.0774,-0.008 -0.13706,-0.0436 -0.20767,-0.0702 -0.0706,-0.0266 -0.1491,-0.04 -0.22151,-0.0651 -0.12834,-0.0445 -0.27371,-0.11993 -0.32771,-0.27051 -0.0346,-0.0966 -0.0273,-0.34169 0.12004,-0.31059 0.1635,0.0345 0.17416,0.171031 0.25377,0.29556 0.0317,0.0496 0.0821,0.0757 0.11768,0.12022 0.0417,0.052 0.0593,0.11181 0.12696,0.1303 0.0923,0.0249 0.20947,0.005 0.30458,0.005 0.26347,0 0.54105,-0.0276 0.80299,0 0.1174,0.0123 0.24353,0.0105 0.35997,0.035 0.19036,0.0403 0.37436,0.0948 0.56763,0.11527 0.10508,0.0111 0.21334,-0.0111 0.31843,0 0.26526,0.0279 0.53842,0.0197 0.80534,0.0576 0.16281,0.0233 0.31788,0.0829 0.48221,0.10279 0.24228,0.0291 0.49094,-0.017 0.73377,0.005 0.12876,0.0116 0.2589,0.003 0.38765,0.015 0.23605,0.0213 0.4962,0.0401 0.73377,0.015 0.23938,-0.0252 0.48055,-0.0349 0.71993,-0.0601 0.12972,-0.0137 0.25792,-0.0464 0.38765,-0.0601 0.24242,-0.0256 0.49467,-0.0262 0.73377,-0.0801 0.15907,-0.0361 0.31163,-0.1043 0.47072,-0.14036 0.16766,-0.0379 0.3439,-0.017 0.51224,-0.055 0.11008,-0.0249 0.21017,-0.0777 0.31844,-0.1103 0.0955,-0.0287 0.19507,-0.0412 0.29074,-0.07 0.10259,-0.031 0.20102,-0.0837 0.30458,-0.11026 0.0964,-0.0247 0.19563,-0.0207 0.29074,-0.0551 0.0846,-0.0306 0.15603,-0.0871 0.23536,-0.12774 0.0622,-0.0318 0.13125,-0.0465 0.19381,-0.0777 0.0487,-0.0242 0.0903,-0.063 0.13846,-0.0877 0.13526,-0.0693 0.2899,-0.11902 0.42919,-0.17784 0.0811,-0.0342 0.16807,-0.0347 0.24919,-0.0701 0.0554,-0.0242 0.0993,-0.0689 0.1523,-0.0977 0.10882,-0.0591 0.23536,-0.0685 0.34612,-0.12524 0.12183,-0.0624 0.25197,-0.10287 0.3738,-0.16531 0.15396,-0.0789 0.30155,-0.17572 0.45688,-0.25298 0.0894,-0.0445 0.18857,-0.0598 0.2769,-0.10771 0.0529,-0.0287 0.0991,-0.0721 0.15229,-0.10018 0.0443,-0.0234 0.0944,-0.0261 0.13845,-0.0526 0.0597,-0.036 0.10936,-0.085 0.16613,-0.12524 0.0431,-0.0305 0.0951,-0.0407 0.13845,-0.0701 0.12073,-0.0819 0.2373,-0.16599 0.35995,-0.24547 0.36302,-0.23532 0.75981,-0.40678 1.12143,-0.6412 0.14302,-0.0927 0.26513,-0.22063 0.38765,-0.34065 0.1397,-0.13695 0.29877,-0.25506 0.42684,-0.40577 0.15076,-0.17732 0.26885,-0.38951 0.39457,-0.5861 0.10079,-0.15757 0.2373,-0.31868 0.28159,-0.51097 0.0504,-0.21882 0.0245,-0.48434 0.005,-0.70633 -0.0119,-0.13243 -0.0761,-0.22749 -0.12003,-0.34565 -0.0724,-0.19514 -0.1498,-0.39781 -0.28145,-0.55605 -0.11755,-0.14141 -0.26928,-0.22592 -0.41535,-0.32059 -0.34363,-0.22276 -0.72615,-0.31396 -1.12142,-0.35568 -0.12959,-0.0137 -0.25723,-0.0514 -0.38764,-0.0601 -0.0627,-0.004 -0.11893,0.009 -0.18,0.015 -0.1981,0.0209 -0.39706,0.0241 -0.59532,0.0451 -0.25293,0.0267 -0.50824,0.0334 -0.76146,0.0601 -0.1574,0.0166 -0.30055,0.10372 -0.45687,0.12022 -0.23758,0.0251 -0.48651,0.0203 -0.71993,0.0802 -0.14979,0.0384 -0.29101,0.10587 -0.44303,0.14027 -0.2078,0.047 -0.41492,0.10637 -0.623,0.15029 -0.10412,0.022 -0.21751,0.0186 -0.31844,0.0551 -0.077,0.0279 -0.14688,0.0776 -0.22151,0.11022 -0.0888,0.0388 -0.18787,0.0463 -0.27688,0.0851 -0.0625,0.0273 -0.11948,0.0667 -0.17999,0.0977 -0.0714,0.0366 -0.14856,0.0507 -0.22152,0.0827 -0.0624,0.0273 -0.11947,0.0667 -0.17997,0.0977 -0.0705,0.0362 -0.14981,0.0481 -0.22153,0.0827 -0.0539,0.026 -0.0975,0.0712 -0.15229,0.0952 -0.10411,0.0455 -0.22427,0.0526 -0.33226,0.0851 -0.0911,0.0275 -0.17403,0.078 -0.26306,0.11022 -0.10328,0.0374 -0.21514,0.0478 -0.31842,0.0851 -0.0653,0.0236 -0.12626,0.0618 -0.19383,0.0802 -0.14966,0.0406 -0.30472,0.034 -0.45687,0.0501 -0.14385,0.0152 -0.28534,0.06 -0.42919,0.0751 -0.20781,0.022 -0.4152,0.0532 -0.62301,0.0751 -0.32147,0.0339 -0.64779,0.0112 -0.96913,0.0451 -0.35082,0.037 -0.70137,0.0832 -1.05219,0.12022 -0.19701,0.0208 -0.40136,0.0333 -0.59533,0.0801 -0.17264,0.0416 -0.35013,0.0967 -0.52609,0.11522 -0.20366,0.0215 -0.42337,0.014 -0.62302,0.0651 -0.0914,0.0235 -0.16073,0.0959 -0.2492,0.12525 -0.0636,0.0211 -0.13152,0.0279 -0.19383,0.0551 -0.067,0.0293 -0.12252,0.0737 -0.19382,0.0952 -0.10121,0.0305 -0.20671,0.0394 -0.30459,0.0851 -0.0447,0.0209 -0.0802,0.0587 -0.1246,0.0802 -0.0763,0.0368 -0.15755,0.0558 -0.23536,0.0851 -0.0763,0.0288 -0.14523,0.0838 -0.22151,0.11022 -0.11644,0.0404 -0.23426,0.037 -0.34612,0.0977 -0.0804,0.0437 -0.18386,0.14637 -0.27454,0.0676 -0.0983,-0.0853 -0.0397,-0.23171 -0.03,-0.34065 0.008,-0.0903 0.0197,-0.1803 0.0277,-0.27051 0.006,-0.0723 -0.004,-0.13979 0.0184,-0.21039 0.0286,-0.0895 0.0976,-0.17783 0.16156,-0.24046 0.13513,-0.13244 0.30044,-0.21314 0.44304,-0.33562 0.19438,-0.1671 0.38474,-0.3378 0.58147,-0.50096 0.1163,-0.0964 0.26098,-0.17219 0.38766,-0.25046 0.0652,-0.0403 0.11311,-0.10443 0.17998,-0.14277 0.0948,-0.0544 0.19354,-0.11554 0.29073,-0.16531 0.0616,-0.0316 0.1379,-0.0387 0.19383,-0.0827 0.0295,-0.0232 0.0407,-0.0537 0.06,-0.0852 0.054,-0.0879 0.12405,-0.17505 0.13388,-0.28554 0.0115,-0.129 -0.0525,-0.23345 -0.0969,-0.34565 -0.027,-0.0681 -0.041,-0.144059 -0.0716,-0.210399 -0.0298,-0.0648 -0.0804,-0.10723 -0.11768,-0.16531 -0.0817,-0.12779 -0.15659,-0.26752 -0.2445,-0.39074 -0.0753,-0.10544 -0.18261,-0.18914 -0.25391,-0.30056 -0.0211,-0.0329 -0.0223,-0.0714 -0.0392,-0.1052 -0.0204,-0.0407 -0.0597,-0.0686 -0.0854,-0.1052 -0.027,-0.0384 -0.0458,-0.0846 -0.0762,-0.12023 -0.0285,-0.0335 -0.0659,-0.0561 -0.0946,-0.0902 -0.10453,-0.12401 -0.18109,-0.27046 -0.26762,-0.40576 -0.0233,-0.0363 -0.0601,-0.062 -0.0739,-0.1052 -0.0341,-0.10676 0.0655,-0.24317 0.0878,-0.34565 0.0278,-0.12786 0.026,-0.26195 0.0507,-0.39074 0.0198,-0.10315 0.062,-0.19325 0.0647,-0.30057 m -0.0415,-0.0301 0.0138,0.015 -0.0138,-0.015 m -2.51975,0.621175 c -0.15132,0.032 -0.28104,0.10536 -0.42918,0.14779 -0.0573,0.0164 -0.14939,0.0415 -0.15922,0.11772 -0.007,0.0536 0.0523,0.14517 0.09,0.17533 0.0771,0.0618 0.19286,0.0508 0.2769,0.0977 0.1354,0.0755 0.25876,0.26158 0.42918,0.21791 0.0777,-0.0199 0.1642,-0.0893 0.22152,-0.14779 0.0252,-0.0256 0.0393,-0.0599 0.0692,-0.0802 0.0767,-0.0519 0.16891,-0.0223 0.23536,-0.0977 0.0403,-0.0458 0.11353,-0.12502 0.0946,-0.19537 -0.0237,-0.0884 -0.13872,-0.0961 -0.20532,-0.12523 -0.1934,-0.0846 -0.40911,-0.15536 -0.62301,-0.11022 m -1.23217,2.82032 c 0.0152,-0.12838 0.12723,-0.2082 0.2492,-0.18034 -0.013,-0.1073 0.10757,-0.0962 0.17541,-0.11522 0.10799,-0.0303 0.20656,-0.11737 0.30915,-0.16531 0.0756,-0.0353 0.15783,-0.0482 0.23537,-0.0751 0.18053,-0.0626 0.2546,-0.2437 0.3576,-0.39574 0.0327,-0.0481 0.0706,-0.17259 0.1408,-0.14528 0.0698,0.0271 0.0827,0.15807 0.11533,0.22042 0.0526,0.10012 0.17167,0.21507 0.25848,0.28053 0.0666,0.0502 0.15008,0.0589 0.22152,0.0977 0.0615,0.0334 0.10688,0.0911 0.16613,0.12774 0.0732,0.0453 0.16088,0.0352 0.23536,0.0726 0.0378,0.019 0.0595,0.0596 0.0969,0.0802 0.0425,0.0234 0.0998,0.0196 0.13845,0.0526 0.0443,0.0378 0.0436,0.16101 -0.0138,0.18536 -0.13679,0.058 -0.12737,-0.0879 -0.18234,-0.16031 -0.0288,-0.038 -0.0933,-0.0506 -0.13609,-0.0551 -0.10785,-0.0114 -0.13761,0.0797 -0.21002,0.14027 -0.031,0.026 -0.0847,0.0246 -0.12225,0.02 -0.0879,-0.0106 -0.13457,-0.0919 -0.20767,-0.13275 -0.19881,-0.11091 -0.462,-0.16599 -0.67839,-0.0877 -0.1037,0.0375 -0.20767,0.0937 -0.30458,0.14779 -0.0608,0.0339 -0.12142,0.0814 -0.19383,0.0726 -0.10716,-0.0129 -0.13776,-0.18482 -0.26305,-0.16782 -0.0321,0.004 -0.11159,0.01 -0.13388,0.0351 -0.0302,0.0342 -0.0246,0.095 -0.0507,0.13275 -0.0472,0.0683 -0.14551,0.0529 -0.2031,0.015 m -15.60298,1.608031 c 0.0145,-0.14935 0.2011,-0.13032 0.30458,-0.15528 0.10211,-0.0246 0.1891,-0.0977 0.29074,-0.12525 0.13671,-0.0371 0.2894,-0.0374 0.42919,-0.0501 0.19142,-0.0173 0.38862,-0.0692 0.58148,-0.0576 0.12136,0.007 0.23923,0.0448 0.35996,0.0576 0.13804,0.0146 0.27725,0.0155 0.41534,0.0301 0.12996,0.0137 0.2358,0.0966 0.35996,0.13025 0.17207,0.0467 0.35132,0.0316 0.5261,0.0501 0.10544,0.0111 0.15766,0.0877 0.2492,0.127739 0.10078,0.0441 0.21886,0.0181 0.31843,0.0676 0.0408,0.0203 0.1135,0.0915 0.0762,0.14777 -0.0181,0.0273 -0.0633,0.0175 -0.09,0.0175 -0.0871,0 -0.19415,-0.004 -0.27689,-0.0351 -0.0814,-0.0307 -0.1244,-0.11641 -0.20768,-0.14027 -0.16695,-0.0478 -0.34379,-0.009 -0.51225,-0.0551 -0.11818,-0.032 -0.19848,-0.12288 -0.31843,-0.14277 -0.13685,-0.0227 -0.29056,-0.003 -0.42918,-0.003 -0.12571,0 -0.24948,-0.017 -0.37381,-0.0301 -0.0803,-0.008 -0.16709,0.015 -0.24921,0.015 -0.12325,0 -0.24857,0.015 -0.3738,0.015 -0.14925,0 -0.31101,-0.0129 -0.45688,0.02 -0.075,0.017 -0.12622,0.0636 -0.19382,0.0977 -0.1184,0.0597 -0.30827,0.0555 -0.42919,0.0175 m 32.18893,-0.373186 c 0.10868,-0.018 0.22498,10e-4 0.33227,0.0125 0.0548,0.006 0.11131,-0.006 0.16614,0 0.13429,0.0142 0.2672,0.0459 0.4015,0.0601 0.13554,0.0143 0.2726,-0.0126 0.38765,0.0777 0.11394,0.0894 0.22317,0.0614 0.34611,0.10769 0.0367,0.0138 0.10287,0.0677 0.0669,0.11271 -0.0572,0.0716 -0.24463,0.0333 -0.31607,0.0125 -0.0843,-0.0245 -0.15132,-0.0887 -0.23536,-0.11022 -0.21127,-0.0541 -0.43431,-0.0351 -0.6507,-0.0351 -0.36412,0 -0.72989,-0.0234 -1.09373,0.015 -0.0735,0.008 -0.14786,-0.0111 -0.22152,0 -0.0658,0.01 -0.0997,0.0487 -0.15229,0.0852 -0.0469,0.0326 -0.12543,0.0478 -0.17998,0.0601 -0.13886,0.0314 -0.29157,-0.0102 -0.42919,0.025 -0.0858,0.022 -0.13332,0.0863 -0.20767,0.12774 -0.12211,0.0681 -0.26139,0.0333 -0.38765,0.0751 -0.0653,0.0217 -0.0955,0.0914 -0.16614,0.1052 -0.0432,0.008 -0.15367,0.0449 -0.1869,-0.002 -0.0278,-0.0397 0.0209,-0.0696 0.0485,-0.0802 0.0653,-0.025 0.18316,-0.01 0.23079,-0.0676 0.0313,-0.038 0.046,-0.0825 0.0876,-0.11271 0.0972,-0.0703 0.22581,-0.0473 0.33228,-0.0827 0.0708,-0.0235 0.11934,-0.0936 0.19383,-0.11272 0.12308,-0.0316 0.26194,-0.0368 0.38765,-0.0501 0.0641,-0.007 0.13041,0.009 0.19382,-0.005 0.11741,-0.0266 0.21349,-0.11341 0.33228,-0.14028 0.17167,-0.0388 0.3522,-0.0167 0.52609,-0.0351 0.0651,-0.007 0.12917,-0.0319 0.19383,-0.0426 m -27.85554,0.748923 c -0.0421,0.0192 -0.0664,0.01 -0.11075,0.005 -0.12174,-0.0129 -0.19279,-0.0132 -0.2769,-0.12523 0.10896,-0.0498 0.35301,-0.0226 0.38765,0.12022 m 25.30812,-0.0601 -0.0138,0.015 0.0138,-0.015 m 0,0.0301 -0.0138,0.015 0.0138,-0.015 m -24.35283,0.58611 0.45687,0.0701 0.15229,0.0802 c -0.16277,0 -0.33436,0.0719 -0.49841,0.01 -0.0629,-0.0237 -0.0825,-0.10411 -0.13844,-0.13776 -0.0604,-0.0363 -0.13305,-0.0155 -0.19383,-0.0551 -0.0454,-0.0296 -0.0581,-0.0975 -0.11076,-0.11521 -0.0757,-0.0255 -0.16176,-0.01 -0.23536,-0.0501 -0.0578,-0.0318 -0.0926,-0.096 -0.15229,-0.13024 -0.0906,-0.0519 -0.14963,-0.069 -0.17998,-0.18285 0.0897,-0.0205 0.21371,-0.008 0.29074,0.0501 0.0343,0.0259 0.0596,0.0607 0.0969,0.0827 0.0579,0.034 0.12679,0.0368 0.17998,0.0827 0.0402,0.0346 0.0427,0.0931 0.0831,0.12525 0.07,0.0558 0.26651,0.0275 0.24921,0.17032 m 22.67761,0.150279 v -0.0451 c 0.13388,-0.0306 0.26375,-0.0602 0.4015,-0.0726 0.059,-0.005 0.16932,0.007 0.22152,-0.0251 0.0417,-0.0255 0.0386,-0.084 0.0831,-0.1102 0.0579,-0.0342 0.1419,-0.0249 0.19382,-0.0676 0.0267,-0.022 0.0286,-0.0568 0.0461,-0.0852 0.0338,-0.0549 0.079,-0.0753 0.13387,-0.0952 0.11574,-0.0419 0.19009,-0.1603 0.31844,-0.1603 0.0255,0 0.0728,-0.01 0.0946,0.008 0.0356,0.0284 -0.003,0.10024 -0.0277,0.12274 -0.0375,0.0337 -0.0946,0.0297 -0.13611,0.0551 -0.0638,0.0391 -0.0975,0.1086 -0.16613,0.14277 -0.0633,0.0315 -0.14855,0.008 -0.20767,0.0401 -0.049,0.027 -0.0746,0.0901 -0.12459,0.12023 -0.0503,0.0303 -0.11797,0.0149 -0.16615,0.0451 -0.0479,0.0301 -0.0577,0.10407 -0.11076,0.13525 -0.0498,0.0293 -0.12542,0.0225 -0.17998,0.0225 -0.12945,0 -0.24699,-0.005 -0.37381,-0.0301 m -0.96912,0.76645 c -0.1948,0 -0.40053,0.0206 -0.59532,0 -0.0595,-0.006 -0.11879,-0.0241 -0.16614,-0.0651 -0.0291,-0.0251 -0.0469,-0.0659 -0.0831,-0.0802 -0.0825,-0.0325 -0.19037,-0.0109 -0.2769,-0.02 -0.0899,-0.009 -0.18856,-0.0315 -0.27689,-0.0501 -0.18497,-0.0391 -0.36398,-0.11021 -0.55379,-0.13024 -0.22581,-0.0239 -0.44968,-0.0301 -0.67839,-0.0301 -0.0789,0 -0.15506,-0.0235 -0.23536,-0.015 -0.23938,0.0253 -0.48041,0.0348 -0.71992,0.0601 -0.13208,0.0139 -0.25766,0.0728 -0.38766,0.10019 -0.19327,0.0408 -0.38917,0.0538 -0.58147,0.10018 -0.12862,0.031 -0.24478,0.0961 -0.37381,0.12524 -0.14703,0.0332 -0.29821,0.0415 -0.44303,0.0851 -0.0816,0.0246 -0.15271,0.0765 -0.23536,0.0952 -0.11768,0.0266 -0.24256,0.01 -0.35996,0.0401 -0.1156,0.0296 -0.21722,0.094 -0.33228,0.12524 -0.15838,0.043 -0.32452,0.0514 -0.48456,0.0852 -0.14426,0.0305 -0.28631,0.0736 -0.42918,0.11021 -0.11644,0.0298 -0.24173,0.0312 -0.35997,0.0526 -0.13471,0.0244 -0.2654,0.0883 -0.40149,0.10269 -0.26748,0.0282 -0.53593,0.0429 -0.803,0.0751 -0.0761,0.009 -0.17167,0.0326 -0.21694,0.1052 -0.017,0.0275 -0.0192,0.063 -0.0368,0.0902 -0.0234,0.0359 -0.0566,0.0543 -0.0923,0.0251 -0.0404,-0.0331 -0.0486,-0.124471 -0.0577,-0.175331 -0.013,-0.0729 -0.0321,-0.15024 -0.0253,-0.22543 0.008,-0.0865 0.053,-0.1858 0.0415,-0.27051 0.0241,-0.0205 0.036,-0.0812 0.0692,-0.0877 0.0473,-0.009 0.0609,0.0692 0.0738,0.10269 0.0305,0.0791 0.0785,0.12899 0.16157,0.12023 0.10688,-0.0113 0.21501,-0.0596 0.32299,-0.0576 0.16365,0.003 0.32868,-0.0151 0.49384,-0.0326 0.13804,-0.0146 0.27759,-0.0106 0.41535,-0.0301 0.17499,-0.0248 0.32687,-0.10907 0.49841,-0.14528 0.10466,-0.0221 0.21334,-0.0163 0.31842,-0.0401 0.14163,-0.032 0.27468,-0.0892 0.41534,-0.12524 0.14551,-0.0373 0.29684,-0.0305 0.44304,-0.0701 0.14412,-0.0391 0.28395,-0.0902 0.42918,-0.12525 0.10965,-0.0265 0.22498,-0.0313 0.33227,-0.0701 0.0829,-0.03 0.16351,-0.0758 0.24921,-0.0952 0.17056,-0.0386 0.35304,-0.0443 0.5261,-0.0651 0.11062,-0.0133 0.21888,-0.0543 0.32992,-0.0701 0.31302,-0.0446 0.64004,-0.0801 0.95763,-0.0801 0.44317,0 0.87707,-0.0439 1.31525,-0.0902 0.12197,-0.0129 0.23965,-0.0129 0.35996,-0.0401 0.1073,-0.0243 0.22318,-0.0252 0.33227,-0.0351 0.0568,-0.005 0.10578,-0.007 0.1523,-0.0501 0.0342,-0.0313 0.0386,-0.0744 0.0554,-0.11522 -0.0323,-0.009 -0.0651,-0.0222 -0.0785,-0.0601 -0.0125,-0.0351 -0.006,-0.0902 0.037,-0.0902 0.0473,0 0.0754,0.0596 0.11076,0.0852 0.0328,0.0238 0.0738,0.0289 0.11076,0.0401 0.10757,0.0324 0.2103,0.0825 0.31842,0.11022 0.0366,0.009 0.0739,10e-4 0.11076,0.008 0.0876,0.0145 0.17556,0.0256 0.26305,0.0401 0.0867,0.0144 0.17597,0.0207 0.26305,0.0326 0.0366,0.005 0.0802,0.0259 0.0647,0.0752 -0.01,0.0303 -0.0403,0.0361 -0.0647,0.0451 -0.0705,0.0259 -0.14703,0.044 -0.22151,0.0451 -0.30486,0.005 -0.61056,0.015 -0.91375,0.015 -0.0793,0 -0.17417,-0.0153 -0.24921,0.0175 -0.0303,0.0132 -0.073,0.0458 -0.0669,0.0877 0.005,0.0358 0.0389,0.0546 0.0669,0.0651 0.0739,0.0279 0.15894,0.0243 0.23536,0.0451 0.0717,0.0194 0.11131,0.0931 0.17998,0.11271 0.0659,0.0189 0.14011,0.0104 0.20767,0.0175 0.12322,0.013 0.24118,0.0436 0.35996,0.0777 0.0674,0.0193 0.17127,0.0296 0.17999,0.11772 M 163.2727,53.867577 c 0.0219,0.0975 -0.059,0.19121 0.0415,0.26551 0.0705,0.0521 0.18195,0.0265 0.26305,0.0351 0.0927,0.01 0.18422,0.0353 0.27689,0.0451 0.0594,0.006 0.12055,-0.006 0.17998,0 0.42506,0.0449 0.84393,0.1052 1.27372,0.1052 0.33512,0 0.67793,0.025 1.01066,0.0601 0.18247,0.0193 0.35788,0.0832 0.53994,0.1052 0.11298,0.0136 0.23495,0.01 0.34612,0.0351 0.14232,0.0322 0.27413,0.10195 0.41534,0.14028 0.10481,0.0284 0.2139,0.0283 0.31843,0.0551 0.12737,0.0326 0.24616,0.0944 0.37381,0.12525 0.15949,0.0385 0.32604,0.0271 0.48456,0.0701 0.0865,0.0235 0.16143,0.0753 0.24921,0.0952 0.1552,0.0351 0.31621,0.0282 0.47072,0.0701 0.10383,0.0282 0.1952,0.10368 0.30458,0.11522 0.25322,0.0267 0.50824,0.0484 0.76146,0.0751 0.11948,0.0126 0.24062,0.002 0.35996,0.015 0.0627,0.007 0.1192,0.0373 0.17998,0.0501 0.10301,0.0218 0.20199,-0.20983 0.28617,-0.1077 0.11325,0.13739 0.12045,0.33707 0.0485,0.49343 -0.0191,0.0412 -0.0594,0.12663 -0.11311,0.11772 -0.0842,-0.014 -0.1055,-0.15854 -0.19383,-0.18786 -0.0397,-0.0132 -0.0839,-6.61e-4 -0.1246,-0.005 -0.2121,-0.0224 -0.42434,-0.0377 -0.63686,-0.0601 -0.16641,-0.0176 -0.32258,-0.0737 -0.48456,-0.11522 -0.12253,-0.0314 -0.25059,-0.0291 -0.37381,-0.0551 -0.0904,-0.0191 -0.17403,-0.056 -0.26305,-0.0802 -0.21667,-0.0588 -0.4512,-0.0477 -0.66454,-0.11521 -0.0724,-0.0229 -0.13762,-0.0687 -0.20767,-0.0952 -0.14759,-0.0556 -0.30611,-0.036 -0.45688,-0.0701 -0.11339,-0.0257 -0.22068,-0.0765 -0.33227,-0.11021 -0.11325,-0.0342 -0.23148,-0.0442 -0.34612,-0.0701 -0.0876,-0.0198 -0.16531,-0.0648 -0.2492,-0.0952 -0.19743,-0.0714 -0.40912,-0.0639 -0.60917,-0.1152 -0.13754,-0.0353 -0.27407,-0.0853 -0.41534,-0.1002 -0.27642,-0.0292 -0.5543,-0.046 -0.83068,-0.0751 -0.11047,-0.0117 -0.22371,0.004 -0.33228,0.015 -0.1429,0.0151 -0.28686,0 -0.42918,0.015 -0.25506,0.0269 -0.51263,0.0928 -0.76146,0.1603 -0.0619,0.0168 -0.13058,0.0284 -0.19383,0.0351 -0.0625,0.007 -0.13297,-0.0143 -0.19382,0.005 -0.10749,0.034 -0.17832,0.12649 -0.29074,0.1553 -0.10507,0.0269 -0.22635,0.0162 -0.33228,0.005 -0.0516,-0.005 -0.0862,-0.019 -0.13844,-0.003 -0.0597,0.0189 -0.10778,0.0657 -0.16614,0.0877 -0.0914,0.0345 -0.19482,0.06 -0.29074,0.0751 -0.0946,0.0149 -0.21338,-0.009 -0.30458,0.025 -0.0607,0.0229 -0.0734,0.096 -0.1246,0.13025 -0.0897,0.0599 -0.21808,0.0451 -0.31843,0.0451 0,-0.23647 0.23207,-0.13027 0.35996,-0.20288 0.0612,-0.0347 0.0794,-0.10077 0.15229,-0.12274 0.12174,-0.0367 0.27317,1.4e-4 0.38766,-0.0551 0.0706,-0.0341 0.0982,-0.12163 0.17998,-0.13025 0.0616,-0.007 0.11952,0.0223 0.17998,0.015 0.0561,-0.007 0.1083,-0.039 0.16613,-0.0451 0.16586,-0.0175 0.31318,0.002 0.45688,-0.10019 0.0965,-0.0684 0.20947,-0.067 0.31843,-0.0801 0.0379,-0.005 0.0834,-0.0283 0.0877,-0.0752 0.004,-0.0454 -0.0383,-0.0868 -0.0738,-0.10019 -0.0871,-0.0328 -0.20252,-0.006 -0.29074,-0.005 -0.20371,0.003 -0.40464,-0.015 -0.60916,-0.015 -0.10669,0 -0.21168,0.0324 -0.31843,0.005 -0.0966,-0.0247 -0.2296,-0.0253 -0.26305,-0.14026 l 0.34612,-0.1052 0.16613,0.015 0.24921,-0.0501 0.30458,-0.0852 0.19383,-0.0902 m 19.24413,1.006902 c 0.14108,0.0247 0.28714,-0.0177 0.42919,0.025 0.0919,0.0276 0.14177,0.12627 0.23536,0.15028 0.091,0.0233 0.2114,-0.002 0.28838,0.0701 0.0238,0.0223 0.0348,0.058 0.0532,0.0852 0.0327,0.0482 0.16753,0.0571 0.15451,0.13526 -0.006,0.0375 -0.0437,0.0273 -0.0669,0.02 -0.0515,-0.0163 -0.0951,-0.0349 -0.0831,-0.0952 -0.1102,0 -0.26055,-0.0237 -0.35996,-0.0777 -0.0573,-0.0311 -0.0808,-0.10571 -0.13845,-0.12774 -0.10051,-0.0384 -0.22788,-0.003 -0.33227,-0.025 -0.0677,-0.0143 -0.21293,-0.0633 -0.17998,-0.16031 m -21.25161,0.33062 -0.0139,0.015 0.0139,-0.015 m 0,0.0301 -0.0139,0.015 0.0139,-0.015 m -0.0692,0.0301 c 0.0264,0.0906 -0.0794,0.10215 -0.13845,0.0751 v -0.0301 l 0.13845,-0.0451 m -0.51225,0.39074 v -0.0601 c 0.0468,0 0.0363,-0.0371 0.06,-0.0751 0.0238,-0.0382 0.0624,-0.0725 0.10615,-0.0752 0.061,-0.004 0.0606,0.0477 0.03,0.0902 -0.0325,0.0451 -0.0703,0.0366 -0.11307,0.0601 -0.0337,0.0185 -0.0457,0.0481 -0.0831,0.0601 m 23.18987,-0.20789 c 0.0486,-0.019 0.1163,0.01 0.1408,0.0576 0.0159,0.0312 0.0219,0.0885 -0.0162,0.10269 -0.0515,0.0193 -0.11754,-0.0237 -0.13844,-0.0726 -0.0132,-0.0307 -0.0223,-0.0735 0.0138,-0.0877 m -23.21756,0.20789 -0.0138,0.015 0.0138,-0.015 m -0.0831,0.12023 -0.0277,0.12022 c -0.0623,-0.0437 -0.0402,-0.1043 0.0277,-0.12022 m 10.61889,0.45085 v 0.0301 h -0.0277 v -0.0301 h 0.0277 m 17.48585,6.76275 c -0.11754,0 -0.13443,-0.0631 -0.22151,-0.1327 -0.037,-0.0296 -0.0852,-0.0421 -0.12461,-0.0676 -0.0472,-0.0307 -0.0811,-0.0748 -0.1246,-0.11031 -0.0503,-0.0409 -0.11795,-0.0316 -0.16613,-0.07 -0.0475,-0.0379 -0.0458,-0.12068 -0.0969,-0.15284 -0.0604,-0.0379 -0.1437,-0.0117 -0.20767,-0.0425 -0.0447,-0.0216 -0.0699,-0.0657 -0.11075,-0.0927 -0.0685,-0.0454 -0.15589,-0.0511 -0.22152,-0.10265 -0.0365,-0.0288 -0.0457,-0.083 -0.0831,-0.10775 -0.0685,-0.0452 -0.17361,-0.0186 -0.24919,-0.0425 -0.0723,-0.023 -0.11271,-0.0942 -0.17998,-0.12774 -0.0739,-0.0368 -0.15951,-0.0236 -0.23537,-0.0526 -0.0753,-0.0288 -0.0961,-0.13435 -0.16613,-0.1578 -0.0903,-0.0304 -0.20976,-0.0116 -0.30459,-0.0176 -0.247,-0.0155 -0.49619,0 -0.74761,0 -0.22221,0 -0.45715,-0.007 -0.6784,-0.0301 -0.15685,-0.0165 -0.31634,0.0288 -0.47072,0.0451 -0.14688,0.0155 -0.29627,-3.18e-4 -0.44303,0.015 -0.15976,0.0168 -0.32798,0.04 -0.48456,0.0801 -0.10315,0.0265 -0.19743,0.0739 -0.30458,0.0852 -0.25364,0.0268 -0.52167,0.0268 -0.7753,0 -0.0868,-0.009 -0.17625,0.009 -0.26306,0 -0.0824,-0.009 -0.17568,-0.0367 -0.24919,-0.0777 -0.0341,-0.0189 -0.0605,-0.0538 -0.0969,-0.0676 -0.0847,-0.0319 -0.18843,-0.0159 -0.27689,-0.02 -0.0872,-0.004 -0.17611,-0.0209 -0.26305,-0.0301 -0.0507,-0.005 -0.1019,0.006 -0.15229,-0.005 -0.0952,-0.0201 -0.17251,-0.076 -0.26305,-0.110309 -0.1019,-0.0383 -0.22041,-0.031 -0.31843,-0.0827 -0.0871,-0.0458 -0.16973,-0.11182 -0.26305,-0.142771 -0.1192,-0.0395 -0.26374,0.007 -0.38765,-0.0249 -0.0923,-0.0237 -0.14939,-0.109249 -0.23536,-0.140359 -0.10937,-0.0395 -0.23647,-0.009 -0.34612,-0.055 -0.0915,-0.0386 -0.157,-0.173731 -0.27689,-0.10776 l -0.0277,0.0225 c -0.0756,0.11212 0.0879,0.0963 0.1361,0.14022 0.0443,0.0403 0.0352,0.12098 -0.0253,0.1303 -0.0673,0.0102 -0.15145,-0.003 -0.20531,-0.05 -0.026,-0.0227 -0.0408,-0.0503 -0.0716,-0.0676 -0.0564,-0.032 -0.12252,-0.0358 -0.17998,-0.0652 -0.16088,-0.0825 -0.31898,-0.17553 -0.48456,-0.24797 -0.13402,-0.0586 -0.27731,-0.041 -0.41534,-0.07 -0.13361,-0.0282 -0.25488,-0.0953 -0.38766,-0.12534 -0.20933,-0.0473 -0.42904,-0.0362 -0.63685,-0.0926 -0.22027,-0.0598 -0.4213,-0.1309 -0.6507,-0.13781 -0.0611,-0.002 -0.15327,-0.0434 -0.2031,0.0176 -0.0778,0.0951 0.0983,0.27292 0.14315,0.3431 0.0222,0.0347 0.0327,0.0732 0.06,0.1052 0.0272,0.0317 0.066,0.0487 0.0923,0.0801 0.035,0.0419 0.0359,0.10339 0.0738,0.14532 0.0381,0.0419 0.0786,0.0664 0.10619,0.12023 0.0241,0.0472 0.0255,0.10279 0.0507,0.15028 0.0313,0.0588 0.09,0.0909 0.11768,0.15029 0.0295,0.063 0.0216,0.14337 0.0439,0.21039 0.0402,0.12083 0.12004,0.17674 0.0831,0.3156 l -0.11076,-0.16531 c 0,-0.0622 -0.0887,-0.0944 -0.12003,-0.15029 -0.0343,-0.0616 -0.041,-0.13691 -0.0784,-0.19537 -0.0295,-0.046 -0.0785,-0.0736 -0.10619,-0.12022 -0.0197,-0.0329 -0.0222,-0.0733 -0.0439,-0.1052 -0.0396,-0.0583 -0.0919,-0.1058 -0.13152,-0.16531 -0.0518,-0.078 -0.1163,-0.14758 -0.16614,-0.22543 -0.0184,-0.029 -0.0262,-0.0636 -0.0485,-0.0902 -0.0331,-0.0397 -0.0858,-0.0512 -0.11768,-0.0927 -0.0309,-0.0401 -0.0399,-0.093 -0.0738,-0.1327 -0.0806,-0.0944 -0.17167,-0.16637 -0.26305,-0.24542 -0.0968,-0.0837 -0.18026,-0.16726 -0.29074,-0.23549 -0.10591,-0.0654 -0.23162,-0.0642 -0.34612,-0.0951 -0.0878,-0.0239 -0.16558,-0.075 -0.2492,-0.11031 -0.0748,-0.0316 -0.15797,-0.0341 -0.23536,-0.055 -0.10453,-0.0284 -0.18953,-0.1067 -0.29074,-0.14037 -0.0795,-0.0263 -0.16835,-0.0192 -0.2492,-0.04 -0.0723,-0.0186 -0.14565,-0.0546 -0.22152,-0.0352 -0.16004,0.041 -0.15561,0.20123 -0.19839,0.34069 -0.0137,0.0445 -0.0418,0.10175 -0.03,0.15029 0.01,0.0407 0.0449,0.0676 0.0577,0.1052 0.0242,0.0712 0.007,0.15824 -0.0508,0.19537 -0.017,-0.0467 -0.0386,-0.0834 -0.0415,-0.13526 -0.003,-0.0466 0.0114,-0.10685 -0.007,-0.15028 -0.0252,-0.0595 -0.0807,-0.0723 -0.11311,-0.12023 -0.0453,-0.067 -0.037,-0.18996 -0.0299,-0.26795 0.005,-0.0609 0.0403,-0.10009 0.0645,-0.15284 0.0465,-0.10099 0.0716,-0.20243 0.0716,-0.3156 0,-0.16516 -0.0303,-0.52749 0.19382,-0.54102 0.0804,-0.005 0.10467,0.0771 0.10841,0.15029 0.008,0.14652 -0.0417,0.33212 0.12695,0.4008 0.0828,0.0337 0.15354,0.0882 0.23537,0.12519 0.10341,0.0467 0.22456,0.0359 0.33227,0.0651 0.0775,0.021 0.13484,0.0806 0.20767,0.11031 0.10148,0.0412 0.21459,0.0388 0.31842,0.07 0.0737,0.0223 0.1253,0.0783 0.19383,0.11031 0.11671,0.0546 0.25447,0.0401 0.37381,0.0851 0.11948,0.0451 0.21847,0.11151 0.34611,0.14036 0.0807,0.0182 0.16739,0.0114 0.24921,0.02 0.0673,0.007 0.12931,0.0356 0.19383,0.0552 0.11602,0.0349 0.24131,0.0633 0.35996,0.0902 0.10937,0.0246 0.22387,0.0155 0.33227,0.04 0.10979,0.0249 0.19853,0.0981 0.30459,0.12534 0.19867,0.0508 0.40952,0.0189 0.60916,0.07 0.0984,0.0252 0.19258,0.0685 0.29074,0.0953 0.15534,0.0421 0.31594,0.0482 0.47072,0.0926 0.22968,0.0658 0.44732,0.13766 0.68296,0.17283 0.048,0.007 0.10217,0.0116 0.14772,0.0301 0.0738,0.0301 0.12765,0.0897 0.20767,0.11031 0.0916,0.0234 0.19009,0.0232 0.2769,0.0676 0.10951,0.056 0.24574,0.1626 0.3738,0.12022 0.11118,-0.037 0.0642,-0.11752 0.0323,-0.19792 -0.0131,-0.0331 -0.0127,-0.0748 -0.0346,-0.10264 -0.0274,-0.035 -0.0726,-0.0418 -0.0991,-0.0777 -0.0246,-0.0332 -0.0687,-0.14893 0.005,-0.14773 0.10314,0.002 0.0901,0.10204 0.1408,0.1602 0.0271,0.0314 0.0756,0.0395 0.10605,0.0676 0.0299,0.0277 0.0437,0.0705 0.0716,0.10024 0.0281,0.0299 0.0655,0.0388 0.0946,0.0651 0.0295,0.0266 0.0421,0.0681 0.0716,0.0953 0.0334,0.0305 0.0757,0.0437 0.11076,0.07 0.045,0.034 0.075,0.0851 0.1246,0.11271 0.0688,0.0385 0.14939,0.0416 0.22152,0.0676 0.0678,0.0246 0.12723,0.0702 0.19382,0.0953 0.16489,0.0621 0.34348,0.0469 0.51225,0.0851 0.1098,0.0249 0.21003,0.0825 0.31843,0.11031 0.0894,0.0229 0.18371,0.0128 0.27455,0.0226 0.27937,0.0298 0.58175,0.0269 0.86071,-0.003 0.1941,-0.0204 0.37657,-0.11076 0.57221,-0.13271 0.26442,-0.0297 0.53399,0.0104 0.79843,-0.0176 0.12238,-0.0129 0.23895,-0.0526 0.35996,-0.0726 0.13983,-0.0233 0.27841,0.0131 0.41534,0.0275 0.16129,0.017 0.32326,0.0281 0.48455,0.0451 0.1109,0.0117 0.22235,0.0185 0.33228,0.0301 0.13901,0.0147 0.278,-0.0152 0.41534,0.02 0.0748,0.0192 0.11284,0.0849 0.17998,0.1103 0.10646,0.0401 0.22497,0.008 0.33228,0.055 0.0652,0.0285 0.1023,0.0984 0.16614,0.12533 0.071,0.0299 0.15312,0.0252 0.2215,0.0676 0.0404,0.0249 0.0547,0.0762 0.0969,0.10009 0.0791,0.0448 0.18137,0.0176 0.26306,0.0652 0.0458,0.0266 0.0676,0.0815 0.11075,0.11271 0.0424,0.0307 0.0962,0.0382 0.13845,0.07 0.0345,0.0262 0.053,0.0682 0.0854,0.0953 0.0662,0.0553 0.1732,0.0276 0.24686,0.0676 0.0511,0.0276 0.072,0.0762 0.11075,0.11767 0.0385,0.0412 0.0991,0.049 0.13388,0.0927 0.0313,0.0394 0.0367,0.0938 0.0738,0.13015 0.062,0.061 0.10827,0.0808 0.11076,0.18289 m -17.11207,-2.629959 c 0.0263,-0.0987 -0.005,-0.1865 -0.0138,-0.28554 -0.01,-0.10835 -0.006,-0.18965 -0.0831,-0.27051 -0.0397,-0.0419 -0.10674,-0.10625 -0.16614,-0.10264 -0.054,0.003 -0.11228,0.0404 -0.16613,0.0526 -0.0906,0.0204 -0.18871,0.0245 -0.2769,0.055 -0.0695,0.0242 -0.12488,0.0843 -0.19382,0.11031 -0.0976,0.0367 -0.20698,0.0334 -0.30459,0.07 -0.0811,0.0307 -0.1498,0.087 -0.23536,0.11031 -0.0951,0.0257 -0.20185,0.0194 -0.29074,0.0676 -0.18482,0.10024 -0.34888,0.25593 -0.51225,0.39314 -0.10813,0.0909 -0.17569,0.23129 -0.26762,0.33814 -0.0368,0.0428 -0.084,0.0738 -0.11546,0.12278 -0.0406,0.0636 -0.041,0.10805 -0.10148,0.15524 -0.0604,0.047 -0.0696,0.11572 -0.11533,0.17042 -0.0288,0.0343 -0.0756,0.0425 -0.10162,0.0801 -0.0443,0.0643 -0.0374,0.15885 -0.0807,0.22543 -0.0232,0.0356 -0.0619,0.0559 -0.0876,0.0902 -0.0674,0.0894 -0.0658,0.1569 -0.18234,0.18034 0,-0.11136 -9.8e-4,-0.22031 0.0599,-0.3156 0.0174,-0.0273 0.0426,-0.0478 0.0601,-0.0751 0.0234,-0.0367 0.0278,-0.0835 0.0507,-0.12022 0.0307,-0.0491 0.0847,-0.0711 0.11546,-0.12023 0.0251,-0.0404 0.0285,-0.0929 0.0507,-0.13526 0.0331,-0.063 0.086,-0.1073 0.12461,-0.16531 0.0209,-0.0313 0.032,-0.0721 0.0554,-0.10024 0.0309,-0.0367 0.0755,-0.0539 0.10384,-0.0951 0.0274,-0.0398 0.03,-0.0953 0.0601,-0.1327 0.0277,-0.0347 0.10023,-0.0658 0.0922,-0.12278 -0.0121,-0.0855 -0.11975,-0.0813 -0.17763,-0.0751 -0.0882,0.009 -0.17499,0.0358 -0.26304,0.0451 -0.10772,0.0114 -0.2146,0.0159 -0.31843,0.0551 -0.0691,0.026 -0.13568,0.0588 -0.20767,0.0751 -0.20823,0.047 -0.42877,0.0319 -0.63686,0.0851 -0.0868,0.0223 -0.16157,0.0754 -0.2492,0.0953 -0.14413,0.0326 -0.30306,0.0173 -0.44304,0.07 -0.0595,0.0225 -0.10951,0.0687 -0.16613,0.0977 -0.0742,0.0382 -0.1588,0.0493 -0.23536,0.0827 -0.0465,0.0204 -0.0804,0.0588 -0.1246,0.0827 -0.057,0.031 -0.12328,0.0319 -0.17998,0.0652 -0.0506,0.0297 -0.0833,0.081 -0.13845,0.10265 -0.0501,0.0197 -0.13277,0.0476 -0.17998,0.0101 -0.12958,-0.10339 0.0795,-0.17327 0.15229,-0.17538 -0.003,-0.12293 -0.12308,-0.13615 -0.20767,-0.0827 -0.0444,0.0281 -0.0733,0.069 -0.1246,0.0852 -0.0806,0.0254 -0.16775,0.0141 -0.24921,0.0324 -0.0399,0.009 -0.0887,0.0185 -0.1246,0.0401 -0.0516,0.0311 -0.0938,0.0851 -0.15229,0.10264 -0.14811,0.0446 -0.31385,-10e-4 -0.45688,0.0526 -0.0778,0.0293 -0.1448,0.0917 -0.22151,0.12534 -0.14619,0.0639 -0.30852,0.0742 -0.45688,0.130141 -0.10488,0.0395 -0.18964,0.0852 -0.30458,0.0852 -0.16547,0 -0.35173,0.004 -0.51225,0.05 -0.0658,0.0189 -0.11373,0.0753 -0.17999,0.0953 -0.11139,0.0335 -0.21898,0.023 -0.33227,0.035 -0.0725,0.008 -0.1492,0.0517 -0.22151,0.0451 -0.0557,-0.005 -0.11054,-0.0242 -0.16614,-0.0301 -0.19338,-0.0204 -0.38851,-0.007 -0.58148,-0.0301 -0.10213,-0.0123 -0.19298,-0.0586 -0.29074,-0.0852 -0.12136,-0.0329 -0.25014,-0.052 -0.3738,-0.0651 -0.0777,-0.008 -0.15764,0.008 -0.23536,0 -0.22866,-0.0242 -0.46149,-0.05 -0.69224,-0.05 -0.2071,0 -0.41751,0.02 -0.62301,0.02 -0.25815,0 -0.52235,-0.0268 -0.7753,0 -0.0975,0.0102 -0.19433,-0.005 -0.29074,0.02 -0.0941,0.0242 -0.14369,0.12353 -0.23536,0.15539 -0.0787,0.0272 -0.17511,0.014 -0.2492,0.0576 -0.0687,0.0404 -0.11515,0.0966 -0.19383,0.12278 -0.0622,0.0206 -0.13614,0.006 -0.19383,0.0376 -0.0596,0.0327 -0.0918,0.1037 -0.15229,0.14022 -0.0472,0.0285 -0.1039,0.031 -0.15229,0.0551 -0.0569,0.0283 -0.0978,0.0798 -0.15229,0.11271 -0.0511,0.0308 -0.11818,0.0203 -0.16614,0.055 -0.0396,0.0287 -0.0626,0.0783 -0.0992,0.11031 -0.0558,0.0485 -0.13427,0.0552 -0.19152,0.10009 -0.0365,0.0287 -0.0474,0.0768 -0.0831,0.1052 -0.0376,0.0301 -0.0861,0.0311 -0.12461,0.0601 -0.088,0.0664 -0.16442,0.14458 -0.26305,0.19041 l 0.0785,-0.18034 0.0831,-0.0902 0.09,-0.13029 0.10844,-0.0801 0.0831,-0.0876 0.19383,-0.0627 0.11076,-0.0977 0.16382,-0.0726 0.0992,-0.10775 0.2769,-0.0601 0.13845,-0.12518 0.22151,-0.0601 0.11076,-0.10519 0.19383,-0.0476 0.15229,-0.0226 0.20767,-0.12278 0.30458,-0.005 0.42919,-0.0301 0.42918,-0.0301 0.29074,-0.0601 0.55379,0.0902 0.84914,0.035 0.45226,0.115261 h 0.16614 l 0.40149,0.015 0.13845,-0.0301 0.15229,0.0301 0.19383,-0.0301 0.16613,-0.005 0.26306,-0.11031 0.48456,-0.0676 0.15229,-0.0876 0.2769,-0.0777 0.13844,-0.12774 0.23536,-0.1602 0.10152,-0.14532 0.2446,-0.19537 c 0.0138,0.0633 -0.0292,0.20393 -0.0715,0.25548 -0.0466,0.0568 -0.18427,0.12233 -0.0669,0.20288 0.0519,0.0356 0.0979,0.0132 0.15229,0.008 0.11983,-0.0126 0.19593,-0.0678 0.30458,-0.11527 0.0909,-0.0397 0.1848,-0.0409 0.2769,-0.07 0.0854,-0.0271 0.14688,-0.10129 0.23536,-0.12534 0.10935,-0.0296 0.22307,-0.012 0.33227,-0.04 0.0895,-0.023 0.17442,-0.0685 0.26305,-0.0953 0.21889,-0.066 0.44483,-0.0857 0.66455,-0.14518 0.13401,-0.0364 0.26319,-0.10069 0.4015,-0.11527 0.12778,-0.0135 0.26124,-0.008 0.38765,-0.035 0.13747,-0.029 0.26484,-0.0923 0.40149,-0.12534 0.19148,-0.0461 0.39084,-0.0512 0.58148,-0.10009 0.0797,-0.0204 0.15423,-0.0619 0.23536,-0.0803 0.1282,-0.029 0.25986,-0.0242 0.38765,-0.055 0.0917,-0.0221 0.16295,-0.0777 0.24921,-0.11031 0.11546,-0.0434 0.24338,-0.043 0.35996,-0.0851 0.0779,-0.0282 0.14509,-0.0814 0.22151,-0.11031 0.10702,-0.0403 0.22512,-0.0448 0.33227,-0.0851 0.0768,-0.029 0.14122,-0.0885 0.22152,-0.1103 0.11394,-0.031 0.23467,-0.0281 0.34612,-0.07 0.0561,-0.0212 0.0997,-0.0691 0.15229,-0.0977 0.0489,-0.0266 0.0951,-0.041 0.13845,-0.0803 0.0756,-0.0684 0.10148,-0.14969 0.11075,-0.25293 0.006,-0.0664 -0.017,-0.18215 0.0692,-0.19537 0.0576,-0.009 0.085,0.0355 0.0969,0.0902 0.0213,0.0983 0.0187,0.20063 0.0277,0.30057 0.0164,0.1844 0.10909,0.34896 0.14772,0.52599 0.0191,0.0879 0.006,0.19822 -0.007,0.28554 -0.019,0.12353 -0.0473,0.24406 -0.16849,0.28554 m 8.2376,0.13525 0.0554,0.0902 c -0.0587,0.0117 -0.0897,-0.0389 -0.0554,-0.0902 m -15.9491,1.95369 c 0.002,-0.0652 0.0247,-0.1309 0.0831,-0.16036 0.0398,-0.02 0.0878,-0.0135 0.1246,-0.04 0.0403,-0.029 0.0577,-0.0807 0.0969,-0.11031 0.0612,-0.0461 0.14319,-0.0316 0.20768,-0.0651 0.0513,-0.0266 0.0627,-0.0957 0.11075,-0.1303 0.0446,-0.032 0.10486,-0.0268 0.15229,-0.0526 0.0591,-0.032 0.0952,-0.0966 0.1523,-0.1327 0.0518,-0.0327 0.11489,-0.0225 0.16613,-0.0526 0.0502,-0.0295 0.0828,-0.0851 0.13845,-0.10775 0.0709,-0.0288 0.1494,-0.0362 0.22151,-0.0651 -0.0303,-0.13902 0.1441,-0.15976 0.23536,-0.16532 0.0356,-0.002 0.0832,0.0134 0.0808,0.0601 -0.009,0.16741 -0.25038,0.0888 -0.32535,0.16276 -0.0271,0.0267 -0.0436,0.0639 -0.0738,0.0878 -0.0415,0.0326 -0.0963,0.0383 -0.13844,0.07 -0.053,0.04 -0.0821,0.10505 -0.13845,0.14037 -0.039,0.0243 -0.085,0.0302 -0.1246,0.0526 -0.0506,0.0285 -0.0716,0.087 -0.1246,0.11271 -0.0718,0.0346 -0.16906,0.0165 -0.23536,0.0576 -0.0389,0.024 -0.0599,0.0806 -0.0969,0.11015 -0.0507,0.0406 -0.11269,0.0362 -0.16614,0.0652 -0.05,0.0271 -0.0684,0.0798 -0.11076,0.11511 -0.0587,0.049 -0.16463,0.0477 -0.23536,0.0477 m 17.02898,-0.015 c 0.0591,0.002 0.13056,0.0128 0.17998,0.05 0.0469,0.0355 0.073,0.0992 0.12461,0.12533 0.0512,0.0257 0.11809,0.0153 0.16378,0.055 0.0389,0.0338 0.0475,0.0936 0.0854,0.12774 0.0388,0.0349 0.0968,0.0364 0.13845,0.0676 0.0413,0.0311 0.0689,0.0799 0.11076,0.1103 0.0509,0.0368 0.11781,0.028 0.16378,0.0752 0.0285,0.0291 0.0291,0.0772 0.0601,0.10519 0.0336,0.0302 0.0853,0.0296 0.12225,0.055 0.10259,0.0706 0.20919,0.19386 0.26305,0.31063 -0.13014,0.0335 -0.18621,-0.0938 -0.27689,-0.16035 -0.0212,-0.0155 -0.0471,-0.0195 -0.0692,-0.0324 -0.0525,-0.0308 -0.0433,-0.0699 -0.0738,-0.11031 -0.0353,-0.0466 -0.10522,-0.0287 -0.14772,-0.0625 -0.0451,-0.0361 -0.063,-0.10294 -0.11076,-0.14036 -0.0458,-0.0359 -0.1048,-0.0373 -0.15229,-0.0651 -0.0458,-0.0267 -0.0678,-0.0811 -0.11076,-0.10775 -0.0411,-0.0254 -0.0951,-0.0232 -0.13845,-0.0451 -0.0466,-0.0234 -0.0748,-0.0636 -0.11075,-0.10265 -0.0555,-0.0603 -0.12308,-0.0472 -0.17763,-0.0951 -0.0402,-0.0353 -0.0439,-0.0941 -0.0439,-0.14532 -0.0836,0 -0.1761,-0.0192 -0.2492,-0.0651 -0.037,-0.0231 -0.0609,-0.0615 -0.0969,-0.0852 -0.0422,-0.028 -0.0976,-0.026 -0.13845,-0.0526 -0.0473,-0.0308 -0.0634,-0.10445 -0.11076,-0.13526 -0.0669,-0.0436 -0.15354,-0.008 -0.22152,-0.0576 -0.0455,-0.0331 -0.0732,-0.0855 -0.1246,-0.11031 -0.0569,-0.0273 -0.12557,-0.0216 -0.17998,-0.0526 -0.0559,-0.0317 -0.0599,-0.1043 -0.11076,-0.14277 -0.048,-0.0362 -0.11463,-0.0385 -0.16613,-0.0676 -0.0476,-0.0269 -0.0667,-0.081 -0.11076,-0.11272 -0.0756,-0.0542 -0.18967,-0.004 -0.26305,-0.0801 -0.0205,-0.0212 -0.0544,-0.0702 -0.0346,-0.10265 0.0192,-0.0317 0.0878,-0.0176 0.11768,-0.0176 0.05,0 0.12363,0.004 0.16613,0.035 0.069,0.0511 0.0777,0.12534 0.16614,0.1578 0.0429,0.0158 0.0846,0.024 0.1246,0.0502 0.0364,0.0236 0.0566,0.0631 0.0969,0.0827 0.0605,0.0291 0.13193,0.0299 0.19382,0.055 0.0706,0.0288 0.0835,0.0978 0.13845,0.13781 0.0446,0.0324 0.10646,0.0245 0.15229,0.0575 0.046,0.0334 0.0611,0.0891 0.0993,0.12534 0.0453,0.0428 0.12488,0.0209 0.17762,0.04 0.0432,0.0156 0.069,0.0518 0.0993,0.0852 0.0939,0.10354 0.26167,0.0633 0.27454,0.24045 m -12.64021,-0.465882 c 0.006,0.0819 0.0302,0.19672 -0.0231,0.26796 -0.0183,0.0246 -0.069,0.0618 -0.0991,0.0401 -0.0293,-0.021 -0.0143,-0.0822 -0.0116,-0.11271 0.01,-0.10625 0.04,-0.16321 0.13388,-0.19537 m 8.4868,0.67628 c -0.15049,0 -0.13844,-0.19462 -0.13844,-0.3156 0.13401,0 0.13844,0.19853 0.13844,0.3156 m -12.88942,-0.19537 c -0.005,0.0733 -0.0442,0.14728 -0.11075,0.17538 -0.027,0.0114 -0.0575,0.01 -0.0831,0.0275 -0.0445,0.0305 -0.0437,0.0899 -0.0831,0.12518 -0.0527,0.0475 -0.13392,0.0293 -0.19382,0.0627 -0.0476,0.0266 -0.07,0.0675 -0.11076,0.10024 -0.0421,0.0337 -0.0999,0.031 -0.13384,0.0801 -0.0256,0.037 -0.0227,0.0855 -0.06,0.11527 -0.0478,0.038 -0.1192,0.0176 -0.16613,0.055 -0.04,0.0319 -0.0594,0.0906 -0.0992,0.12534 -0.0435,0.0379 -0.10469,0.0367 -0.14998,0.07 -0.0369,0.0274 -0.0717,0.0685 -0.10615,0.10024 -0.0287,0.0263 -0.0613,0.0548 -0.0807,0.0902 -0.0174,0.0316 -0.0172,0.0738 -0.0392,0.10264 -0.0307,0.0404 -0.0855,0.0415 -0.11998,0.0777 -0.0435,0.0457 -0.0628,0.12383 -0.13845,0.12023 -0.0575,-0.003 -0.0563,-0.0786 -0.0346,-0.12023 0.022,-0.0424 0.0683,-0.0522 0.0946,-0.0902 0.0423,-0.0613 0.0535,-0.13916 0.10614,-0.19537 0.08,-0.0855 0.1913,-0.0739 0.29074,-0.1052 -0.0316,-0.14502 0.0996,-0.14217 0.17998,-0.20032 0.026,-0.0188 0.0473,-0.0464 0.0692,-0.0702 0.0263,-0.0285 0.0519,-0.0627 0.0831,-0.0852 0.0339,-0.0245 0.0763,-0.0222 0.11075,-0.0425 0.0395,-0.0231 0.061,-0.0696 0.0969,-0.0977 0.0343,-0.0269 0.0777,-0.035 0.11076,-0.0627 0.05,-0.0416 0.0664,-0.1043 0.12461,-0.14021 0.0506,-0.0313 0.1214,-0.0299 0.16613,-0.0702 0.0297,-0.0267 0.035,-0.0684 0.06,-0.0977 0.0542,-0.0634 0.14559,-0.05 0.2169,-0.05 m 4.12573,0.34565 c -0.0258,-0.0968 -0.006,-0.21476 0.0415,-0.30057 0.10411,0.0245 0.0572,0.2893 -0.0415,0.30057 m 8.81907,-0.1052 -0.0138,0.015 0.0138,-0.015 m -0.0277,0.015 c 0.0762,0.0897 0.0692,0.1572 0.0692,0.27051 -0.0586,-0.04 -0.12834,-0.20934 -0.0692,-0.27051 m 12.00336,0.36068 0.0138,0.0601 0.0415,0.0451 h -0.0415 c -0.0262,-0.0415 -0.0523,-0.0699 -0.0138,-0.105201 m -0.0138,0.015 0.0138,0.015 -0.0138,-0.015 m -20.89165,0.34565 0.0138,0.0301 -0.0138,-0.0301 m -0.0138,0.0301 0.0669,0.30312 0.0439,0.37315 -0.0208,0.13526 -0.15922,0.0951 -0.11075,0.0702 0.12003,-0.73639 0.06,-0.24045 m 14.45386,0.0902 c 0.11353,0.0229 0.21211,0.12849 0.30459,0.21295 0.0276,0.0251 0.0869,0.10385 0.0392,0.14022 -0.0346,0.0263 -0.0719,-0.0143 -0.0946,-0.0376 -0.067,-0.0687 -0.11519,-0.15223 -0.18233,-0.22046 -0.0296,-0.0301 -0.075,-0.0559 -0.0669,-0.0951 m -5.45481,0.31815 c 0.0631,-0.0167 0.085,0.0628 0.11311,0.102639 0.078,0.110911 0.1109,0.220471 0.10384,0.360681 -0.003,0.0491 -0.0102,0.12023 -0.0647,0.1327 -0.0483,0.0111 -0.0948,-0.0403 -0.1246,-0.0726 -0.0988,-0.10731 -0.0955,-0.20604 -0.0831,-0.34565 0.004,-0.0466 -0.002,-0.16261 0.0554,-0.17779 m -14.91074,0.2379 c 0.037,0.0954 -0.002,0.17027 -0.0415,0.25548 -0.0927,-0.008 -0.10463,-0.15615 -0.0392,-0.22046 0.0201,-0.0197 0.0558,-0.0265 0.0808,-0.035 m 20.91934,0.2104 h -0.0277 c -0.0374,-0.0676 -0.0883,-0.12549 -0.0554,-0.2104 0.0951,0.0218 0.11782,0.12083 0.0831,0.2104 m 0.12461,0.2705 -0.0554,-0.0301 v -0.120229 c 0.0754,0.009 0.0804,0.0855 0.0554,0.15028 m -21.25162,0.0451 c 0,0.0646 -0.004,0.12939 -0.0554,0.16531 l 0.0277,-0.16531 h 0.0277 m 15.58914,0.48586 c 0.0107,0 0.002,0.008 -0.005,0.005 l 0.005,-0.005 m -9.92665,0.0552 c 0,0.0699 0.002,0.11872 -0.0692,0.13525 0,-0.0657 0.006,-0.11496 0.0692,-0.13525 m 10.0374,0.19537 c 0.0139,-0.006 0.0248,-0.0182 0.0415,-0.015 0.13775,0.0265 0.022,0.22858 -0.03,0.0751 -0.007,-0.0197 -0.008,-0.0398 -0.0115,-0.0601 m -10.21739,0.15029 c -0.002,0.0914 -0.0673,0.12187 -0.13845,0.15028 v -0.0451 -0.015 l 0.0139,-0.0301 0.1246,-0.0601 m 4.92636,0.75893 c -0.0546,0.01 -0.11588,0.006 -0.16379,0.0425 -0.0977,0.0739 -0.11421,0.22527 -0.1246,0.34069 -0.0176,0.19612 -0.0516,0.39014 -0.0692,0.58611 -0.0118,0.130889 -0.0436,0.259839 -0.0554,0.39073 -0.0109,0.12264 0,0.25248 0,0.37571 0,0.208899 0.0295,0.407119 0.22152,0.50841 0.11574,0.0612 0.27592,0.0326 0.40149,0.0326 0.10162,0 0.21889,0.0174 0.31843,-0.005 0.0551,-0.0125 0.10397,-0.0379 0.15229,-0.0676 0.0735,-0.0455 0.16337,-0.12128 0.18926,-0.21295 0.014,-0.0497 0.005,-0.11376 0.005,-0.16531 0,-0.20409 -0.0649,-0.39855 -0.0831,-0.60113 -0.0242,-0.27067 -0.0599,-0.54914 -0.0599,-0.8216 0,-0.14082 -0.0101,-0.28795 -0.13388,-0.37571 -0.0552,-0.0391 -0.13069,-0.035 -0.19382,-0.035 -0.13194,0 -0.27385,-0.0156 -0.40385,0.008 m 0.36231,0.38578 c 0.0565,-0.0195 0.18884,0.0146 0.22844,0.0625 0.0265,0.0322 0.036,0.10445 0.0439,0.14533 0.0273,0.14217 0.002,0.30838 -0.009,0.45085 -0.0143,0.1865 0.0228,0.3727 0.0392,0.55605 0.009,0.0968 -0.0293,0.28584 -0.12225,0.32566 -0.13554,0.058 -0.24381,0.0113 -0.33228,-0.10024 -0.0364,-0.046 -0.0767,-0.10114 -0.0807,-0.16531 -0.008,-0.11978 0.0705,-0.23715 0.10384,-0.34565 0.0429,-0.13991 0.0461,-0.3195 0.0461,-0.46588 0,-0.11782 -0.0144,-0.24707 0.0162,-0.36068 0.0108,-0.0406 0.0259,-0.0885 0.0669,-0.10264 m -0.29309,2.19909 c -0.0881,0.0156 -0.19576,0.009 -0.25613,0.0977 -0.0356,0.0524 -0.0399,0.1339 -0.0461,0.19536 -0.01,0.0954 -0.0293,0.19072 -0.0439,0.28554 -0.0159,0.10445 -0.0436,0.2101 -0.053,0.3156 -0.004,0.0496 0.004,0.10069 0,0.15028 -0.005,0.0562 -0.0263,0.11031 -0.037,0.16531 -0.0232,0.12173 -0.0335,0.25218 -0.0461,0.37571 -0.0201,0.19597 -0.0554,0.40787 0.0738,0.57108 0.064,0.0807 0.18372,0.0751 0.27233,0.0751 0.1491,0 0.30735,-0.0158 0.45687,0 0.0948,0.0101 0.18178,0.0165 0.2769,-0.005 0.0662,-0.015 0.10134,-0.043 0.14301,-0.10024 0.14565,-0.19958 0.0854,-0.38698 0.0532,-0.61616 -0.0101,-0.0715 -0.0197,-0.14052 -0.0393,-0.21039 -0.0198,-0.0706 -0.0537,-0.13902 -0.0692,-0.2104 -0.0178,-0.0824 0.013,-0.1859 0.0162,-0.27051 0.005,-0.14247 -0.007,-0.292 -0.007,-0.43583 0,-0.16425 -0.001,-0.30357 -0.16614,-0.37074 -0.0814,-0.0331 -0.17749,-0.02 -0.26305,-0.02 -0.0876,0 -0.17901,-0.008 -0.2654,0.008 m 0.41769,0.43327 c 0.16877,0 0.17472,0.24767 0.17998,0.38578 0.002,0.0389 -0.006,0.0823 0.005,0.12022 0.0102,0.0361 0.0364,0.0655 0.037,0.1052 9.8e-4,0.0636 -0.0338,0.12023 -0.0415,0.18034 -0.0334,0.26044 0.10633,0.638261 -0.19382,0.75142 -0.0357,0.0135 -0.0728,0.0191 -0.11076,0.015 -0.044,-0.005 -0.086,-0.0216 -0.1246,-0.0425 -0.13665,-0.0742 -0.15908,-0.22196 -0.0831,-0.36323 0.0365,-0.0681 0.10217,-0.11181 0.11076,-0.19537 0.0122,-0.11887 -0.0107,-0.24165 0,-0.36068 0.004,-0.0416 0.0239,-0.0786 0.0277,-0.12023 0.008,-0.0843 -0.008,-0.171171 0,-0.255481 0.0108,-0.120229 0.0739,-0.220459 0.19382,-0.220459 m -0.35996,2.05888 c -0.0827,0.0174 -0.19202,0.007 -0.26304,0.0601 -0.12018,0.0906 -0.12489,0.21686 -0.15687,0.35572 -0.0523,0.22693 -0.0687,0.45972 -0.0923,0.6913 -0.0303,0.29606 -0.15022,0.60805 -0.06,0.9017 0.0256,0.0836 0.0438,0.1829 0.11533,0.2355 0.037,0.0271 0.0825,0.0305 0.1246,0.04 0.14994,0.034 0.29198,0.0242 0.44303,0.0401 0.10481,0.0111 0.21141,0.0524 0.31843,0.0251 0.0651,-0.0167 0.16004,-0.0449 0.20532,-0.10023 0.0505,-0.0615 0.0509,-0.14939 0.0577,-0.22543 0.0148,-0.16531 -0.0108,-0.33077 -0.0277,-0.49593 -0.0302,-0.29426 -0.0692,-0.58851 -0.0692,-0.88668 0,-0.13525 0.0367,-0.3461 -0.0277,-0.46587 -0.0421,-0.0783 -0.13056,-0.18034 -0.22152,-0.18034 -0.0594,0 -0.11837,0.0179 -0.17998,0.015 -0.0575,-0.003 -0.10743,-0.0224 -0.16614,-0.0101 m 0.22152,0.4184 c 0.067,-0.0159 0.2049,0.0591 0.24463,0.11767 0.0265,0.0391 0.0324,0.11797 0.0415,0.16531 0.046,0.2397 0.0122,0.49698 -0.009,0.73639 -0.0115,0.12774 0.0195,0.2648 -0.005,0.39073 -0.0192,0.0998 -0.0858,0.14412 -0.17542,0.16036 -0.10729,0.0194 -0.1977,-0.0795 -0.20767,-0.19041 -0.009,-0.10565 0.0183,-0.22543 0.0277,-0.33063 0.0198,-0.22061 0,-0.45445 0,-0.67627 0,-0.0977 -0.0389,-0.34445 0.0831,-0.37315 m -0.11076,2.21156 c -0.16434,0.0347 -0.39111,-0.0431 -0.53538,0.0777 -0.0777,0.0651 -0.0792,0.183192 -0.0876,0.278032 -0.007,0.0817 -0.0354,0.16065 -0.0508,0.240448 -0.017,0.0893 -0.0209,0.181692 -0.0368,0.27051 -0.0357,0.19958 -0.059,0.403511 -0.0969,0.601131 -0.0233,0.12083 -0.0778,0.217011 -0.0647,0.345651 0.005,0.0523 0.0332,0.103399 0.053,0.150289 0.0221,0.0523 0.0327,0.10805 0.0716,0.150281 0.0317,0.0344 0.0716,0.0431 0.11076,0.0627 0.17098,0.0851 0.35207,0.117671 0.53994,0.117671 0.0757,0 0.16116,0.01169 0.23536,-0.005 0.0469,-0.01069 0.0954,-0.0293 0.13845,-0.0526 0.30569,-0.16591 0.16365,-0.607751 0.13845,-0.88922 -0.0185,-0.20725 -0.0277,-0.4226 -0.0277,-0.6312 0,-0.16546 0.0198,-0.348951 -0.009,-0.510961 -0.007,-0.0413 -3.2e-4,-0.0833 -0.023,-0.120229 -0.0651,-0.1067 -0.25156,-0.107 -0.35539,-0.0852 m 0.0138,0.448449 c 0.16572,-0.0376 0.19479,0.108352 0.20767,0.252931 0.0199,0.22212 0.006,0.470831 -0.0138,0.691301 -0.008,0.0942 0.008,0.191309 0,0.285538 -0.0109,0.12278 -0.0407,0.24842 -0.16614,0.28058 -0.0465,0.01191 -0.10826,0.01101 -0.15229,-0.008 -0.035,-0.0149 -0.0687,-0.035 -0.0969,-0.0627 -0.20172,-0.197321 0.0507,-0.39419 0.0692,-0.601131 0.009,-0.0951 -0.0194,-0.178239 -0.0277,-0.27051 -0.005,-0.0589 0.0129,-0.12309 0.0231,-0.18034 0.0217,-0.121428 0.0118,-0.35542 0.15686,-0.388178 m -0.15229,2.123948 c -0.12959,0.0195 -0.2589,0.01101 -0.38765,0.02259 -0.0684,0.006 -0.13734,-0.007 -0.19383,0.0476 -0.0587,0.0567 -0.063,0.160661 -0.0807,0.2379 -0.0419,0.18169 -0.0827,0.357979 -0.11768,0.54102 -0.0512,0.266449 -0.12363,0.52704 -0.14772,0.796499 -0.006,0.0682 -0.0278,0.141121 -0.009,0.2104 0.0231,0.0857 0.0943,0.19912 0.16157,0.250521 0.03,0.02291 0.0667,0.0323 0.0969,0.055 0.0343,0.0258 0.0593,0.0616 0.0969,0.0827 0.15284,0.0854 0.37657,0.0523 0.53994,0.0326 0.12917,-0.01561 0.28741,-0.12323 0.34155,-0.255479 0.026,-0.0637 0.0263,-0.128191 0.0323,-0.195371 0.0141,-0.157949 0.0141,-0.30793 0,-0.465879 -0.0211,-0.235341 0,-0.484661 0,-0.72136 0,-0.167261 0.0395,-0.36654 -0.0184,-0.525991 -0.0411,-0.113009 -0.21958,-0.12699 -0.31386,-0.11271 m -0.0831,0.325659 c 0.2236,-0.0528 0.2391,0.249172 0.2607,0.403212 0.0141,0.0999 -0.003,0.202279 -0.0115,0.30057 -0.005,0.0546 0.005,0.110759 0,0.165309 -0.014,0.156749 -0.0536,0.314542 -0.0923,0.465881 -0.0194,0.0759 -0.0251,0.20769 -0.0784,0.265549 -0.0407,0.044 -0.14717,0.0714 -0.2031,0.0775 -0.17015,0.01879 -0.23093,-0.146671 -0.19618,-0.29801 0.0209,-0.0905 0.0472,-0.179891 0.067,-0.27051 0.0203,-0.0939 0.018,-0.19416 0.0507,-0.285531 0.044,-0.12279 0.12169,-0.224229 0.13388,-0.36068 0.0102,-0.113771 -0.0136,-0.232489 0.002,-0.345659 0.007,-0.05 0.0156,-0.105641 0.0669,-0.117671 m -0.6507,3.243572 h 0.0415 c 0.0491,0.144568 0.0377,0.270359 0.053,0.420788 0.005,0.0458 3.2e-4,0.115422 0.0439,0.142772 0.0444,0.0281 0.10162,-0.0021 0.13845,-0.0275 0.11809,-0.0837 0.10162,-0.205891 0.13609,-0.340691 0.0133,-0.0515 0.055,-0.125039 0.11311,-0.0852 0.0598,0.0412 0.0554,0.123827 0.0554,0.19041 0,0.16501 -0.0163,0.272759 -0.0807,0.420788 -0.048,0.110162 -0.0552,0.234741 -0.0993,0.345651 -0.0334,0.084 -0.0886,0.1557 -0.12003,0.240448 -0.0262,0.0706 -0.0236,0.151342 -0.0368,0.225431 -0.0183,0.102042 -0.0415,0.197472 -0.0508,0.300572 -0.0122,0.135699 -0.0526,0.345649 0.0554,0.45085 0.0976,0.095 0.15963,-0.0344 0.19147,-0.120232 0.0411,-0.110609 0.0878,-0.218059 0.12239,-0.330618 0.0321,-0.104601 0.0457,-0.211601 0.0831,-0.315601 0.0602,-0.168161 0.0995,-0.343849 0.16143,-0.51096 0.0241,-0.0649 0.0565,-0.12714 0.0739,-0.195371 0.0277,-0.108199 0.0256,-0.22152 0.0507,-0.330618 0.027,-0.11707 0.0789,-0.227381 0.10162,-0.345652 0.0275,-0.143528 0.0184,-0.30553 0.0184,-0.45085 0,-0.20424 0.0594,-0.51082 -0.1246,-0.64126 -0.0907,-0.0642 -0.1732,-0.007 -0.26305,0.02011 -0.0988,0.0298 -0.20103,0.046 -0.30458,0.035 -0.17846,-0.01878 -0.31068,-0.227978 -0.49841,-0.145327 -0.0667,0.0295 -0.0752,0.109109 -0.0854,0.175379 -0.023,0.149979 -0.0338,0.300418 -0.053,0.45085 -0.0137,0.10655 -0.0595,0.20814 -0.0692,0.3156 -0.0121,0.1348 -0.008,0.27141 -0.0162,0.40576 -0.007,0.110609 -0.0293,0.220318 -0.0392,0.330628 -0.007,0.0744 0.007,0.151033 0,0.225423 -0.0194,0.21581 -0.0415,0.427709 -0.0415,0.646218 0,0.0577 0.009,0.10881 0.0138,0.165312 0.0121,0.134048 -0.012,0.271708 0,0.405767 0.006,0.0712 0.0393,0.142772 0.11076,0.150281 0.049,0.005 0.0753,-0.02331 0.11076,-0.0552 0.12128,-0.108648 0.10882,-0.285379 0.11075,-0.440769 0.002,-0.15434 0.0342,-0.31214 0.0277,-0.465881 -0.0104,-0.24511 -0.022,-0.49098 0,-0.736389 0.0118,-0.131201 -0.006,-0.26059 0.0184,-0.390742 0.01,-0.0514 0.0368,-0.0884 0.0508,-0.135249 z"
       style="fill:#000000;stroke:none;stroke-width:0.0144244" />
  </g>
</svg>
