<?xml version="1.0" encoding="UTF-8" standalone="no"?>
<svg
   xmlns:dc="http://purl.org/dc/elements/1.1/"
   xmlns:cc="http://creativecommons.org/ns#"
   xmlns:rdf="http://www.w3.org/1999/02/22-rdf-syntax-ns#"
   xmlns:svg="http://www.w3.org/2000/svg"
   xmlns="http://www.w3.org/2000/svg"
   xmlns:sodipodi="http://sodipodi.sourceforge.net/DTD/sodipodi-0.dtd"
   xmlns:inkscape="http://www.inkscape.org/namespaces/inkscape"
   sodipodi:docname="firefly.svg"
   inkscape:version="1.0 (4035a4fb49, 2020-05-01)"
   id="svg205"
   version="1.1"
   viewBox="0 0 34.120728 64.084244"
   height="64.084244mm"
   width="34.120728mm">
  <defs
     id="defs199" />
  <sodipodi:namedview
     inkscape:window-maximized="1"
     inkscape:window-y="0"
     inkscape:window-x="0"
     inkscape:window-height="1144"
     inkscape:window-width="1920"
     fit-margin-bottom="0"
     fit-margin-right="0"
     fit-margin-left="0"
     fit-margin-top="0"
     showgrid="false"
     inkscape:document-rotation="0"
     inkscape:current-layer="layer1"
     inkscape:document-units="mm"
     inkscape:cy="161.21825"
     inkscape:cx="97.772819"
     inkscape:zoom="1.979899"
     inkscape:pageshadow="2"
     inkscape:pageopacity="0.0"
     borderopacity="1.0"
     bordercolor="#666666"
     pagecolor="#ffffff"
     id="base" />
  <metadata
     id="metadata202">
    <rdf:RDF>
      <cc:Work
         rdf:about="">
        <dc:format>image/svg+xml</dc:format>
        <dc:type
           rdf:resource="http://purl.org/dc/dcmitype/StillImage" />
        <dc:title></dc:title>
      </cc:Work>
    </rdf:RDF>
  </metadata>
  <g
     transform="translate(-1.9539784,-2.5705475)"
     id="layer1"
     inkscape:groupmode="layer"
     inkscape:label="Layer 1">
    <path
       id="path2889"
       d="m 27.269398,2.6552475 -0.0847,-0.0847 c -0.57937,0.12197 -0.93632,0.72511 -1.25586,1.18534 -0.10846,0.15617 -0.31276,0.47532 -0.0847,0.635 0.20667,0.14466 0.43891,-0.0694 0.56438,-0.21167 0.34248,-0.38809 0.75489,-1.02086 0.86081,-1.524 m -15.409329,0.0847 c -0.20676,0.49097 0.312759,1.11306 0.592659,1.524 0.11269,0.16545 0.29066,0.38365 0.508,0.40922 0.56752,0.0668 0.0397,-0.77023 -0.0705,-0.91722 -0.11099,-0.14798 -0.22462,-0.28958 -0.3528,-0.42334 -0.21099,-0.22017 -0.41843,-0.44279 -0.677339,-0.59266 m 12.784669,3.72533 c 0.51884,-0.10922 0.82635,-0.65761 1.07248,-1.10067 0.10845,-0.19533 0.19456,-0.49919 -0.0565,-0.635 -0.28786,-0.15574 -0.48768,0.18442 -0.6068,0.381 -0.27153,0.44831 -0.63407,0.82051 -0.4092,1.35467 m -11.40181,-1.48167 c -0.40309,0.3088 0.41555,1.26247 0.64914,1.48167 0.11295,0.106 0.32436,0.24528 0.47981,0.127 0.18737,-0.14258 0.0401,-0.39158 -0.0283,-0.55033 -0.12573,-0.29219 -0.61908,-1.42719 -1.10067,-1.05834 m 10.21648,3.683 c 0.6118,-0.12877 0.70688,-0.7885 0.98781,-1.27 0.12268,-0.21039 0.3252,-0.54923 0.0282,-0.71966 -0.29752,-0.17069 -0.52019,0.15765 -0.635,0.381 -0.25688,0.49987 -0.61637,1.04978 -0.381,1.60866 m -7.874,0.16934 c 0,-0.35247 -3.44e-4,-0.61274 -0.1552,-0.93134 -0.0957,-0.19668 -0.19338,-0.39277 -0.28228,-0.59266 -0.0898,-0.20227 -0.55829,-0.82525 -0.73372,-0.33867 -0.0846,0.23444 0.0441,0.47786 0.14106,0.67733 0.23562,0.48455 0.41249,1.13657 1.03014,1.18534 m 6.77333,1.8626605 c 0.76912,-0.0809 1.10067,-1.3011505 1.10067,-1.9473305 -0.76454,0.0202 -1.29574,1.2735605 -1.10067,1.9473305 m -6.858,-1.6933305 c 0,0.68174 0.36296,1.7267805 1.10067,1.8626705 0.17966,-0.45517 -0.10999,-0.9481005 -0.32453,-1.3546705 -0.0796,-0.15071 -0.12641,-0.36898 -0.28228,-0.46567 -0.13106,-0.0814 -0.34654,-0.0423 -0.49386,-0.0423 m 5.92667,3.8946705 c 0.5069,-0.14673 0.59656,-0.66497 0.79019,-1.10067 0.0756,-0.17009 0.20981,-0.31598 0.22581,-0.508 0.0157,-0.18881 -0.0928,-0.34646 -0.16934,-0.508 -0.43577,0.0459 -0.43484,0.34239 -0.62085,0.67733 -0.26907,0.48421 -0.54019,0.91991 -0.22581,1.43934 m -4.826,-1.94734 c -0.18441,0.63695 0.18203,1.12658 0.43747,1.69334 0.0849,0.18847 0.28812,0.56337 0.56439,0.381 0.19753,-0.13039 0.0623,-0.45991 0.0283,-0.635 -0.10161,-0.5224 -0.44417,-1.39311 -1.03014,-1.43934 m 4.40267,2.032 c -0.30548,0.48362 -0.44247,1.04496 -0.33867,1.60867 0.6941,-0.0731 1.18059,-1.42663 0.33867,-1.60867 m -3.302,0.16934 c -0.19533,0.61849 -0.20913,1.66996 0.67733,1.69333 0,-0.5218 -0.014,-1.62162 -0.67733,-1.69333 m 2.37066,2.286 h -0.16933 c -0.0582,-0.201 -0.22708,-0.56321 -0.508,-0.46567 -0.15646,0.0544 -0.24376,0.29633 -0.42333,0.29633 -0.23817,0 -0.32275,-0.36821 -0.59267,-0.32452 -0.35441,0.0573 -0.21768,0.59698 -0.43747,0.80433 -0.30032,0.28329 -0.76446,0.20625 -1.05834,0.53619 -0.39633,0.44501 -0.67987,1.086357 -0.62086,1.693337 0.0222,0.22792 0.22995,0.51113 0.19753,0.7338 -0.029,0.19931 -0.30396,0.24892 -0.45153,0.31039 -0.39717,0.16552 -0.78977,0.43587 -1.10067,0.73381 -0.72618,0.69587 -1.24443,1.48454 -1.83447,2.286 -0.26433,0.35907 -0.35687,0.92329 -0.79019,1.143 -0.29727,0.1507 -0.981209,-0.0929 -1.269999,-0.19753 -0.349421,-0.12666 -0.449751,-0.71874 -0.536201,-1.03014 -0.0845,-0.30395 -0.251039,-0.55897 -0.36694,-0.84667 -0.1744196,-0.43298 -0.2478186,-0.91296 -0.3950596,-1.35466 -0.071,-0.21302 -0.166449,-0.58683 -0.324609,-0.74786 -0.111681,-0.1138 -0.27661,-0.12472 -0.366861,-0.26814 -0.15308,-0.24333 -0.142159,-0.53146 -0.395139,-0.73381 -0.360511,-0.28837 -0.875451,-0.44069 -1.24172,-0.73372 -0.3534,-0.282697 -0.390401,-0.766997 -0.86081,-0.903137 v 0.508 h -0.677331 l 0.508,0.677327 -0.423339,0.16934 v 0.0847 l 1.185339,0.0847 c 0,0.63619 0.29083,0.32791 0.677331,0.62086 0.141729,0.10744 0.375159,0.42528 0.465669,0.57861 0.135631,0.22979 0.179831,0.57845 0.296331,0.83253 0.46609,1.01693 0.959699,2.03225 1.425199,3.048 0.1750006,0.38168 0.3095396,0.83346 0.5644696,1.17119 0.256371,0.33969 1.025401,0.0713 1.17119,0.52214 0.0759,0.23445 -0.1717,0.75049 -0.197519,1.016 -0.0834,0.85776 0.0298,1.90246 0.677329,2.54 0.82474,0.812041 2.55575,0.846669 3.64067,0.846669 0.2562,0 0.9696,0.0584 0.80433,0.508 -0.0911,0.24774 -0.42156,0.27119 -0.635,0.32453 -0.57074,0.142751 -1.23139,0.0577 -1.778,0.23994 -0.72763,0.242491 -1.23224,1.004491 -1.94733,1.21353 -0.540859,0.15807 -1.01948,-0.451268 -1.523999,-0.493858 -0.272721,-0.0231 -0.423171,0.253148 -0.67734,0.310388 -1.1456206,0.258231 -2.2468006,0.632291 -3.3866696,0.917282 -0.424431,0.106079 -1.118441,0.0541 -1.27,0.536188 l -0.762,-0.169328 -0.592661,0.18347 -0.33867,-0.0847 -0.42333,0.14106 -1.27,-0.23986 c 0.21368,0.33993 0.62045,0.65879 -0.0847,0.677329 v 0.33867 h 0.762 l -0.0847,0.508 1.016,-0.59267 0.0847,0.254 0.67733,-0.23986 0.508001,0.0423 0.762,-0.395142 c 0.27187,0.67065 1.13064,0.135221 1.608669,-0.0705 0.637711,-0.274579 1.302171,-0.468799 1.947331,-0.719669 0.22776,-0.0886 0.61121,-0.390822 0.8466686,-0.366951 0.215731,0.02191 0.308781,0.29727 0.508,0.381 0.305811,0.128609 0.784601,0.0168 0.973671,0.352809 0.16281,0.28939 -0.0875,0.82736 -0.19753,1.100672 -0.33308,0.826939 -0.6367,1.652008 -1.016,2.455328 -1.1678906,2.4732 -2.0665506,5.09507 -3.1186106,7.62 -0.32335,0.776142 -0.66557,1.57336 -0.93134,2.370672 -0.0932,0.279818 -0.11328,0.601548 -0.296329,0.846658 -0.13403,0.179581 -0.335371,0.27432 -0.47972,0.437481 -0.103041,0.116412 -0.12675,0.282454 -0.268141,0.366864 -0.15359,0.0916 -0.34857,0.0511 -0.508,0.155188 -0.39276,0.256461 -0.71453,0.61748 -1.10067,0.874951 -0.37168,0.247729 -1.11769,-0.0556 -1.18533,0.536189 h 0.59267 l -0.33867,0.67733 c 0.26194,0.103381 0.35523,0.0667 0.508,-0.16933 h 0.0847 l 0.16933,0.42333 c 0.48906,-0.14537 0.38863,-0.60358 0.508,-1.016 0.171,0.054 0.40142,0.18737 0.57853,0.0988 0.17543,-0.0877 0.47616,-0.837099 0.733801,-0.423331 0.10922,0.17534 -0.0932,0.641012 -0.141131,0.83252 -0.20964,0.838541 -0.56846,1.69088 -0.80431,2.54 -0.50392,1.81416 -0.85781,3.660312 -1.24177,5.503341 -0.16235,0.779269 -0.14927,1.498939 -0.22579,2.286 -0.0484,0.497419 -0.12574,0.937771 -0.0282,1.439331 0.0651,0.334769 -0.0219,0.684109 0.0564,1.016 0.31307,1.325885 1.19769,2.153335 2.51178,2.427135 0.3159,0.0658 0.631701,-0.0454 0.931341,-0.14113 1.052999,-0.33639 1.5389,-0.98933 2.017859,-1.94734 0.72263,-1.445177 1.252051,-2.933527 1.9049996,-4.402665 0.624081,-1.404202 1.21158,-2.84353 1.84861,-4.233331 0.15697,-0.342561 0.36458,-0.65795 0.49386,-1.016 0.34984,-0.968931 0.55601,-2.000171 0.9172,-2.963341 0.0864,-0.230198 0.23706,-0.86741 0.52214,-0.917189 0.28591,-0.0499 0.38243,0.280329 0.3528,0.493861 -0.0941,0.677 -0.45127,1.311399 -0.66328,1.947328 -0.13411,0.402341 -0.45584,1.043011 -0.16933,1.439341 0.2341,0.323681 0.87935,0.498351 0.94547,0.931331 0.045,0.294219 -0.32029,0.653039 -0.40919,0.931328 -0.0829,0.259421 -0.20396,0.505801 -0.28228,0.762 -0.17856,0.584462 0.0302,1.29236 0.14114,1.862672 0.0929,0.47761 0.24536,1.016 0.84667,1.016 0.26763,0 0.51638,-0.150702 0.762,-0.225801 0.70967,-0.216839 1.42417,-0.341971 2.11666,-0.620861 0.55964,-0.22539 1.0651,-0.52883 1.69333,-0.493868 0.54026,0.03 1.02125,0.298119 1.524,0.465669 0.58344,0.194479 1.19719,0.286171 1.778,0.479719 0.42012,0.140041 1.15842,0.383971 1.524,0.0423 0.21404,-0.19999 0.2148,-0.558472 0.26815,-0.83253 0.13352,-0.686652 0.27068,-1.38312 -0.0988,-2.032 -0.16391,-0.287782 -0.62103,-0.764802 -0.63501,-1.100672 -0.0171,-0.41012 0.69496,-0.85276 0.889,-1.185328 0.29447,-0.50478 0.0311,-1.090512 -0.11286,-1.608672 -0.16781,-0.60393 -0.45677,-1.151718 -0.5786,-1.778 -0.04,-0.205478 -0.10888,-0.676489 0.26814,-0.592669 0.30124,0.067 0.33663,0.61985 0.43747,0.846669 0.44713,1.006012 0.64999,2.153841 0.94539,3.217331 0.50114,1.804001 1.57472,3.41834 2.22961,5.164669 0.51206,1.365592 1.0552,2.674882 1.70739,3.979342 0.244769,0.489537 0.446281,1.081527 0.804331,1.509857 0.902639,1.07958 2.866229,1.12572 3.86647,0.18347 0.696389,-0.65608 1.094579,-1.860467 1.185328,-2.793997 0.0919,-0.945052 -0.0355,-1.880621 -0.225808,-2.794 -0.213861,-1.02675 -0.343051,-2.04521 -0.677331,-3.048 -0.127749,-0.38337 -0.133861,-0.79621 -0.225711,-1.185341 -0.220739,-0.934879 -0.481669,-1.854621 -0.677328,-2.794 -0.232672,-1.116661 -0.66998,-2.194391 -0.903142,-3.302 h 0.0847 c 0.17222,0.401921 0.464061,0.285591 0.747861,0.522139 0.149018,0.124132 0.195749,0.351711 0.36695,0.45153 0.18119,0.105752 0.343829,-0.0402 0.508,0.127 0.18474,0.188222 0.155189,0.5886 0.33867,0.719672 0.25332,0.18102 0.369639,-0.113371 0.409181,-0.296341 l 0.762,0.169341 -0.338662,-0.592672 0.508,-0.169328 -1.185331,-0.465672 -1.100669,-0.846669 -0.578519,-0.225801 -0.282282,-0.381 -0.804338,-0.620858 -0.31038,-0.846672 -0.59267,-1.524 -1.524,-3.556 -0.80433,-1.693328 -1.143001,-2.878672 -1.49581,-3.725328 c 0.32631,-0.103042 0.70096,-0.163491 1.016,-0.282202 0.20235,-0.0763 0.28871,-0.336888 0.508,-0.352798 0.22242,-0.01611 0.48133,0.18914 0.67733,0.26814 0.562779,0.22665 1.137841,0.36753 1.693341,0.606718 0.211659,0.0912 0.934289,0.547032 0.987798,0.0988 0.02612,-0.218609 -0.290568,-0.821431 -0.479798,-0.931331 -0.287782,-0.167129 -0.616381,-0.203448 -0.931341,-0.282188 -0.624239,-0.156041 -1.233001,-0.357381 -1.86266,-0.479812 -0.28372,-0.0552 -0.46017,-0.341288 -0.762,-0.32453 -0.47312,0.0263 -0.93438,0.619932 -1.43934,0.465672 -0.23825,-0.0728 -0.40166,-0.305652 -0.59266,-0.451612 -0.37271,-0.284649 -0.80468,-0.6521 -1.27,-0.762 -0.58962,-0.139189 -1.1817,-0.0549 -1.778,-0.112858 -0.16663,-0.01619 -0.47685,-0.0748 -0.55034,-0.254 -0.17856,-0.43561 0.82584,-0.475742 1.05834,-0.508 1.04842,-0.145631 2.07653,-0.0928 3.048,-0.578531 0.21209,-0.10609 0.48666,-0.1822 0.64914,-0.36695 0.50258,-0.57158 0.66074,-1.45406 0.508,-2.18719 -0.0721,-0.34569 -0.41098,-1.10439 -0.26814,-1.43933 0.23816,-0.55838 1.0999,-0.10313 1.38286,-0.59267 0.711281,-1.23029 1.254931,-2.60756 1.862661,-3.89467 0.232669,-0.49267 0.36255,-1.09677 0.719669,-1.524 0.195159,-0.23334 0.505381,-0.11201 0.719669,-0.29633 0.162732,-0.13987 0.058,-0.38743 0.268142,-0.508 0.21285,-0.12217 0.680548,0.0423 0.931328,0.0423 l -0.338669,-0.59266 c 0.309801,-0.0978 0.472271,-0.168827 0.508,-0.507997 l -0.592659,0.16933 c -0.019,-0.18017 0.082,-0.61553 -0.169341,-0.66319 -0.302929,-0.0575 -0.335529,0.40453 -0.451519,0.57852 -0.201592,0.30235 -0.4688,0.34053 -0.733812,0.536197 -0.1358,0.10033 -0.20184,0.26797 -0.338669,0.36694 -0.187701,0.13564 -0.417909,0.11024 -0.592659,0.2822 -0.19948,0.19625 -0.155281,0.45339 -0.296341,0.66319 -0.118189,0.17577 -0.3561,0.18009 -0.465659,0.36695 -0.386932,0.66006 -0.568621,1.63694 -0.818481,2.35652 -0.14207,0.40928 -0.23613,1.11921 -0.55033,1.43934 -0.13513,0.13767 -0.79299,0.24528 -1.00186,0.254 -0.29693,0.0124 -0.44645,-0.19448 -0.59267,-0.42334 -0.36974,-0.57869 -0.53357,-1.21005 -0.95952,-1.778 -0.37067,-0.4942 -0.78834,-1.00507 -1.32648,-1.32647 -0.37177,-0.22199 -0.97934,-0.40149 -1.27,-0.71967 -0.19312,-0.21132 -0.0102,-0.36025 0.0565,-0.57852 0.0722,-0.23648 0.0554,-0.60181 0.0282,-0.84667 -0.0419,-0.377527 -0.31564,-0.990767 -0.60681,-1.241807 -0.233,-0.20082 -0.58513,-0.20531 -0.81838,-0.39505 -0.33351,-0.27127 -0.03,-1.15934 -0.69148,-0.80433 l -0.127,0.15519 c -0.0678,0.0941 -0.093,0.23089 -0.127,0.33867 m -2.11666,1.22766 c 0.42062,0.0175 0.7846,0.567187 0.64914,0.973667 -0.13996,0.41969 -0.74295,0.63932 -1.15715,0.59267 -0.34332,-0.0387 -0.45305,-0.37948 -0.39514,-0.67734 0.0851,-0.437467 0.40496,-0.909737 0.90315,-0.888997 m 2.54,-0.0282 c 0.4936,-0.15299 0.91609,0.14503 1.1148,0.578527 0.14275,0.31157 0.097,0.7708 -0.26814,0.90314 -0.33875,0.12268 -0.95241,-0.11642 -1.15714,-0.39514 -0.23139,-0.31522 -0.0723,-0.967997 0.31048,-1.086527 m -1.10067,4.317997 c 1.32326,-0.20218 2.71467,0.5903 2.794,2.01786 0.0186,0.33469 -0.13767,0.69875 -0.22581,1.016 -0.36567,1.31648 -1.15824,2.53577 -2.65286,2.68114 -2.27491,0.22115 -3.77783,-3.10278 -2.42714,-4.79781 0.55457,-0.69587 1.70909,-0.79459 2.51181,-0.91719 m -0.423329,10.922002 c 1.01498,-0.126918 1.08813,1.251201 0.16933,1.340533 -0.79773,0.0776 -1.09372,-1.225042 -0.16933,-1.340533 m 2.87866,0.423331 c 0.67522,-0.140708 1.40572,0.29092 1.86267,0.74786 0.52908,0.52909 0.72187,1.20998 1.03014,1.86267 0.31496,0.667012 0.59952,1.36838 0.93133,2.032 0.89171,1.7835 1.83448,3.561932 2.58234,5.418672 0.352549,0.875368 0.510281,1.82186 0.81838,2.709328 0.277371,0.79866 0.701979,1.564301 0.95962,2.370672 0.320881,1.00457 0.594701,2.03894 0.889,3.048 0.38023,1.3037 1.01854,2.51265 1.397,3.81 0.343241,1.177028 0.536191,2.581568 0.536191,3.81 0,0.36059 0.0976,0.65904 0.0282,1.016 -0.130972,0.673608 -0.152652,1.389888 -0.95952,1.58047 -0.630851,0.148928 -1.106511,-0.444162 -1.425202,-0.903142 -0.15045,-0.21666 -0.172889,-0.449408 -0.296328,-0.677328 -0.571251,-1.054521 -0.878501,-2.249342 -1.241811,-3.386672 -0.3506,-1.097529 -0.69968,-2.23647 -1.12886,-3.302 -0.27576,-0.68453 -0.61764,-1.38565 -0.79028,-2.11667 -0.0396,-0.167798 -0.008,-0.342468 -0.0564,-0.508 -0.12218,-0.41893 -0.37533,-0.78587 -0.53628,-1.18533 -0.58065,-1.441789 -1.13123,-2.872568 -1.69334,-4.318 -0.22538,-0.579628 -0.36186,-1.19465 -0.56438,-1.778 -0.25925,-0.74667 -0.66108,-1.43146 -0.87495,-2.201328 -0.15977,-0.57531 -0.29049,-1.134031 -0.508,-1.693342 -0.11701,-0.301069 -0.12073,-0.62898 -0.22572,-0.93133 -0.43688,-1.25815 -1.037,-2.488179 -1.31233,-3.81 -0.12201,-0.58564 -0.20016,-1.432309 0.57852,-1.59453 m -6.096,0.0847 c 0.91906,-0.15316 1.20252,0.66607 1.08653,1.425188 -0.24401,1.597581 -1.11083,3.033872 -1.53806,4.572 -0.76488,2.75336 -1.89458,5.345012 -2.794,8.043342 -0.21454,0.643458 -0.59334,1.21835 -0.79028,1.862658 -0.10024,0.328171 -0.1336,0.684112 -0.22572,1.016 -0.59241,2.132592 -1.5279786,4.207092 -2.3283286,6.265342 -0.31877,0.81974 -0.525271,1.70281 -0.80434,2.54 -0.15891,0.47676 -0.42985,0.896109 -0.62094,1.354669 -0.21057,0.50537 -0.5991,1.28642 -1.21353,1.354661 -0.92515,0.102788 -1.35467,-0.707051 -1.35467,-1.524 0,-1.651172 0.0954,-3.418922 0.620869,-4.99533 0.407751,-1.22327 0.876041,-2.424772 1.29827,-3.64067 0.341631,-0.98408 0.665571,-2.04199 0.903061,-3.048 0.17526,-0.742021 0.59749,-1.48785 0.87494,-2.20133 0.34147,-0.87816 0.46626,-1.835071 0.818389,-2.709342 0.19982,-0.496059 0.4946306,-0.949359 0.7056106,-1.439328 0.58624,-1.361612 1.14182,-2.681822 1.862669,-3.97933 0.52112,-0.93802 0.91195,-1.99593 1.36872,-2.963342 0.43832,-0.928198 1.03852,-1.751158 2.13081,-1.933188 m 5.16467,8.791188 c -0.59893,-0.01569 -1.0795,-0.508 -1.69333,-0.508 -0.36763,0 -0.75159,0.21345 -1.10067,0.310481 -0.19304,0.0536 -0.65803,0.235709 -0.80434,0.014 -0.16222,-0.24579 0.26433,-0.784599 0.36687,-1.001858 0.35907,-0.760222 0.53484,-1.596301 0.84666,-2.370672 0.10474,-0.259919 0.21548,-0.665809 0.52214,-0.747858 0.47888,-0.128181 0.59758,0.510799 0.69148,0.83253 0.20819,0.713829 0.46092,1.427898 0.74786,2.116669 0.19973,0.47947 0.42333,0.82287 0.42333,1.354659 m -1.69333,0.776142 c 0.39124,-0.0489 0.76792,0.237918 1.10066,0.395059 0.34316,0.16205 0.80324,0.20523 1.10067,0.45161 0.24452,0.20244 0.36187,0.637709 0.49386,0.917189 0.15316,0.32436 0.32622,0.753962 0.40928,1.100672 0.0322,0.134448 0.0187,0.287869 -0.14114,0.324529 -0.2021,0.0464 -0.41419,-0.14969 -0.59267,-0.211671 -0.42003,-0.145789 -0.91829,-0.23563 -1.35466,-0.338659 -0.98036,-0.231479 -1.85725,0.0514 -2.79401,0.324609 -0.30133,0.0879 -1.22961,0.55634 -1.50986,0.310391 -0.23427,-0.205581 0.20295,-1.006271 0.31039,-1.255871 0.14453,-0.335609 0.25654,-0.750398 0.52214,-1.016 0.37202,-0.37202 0.88985,-0.374809 1.35467,-0.536189 0.37397,-0.129881 0.69444,-0.414951 1.10067,-0.465669 m -0.16934,3.81 c 0.39853,-0.0665 0.73626,0.0902 1.10067,0.211669 0.68876,0.229529 1.43332,0.270679 2.11667,0.508 0.24011,0.0833 0.71772,0.20388 0.889,0.39506 0.15147,0.169069 0.35856,0.95436 0.254,1.157129 -0.10016,0.19423 -0.37609,0.26281 -0.55034,0.366871 -0.4428,0.264491 -0.8426,0.71882 -1.35466,0.832609 -0.84481,0.187701 -1.43502,-0.606808 -2.20134,-0.606808 -0.57878,0 -1.19634,0.596479 -1.778,0.733808 -0.57489,0.135721 -1.18508,-0.232749 -1.69333,-0.451609 -0.26264,-0.11303 -0.82889,-0.27881 -0.97367,-0.536199 -0.19355,-0.34417 0.23359,-1.25476 0.49386,-1.495801 0.31428,-0.291 0.9249,-0.305819 1.32647,-0.39506 0.79959,-0.17771 1.56939,-0.58615 2.37067,-0.719669 m 3.38667,4.473199 c 0.35044,0.55482 0.58361,1.242819 0.79019,1.862661 0.0679,0.203708 0.18822,0.366699 0.11295,0.59267 -0.0798,0.23935 -0.30632,0.42156 -0.47981,0.592669 -0.18787,0.18525 -0.39039,0.419351 -0.67733,0.423331 -0.98679,0.01371 -1.88976,-0.844381 -2.87867,-0.762 -1.26703,0.105579 -2.3296,1.19812 -3.556,0.465669 -0.18678,-0.111509 -0.52163,-0.29083 -0.635,-0.479809 -0.28871,-0.48116 0.10693,-1.24392 0.28219,-1.679191 0.10634,-0.263909 0.18475,-0.8542 0.52214,-0.90314 0.19855,-0.0288 0.41301,0.137671 0.59267,0.19761 0.36373,0.12124 0.80255,0.155361 1.18534,0.11286 0.51333,-0.0571 0.90754,-0.48319 1.43933,-0.56447 0.79671,-0.121671 1.44458,0.508339 2.20133,0.550331 0.42224,0.02339 0.7228,-0.30971 1.10067,-0.409191 m -3.47133,7.732863 c -1.02185,0.212939 -1.9404,0.802719 -2.96334,1.044279 -0.36966,0.0872 -0.86834,0.061 -1.18533,0.31039 -0.25206,0.198372 -0.22149,0.69536 -0.254,0.987801 -0.0889,0.800269 -0.13208,1.813819 0.67733,2.286 0.43231,0.252223 0.74269,0.0742 1.18533,0.0988 0.52891,0.0294 1.06858,0.123023 1.60867,0.0705 0.48506,-0.0472 0.95834,-0.29786 1.43934,-0.32453 0.41639,-0.0232 0.86875,0.286261 1.26999,0.381003 0.63483,0.14986 1.49216,-0.0393 2.11666,-0.169342 0.28838,-0.0601 0.71772,-0.16179 0.9172,-0.395131 0.46448,-0.543309 0.32715,-1.824149 0.16933,-2.455339 -0.0555,-0.22208 -0.0709,-0.57133 -0.254,-0.7338 -0.30065,-0.266621 -0.89179,-0.204222 -1.25586,-0.310391 -0.70383,-0.205319 -1.40699,-0.39556 -2.11667,-0.592669 -0.45296,-0.12581 -0.8752,-0.297432 -1.35466,-0.19761 m -0.16934,4.995332 c -0.48192,0.10042 -0.93768,0.18991 -1.43932,0.14114 -0.3468,-0.0337 -0.95462,-0.2501 -1.25587,0.0141 -0.44619,0.39133 0.17611,1.40335 0.32453,1.84853 0.13759,0.41283 0.23639,1.05664 0.59267,1.34053 0.25476,0.20303 0.63228,0.15358 0.93133,0.21166 1.04885,0.20396 2.33104,0.16349 3.38666,-0.0564 0.99137,-0.20659 1.13589,-1.66514 1.53814,-2.42714 0.11659,-0.22089 0.49183,-0.62949 0.2822,-0.90313 -0.1966,-0.25671 -0.79096,-0.0282 -1.05834,-0.0282 -0.52772,0 -1.08381,0.0511 -1.60866,0 -0.57912,-0.0563 -1.08899,-0.26705 -1.69334,-0.14114 z"
       style="fill:#000000;stroke:none;stroke-width:0.0846667" />
  </g>
</svg>
