<?xml version="1.0" encoding="UTF-8" standalone="no"?>
<svg
   xmlns:dc="http://purl.org/dc/elements/1.1/"
   xmlns:cc="http://creativecommons.org/ns#"
   xmlns:rdf="http://www.w3.org/1999/02/22-rdf-syntax-ns#"
   xmlns:svg="http://www.w3.org/2000/svg"
   xmlns="http://www.w3.org/2000/svg"
   xmlns:sodipodi="http://sodipodi.sourceforge.net/DTD/sodipodi-0.dtd"
   xmlns:inkscape="http://www.inkscape.org/namespaces/inkscape"
   sodipodi:docname="fly.svg"
   inkscape:version="1.0 (4035a4fb49, 2020-05-01)"
   id="svg2076"
   version="1.1"
   viewBox="0 0 29.802668 38.862015"
   height="38.862015mm"
   width="29.802668mm">
  <defs
     id="defs2070" />
  <sodipodi:namedview
     inkscape:window-maximized="1"
     inkscape:window-y="0"
     inkscape:window-x="0"
     inkscape:window-height="1144"
     inkscape:window-width="1920"
     fit-margin-bottom="0"
     fit-margin-right="0"
     fit-margin-left="0"
     fit-margin-top="0"
     showgrid="false"
     inkscape:document-rotation="0"
     inkscape:current-layer="layer1"
     inkscape:document-units="mm"
     inkscape:cy="88.183898"
     inkscape:cx="83.368406"
     inkscape:zoom="1.979899"
     inkscape:pageshadow="2"
     inkscape:pageopacity="0.0"
     borderopacity="1.0"
     bordercolor="#666666"
     pagecolor="#ffffff"
     id="base" />
  <metadata
     id="metadata2073">
    <rdf:RDF>
      <cc:Work
         rdf:about="">
        <dc:format>image/svg+xml</dc:format>
        <dc:type
           rdf:resource="http://purl.org/dc/dcmitype/StillImage" />
        <dc:title></dc:title>
      </cc:Work>
    </rdf:RDF>
  </metadata>
  <g
     transform="translate(-93.650972,-76.221727)"
     id="layer1"
     inkscape:groupmode="layer"
     inkscape:label="Layer 1">
    <path
       id="path2376"
       d="m 101.35557,76.221727 0.47981,1.693333 0.39505,1.524 0.21167,0.423334 0.18347,1.354666 0.23986,1.100667 0.35281,0.211666 0.0705,-0.465666 -0.23986,-1.016 -0.81847,-2.709333 -0.70553,-2.116667 h -0.16933 m 14.224,0 c -0.4997,1.582454 -0.98163,3.151141 -1.46753,4.741333 -0.13673,0.447463 -0.60308,1.472184 0.0282,1.608667 l 0.6068,-2.794 0.52206,-1.778 0.4798,-1.778 h -0.16933 m -10.414,2.54 c 0.30361,0.769146 1.27923,1.448562 1.86267,2.032 0.19727,0.197248 0.6974,0.530682 0.64914,0.846666 -0.0974,0.637117 -0.65126,0.41336 -1.07248,0.536194 -0.35094,0.102362 -0.72347,0.288629 -1.016,0.508 -0.89594,0.672 -2.0568,2.470743 -1.016,3.527806 0.60156,0.610955 1.39971,0.677334 2.20134,0.677334 v 0.08467 c -0.67971,0.250444 -1.1701,0.74295 -1.38286,1.439334 -0.11549,0.377952 -0.0709,0.904324 0.29633,1.143 0.4064,0.26416 1.05757,0.04233 1.50986,0.04233 1.26771,0 2.55321,0.08467 3.81,0.08467 0.31369,0 0.6311,-0.21226 0.73381,-0.508 0.20218,-0.582253 -0.13843,-1.327235 -0.56448,-1.707473 -0.2385,-0.212767 -0.57819,-0.344593 -0.762,-0.578527 0.60105,0 1.26171,-0.0084 1.778,-0.366861 1.39582,-0.969349 0.53154,-3.01371 -0.59266,-3.81 -0.3396,-0.240538 -0.69165,-0.439674 -1.10067,-0.536279 -0.22259,-0.05254 -0.55177,0.05114 -0.74786,-0.07053 -0.13234,-0.08214 -0.30285,-0.393649 -0.29633,-0.550333 0.0119,-0.287079 0.43603,-0.577173 0.62086,-0.762 0.48691,-0.486893 0.97959,-0.930063 1.43933,-1.439333 0.18525,-0.205182 0.34637,-0.326839 0.42333,-0.592667 l -2.11666,1.890886 -0.59267,0.47978 -0.67733,-0.253999 -0.67734,0.268113 -0.59266,-0.493894 -2.11667,-1.890886 m 3.302,3.231447 c 0.56168,-0.155541 0.64812,0.846523 0.16933,0.987747 -0.44323,0.13081 -0.68004,-0.846311 -0.16933,-0.987747 m -5.48919,0.874886 c -0.21853,0.157311 -0.0839,0.675555 -0.0423,0.889 0.12243,0.62992 0.11286,1.389803 0.11286,2.032 0,0.181525 -1.7e-4,0.651256 0.32453,0.465667 0.23199,-0.132588 0.18661,-0.49674 0.18347,-0.719667 -0.007,-0.533315 -0.0847,-1.065191 -0.0847,-1.608667 0,-0.26924 0.0774,-0.677587 -0.0141,-0.931333 -0.0622,-0.172551 -0.32682,-0.237067 -0.47972,-0.127 m 10.99252,3.429 0.16934,-1.439333 0.0847,-2.032 c -0.1634,0 -0.43984,-0.05469 -0.55033,0.09881 -0.127,0.17636 -0.0423,0.623146 -0.0423,0.832527 v 1.778 c 0,0.361696 -0.0544,0.64516 0.33866,0.762 m -5.24933,-0.762 0.62086,0.762 0.47981,0.423333 -1.10067,-0.155194 -1.35467,0.155194 0.508,-0.508 0.84667,-0.677333 m -5.50333,1.100667 1.31233,1.693333 -0.127,1.100667 0.29633,0.762 -0.127,0.592666 v 1.185334 l 0.0423,1.27 -0.55034,0.409194 -1.18533,1.298278 -1.27,0.268055 -1.524,1.326472 -0.465668,0.592667 0.127,0.592667 1.100668,-0.08467 v -0.169333 l -0.36686,-0.254 0.18339,-0.423334 0.77614,-0.889 0.762,-0.04233 c -0.059,0.560239 -0.53213,1.045972 -0.80434,1.524 -0.40005,0.702564 -0.82685,1.402842 -1.21352,2.116667 -1.609708,2.971715 -3.472308,5.845385 -4.388588,9.144005 -0.42159,1.51773 -0.74999,4.80678 1.66511,4.57199 0.72003,-0.07 1.56885,-0.34535 2.20134,-0.70552 0.536608,-0.30565 1.017348,-0.81661 1.608658,-0.98781 l -1.016,3.55601 c 0.70231,-0.0185 0.63492,-0.76183 0.7902,-1.27 0.11565,-0.37855 0.28261,-0.70698 0.381,-1.10068 0.0748,-0.29938 0.23893,-0.55295 0.32461,-0.84666 0.15342,-0.52612 0.24147,-1.01998 0.635,-1.43933 0.38667,-0.41208 0.92795,-0.70528 1.34053,-1.10067 0.28795,-0.27593 0.56464,-0.56464 0.84666,-0.84667 0.0892,-0.0892 0.20625,-0.25535 0.33867,-0.28219 0.25468,-0.0517 0.69274,0.8531 0.84667,1.04419 0.6499,0.80679 1.65921,2.11176 2.794,2.159 0.42392,0.0177 0.86614,-0.2827 1.18533,-0.52214 0.66887,-0.50156 1.17179,-1.07408 1.69333,-1.72152 0.19931,-0.2474 0.5754,-1.15113 0.93134,-0.9172 0.36085,0.23707 0.60638,0.70858 0.93133,1.00186 0.60223,0.54373 1.41605,0.96554 1.82033,1.69333 0.23639,0.42545 0.37431,1.06139 0.52214,1.524 0.18788,0.58835 0.39336,1.1834 0.55034,1.77801 0.10473,0.39692 0.20895,0.79883 0.66319,0.84667 l -0.93133,-3.55601 c 0.51926,0.20498 0.95775,0.61553 1.43933,0.90314 0.79544,0.47507 2.1016,0.98544 3.048,0.762 1.48565,-0.35077 1.21039,-2.39928 1.10067,-3.5278 -0.11337,-1.16612 -0.55195,-2.21996 -0.98781,-3.302 -0.90949,-2.25815 -2.14782,-4.30641 -3.33019,-6.434672 -0.52155,-0.938699 -1.04962,-1.894332 -1.63686,-2.794 -0.1618,-0.247819 -0.27068,-0.512149 -0.42334,-0.762 -0.0623,-0.101939 -0.20354,-0.199729 -0.16933,-0.338667 0.0729,-0.296502 0.70832,-0.176868 0.87486,-0.05647 0.37059,0.26797 0.81119,0.962152 0.84667,1.411139 l -0.33867,0.08467 v 0.169333 c 0.44738,0.188383 1.40191,0.1651 1.15714,-0.592667 -0.0659,-0.203708 -0.33113,-0.390652 -0.47981,-0.536194 -0.44788,-0.438827 -0.93573,-1.081362 -1.524,-1.326472 -0.36186,-0.150791 -0.84675,-0.03996 -1.18533,-0.211667 -0.48946,-0.248158 -0.7653,-0.956479 -1.18533,-1.312333 -0.16841,-0.142663 -0.45085,-0.157565 -0.57853,-0.338667 -0.1386,-0.196596 -0.0141,-0.767503 -0.0141,-1.016 0,-0.555498 0.0537,-1.140798 0,-1.693333 -0.0139,-0.143002 -0.0847,-0.278299 -0.0705,-0.423333 0.0234,-0.24147 0.21226,-0.42926 0.23986,-0.677334 0.0258,-0.232748 0.0266,-0.534416 -0.0282,-0.762 -0.029,-0.120142 -0.12539,-0.20557 -0.0847,-0.338666 0.051,-0.166963 0.2435,-0.294386 0.35272,-0.423334 0.3247,-0.383286 0.89239,-0.934889 0.94548,-1.439333 -0.18263,0 -0.42435,-0.04183 -0.59267,0.04233 -0.37973,0.189908 -0.70773,0.728726 -0.95953,1.058334 -0.0957,0.125222 -0.24274,0.26526 -0.28228,0.423333 -0.0858,0.343323 0.20964,0.713825 0.11295,1.100667 -0.0934,0.37338 -0.67082,0.6477 -0.635,1.016 0.0298,0.307255 0.30785,0.621792 0.381,0.931333 0.0636,0.269325 0.0282,0.571415 0.0282,0.846667 0,0.823129 0.12683,1.712298 -0.29633,2.455333 -0.16747,0.294047 -0.38058,0.605536 -0.635,0.832527 -0.14961,0.13352 -0.38727,0.23876 -0.46567,0.437473 -0.0628,0.159342 0.0552,0.280754 0.0988,0.423333 0.12903,0.422402 0.3241,0.914739 0.36686,1.354667 0.0707,0.726948 -0.0707,1.474385 0,2.201333 0.13521,1.39057 0.84692,2.75201 1.60867,3.89467 0.82092,1.2313 1.80306,2.59588 3.048,3.44314 0.50673,0.34484 1.45499,0.4191 1.524,1.12886 0.0806,0.8288 0,1.70679 0,2.54 0,0.19532 0.0913,0.71755 -0.16934,0.79019 -0.18948,0.0528 -0.52756,-0.24088 -0.67733,-0.33867 -0.56752,-0.37041 -1.0679,-0.82211 -1.60867,-1.22766 -1.02616,-0.76962 -1.85377,-1.66277 -2.70933,-2.61053 -1.21006,-1.34036 -2.34434,-2.54449 -3.048,-4.23333 -0.19702,-0.47287 -0.16933,-0.93786 -0.16933,-1.43934 0,-0.80814 -0.0632,-1.48124 0.36686,-2.20133 0.16696,-0.279485 0.4003,-0.607907 0.64914,-0.818473 0.21217,-0.179493 0.57988,-0.283802 0.71966,-0.536194 0.16629,-0.300312 -0.004,-0.825754 -0.127,-1.100666 h -0.0847 c -0.19313,0.305731 -0.33241,0.646684 -0.60681,0.903139 -0.55355,0.517229 -1.47464,0.640249 -2.10253,0.169333 -0.39429,-0.29574 -0.53915,-0.825923 -0.93133,-1.072472 -0.0917,0.217762 -0.20447,0.776478 -0.14114,1.016 0.0781,0.294724 0.60477,0.47608 0.81847,0.677333 0.51029,0.480737 1.016,1.234948 1.016,1.94733 0,0.61206 0.11252,1.35128 -0.0282,1.94734 -0.41461,1.75607 -1.76801,3.1098 -2.93514,4.40266 -0.83829,0.92854 -1.64109,1.87427 -2.62467,2.65286 -0.79146,0.62662 -1.78079,1.70587 -2.794,1.91914 0,-1.02379 -0.170188,-2.02632 -0.0141,-3.048 0.032,-0.20955 -0.0456,-0.48446 0.0565,-0.67733 0.13335,-0.2518 0.40572,-0.24765 0.635,-0.35281 0.37007,-0.16958 0.79298,-0.38972 1.10066,-0.66319 1.11422,-0.99043 2.05021,-2.12335 2.8222,-3.38667 0.33121,-0.54195 0.75091,-1.09237 0.95961,-1.69333 0.19439,-0.5599 0.47811,-1.18025 0.53619,-1.778 0.0783,-0.805603 -0.11904,-1.656673 0.0141,-2.455333 0.0688,-0.413089 0.23656,-0.871728 0.35272,-1.27 0.0493,-0.168995 0.18212,-0.319617 0.127,-0.508 -0.074,-0.253153 -0.48708,-0.482261 -0.66319,-0.677333 -0.45847,-0.507831 -0.762,-1.177714 -0.762,-1.862667 0,-0.572431 -0.0811,-1.215898 0.0282,-1.778 0.0743,-0.381762 0.43511,-0.899245 0.39514,-1.27 -0.0391,-0.362881 -0.5461,-0.512403 -0.59266,-0.931333 -0.0414,-0.372618 0.17001,-0.844466 0.0705,-1.185334 -0.0726,-0.249089 -0.32706,-0.407924 -0.49386,-0.592666 -0.39361,-0.435949 -0.69604,-1.039284 -1.35466,-0.762 m 3.556,3.330194 c -0.81526,0.192532 -1.02574,0.809413 -1.10067,1.580472 -0.1038,1.067308 -0.18813,2.334938 0.56447,3.203194 0.38227,0.441198 1.25434,1.09347 1.89086,0.832612 0.20786,-0.08517 0.16934,-0.29337 0.16934,-0.479806 v -1.439333 c 0,-0.527727 0.0511,-1.083818 0,-1.608667 -0.0254,-0.260858 -0.11083,-0.49276 -0.0847,-0.762 0.034,-0.350012 0.19008,-0.933026 -0.0423,-1.25586 -0.16375,-0.2275 -1.14436,-0.130218 -1.397,-0.07061 m 2.21547,0.01414 c -0.13902,0.100076 -0.0988,0.318177 -0.0988,0.465667 v 1.354666 c 0,0.805434 0.0779,1.654218 0,2.455334 -0.0241,0.247904 0,0.434678 0,0.677333 0,0.169926 -0.13275,0.340953 -0.0423,0.508 0.28693,0.530436 1.34815,-0.06765 1.651,-0.282194 0.95089,-0.673608 1.016,-1.880955 1.016,-2.935139 0,-0.500465 -0.007,-0.967148 -0.19753,-1.439334 -0.31699,-0.786976 -0.88561,-0.846666 -1.66514,-0.846666 -0.17466,0 -0.51418,-0.06502 -0.66319,0.04233 M 96.614322,107.5484 c 0.18581,-0.88265 0.68729,-1.74151 1.08655,-2.54 0.50617,-1.01236 1.00575,-1.99983 1.59456,-2.96333 0.730558,-1.1955 1.357058,-2.439673 2.074358,-3.64067 0.55956,-0.936921 1.23038,-1.83515 1.74972,-2.794 0.23656,-0.43671 0.56312,-1.160187 1.03014,-1.397 0.50377,-0.255439 0.62247,0.519007 0.83253,0.804334 0.21141,0.287104 0.57632,0.531622 0.7338,0.846666 0.0842,0.168317 0.0423,0.410464 0.0423,0.592667 0,0.546523 -0.003,1.089744 -0.19753,1.608666 -0.2181,0.581491 -0.8183,0.937006 -1.24181,1.354667 -1.01591,1.00186 -2.16044,1.95614 -2.87866,3.21733 -0.54407,0.95538 -1.2264,1.97062 -1.495778,3.048 -0.0908,0.36339 -0.18253,0.73305 -0.254,1.10067 -0.0318,0.16349 3e-5,0.36686 -0.127,0.49386 -0.13824,0.13826 -0.39938,0.10296 -0.57856,0.15528 -0.70361,0.20523 -1.65609,0.3197 -2.37066,0.11286 M 112.70094,94.185206 c 0.32766,-0.105918 0.50445,0.194564 0.67734,0.409194 0.45948,0.5704 0.79154,1.246209 1.18533,1.862667 1.00372,1.571074 1.9409,3.182789 2.80814,4.826003 0.57785,1.09491 1.28304,2.11455 1.83439,3.21733 0.37067,0.74134 0.78452,1.49742 1.05833,2.286 0.0761,0.21903 0.39235,0.71145 0.0565,0.83253 -0.54982,0.19829 -1.57251,-0.0333 -2.11666,-0.16934 -0.19355,-0.0483 -0.51774,-0.0238 -0.6632,-0.16933 -0.15409,-0.15401 -0.0801,-0.38616 -0.0988,-0.57853 -0.0332,-0.34095 -0.15782,-0.78071 -0.2822,-1.10066 -0.45322,-1.16535 -1.04072,-2.23402 -1.69333,-3.302 -0.57912,-0.94768 -1.43679,-1.79883 -2.25781,-2.540003 -0.53645,-0.484294 -1.27135,-0.94378 -1.59452,-1.608667 -0.2231,-0.458893 -0.26814,-1.188889 -0.26814,-1.693333 0,-0.176192 -0.0465,-0.432393 0.0423,-0.592667 0.16544,-0.298788 0.56286,-0.557022 0.77614,-0.846666 0.17848,-0.24257 0.21691,-0.729404 0.53619,-0.832528 m -5.16466,1.876721 c -0.43341,0.159428 -0.22742,0.698162 -0.0705,0.987806 0.29752,0.549233 0.97417,0.895774 1.59453,0.635 0.37634,-0.158157 1.11108,-1.152567 0.7338,-1.538139 -0.13953,-0.142494 -0.38523,-0.112861 -0.56447,-0.112861 -0.48895,0 -1.23317,-0.14097 -1.69333,0.02819 m -13.885338,3.527806 c 0.2701,0.33147 0.81775,0.03548 1.18534,-0.05647 1.23974,-0.30988 2.40355,-0.655236 3.556,-1.199388 0.28037,-0.132419 1.02471,-0.241385 1.08655,-0.606806 0.0928,-0.54864 -0.92387,0.01744 -1.08655,0.09881 -0.59395,0.296926 -1.15306,0.559054 -1.778,0.776054 -0.20938,0.07273 -0.37801,0.239692 -0.59267,0.296334 -0.76943,0.203115 -1.66952,0.267123 -2.37067,0.691472 m 23.960668,-1.778 c 1.11286,0.702818 2.47608,1.08585 3.72533,1.467528 0.67022,0.204808 1.40555,0.461094 2.11667,0.479806 -0.0524,-0.458809 -0.80882,-0.460333 -1.18533,-0.606806 -0.39421,-0.153247 -0.79519,-0.148844 -1.18534,-0.268055 -0.80916,-0.247227 -1.6184,-0.682244 -2.37066,-1.058333 -0.37338,-0.18669 -0.926,-0.601557 -1.10067,-0.01414 m -12.10733,0.945473 c 0.31419,-0.04868 0.43705,0.219625 0.39514,0.493861 -0.10203,0.667596 -0.24994,1.412661 -0.508,2.032001 -0.7355,1.76513 -1.93167,3.71153 -3.429,4.93886 -0.38659,0.31691 -1.17569,1.01126 -1.70748,0.98781 -0.394898,-0.0174 -0.20591,-0.45517 -0.14111,-0.67734 0.18539,-0.63551 0.31781,-1.25069 0.60678,-1.86266 0.41199,-0.87249 0.82863,-1.84802 1.41114,-2.62467 0.58623,-0.78173 1.31369,-1.48649 2.032,-2.144862 0.36153,-0.33147 0.83397,-1.064514 1.34053,-1.143 m 11.59933,8.452532 c -0.7587,-0.02 -1.59394,-0.66989 -2.11667,-1.18534 -1.30903,-1.29091 -2.47447,-2.86774 -3.16086,-4.572 -0.24934,-0.61891 -0.36339,-1.21192 -0.508,-1.862665 -0.0578,-0.260265 -0.19702,-0.534162 0.0423,-0.74786 0.24121,-0.215477 0.47658,-0.021 0.66319,0.155194 0.47981,0.453136 0.97316,0.888492 1.43933,1.354671 1.31767,1.31766 2.20879,2.72567 2.97748,4.40266 0.34908,0.76166 0.66319,1.60537 0.66319,2.45534 m -9.22867,-0.32453 c 0.86699,-0.1325 1.81314,0.0258 2.62467,0.29633 0.31648,0.1055 0.69613,0.15206 0.90314,0.45153 0.30243,0.43764 -0.12133,0.84531 -0.36695,1.18533 -0.50986,0.70604 -1.30827,1.63729 -2.22952,1.778 -1.03438,0.15807 -2.1966,-0.97087 -2.72348,-1.778 -0.18406,-0.28202 -0.59588,-0.64981 -0.45152,-1.016 0.26856,-0.68097 1.61942,-0.82186 2.24366,-0.91719 m 0.16934,0.60672 c -0.49556,0.0964 -1.64669,-0.0771 -1.905,0.47981 -0.13886,0.29938 0.27406,0.64033 0.43747,0.84666 0.48582,0.61367 1.43882,1.54525 2.31419,1.32648 0.6731,-0.16832 1.33045,-0.91534 1.778,-1.41114 0.16807,-0.18619 0.47388,-0.54712 0.29634,-0.81848 -0.16214,-0.24773 -0.46669,-0.25408 -0.71967,-0.28219 -0.70316,-0.0782 -1.492,-0.27906 -2.20133,-0.14114 m -8.974668,0.32461 c 0.14423,-0.0221 0.36648,-0.0531 0.46567,0.0847 0.093,0.12912 0.0281,0.34722 0.0423,0.49386 0.0579,0.5958 0.0847,1.17247 0.0847,1.778 0,0.54737 0.0953,1.26162 -0.11289,1.778 -0.0829,0.20566 -0.38221,0.2899 -0.56445,0.381 -0.52267,0.26137 -1.1064,0.49327 -1.69333,0.55034 -1.63031,0.15849 -1.36642,-2.0563 -1.27,-3.048 0.0255,-0.26196 0.002,-0.50225 0.0564,-0.762 0.0598,-0.28711 0.11065,-0.5975 0.28222,-0.84667 0.18415,-0.26746 0.56416,-0.15757 0.84666,-0.16933 0.6246,-0.026 1.24816,-0.14597 1.86267,-0.23987 m 18.626668,0 c 0.3462,-0.12488 0.91465,0.11574 1.27,0.1552 0.36381,0.0404 0.7377,0.0695 1.10066,0.0847 0.17154,0.007 0.42528,-0.0528 0.57853,0.0423 0.1861,0.11548 0.28143,0.43874 0.33867,0.635 0.16247,0.55702 0.18347,1.11514 0.18347,1.69333 0,0.74143 0.1585,1.96571 -0.67733,2.34247 -0.69317,0.31234 -1.58302,-0.0719 -2.20134,-0.381 -0.25781,-0.12894 -0.62391,-0.21894 -0.7338,-0.52213 -0.0583,-0.16113 -0.0121,-0.3424 -0.0282,-0.508 -0.0582,-0.59809 -0.0582,-1.09525 0,-1.69334 0.043,-0.44204 0,-0.91025 0,-1.35466 0,-0.18517 -0.0431,-0.41724 0.16934,-0.49387 z"
       style="fill:#000000;stroke:none;stroke-width:0.0846667" />
  </g>
</svg>
