<?xml version="1.0" encoding="UTF-8" standalone="no"?>
<svg
   xmlns:dc="http://purl.org/dc/elements/1.1/"
   xmlns:cc="http://creativecommons.org/ns#"
   xmlns:rdf="http://www.w3.org/1999/02/22-rdf-syntax-ns#"
   xmlns:svg="http://www.w3.org/2000/svg"
   xmlns="http://www.w3.org/2000/svg"
   xmlns:sodipodi="http://sodipodi.sourceforge.net/DTD/sodipodi-0.dtd"
   xmlns:inkscape="http://www.inkscape.org/namespaces/inkscape"
   sodipodi:docname="moth.svg"
   inkscape:version="1.0 (4035a4fb49, 2020-05-01)"
   id="svg125"
   version="1.1"
   viewBox="0 0 57.221718 38.099998"
   height="38.099998mm"
   width="57.221718mm">
  <defs
     id="defs119" />
  <sodipodi:namedview
     inkscape:window-maximized="1"
     inkscape:window-y="0"
     inkscape:window-x="0"
     inkscape:window-height="1144"
     inkscape:window-width="1920"
     fit-margin-bottom="0"
     fit-margin-right="0"
     fit-margin-left="0"
     fit-margin-top="0"
     showgrid="false"
     inkscape:document-rotation="0"
     inkscape:current-layer="layer1"
     inkscape:document-units="mm"
     inkscape:cy="-5.1428535"
     inkscape:cx="82.42124"
     inkscape:zoom="0.35"
     inkscape:pageshadow="2"
     inkscape:pageopacity="0.0"
     borderopacity="1.0"
     bordercolor="#666666"
     pagecolor="#ffffff"
     id="base" />
  <metadata
     id="metadata122">
    <rdf:RDF>
      <cc:Work
         rdf:about="">
        <dc:format>image/svg+xml</dc:format>
        <dc:type
           rdf:resource="http://purl.org/dc/dcmitype/StillImage" />
        <dc:title></dc:title>
      </cc:Work>
    </rdf:RDF>
  </metadata>
  <g
     transform="translate(-84.026047,-149.52738)"
     id="layer1"
     inkscape:groupmode="layer"
     inkscape:label="Layer 1">
    <path
       id="path3317"
       d="m 100.62065,165.36005 v 0.16933 c -1.784013,0 -3.665893,0.57794 -5.334003,1.15714 -0.68046,0.23622 -1.68706,0.73347 -1.778,1.5522 -0.0903,0.81297 0.55686,1.37177 1.10067,1.86266 0.60935,0.55008 1.17509,1.14131 1.778,1.69334 1.32724,1.21505 2.62416,2.6079 4.233333,3.45719 1.9166,1.0116 4.4533,1.26729 6.51934,0.57861 0.52273,-0.17424 0.90932,-0.49741 1.27,-0.90314 0.238,-0.26771 0.36779,-0.57793 0.67733,-0.762 0,1.43688 0.20083,2.81568 0.33867,4.23334 0.22707,2.33544 0.58665,4.68545 1.55219,6.858 0.38337,0.86258 1.04699,1.55854 1.49581,2.37066 0.39082,-0.0411 0.56269,-0.37947 0.79019,-0.67733 0.55355,-0.72466 1.01084,-1.59309 1.29828,-2.45533 0.71848,-2.15562 1.16442,-4.35678 1.38286,-6.604 0.0739,-0.76023 0.0955,-1.52654 0.16933,-2.286 0.0501,-0.51529 -0.0608,-1.02142 0.0847,-1.524 h 0.0847 c 0.64397,1.63127 2.4754,2.11666 4.064,2.11666 1.16086,0 2.37845,-0.15672 3.47133,-0.53619 0.94209,-0.32715 1.75378,-1.03895 2.54,-1.63695 0.92143,-0.70078 1.80679,-1.49631 2.62467,-2.31419 0.76682,-0.76683 1.66336,-1.45424 2.35652,-2.286 0.30252,-0.36297 0.57193,-0.86665 0.40928,-1.35467 -0.17822,-0.53458 -0.69841,-0.84582 -1.15714,-1.10066 -0.85327,-0.47405 -1.83633,-0.74516 -2.794,-0.93134 -1.03649,-0.2015 -2.07264,-0.508 -3.13266,-0.508 v -0.16933 c 0.4445,0 0.91253,-0.043 1.35466,0 0.67522,0.0656 1.34976,0.27237 2.032,0.33867 2.5544,0.24832 5.50367,-0.27432 7.45067,-2.032 1.50232,-1.35628 2.39471,-3.2181 3.556,-4.826 0.3208,-0.44425 0.53433,-0.95581 0.77614,-1.43934 0.19549,-0.39107 0.38523,-0.77546 0.55033,-1.18533 0.80112,-1.98907 1.76852,-5.32081 -0.81847,-6.43467 -0.57734,-0.24859 -1.24426,-0.254 -1.86267,-0.254 -1.58911,0 -3.07594,0.40443 -4.572,0.90312 -1.5858,0.5286 -3.16966,1.12016 -4.65666,1.90502 -2.59072,1.36728 -4.86918,3.39598 -7.19667,5.15053 -1.1513,0.86792 -2.28608,1.79104 -3.38667,2.72347 -0.51485,0.43612 -1.06629,1.09305 -1.69333,1.34053 l -0.77614,-1.27 -0.52205,-0.60681 0.28219,-0.91719 -0.19753,-0.93133 0.36686,-0.39514 1.27,-0.71967 2.286,-1.18533 2.286,-1.31234 1.016,-0.0282 c -0.13817,-0.46465 -0.68698,-0.35594 -1.10066,-0.33867 -1.08492,0.0452 -2.04039,0.90729 -2.96334,1.36881 -0.82736,0.41368 -1.61637,0.87376 -2.45533,1.27 -0.33926,0.16019 -0.78478,0.51613 -1.18533,0.49386 -0.36272,-0.0202 -0.5279,-0.46025 -0.762,-0.67733 -0.34604,-0.32097 -0.89755,-0.38312 -1.35467,-0.33867 -0.30844,0.03 -0.68064,0.1303 -0.90314,0.35281 -0.19126,0.19126 -0.38337,0.65015 -0.67733,0.69138 -0.31175,0.0438 -0.77199,-0.30988 -1.0442,-0.42333 -1.01523,-0.42299 -2.00609,-0.97883 -2.96333,-1.524 -0.86343,-0.49166 -1.75353,-1.19905 -2.794,-1.21353 -0.38972,-0.005 -0.87842,-0.0991 -1.016,0.33867 l 1.10067,0.0282 2.20133,1.28414 2.286,1.19948 1.27,0.67733 0.43747,0.42333 -0.2258,0.7902 0.15519,0.67733 0.15528,0.39514 -0.53628,0.62086 -0.83253,1.27 c -1.1827,-0.84032 -2.25645,-1.85539 -3.38666,-2.76581 -2.96892,-2.39158 -5.991863,-4.82549 -9.313343,-6.71686 -1.10506,-0.62926 -2.43856,-1.06686 -3.64066,-1.46755 -1.65143,-0.55049 -3.31868,-1.07245 -5.08,-1.07245 -0.83812,0 -1.6319,0.0668 -2.37066,0.508 -0.9434,0.56343 -1.18534,1.6071 -1.18534,2.62467 0,1.90449 0.84502,3.66556 1.67922,5.334 0.74506,1.49013 1.76294,2.80975 2.75164,4.14867 0.5654,0.76555 1.20252,1.55422 2.0038,2.08847 1.29837,0.86555 2.86817,1.31834 4.40267,1.46753 1.95521,0.19007 3.8271,-0.33867 5.757333,-0.33867 m -13.715993,-8.128 c -0.0337,-0.42655 0.0418,-0.83955 0,-1.27 -0.0228,-0.23487 -0.1465,-0.44247 -0.16934,-0.67733 -0.0318,-0.32749 0.0692,-0.69723 -0.0282,-1.016 -0.12432,-0.40691 -0.53077,-0.68377 -0.63499,-1.10067 -0.078,-0.31183 0.15092,-0.61324 0.0847,-0.93133 -0.0822,-0.39466 -0.82017,-0.64587 -0.762,-1.016 0.0378,-0.24065 0.30987,-0.34288 0.49388,-0.43745 0.54686,-0.28102 1.17131,-0.70531 1.778,-0.42333 0.10706,0.0498 0.29638,0.078 0.35278,0.19756 0.0776,0.16453 -0.0556,0.2829 -0.18345,0.36688 -0.34234,0.22483 -0.70873,0.32486 -0.762,0.80434 -0.0393,0.35407 0.18822,0.67657 0.15522,1.016 -0.0249,0.25586 -0.27963,0.43078 -0.31044,0.67733 -0.0291,0.23249 0.21355,0.44035 0.23989,0.67733 0.0439,0.39489 -0.124,0.7808 -0.0847,1.18534 0.0324,0.33341 0.25332,0.61493 0.31045,0.93133 0.0302,0.16713 -0.0692,0.27373 -0.1129,0.42333 -0.0945,0.32411 0.0507,0.54754 -0.36688,0.59267 m 51.138663,0.0847 c 0,-0.37821 -0.1938,-0.74769 -0.16933,-1.10067 0.0167,-0.2402 0.17085,-0.44467 0.2258,-0.67733 0.092,-0.38955 0.0109,-0.80154 -0.0423,-1.18534 -0.0505,-0.36339 0.24113,-0.52341 0.26805,-0.84666 0.0188,-0.22505 -0.18804,-0.3948 -0.254,-0.59267 -0.067,-0.20117 -0.01,-0.39632 0.0283,-0.59267 0.0785,-0.40386 0.0743,-0.80055 -0.2258,-1.10066 -0.16113,-0.16112 -0.71391,-0.32061 -0.6632,-0.59267 0.0341,-0.1832 0.42757,-0.30035 0.57853,-0.35278 0.47134,-0.16367 1.20514,0.27824 1.60867,0.508 0.14511,0.0827 0.3937,0.18822 0.46566,0.35278 0.1535,0.35079 -0.667,0.77333 -0.77614,1.10067 -0.1027,0.30818 0.17645,0.54152 0.11295,0.84666 -0.0894,0.42901 -0.49589,0.69148 -0.62095,1.10067 -0.082,0.26856 -0.001,0.5715 -0.0282,0.84667 -0.0325,0.33451 -0.16138,0.68461 -0.22581,1.016 -0.0882,0.45389 0.32292,1.09008 -0.28219,1.27 m -46.905333,-6.35 c -0.10372,0.003 -0.23986,-0.0138 -0.33867,0.0282 -0.0892,0.038 -0.18686,0.0834 -0.254,0.15522 -0.45982,0.49186 0.37711,0.70841 0.127,1.15708 -0.095,0.17052 -0.28482,0.23631 -0.3528,0.43748 -0.11524,0.34103 0.19744,0.65379 0.127,1.016 -0.10118,0.52027 -0.34612,0.78494 -0.21167,1.35466 0.0991,0.41978 0.50639,0.9227 0.4798,1.35467 -0.0147,0.23969 -0.30319,0.33723 -0.33866,0.59267 -0.066,0.47565 0.2794,0.89213 0.0847,1.35466 -0.45457,-0.33333 -0.37719,-0.94242 -0.52213,-1.43933 -0.0514,-0.17645 -0.17137,-0.31377 -0.1552,-0.508 0.0153,-0.18407 0.16417,-0.32334 0.16934,-0.508 0.0115,-0.41343 -0.48244,-0.76378 -0.56448,-1.18533 -0.0454,-0.2336 0.10059,-0.4445 0.0423,-0.67734 -0.0686,-0.27432 -0.35755,-0.45533 -0.32453,-0.762 0.0267,-0.24807 0.32749,-0.32376 0.33867,-0.59266 0.018,-0.43333 -0.4545,-0.71391 -0.31048,-1.18534 0.0809,-0.26482 0.23038,-0.91801 0.47981,-1.05833 0.40428,-0.22741 1.39234,0.0466 1.524,0.46567 m 43.518663,7.45066 c 0,-0.44797 0.28838,-0.92405 0.23986,-1.35466 -0.0408,-0.3628 -0.39658,-0.4219 -0.29633,-0.84667 0.14774,-0.62569 0.5555,-1.0966 0.47981,-1.778 -0.0324,-0.29151 -0.29329,-0.48048 -0.32453,-0.762 -0.0331,-0.29803 0.28109,-0.56219 0.22572,-0.84667 -0.0506,-0.26035 -0.36618,-0.35636 -0.45153,-0.59266 -0.0985,-0.27277 0.28541,-0.44488 0.35281,-0.67734 0.13995,-0.48291 -0.48997,-0.59266 -0.81847,-0.59266 0.16721,-0.47133 1.5179,-0.78991 1.778,-0.254 0.17128,0.35289 0.32241,0.96811 0.2258,1.35466 -0.0514,0.20557 -0.20802,0.37973 -0.2258,0.59267 -0.0256,0.30726 0.27262,0.41013 0.32452,0.67733 0.0535,0.27509 -0.24494,0.51401 -0.31039,0.762 -0.0602,0.22801 0.0614,0.45035 0.0141,0.67734 -0.0842,0.40411 -0.52984,0.71111 -0.57853,1.10066 -0.0279,0.22259 0.20549,0.37135 0.21167,0.59267 0.006,0.22377 -0.17789,0.38989 -0.23986,0.59267 -0.15037,0.49191 -0.002,1.17475 -0.60681,1.35466 m -38.269332,5.24934 -1.27,-0.0282 -1.27,-0.9878 -1.15714,-0.762 -0.28219,-0.67734 -0.56447,-0.762 0.0141,-0.508 -0.352801,-0.33866 0.28228,-0.67734 -0.0283,-0.84666 0.39514,-0.35281 1.05833,-1.08653 -0.127,-0.508 c 0.353062,-0.24155 1.145462,-0.82711 0.889002,-1.35466 -0.11007,-0.2264 -0.49555,-0.38939 -0.45153,-0.67734 0.0505,-0.33062 0.48497,-0.45271 0.381,-0.84666 -0.13445,-0.50936 -0.63457,-0.80087 -0.64914,-1.35467 0.58886,0 1.03091,0.30201 1.46753,0.67733 0.10897,0.0936 0.27153,0.18288 0.29634,0.33867 0.0366,0.22945 -0.22217,0.31361 -0.26806,0.508 -0.0471,0.19914 0.16679,0.36915 0.0987,0.59267 -0.0549,0.18042 -0.27186,0.24451 -0.31039,0.42333 -0.0663,0.30776 0.25053,0.58047 0.127,0.93133 -0.15121,0.42926 -0.80137,0.48921 -0.94547,0.84667 -0.12395,0.30742 0.42401,0.52688 0.254,0.93133 -0.16967,0.40369 -0.81712,0.52223 -1.1148,0.86081 -0.22657,0.25764 0.0276,0.38362 -0.0423,0.66319 -0.10151,0.40623 -0.51782,0.70062 -0.28219,1.18534 0.0916,0.18846 0.27931,0.30454 0.3528,0.508 0.0887,0.2457 0.0386,0.54491 0.21167,0.762 0.14859,0.18652 0.39971,0.22479 0.53619,0.42333 0.14174,0.20616 0.16773,0.39751 0.381,0.56447 0.18195,0.14241 0.40522,0.18542 0.59267,0.31039 0.27542,0.18364 0.44382,0.49716 0.762,0.62095 0.36966,0.14367 0.88384,0.2004 1.016,0.62086 m 35.560001,-11.76867 c 0,0.58725 -0.56227,0.89188 -0.59267,1.43933 -0.0201,0.36085 0.4616,0.51816 0.4092,0.84667 -0.0662,0.41529 -0.6361,0.45813 -0.46567,1.016 0.1375,0.44992 0.55634,0.52951 0.77614,0.87486 0.17805,0.27982 -0.19169,0.50995 0.0705,0.80433 0.339,0.3805 1.03242,0.6604 1.28414,1.11481 0.12208,0.22047 -0.0455,0.45178 -0.0141,0.67733 0.0662,0.47651 0.64228,1.02633 -0.11286,1.18534 0.13148,0.71382 -0.12006,0.77605 -0.46567,1.35466 -0.13411,0.22454 -0.11354,0.47363 -0.29633,0.67734 -0.27432,0.30581 -0.71019,0.40546 -1.016,0.67733 -0.33114,0.29439 -0.60901,0.73914 -1.016,0.93133 -0.50132,0.23673 -1.07095,0.16934 -1.60867,0.16934 0.14072,-0.47338 0.70739,-0.48066 1.10067,-0.67734 0.27194,-0.13597 0.43154,-0.39378 0.67733,-0.56447 0.18212,-0.12641 0.42028,-0.17137 0.59267,-0.31039 0.20497,-0.16535 0.25374,-0.45931 0.43747,-0.64914 0.16324,-0.16874 0.42037,-0.20447 0.53619,-0.42333 0.12226,-0.23097 0.007,-0.51892 0.14114,-0.762 0.0925,-0.16696 0.2805,-0.25307 0.36686,-0.42333 0.25967,-0.5119 -0.26383,-0.77309 -0.36687,-1.18534 -0.0556,-0.2225 0.17502,-0.37922 0.0564,-0.59266 -0.25146,-0.45263 -0.97392,-0.46474 -1.143,-0.93134 -0.12913,-0.35636 0.31386,-0.67073 0.19761,-0.93133 -0.17637,-0.39514 -0.81229,-0.44933 -0.95961,-0.93133 -0.0987,-0.32309 0.26525,-0.55635 0.21167,-0.84667 -0.0285,-0.1546 -0.21209,-0.20853 -0.2822,-0.33867 -0.12396,-0.23012 0.0679,-0.44958 0.0141,-0.67733 -0.0421,-0.17805 -0.24502,-0.30827 -0.21167,-0.508 0.034,-0.20362 0.25578,-0.3429 0.4092,-0.45153 0.40115,-0.28414 0.76657,-0.55122 1.27,-0.56447 m -35.052003,2.20133 c -0.59258,-0.0468 -0.84667,-0.36288 -0.84667,-0.93133 0.64593,0.051 0.84667,0.32131 0.84667,0.93133 m 32.258003,-0.93133 c 0.10922,0.51875 -0.30429,1.06079 -0.84667,0.84667 0.0951,-0.5163 0.29041,-0.80273 0.84667,-0.84667 m -28.02467,4.064 c -0.42968,-0.034 -0.67166,-0.33486 -1.016,-0.56447 -0.563033,-0.37533 -1.389883,-0.63687 -1.834473,-1.15706 -0.15358,-0.17983 -0.11752,-0.62873 0.0847,-0.77614 0.25535,-0.18618 0.76843,0.22285 0.9878,0.33867 0.52435,0.27669 1.242743,0.6328 1.580483,1.143 0.1656,0.25019 0.17424,0.72111 0.19752,1.016 m 25.82334,-2.54 0.14114,0.67733 -0.64914,0.5362 -1.18534,0.67733 -1.10066,0.64914 c 0,-0.26899 0.006,-0.68919 0.127,-0.93133 0.13987,-0.27974 0.46854,-0.50648 0.71966,-0.67734 0.55889,-0.38032 1.25603,-0.91313 1.94734,-0.93133 m -23.79134,3.13267 -0.33866,0.0847 0.16933,0.59267 c -0.23351,-0.0492 -0.39294,-0.1491 -0.59267,-0.28219 -0.15477,-0.10321 -0.36838,-0.20058 -0.49386,-0.33867 -0.16721,-0.1839 -0.15858,-0.64093 0.0705,-0.77614 0.44298,-0.26137 1.14198,0.30751 1.18533,0.71967 m 19.05,0.67733 c 0.0323,-0.30658 0.29134,-0.55567 -0.0847,-0.67733 0.0448,-0.4252 0.64372,-0.90492 1.10066,-0.74786 0.2932,0.10075 0.33706,0.59165 0.14114,0.80433 -0.13657,0.14808 -0.39505,0.25391 -0.56447,0.36686 -0.20481,0.13657 -0.34917,0.22835 -0.59267,0.254 m -20.066,6.096 -1.69333,-0.42333 -1.157143,-0.19753 0.11295,-0.73381 -0.90314,-0.42333 c 0.13165,-0.44289 0.81221,-0.63373 0.16933,-1.016 l 0.0988,-0.29633 0.42333,-0.29634 -0.56447,-0.62086 0.0988,-0.83261 -0.7338,-0.42333 -1.18534,-0.32453 h -1.35466 v -0.16933 c 0.12615,-0.0531 0.39006,-0.0684 0.4798,-0.18348 0.30091,-0.38582 -0.75988,-0.71856 -0.9878,-0.83252 v -0.16934 c 0.51562,-0.14926 0.92566,0.0133 1.43933,0.0847 1.23393,0.17137 3.02133,0.44839 3.626533,1.69333 0.32224,0.66286 -0.170693,1.35941 0.29633,2.032 0.22107,0.31835 0.68495,0.52003 0.86081,0.84667 0.1706,0.31674 -0.17746,0.58767 0.0565,0.93133 0.32978,0.48463 0.86733,0.7228 0.91719,1.35467 m 28.194,-6.94267 v 0.16934 c -0.23021,0.11506 -1.21844,0.37778 -1.05833,0.762 0.10617,0.25484 0.44602,0.13877 0.55033,0.42333 l -2.45533,0.28219 -0.83253,0.47981 0.11286,0.762 -0.57852,0.762 0.43738,0.21167 0.0988,0.29633 -0.16933,0.0988 c -0.41496,0.47972 0.31919,0.40716 0.23986,0.83252 -0.0629,0.33757 -0.64796,0.15537 -0.80434,0.42334 -0.16628,0.28515 0.34832,0.43027 0.11295,0.762 -0.25586,0.36051 -0.79155,0.21844 -1.15714,0.254 -0.61764,0.06 -1.13318,0.30158 -1.69333,0.508 l -0.0847,-0.0847 c 0.20159,-0.63839 0.85073,-0.92617 1.05833,-1.524 0.0914,-0.2634 -0.23596,-0.48302 -0.0847,-0.73381 0.2661,-0.44094 0.79908,-0.6245 1.04419,-1.12886 0.29828,-0.61349 -0.10008,-1.26737 0.19761,-1.86266 0.60918,-1.21836 2.44391,-1.39285 3.62653,-1.62281 0.48074,-0.0935 0.96207,-0.2087 1.43933,-0.0705 m -24.13,2.794 c -0.28338,0.22505 -0.19558,0.34527 -0.16933,0.67734 l -1.35467,-0.81848 -1.016,-0.53619 c 0.0732,-0.3479 0.20507,-0.83033 0.59267,-0.95953 0.39887,-0.13301 1.27931,0.40573 1.50986,0.70553 0.16722,0.21734 0.33443,0.67031 0.43747,0.93133 m 13.03867,0.67734 c 0.01,-0.38134 -0.18915,-0.68496 -0.0282,-1.016 0.30852,-0.63467 0.76377,-1.20337 1.55219,-1.27 0.39099,-0.033 1.01744,0.52061 0.74786,0.93133 -0.22487,0.34273 -0.92354,0.51299 -1.25586,0.77614 -0.32715,0.25899 -0.58259,0.5671 -1.016,0.57853 m -6.94267,-1.84853 c 0.72246,-0.14055 1.02066,0.17822 1.45348,0.66319 0.51062,0.57226 0.93573,1.02498 1.34052,1.69334 0.16036,0.26483 0.61299,0.45144 0.6632,0.762 0.0135,0.0829 -0.0133,0.16357 -0.0847,0.21166 -0.16349,0.11032 -0.34527,0.13395 -0.47972,0.29634 -0.11566,0.13961 -0.12175,0.42333 -0.35281,0.42333 -0.50427,0 -0.30488,-0.96071 -0.39514,-1.27 -0.24917,-0.85454 -0.83752,-1.47574 -1.72152,-1.69333 -0.28008,-0.0689 -0.52333,0.12056 -0.762,0.23986 -0.63483,0.31741 -1.11312,0.87977 -1.18534,1.6228 -0.0285,0.29329 0.1524,1.10067 -0.33866,1.10067 -0.29481,0 -0.28296,-0.32775 -0.43748,-0.49386 -0.11235,-0.12091 -0.2639,-0.13733 -0.39505,-0.22581 -0.0714,-0.0481 -0.0981,-0.12878 -0.0847,-0.21166 0.0474,-0.29304 0.48049,-0.5069 0.635,-0.762 0.25163,-0.41555 0.45356,-0.81763 0.7902,-1.18534 0.17356,-0.18957 0.41664,-0.31309 0.57852,-0.508 0.24943,-0.30014 0.34248,-0.57886 0.77614,-0.66319 m -23.960663,0.49386 c -0.0761,0.72322 -0.78872,0.73397 -0.84667,0 h 0.84667 m 49.445333,0 c -0.01,0.12124 -0.003,0.23004 -0.0705,0.33867 -0.44518,0.71797 -1.09051,-0.35645 -0.52214,-0.42334 0.19067,-0.0224 0.40191,0.0696 0.59267,0.0847 m -36.15267,0.254 0.0847,-0.0847 c 0.33604,0.10609 0.93167,0.14021 1.15714,0.43748 0.12497,0.16476 0.0169,0.31572 0.0564,0.49386 0.0374,0.16823 0.16611,0.36085 0.254,0.508 0.42926,0.71865 0.85056,1.54144 1.35466,2.20133 0.19711,0.25806 0.55584,0.466 0.69148,0.762 0.12657,0.27618 -0.16967,0.59385 -0.381,0.73381 -0.50131,0.3318 -1.53569,-0.21049 -1.83448,-0.64914 -0.28312,-0.41572 0.15892,-0.66244 0.0565,-1.03014 -0.12683,-0.45509 -0.54907,-0.74228 -0.73381,-1.1712 -0.1601,-0.37202 0.0414,-0.6637 -0.0564,-1.016 -0.1248,-0.44932 -0.48446,-0.76809 -0.64914,-1.18533 m 21.92867,0 c -0.10651,0.40488 -0.47329,0.70172 -0.57853,1.10067 -0.10346,0.39192 0.0777,0.80408 -0.11294,1.18533 -0.19067,0.38134 -0.61401,0.67801 -0.71967,1.10067 -0.0927,0.37109 0.39319,0.54813 0.127,0.93133 -0.44264,0.63745 -1.91812,1.35754 -2.286,0.254 -0.1071,-0.32156 0.67987,-0.98688 0.86081,-1.27 0.48014,-0.75159 1.0541,-1.561 1.42519,-2.37067 0.10973,-0.23943 -0.0556,-0.45313 0.18347,-0.64914 0.28262,-0.23164 0.74956,-0.28219 1.10067,-0.28219 m -34.120663,1.10067 c 0.072,0.18228 0.0722,0.22529 0.0282,0.42333 -0.029,0.13039 -0.0433,0.30717 -0.14106,0.40919 -0.24815,0.25874 -0.69748,-0.10143 -0.635,-0.40919 0.0336,-0.16561 0.18382,-0.24706 0.32453,-0.31047 0.1353,-0.061 0.27957,-0.0864 0.42334,-0.11286 m 46.227993,0.0847 c 0.18517,-0.0731 0.22716,-0.0822 0.42334,-0.0141 0.11895,0.0413 0.30573,0.0867 0.381,0.19762 0.16518,0.24316 -0.0793,0.6979 -0.381,0.64905 -0.20143,-0.0326 -0.25426,-0.24731 -0.31048,-0.40919 -0.0495,-0.14275 -0.0857,-0.27576 -0.11286,-0.42334 m -42.587333,1.69334 c -0.14656,0.79561 0.16036,1.14884 0.42333,1.86266 -1.01066,0.42554 -1.32122,-0.57963 -2.11666,-0.889 -0.46177,-0.17958 -1.10135,0.24714 -1.18534,-0.55033 0.54441,-0.20058 1.13378,-0.20371 1.69334,-0.36686 0.47803,-0.13945 0.70188,-0.2982 1.18533,-0.0565 m 41.994673,0.42333 c -0.0834,0.79231 -0.71527,0.3926 -1.18534,0.53619 -0.28058,0.0858 -0.46956,0.37694 -0.67733,0.56448 -0.39929,0.36051 -0.93379,0.55151 -1.43933,0.33866 l 0.4798,-1.016 -0.0565,-0.93133 1.18533,0.14114 1.69334,0.36686 m -31.496,5.92667 0.0847,-0.42334 c -0.14342,-0.0415 -0.37651,-0.0637 -0.4798,-0.18347 -0.18864,-0.21869 -0.0653,-0.5776 -0.29634,-0.83253 -0.32004,-0.35323 -0.9674,-0.61933 -1.42519,-0.7338 -0.79129,-0.19778 -1.43993,-0.13733 -2.201331,0.16933 -0.45128,0.18178 -0.93498,0.52934 -1.43934,0.55033 -0.29489,0.0123 -0.44678,-0.22919 -0.67733,-0.36686 -0.2352,-0.14046 -0.49267,-0.20455 -0.762,-0.21166 0.21201,-0.71298 1.67191,-0.72992 2.286,-0.87486 0.94988,-0.22429 1.906861,-0.46999 2.878671,-0.56448 0.74227,-0.0721 1.40199,0.18449 2.11666,0.254 0.69139,0.0672 1.43519,0.065 2.11667,0.19753 0.37948,0.0738 0.7289,0.23224 1.10067,0.31047 -0.1154,-0.1993 -0.2678,-0.33299 -0.42334,-0.508 -0.0672,-0.0756 -0.14909,-0.15646 -0.18347,-0.254 -0.24655,-0.7007 0.91059,-0.33765 1.19947,-0.26814 0.10635,0.0257 0.23944,0.0243 0.33867,-0.0282 0.38388,-0.2032 0.005,-1.27203 0.67733,-0.93133 0.35349,0.17924 0.56371,0.70264 0.67734,1.05833 0.18745,0.58674 0.22936,1.24562 0.16933,1.86267 -0.0549,0.56396 -0.16679,1.14477 0.0847,1.69333 0.36593,0.79841 1.63796,-0.0944 1.524,0.93133 -0.0884,0.79519 -1.22005,0.45094 -1.66514,0.94548 -0.27568,0.30632 -0.31716,0.75692 -0.56439,1.08652 -0.66252,0.88341 -1.85428,1.83033 -3.01981,1.31234 -0.58056,-0.25807 -1.35305,-1.04665 -1.17119,-1.73567 0.0852,-0.323 0.43993,-0.55465 0.31039,-0.93133 -0.12285,-0.35747 -0.69334,-0.32936 -0.87486,-0.67734 -0.19914,-0.38167 0.19024,-0.68131 -0.381,-0.84666 m 13.63133,-4.74134 c 0,0.37872 -0.0989,0.95801 0.42333,1.016 0.29278,0.0325 1.18263,-0.52442 1.32648,0 0.11303,0.41233 -0.46499,0.68132 -0.56448,1.016 0.84057,-0.30971 1.65456,-0.33722 2.54,-0.42333 0.65896,-0.0641 1.28905,-0.27466 1.94734,-0.33867 1.17153,-0.11387 2.43111,0.24088 3.556,0.52214 0.59072,0.14766 1.20413,0.20193 1.778,0.4092 0.29345,0.10591 0.58174,0.20396 0.67733,0.508 -0.27297,0.007 -0.52095,0.0603 -0.762,0.19752 -0.21522,0.1226 -0.41749,0.38066 -0.67733,0.39514 -0.60351,0.0335 -1.38303,-0.54567 -1.94734,-0.7338 -0.92642,-0.30878 -2.07526,-0.0499 -2.87866,0.508 -0.18932,0.13148 -0.42503,0.33917 -0.49386,0.56447 -0.042,0.13724 0.0196,0.29218 -0.0565,0.42333 -0.0853,0.14707 -0.25916,0.15181 -0.36686,0.26814 -0.10532,0.11371 -0.0724,0.25282 -0.14114,0.381 -0.0502,0.0936 -0.19896,0.11193 -0.254,0.21167 -0.0859,0.15553 0.0399,0.32766 0.0141,0.49386 -0.0643,0.4147 -0.65125,0.62916 -0.9878,0.762 0.0761,0.19279 0.0179,0.40775 0.11286,0.59267 0.12488,0.24299 0.33172,0.37126 0.31047,0.67733 -0.0207,0.29709 -0.22225,0.53577 -0.39514,0.762 -0.57776,0.75641 -1.50317,1.09863 -2.39886,0.66319 -0.59148,-0.28744 -1.13301,-0.79637 -1.49581,-1.34052 -0.23884,-0.35823 -0.28338,-0.80231 -0.62086,-1.10067 -0.46524,-0.41131 -1.33375,-0.0515 -1.58047,-0.762 -0.32283,-0.92973 0.7979,-0.45542 1.15714,-0.635 0.41148,-0.20574 0.508,-0.64567 0.508,-1.05833 0,-0.9376 -0.17636,-2.07916 0.15519,-2.96334 0.20397,-0.5439 0.48972,-1.016 1.11481,-1.016 m -12.192,3.38667 c 0.0651,0.13013 0.17695,0.27525 0.19753,0.42333 0.0452,0.32563 -0.15943,0.79206 0.0141,1.10067 0.20498,0.3644 0.79053,0.33867 1.143,0.33867 l -0.57853,1.016 -0.35281,0.93133 0.0282,0.91719 0.64914,0.0283 1.41114,-1.1148 0.762,-1.60867 0.19752,-0.67733 -0.26814,-0.762 -0.23986,-0.889 -0.762,-0.0423 -2.20133,0.33867 m 13.80067,1.86267 c 0.36296,0 1.01041,0.0355 1.22766,-0.33867 0.17416,-0.29997 -0.0177,-0.78266 0,-1.10067 0.008,-0.14105 0.0915,-0.28846 0.127,-0.42333 -0.75014,-0.13818 -1.42782,-0.33867 -2.20133,-0.33867 -0.20777,0 -0.47904,-0.0447 -0.67733,0.0282 -0.39345,0.14469 -0.21159,0.66438 -0.31048,0.9878 -0.0607,0.19888 -0.18296,0.38278 -0.19752,0.59267 -0.0211,0.30328 0.11557,0.65777 0.2258,0.93133 0.31234,0.77546 0.60943,1.49403 1.2982,2.01786 0.32393,0.24638 0.73609,0.65744 1.18533,0.60681 0.65532,-0.0738 0.24164,-1.33113 0.0705,-1.69333 -0.20989,-0.4445 -0.52985,-0.83397 -0.74786,-1.27 m -19.981343,-0.84667 c -0.39243,0 -0.96266,0.15494 -1.016,-0.33867 0.36754,-0.0774 0.9183,-0.64736 1.016,0 0.0159,0.10541 0,0.23199 0,0.33867 m 28.617343,-0.33867 c -0.0549,0.50766 -0.69884,0.33867 -1.10067,0.33867 0,-0.0742 -0.0115,-0.17916 0,-0.254 0.11303,-0.73491 0.67124,-0.17509 1.10067,-0.0847 m -29.294673,1.35467 c 0.0367,-0.1701 0.0595,-0.24079 0.18347,-0.36686 0.11524,-0.11726 0.25773,-0.28338 0.4092,-0.35281 0.23673,-0.10854 0.55397,0.11066 0.49386,0.381 -0.0486,0.21895 -0.38811,0.3175 -0.57853,0.33867 -0.16451,0.0183 -0.34222,0 -0.508,0 m 28.956003,0 c -0.16578,0 -0.34349,0.0183 -0.508,0 -0.1817,-0.0202 -0.4495,-0.10109 -0.55033,-0.26814 -0.1933,-0.32021 0.18999,-0.55364 0.46566,-0.45153 0.12853,0.0476 0.24714,0.20075 0.33867,0.29634 0.14046,0.14664 0.1999,0.2363 0.254,0.42333 m -26.75467,0.67733 c -0.376173,0.22767 -0.944113,0.34223 -1.354663,0.16934 0.1706,-0.57387 1.147233,-0.86708 1.354663,-0.16934 m 25.908,0 v 0.16934 l -1.43933,-0.16934 v -0.16933 c 0.63491,-0.3843 0.87003,-0.16027 1.43933,0.16933 m -25.908,0.26814 c 0.22462,-0.0655 0.57735,0.0107 0.74786,0.16934 0.20024,0.18618 0.22132,0.46998 -0.0705,0.56438 -0.21218,0.0687 -0.90881,0.0909 -1.100673,-0.0282 -0.37211,-0.23097 0.198123,-0.63991 0.423333,-0.70553 m 24.21467,0 c 0.25908,-0.0396 0.55998,0.0602 0.73381,0.26806 0.15273,0.18271 0.106,0.4373 -0.14114,0.4798 -0.24935,0.0428 -0.87825,0.0794 -1.08653,-0.0705 -0.38396,-0.27644 0.25298,-0.64059 0.49386,-0.67734 m -22.86,0.84667 c 0.33604,-0.0939 0.94344,0.1728 1.27,0.26805 0.13123,0.0383 0.31665,0.0883 0.381,0.22581 0.0777,0.1662 -0.0423,0.56659 -0.0423,0.762 0,0.38125 0.138,1.03022 -0.33867,1.17119 -0.70841,0.20955 -0.49962,-0.6184 -0.635,-0.91719 -0.067,-0.14783 -0.25586,-0.20244 -0.381,-0.28219 -0.2987,-0.1905 -0.8691,-1.0558 -0.254,-1.22767 m 21.67467,0 c 0.79027,-0.0329 0.25256,0.99026 -0.0847,1.21353 -0.1452,0.0961 -0.29235,0.12894 -0.381,0.29633 -0.19126,0.36119 0.0818,0.8962 -0.55033,0.93133 -0.66489,0.0369 -0.38337,-1.0287 -0.42334,-1.43933 -0.016,-0.16417 -0.12513,-0.34747 -0.0423,-0.508 0.16993,-0.32952 1.13809,-0.47955 1.48167,-0.49386 m -9.73667,0.57853 0.0141,0.40919 1.34053,-0.19753 0.508,-0.29633 -0.0565,1.35467 -0.14105,0.381 -1.24181,0.0423 h -3.048 l -1.08652,-0.0423 -0.16934,-0.46567 -0.0988,-1.27 c 0.6946,0.20108 1.25239,0.65159 2.032,0.508 l -0.16934,-0.42333 1.016,-0.1552 1.10067,0.1552 m -5.08,1.35466 c -0.0349,0.44179 -0.28753,0.71086 -0.59267,1.016 -0.70976,0.70976 -1.60053,1.11557 -2.62466,1.016 -0.77733,-0.0756 -1.50317,-0.73211 -1.524,-1.524 0.82431,0.0868 1.34975,0.9288 2.286,0.73381 0.84006,-0.17501 1.5836,-1.42536 2.45533,-1.24181 m 12.86933,0.508 c -0.14774,1.8719 -2.70433,1.82093 -3.79586,0.87486 -0.39666,-0.34366 -1.09457,-0.91228 -0.8608,-1.46752 l 2.54,1.35466 2.11666,-0.762 m -11.85333,0.508 c 0.23461,0.0247 0.39226,0.11185 0.59267,0.23986 0.21243,0.13572 0.59724,0.37948 0.71966,0.60681 0.22081,0.41012 -0.40589,0.96334 -0.80433,0.83253 -0.28194,-0.0925 -0.44941,-0.65041 -0.49386,-0.9172 -0.041,-0.24587 -0.0141,-0.51257 -0.0141,-0.762 m 5.842,0.0282 c 0.32859,0.0146 0.19067,0.37236 0.16933,0.56447 -0.044,0.39632 -0.0973,1.15705 -0.67733,1.10067 -0.34197,-0.0333 -0.71586,-0.50623 -0.55033,-0.84667 0.12234,-0.25163 0.41165,-0.44069 0.635,-0.59267 0.11447,-0.0779 0.27516,-0.23232 0.42333,-0.2258 m -3.38667,0.254 c 0.33435,0 0.67082,0.09 1.016,0.0565 0.25214,-0.0246 0.68589,-0.12421 0.9172,0.0423 0.17229,0.12404 0.0913,0.39396 0.0283,0.55034 -0.19626,0.48717 -0.57354,0.87122 -1.11481,0.93133 -0.44213,0.0491 -0.99712,-0.0435 -1.32647,-0.36686 -0.19948,-0.19592 -0.60385,-0.80213 -0.35272,-1.05833 0.14156,-0.14453 0.63635,-0.15528 0.83252,-0.15528 m -2.20133,2.44128 c 0.68199,-0.20126 1.37533,1.14291 0.42333,1.41105 -0.4826,0.13597 -0.58343,-0.66844 -0.59266,-1.00186 -0.004,-0.15943 -0.0168,-0.35433 0.16933,-0.40919 m 5.41867,0 c 0.5483,-0.0875 0.29794,1.40487 -0.16934,1.42519 -1.02937,0.0448 -0.55304,-1.31005 0.16934,-1.42519 m -3.556,0.0847 c 0.47015,-0.0993 1.04301,-0.0141 1.524,-0.0141 0.17924,0 0.42494,-0.0296 0.56447,0.11286 0.15138,0.15477 0.0663,0.38168 0.0282,0.56448 -0.12378,0.59419 -0.42155,0.87215 -1.016,0.9878 -0.5179,0.10067 -1.09541,-0.16112 -1.31233,-0.64914 -0.1535,-0.34544 -0.26518,-0.90119 0.21167,-1.00186 m 0.16933,2.70934 c 0.20066,-0.0224 0.39057,0.0621 0.59267,0.0705 0.43882,0.0183 1.20743,-0.23639 1.59452,0.0423 0.19872,0.143 0.0511,0.39751 -0.0423,0.55033 -0.21717,0.35535 -0.42774,0.7123 -0.87486,0.762 -0.43603,0.0484 -1.16247,0.0849 -1.524,-0.19753 -0.18957,-0.14816 -0.78537,-0.90068 -0.49386,-1.1148 0.13115,-0.0964 0.57963,-0.0942 0.74786,-0.11286 m -1.43933,1.17119 c -0.30303,-0.0655 -0.76674,-0.80806 -0.4092,-1.05833 0.21285,-0.14902 0.62671,0.0625 0.6632,0.29633 0.0443,0.28329 -0.11278,0.53839 -0.254,0.762 m 4.572,0 c -0.31691,-0.0685 -0.68775,-0.59614 -0.4092,-0.90314 0.2209,-0.24342 0.73593,-0.29108 0.71967,0.14114 -0.003,0.0901 -0.0993,0.24799 -0.127,0.33867 -0.0504,0.16467 -0.095,0.27711 -0.18347,0.42333 m -4.23334,1.94733 c -0.36847,-0.10956 -0.35966,-0.4163 -0.42333,-0.762 l 0.0847,-0.0847 c 0.48979,0.10312 0.58437,0.44069 0.33866,0.84666 m 4.064,-0.84666 -0.254,0.84666 c -0.44052,-0.28507 -0.24578,-0.79409 0.254,-0.84666 m -3.302,0.52214 c 0.51757,-0.11422 1.16273,-0.0141 1.69334,-0.0141 0.17212,0 0.43772,-0.0491 0.59266,0.0423 0.5583,0.32944 -0.3291,0.71391 -0.59266,0.77614 -0.49132,0.11599 -1.14885,0.0596 -1.60867,-0.14114 -0.29879,-0.13047 -0.54322,-0.5621 -0.0847,-0.66319 m 2.032,2.01786 c -0.0335,0.30988 -0.2678,0.40013 -0.381,0.67733 -0.11125,0.27237 0.0389,0.59478 -0.15519,0.84667 -0.0786,0.10193 -0.18263,0.15985 -0.31047,0.16933 -0.76268,0.0565 -0.47939,-0.56566 -0.67734,-1.03014 -0.11184,-0.26238 -0.30717,-0.36432 -0.33866,-0.66319 l 0.762,-0.0847 z"
       style="fill:#000000;stroke:none;stroke-width:0.0846667" />
  </g>
</svg>
