<?xml version="1.0" encoding="UTF-8" standalone="no"?>
<svg
   xmlns:dc="http://purl.org/dc/elements/1.1/"
   xmlns:cc="http://creativecommons.org/ns#"
   xmlns:rdf="http://www.w3.org/1999/02/22-rdf-syntax-ns#"
   xmlns:svg="http://www.w3.org/2000/svg"
   xmlns="http://www.w3.org/2000/svg"
   xmlns:sodipodi="http://sodipodi.sourceforge.net/DTD/sodipodi-0.dtd"
   xmlns:inkscape="http://www.inkscape.org/namespaces/inkscape"
   sodipodi:docname="prayingmantis.svg"
   inkscape:version="1.0 (4035a4fb49, 2020-05-01)"
   id="svg182"
   version="1.1"
   viewBox="0 0 36.181808 58.009216"
   height="58.009216mm"
   width="36.181808mm">
  <defs
     id="defs176" />
  <sodipodi:namedview
     inkscape:window-maximized="1"
     inkscape:window-y="0"
     inkscape:window-x="0"
     inkscape:window-height="1144"
     inkscape:window-width="1920"
     fit-margin-bottom="0"
     fit-margin-right="0"
     fit-margin-left="0"
     fit-margin-top="0"
     showgrid="false"
     inkscape:document-rotation="0"
     inkscape:current-layer="layer1"
     inkscape:document-units="mm"
     inkscape:cy="578.19514"
     inkscape:cx="34.089363"
     inkscape:zoom="0.35"
     inkscape:pageshadow="2"
     inkscape:pageopacity="0.0"
     borderopacity="1.0"
     bordercolor="#666666"
     pagecolor="#ffffff"
     id="base" />
  <metadata
     id="metadata179">
    <rdf:RDF>
      <cc:Work
         rdf:about="">
        <dc:format>image/svg+xml</dc:format>
        <dc:type
           rdf:resource="http://purl.org/dc/dcmitype/StillImage" />
        <dc:title></dc:title>
      </cc:Work>
    </rdf:RDF>
  </metadata>
  <g
     transform="translate(-96.813856,4.8141321)"
     id="layer1"
     inkscape:groupmode="layer"
     inkscape:label="Layer 1">
    <path
       id="path3257"
       d="m 107.00064,-4.5488861 v 0.0847 c 0.33528,0 0.69393,-0.18584 1.016,-0.14111 0.6902,0.0959 1.23207,0.69582 1.69333,1.15711 1.06503,1.06504 2.00652,2.2719499 2.65286,3.64067001 0.26704,0.5654899 1.02244,1.54186989 0.79028,2.20133009 -0.11193,0.3177598 -0.48556,0.49149 -0.7338,0.6914798 -0.56905,0.4583002 -1.21827,0.9249003 -1.66514,1.5098602 -0.83253,1.0899099 -0.45449,2.5595599 0.7338,3.2031899 0.65837,0.35662 1.39971,0.39006 2.11667,0.52214 -0.127,0.43874 -0.5257,0.57328 -0.83253,0.87486 -0.22403,0.22013 -0.44018,0.61443 -0.56447,0.9031401 -0.14021,0.32554 -0.24604,0.83151 -0.21167,1.18533 0.0209,0.21531 0.14622,0.45924 0.11286,0.67734 -0.0414,0.27119 -0.37126,0.56244 -0.62086,0.64914 -0.39878,0.13843 -0.73304,-0.10567 -1.10066,-0.19761 -0.87012,-0.21751 -1.81492,-0.36687 -2.70934,-0.36687 -0.74015,0 -1.65752,-0.0104 -2.37066,0.19753 -0.21946,0.064 -0.44637,0.24892 -0.67734,0.26814 -0.21844,0.0182 -0.43959,-0.17797 -0.49386,-0.381 -0.12497,-0.46685 0.49827,-0.64355 0.71967,-0.93133 0.32757,-0.42588 0.5914,-1.09694 0.762,-1.6086701 0.1331,-0.39937 0.32588,-0.84887 0.36686,-1.27 0.0869,-0.89467 -0.087,-1.81466 0,-2.70933 0.0713,-0.7328799 0.26052,-1.6015599 0.53619,-2.2859999 0.19321,-0.4796401 0.42859,-0.9971202 0.47981,-1.524 0.0622,-0.63915 -0.28905,-1.35535009 -0.84667,-1.66514019 -0.75124,-0.4173198 -1.57632,-0.11362 -2.286,0.2116601 -0.76132,0.349 -1.44661,0.69883999 -2.11666,1.21361989 -2.514381,1.93133 -4.774641,4.6796101 -4.910671,7.9445201 -0.0262,0.6275501 -0.0913,1.3647501 0.16933,1.9473401 h 0.16934 c 0.11342,-0.22682 0.22257,-0.50021 0.21166,-0.762 -0.01,-0.23428 -0.12951,-0.53137 -0.0847,-0.7620001 0.0442,-0.22725 0.26008,-0.35543 0.29633,-0.59267 0.0449,-0.29388 -0.13305,-0.56396 0,-0.84667 0.11477,-0.24392 0.39075,-0.22182 0.508,-0.43747 0.082,-0.15071 0.0339,-0.33824 0.0988,-0.49386 0.0983,-0.23605 0.33999,-0.36957 0.45155,-0.59267 0.0778,-0.15561 -0.008,-0.34713 0.0847,-0.49386 0.10367,-0.16417 0.32065,-0.15138 0.45155,-0.28228 0.15526,-0.15519 0.13416,-0.40233 0.28223,-0.56438 0.15276,-0.16722 0.40592,-0.18873 0.550331,-0.36695 0.11237,-0.1386799 0.0797,-0.34146 0.21167,-0.46567 0.10719,-0.1008298 0.26915,-0.10947 0.381,-0.2116601 0.23753,-0.2169998 0.40755,-0.5231598 0.635,-0.73372 0.11488,-0.1064299 0.28227,-0.089 0.39511,-0.1976199 0.13639,-0.1312299 0.13041,-0.3404399 0.28222,-0.4656601 0.12212,-0.1006699 0.28036,-0.0779 0.40922,-0.1551998 0.17975,-0.10786 0.25358,-0.3285 0.42334,-0.4515202 0.17788,-0.1289499 0.40403,-0.0964 0.59266,-0.2116698 0.68335,-0.4176601 1.07366,-0.5596501 1.86267,-0.31047 -0.16019,0.40572 -0.44044,0.53399 -0.762,0.79019 -0.18567,0.148 -0.23199,0.3957299 -0.42333,0.53628 -0.12167,0.0893 -0.29481,0.0677 -0.4092,0.15519 -0.11997,0.0917 -0.0914,0.2628099 -0.19761,0.3668599 -0.12759,0.12514 -0.34823,0.05 -0.45153,0.1976199 -0.16544,0.2363002 0.15401,0.5080003 0.0705,0.7478602 -0.12133,0.3489899 -0.72466,0.22284 -0.77605,0.5079999 -0.0435,0.24104 0.26805,0.36339 0.26805,0.59266 0,0.32783 -0.323,0.2877 -0.53619,0.254 -0.12065,0.28652 -0.0859,0.49014 0.16933,0.67734 v 0.0847 l -0.93133,0.254 0.45155,1.10067 -0.36689,0.46567 -0.42333,-0.127 0.508,1.3546601 -0.67733,0.16934 c 0.0359,0.34087 0.31546,0.38328 0.40922,0.67733 0.23052,0.72297 -0.0702,1.52451 0.381,2.20133 0.40423,0.60639 1.19089,1.39844 1.91911,1.58048 0.33045,0.0825 0.6891,-0.0389 1.016,0.0564 1.15003,0.33544 2.19304,0.34188 3.38667,0.2258 0.4163,-0.0405 0.85987,0.0686 1.27,-0.0282 0.59419,-0.1403 1.00829,-0.58124 1.524,-0.87495 0.26636,-0.15164 0.57446,-0.23071 0.84666,-0.36686 l 0.45153,2.032 0.56447,1.60867 -0.0847,1.60866 0.4798,1.43934 0.11286,0.84666 c -0.80518,0.29668 -1.01972,0.86115 -1.10066,1.693341 -0.0253,0.260009 0.0782,0.605449 -0.0423,0.846659 -0.18863,0.377279 -0.65252,0.66667 -0.94547,0.95953 -0.71636,0.716451 -1.37346,1.65168 -1.72153,2.59648 h -0.16933 c -0.21514,-1.021929 -1.18406,-1.945478 -1.74981,-2.79401 -0.93658,-1.404949 -1.81093,-2.812199 -2.85038,-4.14866 -0.32182,-0.41368 -0.87664,-1.27745 -1.41114,-1.41114 -0.30819,-0.077 -0.78275,0.25578 -1.016,0.42333 -0.59133,0.42477 -0.41896,0.9757 -0.57856,1.58047 -0.32598,1.235291 -0.65191,2.506051 -1.05833,3.725341 -0.3331,0.999231 -0.634021,2.065779 -1.016001,3.048 -0.2248,0.578019 -0.5884,1.23816 -0.64911,1.862669 -0.0506,0.519851 0.28332,0.796541 0.39511,1.27 0.15033,0.636691 0.19502,1.309701 0.381,1.947331 0.0939,0.3219 0.28418,0.62086 0.40922,0.931331 0.579791,1.4395 0.957211,2.993218 1.622781,4.402669 0.60793,1.287359 1.52318,2.637959 2.52589,3.640669 h 0.0847 l 0.67734,-0.677339 -0.67734,0.0565 -0.79019,-0.987801 -0.90314,-1.608669 -0.18347,-0.592662 -0.29631,-0.508 -0.0564,-0.423338 -0.35278,-0.677331 0.0141,-0.508 -0.28222,-0.592669 -0.14111,-0.677331 -0.56445,-1.524 -0.508,-2.116669 0.52212,-1.947331 0.55033,-2.032 0.31044,-1.693339 0.98778,-3.979331 c 0.8139,0 0.89848,0.801119 1.29819,1.35467 0.96766,1.33976 1.79257,2.806779 2.62467,4.233331 0.3705,0.63509 0.72661,1.24638 1.12895,1.862669 0.22419,0.34349 0.36965,0.8089 0.70552,1.07247 0.27559,0.216241 0.66404,0.360939 1.016,0.26806 0.55415,-0.146219 0.82838,-0.596821 1.35467,-0.0705 0.0721,0.0721 0.12708,0.16188 0.16933,0.254 0.43231,0.943102 0.33867,2.123691 0.33867,3.132672 0,1.18795 -0.11311,2.392169 0,3.556 0.0462,0.475311 -0.0462,0.964009 0,1.439331 0.10084,1.03691 0.30353,2.056378 0.83253,2.963328 0.51198,0.87766 1.17043,1.53721 2.04614,2.060202 0.27626,0.16501 0.60426,0.363299 0.93133,0.395139 0.41123,0.04 0.85725,-0.232841 1.18533,-0.45153 0.85429,-0.56955 1.47625,-1.189741 1.97553,-2.08847 0.42113,-0.758031 0.56659,-1.436539 0.64914,-2.286 0.12234,-1.258239 0.29235,-2.459569 0.16933,-3.725341 -0.0582,-0.598419 0.0847,-1.25103 0.0847,-1.862659 v -1.862669 c 0,-0.395653 -0.0381,-0.813901 0.127,-1.185331 0.0527,-0.118372 0.13005,-0.23699 0.22581,-0.32453 0.12877,-0.117861 0.31394,-0.280501 0.49386,-0.31047 0.54313,-0.0905 0.9116,0.556929 1.524,0.352798 0.53594,-0.178649 0.70078,-0.639149 0.95952,-1.07247 0.31166,-0.521888 0.68911,-0.984758 0.97367,-1.524 0.87774,-1.66302 1.95555,-3.20938 2.921,-4.826 0.19482,-0.326139 0.69359,-1.626869 1.24181,-1.312339 0.28185,0.16172 0.143,0.624171 0.18347,0.889 0.12133,0.794179 0.3534,1.61062 0.60672,2.37067 0.43375,1.30116 0.68216,2.64397 1.016,3.979341 0.18999,0.75996 0.57421,1.600031 0.64914,2.370659 0.0372,0.382532 -0.1259,0.74109 -0.22581,1.100672 -0.25442,0.916178 -0.66522,1.797129 -0.93133,2.709328 -0.0483,0.16578 -0.002,0.34426 -0.0564,0.508 -0.0617,0.185002 -0.22292,0.322241 -0.28228,0.508 -0.0566,0.177551 0.0312,0.33198 0.0141,0.508 -0.0222,0.228261 -0.18643,0.39565 -0.28219,0.592672 -0.0956,0.196678 -0.0655,0.391329 -0.127,0.592669 -0.0759,0.24824 -0.28245,0.433909 -0.36695,0.677331 -0.22682,0.653288 -0.54212,1.27889 -0.93133,1.862669 -0.21692,0.325451 -0.4522,1.046811 -0.87486,1.157129 -0.18474,0.0482 -0.42096,-0.087 -0.59267,-0.141129 l -0.0847,0.254 0.59266,0.508 c 0.52214,-0.0565 0.76488,-0.713909 1.0442,-1.100669 0.58741,-0.813221 1.21971,-1.626701 1.651,-2.54 0.21649,-0.45847 0.34595,-0.966812 0.53628,-1.439331 0.34755,-0.862931 0.65235,-1.745411 0.94538,-2.624669 0.1182,-0.354423 0.31352,-0.673272 0.45162,-1.016 0.26314,-0.653291 0.38438,-1.426303 0.45152,-2.116672 0.0428,-0.439669 0.44857,-0.731258 0.42334,-1.185331 -0.0478,-0.861819 -0.58183,-1.64406 -0.81848,-2.455328 -0.30607,-1.049531 -0.69511,-2.082721 -1.016,-3.132672 -0.26483,-0.86673 -0.54127,-1.741929 -0.762,-2.624669 -0.14232,-0.5693 -0.0657,-1.36864 -0.39505,-1.86267 -0.2634,-0.39505 -1.07501,-0.90525 -1.56633,-0.635 -0.36382,0.20007 -0.68944,0.7405 -0.94548,1.05834 -1.32876,1.64947 -2.4494,3.41427 -3.64066,5.16466 -0.32462,0.47702 -0.62129,0.95403 -0.93134,1.439339 -0.0888,0.138941 -0.20743,0.498091 -0.42333,0.45153 -0.21531,-0.0463 -0.28025,-0.372028 -0.36686,-0.536199 -0.26729,-0.506471 -0.51943,-1.09237 -0.90314,-1.524 -0.4622,-0.52002 -1.26712,-1.00728 -1.49581,-1.693331 -0.18372,-0.551349 0.13937,-1.1684 -0.22572,-1.693339 -0.18584,-0.26712 -0.64795,-0.30988 -0.77614,-0.59266 -0.2004,-0.44239 0.28838,-1.11955 0.39514,-1.524 0.20871,-0.79079 -0.019,-1.64922 0.0705,-2.45534 0.0384,-0.34611 0.26882,-0.69121 0.39514,-1.016 0.1811,-0.46583 0.32114,-1.03378 0.42333,-1.524 0.0444,-0.21319 -0.0527,-0.57564 0.127,-0.7338 0.20396,-0.17949 0.55457,0.0364 0.74786,0.14114 0.56143,0.30412 1.02777,0.86665 1.69334,0.93133 0.39141,0.038 0.79392,-0.038 1.18533,0 1.1706,0.11379 2.18618,0.11515 3.302,-0.2258 0.35111,-0.10728 0.7443,0.0327 1.10067,-0.0564 0.67758,-0.16942 1.45719,-0.9299 1.83447,-1.49581 0.45483,-0.68233 0.21387,-1.39175 0.39505,-2.11667 0.0833,-0.33299 0.38702,-0.44983 0.47981,-0.762 l -0.67733,-0.254 0.508,-1.3546601 c -0.16214,0.0128 -0.35611,0.12166 -0.508,0.11286 -0.75303,-0.0436 -0.062,-0.98603 0.0423,-1.21353 0.0603,-0.13149 0.0423,-0.28321 0.0423,-0.42333 -0.24037,0.0443 -0.76792,0.19854 -0.79019,-0.22581 -0.0106,-0.20066 0.19118,-0.46346 0.19753,-0.70553 -0.078,0.002 -0.1767,0.0156 -0.254,0.0141 -0.82347,-0.0158 0.0352,-0.61595 -0.1552,-0.93133 -0.15324,-0.2538303 -0.58073,-0.1025302 -0.7338,-0.3669503 -0.17289,-0.2986098 0.31699,-0.7960299 -0.21167,-0.91719 -0.0655,-0.014999 -0.18982,0 -0.254,0 -0.0142,-0.54204 -0.26204,-0.3875199 -0.59267,-0.69147 -0.12403,-0.11405 -0.15265,-0.2796598 -0.26814,-0.39506 -0.33299,-0.33299 -0.72263,-0.4233299 -0.83252,-0.94547 l 1.27,0.0141 0.67733,0.4233299 0.508,0.16934 0.35281,0.4515202 0.49386,0.2116698 0.26814,0.4656701 0.32452,0.1411399 0.69148,0.71966 0.39505,0.2822001 0.19761,0.4091893 0.55034,0.35281 0.29633,0.57852 0.45153,0.35281 0.0847,0.49386 0.43748,0.52214 0.0705,0.49386 0.52214,0.43747 -0.0565,0.84667 0.32453,0.508 -0.0705,0.8466701 0.16933,0.762 c 0.40251,-0.12649 0.418,-0.71671 0.42334,-1.10067 0.0146,-1.0501201 -0.0257,-2.1455401 -0.42334,-3.1326701 -0.73262,-1.81897 -1.93742,-3.3483092 -3.38666,-4.6566593 -0.65871,-0.5947 -1.2656,-1.17916 -2.032,-1.63686009 -0.63593,-0.37982 -1.53112,-0.9144 -2.286,-0.98781 -0.89891,-0.0874 -1.78342,0.33689 -2.00381,1.26999999 -0.22343,0.9463201 0.3589,1.76716 0.62095,2.6246701 0.58504,1.9147293 -0.003,3.9484293 0.73372,5.8419993 0.18228,0.4686301 0.41376,1.1495201 0.74794,1.5240001 0.24435,0.27389 0.94556,0.52899 0.70553,1.016 -0.27779,0.56345 -0.73652,0.14681 -1.143,0.0282 -0.4732,-0.138 -0.95758,-0.066 -1.43933,-0.11286 -0.45136,-0.0439 -0.89231,-0.12962 -1.35467,-0.0847 -0.79637,0.0775 -1.59419,0.20431 -2.37067,0.4092 -0.35433,0.0936 -0.74786,0.32969 -1.10066,0.0847 -0.70147,-0.48709 -0.27322,-0.83694 -0.33867,-1.50987 -0.0593,-0.61053 -0.3252,-1.1975201 -0.67733,-1.6933301 -0.17171,-0.24172 -0.84667,-0.54102 -0.84667,-0.84667 0,-0.12573 0.14774,-0.21827 0.254,-0.23986 0.36813,-0.075 0.72983,-0.11895 1.10067,-0.21166 0.94361,-0.23597 1.80551,-0.98121 1.91914,-2.00381 0.14003,-1.2609392 -1.26967,-2.1821993 -2.08848,-2.8645293 -0.25789,-0.21497 -0.84844,-0.5072301 -0.91719,-0.8608002 -0.033,-0.16959 0.10185,-0.3544199 0.15519,-0.508 0.16824,-0.48455 0.37923,-0.88899999 0.59267,-1.35466979 0.67767,-1.47853011 1.64236,-2.74300011 2.794,-3.89467011 0.48954,-0.48956 1.03657,-1.08122 1.778,-1.143 0.30929,-0.0258 0.63136,0.15642 0.93133,0.21167 -0.10727,-0.34135 -0.42096,-0.41859 -0.762,-0.42333 -0.65701,-0.009 -1.28617,0.23334 -1.778,0.67733 -1.10752,0.99982 -2.29269,2.2801599 -2.93514,3.64066991 -0.1905,0.40352 -0.41766,0.7849402 -0.60672,1.1853302 -0.2319,0.49106979 -0.30632,1.05113979 -0.8608,1.26999999 0.0374,-0.47439 0.13233,-1.52619999 -0.67734,-1.18533019 l 0.18348,0.56446999 -1.016,0.0987 0.15519,-0.66318999 c -0.75497,-0.31793 -0.71357,0.72558989 -0.84667,1.18532989 -0.68512,-0.74388 -0.98814,-1.82760989 -1.45347,-2.70932989 -0.57844,-1.09610041 -1.48598,-2.09282051 -2.35653,-2.96334051 -0.77893,-0.77893 -1.88976,-1.52472 -2.96333,-0.84666 m 5.41867,8.7348 c 0.91711,-0.1528998 1.09465,0.38735 0.93133,1.1712 -0.14326,0.68749 -0.75277,1.56582 -1.524,1.60866 -0.762,0.0423 -1.0508,-0.8139 -0.90314,-1.43933 0.15325,-0.64897 0.84277,-1.2317299 1.49581,-1.34053 m 4.48733,0 c 0.80569,-0.1702599 1.72618,0.43722 2.032,1.1712 0.22564,0.54153 0.0488,1.42528 -0.59267,1.59452 -0.93345,0.24638 -1.6344,-0.95139 -1.80619,-1.67919 -0.0945,-0.40005 -0.14664,-0.9780699 0.36686,-1.08653 m -3.72533,17.7799991 c 0.50072,-0.0279 0.60824,0.747861 0.0847,0.747861 -0.54059,0 -0.70171,-0.713571 -0.0847,-0.747861 m 3.64066,0.0141 c 0.65625,0 0.44484,0.893819 -0.0847,0.804329 -0.49598,-0.0838 -0.42503,-0.804329 0.0847,-0.804329 m -12.27666,7.76114 c 0.67327,0.673269 0.97273,1.531869 1.3688,2.370669 0.25866,0.547791 0.582,1.037079 0.80434,1.608662 0.40961,1.053258 0.74701,2.087538 1.55219,2.892808 0.23698,0.236979 0.10558,0.561171 0.29633,0.818391 0.29227,0.39429 1.12065,0.43747 1.56634,0.43747 -0.18534,0.320209 -0.75929,0.520869 -0.74786,0.93133 0.007,0.266021 0.16713,0.92219 0.40919,1.058339 0.15731,0.0885 0.4191,0.0447 0.59267,0.0423 0.19854,-0.003 0.44644,-0.004 0.57852,-0.18347 0.14487,-0.196602 -0.0696,-0.390742 -0.127,-0.57853 -0.0648,-0.212011 -0.039,-0.458301 -0.0847,-0.677331 -0.12531,-0.601652 -0.0887,-1.325631 -0.0282,-1.947341 0.0377,-0.387599 0.19685,-0.8796 0.0705,-1.27 -0.15485,-0.4787 -0.69833,-0.009 -0.93133,-0.423328 -0.2021,-0.359331 -0.12802,-0.870972 -0.33867,-1.270003 -0.4147,-0.785709 -0.99153,-1.46617 -1.48167,-2.201328 -0.77884,-1.1684 -1.51807,-2.379652 -2.286,-3.556 -0.40851,-0.625951 -0.85742,-1.289902 -1.21352,-1.947341 -0.17035,-0.31445 -0.27906,-0.68952 -0.59267,-0.90314 -0.51918,-0.35357 -1.46465,0.22996 -1.79214,0.64914 -0.2232,0.28575 -0.29064,1.11117 -0.11286,1.439341 0.11946,0.220549 0.33028,0.358899 0.43747,0.592659 0.59563,1.299641 0.64254,2.84717 0.93134,4.233341 0.34806,1.67064 0.67962,3.331879 1.07238,4.995331 0.3987,1.688589 1.07273,3.34069 1.24181,5.08 0.0408,0.419348 -0.0408,0.850648 0,1.27 0.0168,0.172468 0.0944,0.332229 0.0847,0.508 -0.024,0.430699 -0.21252,0.843359 -0.254,1.27 -0.0351,0.360259 -0.10423,0.832868 -0.0847,1.185328 0.01,0.173482 0.0969,0.3313 0.0847,0.508 -0.0157,0.225811 -0.16239,0.385151 -0.22581,0.592672 -0.0878,0.287438 0.0566,0.56896 0.0141,0.846669 -0.0332,0.217249 -0.21294,0.38354 -0.26814,0.592659 -0.067,0.253751 0.16036,0.43316 0.11295,0.677341 -0.041,0.210389 -0.20083,0.36821 -0.22581,0.592659 -0.0216,0.194572 0.0784,0.40708 0.0423,0.592672 -0.0386,0.198458 -0.22868,0.315208 -0.28219,0.508 -0.0611,0.219958 0.10211,0.367789 0.0987,0.56447 -0.003,0.15816 -0.16205,0.366019 -0.19753,0.536199 -0.0518,0.248751 -0.27872,1.145029 0.254,1.001861 0.46152,-0.12396 0.3683,-0.984851 0.43748,-1.34053 0.10354,-0.532551 0.41867,-1.067052 0.49386,-1.608672 0.032,-0.230288 -0.0805,-0.46033 -0.0565,-0.677328 0.0181,-0.163071 0.14699,-0.271532 0.19762,-0.423331 0.0987,-0.296251 -0.0311,-0.631449 0.0564,-0.931341 0.0748,-0.25662 0.19914,-0.48759 0.22581,-0.762 0.0247,-0.25408 -0.062,-0.514178 0,-0.762 0.24968,-0.99881 0.49217,-2.0143 0.59267,-3.048 0.0254,-0.260858 0.11083,-0.49276 0.0847,-0.762 -0.21285,-2.189729 -0.70722,-4.374888 -1.21352,-6.519328 -0.22725,-0.962322 -0.47862,-1.917282 -0.70562,-2.878672 -0.0905,-0.38362 -0.0501,-0.80001 -0.14105,-1.185331 -0.18347,-0.777158 -0.5378,-1.754719 -0.31047,-2.54 m 14.64733,5.249331 c -0.20176,1.09533 0.15325,2.28329 0,3.386672 -0.0491,0.35374 -0.4241,1.004149 -0.21167,1.34053 0.2043,0.323588 0.93913,0.320458 1.19948,0.0706 0.15714,-0.150881 0.21132,-0.44433 0.254,-0.649139 0.15367,-0.737621 -0.33909,-0.734401 -0.64914,-1.27 0.47345,0 1.24671,-0.061 1.58047,-0.45153 0.18449,-0.2159 0.0413,-0.5124 0.21167,-0.733801 0.17009,-0.221149 0.39962,-0.34036 0.55033,-0.592669 0.57734,-0.966811 0.87139,-2.024131 1.32639,-3.048 0.14571,-0.327832 0.39056,-0.603512 0.53628,-0.931331 0.24248,-0.545679 0.48107,-1.090599 0.77605,-1.608669 0.16612,-0.291761 0.27669,-0.57921 0.60681,-0.677331 0.164,0.89035 -0.21667,1.746499 -0.33867,2.624659 -0.23376,1.68343 -0.63102,3.34264 -1.04419,4.995341 -0.20024,0.800939 -0.47287,1.630929 -0.56448,2.455331 -0.10083,0.90737 -0.33502,1.800688 -0.42333,2.709328 -0.10566,1.086612 0.23376,2.175431 0.47981,3.217341 0.21547,0.91262 0.36686,1.952411 0.36686,2.878662 0,0.280249 0.21683,0.49412 0.254,0.762 0.0346,0.249179 -0.0346,0.512828 0,0.762 0.0297,0.21404 0.17365,0.38422 0.2258,0.592669 0.0795,0.318259 0.0746,0.538311 0.21167,0.846669 0.15435,0.3473 -0.0616,1.524 0.57853,1.524 0.37964,0 0.20057,-0.8675 0.15519,-1.100669 -0.0336,-0.173061 -0.18102,-0.33215 -0.18339,-0.508 -0.003,-0.183639 0.13725,-0.308779 0.0847,-0.508 -0.0559,-0.211669 -0.25256,-0.3683 -0.26814,-0.592669 -0.0159,-0.2286 0.0862,-0.441362 0.0141,-0.677331 -0.045,-0.14741 -0.15968,-0.267801 -0.18347,-0.423331 -0.0352,-0.230298 0.11988,-0.440438 0.0705,-0.677338 -0.045,-0.216152 -0.23283,-0.381172 -0.26805,-0.592662 -0.0318,-0.1911 0.0872,-0.39235 0.0705,-0.592669 -0.0263,-0.31505 -0.2562,-0.557781 -0.29634,-0.846669 -0.0278,-0.199731 0.13869,-0.382352 0.127,-0.592662 -0.0432,-0.77716 -0.33866,-1.588939 -0.33866,-2.370669 0,-0.84768 0.0754,-1.779101 0.16933,-2.624672 0.0251,-0.225549 0.1618,-0.383278 0.22581,-0.592659 0.16264,-0.532389 0.18135,-1.14681 0.31038,-1.693341 0.0885,-0.374478 0.26391,-0.729819 0.36695,-1.100659 0.5323,-1.91643 0.97519,-3.89069 1.35467,-5.842 0.21446,-1.103209 0.23418,-2.305899 0.56438,-3.386669 0.0982,-0.321482 0.23402,-0.73779 0.42334,-1.016 0.21183,-0.31115 0.44644,-0.530611 0.4798,-0.931341 0.0491,-0.589611 -0.28244,-1.033349 -0.762,-1.32647 -0.3241,-0.19803 -0.69579,-0.481161 -1.10066,-0.338659 -0.39997,0.14088 -0.59682,0.648028 -0.77614,0.987798 -0.22826,0.432562 -0.52917,0.865722 -0.80434,1.27 -0.89933,1.321562 -1.76191,2.698501 -2.59638,4.064 -0.3755,0.614431 -0.85243,1.16391 -1.22767,1.778 -0.26755,0.437732 -0.49564,0.853612 -0.62095,1.354672 -0.0507,0.202859 -0.0387,0.610108 -0.254,0.719669 -0.14351,0.073 -0.49174,-0.0423 -0.66319,-0.0423 m -6.604,7.873999 c -0.0373,-0.32622 -0.29464,-0.42672 -0.47981,-0.67733 -0.33477,-0.45339 -0.61679,-1.00474 -0.80433,-1.524 -0.065,-0.180091 -0.20819,-0.3672 -0.40919,-0.39514 -0.53002,-0.0736 -0.61909,0.60079 -0.87486,0.90314 -0.18712,0.221059 -0.57582,0.40073 -0.45162,0.762 0.0682,0.198199 0.30709,0.278379 0.47981,0.352808 0.43341,0.186521 0.83913,0.267711 1.27,0.423331 0.42376,0.15299 0.82186,0.155191 1.27,0.155191 m 4.74133,0 c 0.44814,0 0.84625,-0.0021 1.27,-0.155191 0.45365,-0.16383 1.39082,-0.19998 1.651,-0.69147 0.19804,-0.37415 -0.15214,-0.60512 -0.3528,-0.846669 -0.28321,-0.34095 -0.3711,-1.004911 -0.95953,-0.931331 -0.2463,0.0308 -0.31987,0.397761 -0.40919,0.592662 -0.18669,0.407249 -0.38498,0.81026 -0.635,1.185338 -0.2027,0.303951 -0.52528,0.473879 -0.56448,0.846662 m -7.02733,-0.0565 c -0.26052,0.0925 -0.22919,0.43349 -0.26814,0.649142 -0.0866,0.48006 -0.32055,1.122428 0.35281,1.34053 0.84836,0.27482 1.75929,-0.32453 2.62466,-0.32453 0.73957,0 1.35882,0.58166 2.11667,0.508 0.62619,-0.0609 1.14224,-0.508 1.778,-0.508 0.3672,0 1.00322,0.0951 1.35467,0.19753 0.43247,0.126148 0.89924,0.329689 1.35466,0.0988 0.53095,-0.26924 0.31733,-0.941319 0.254,-1.397 -0.0331,-0.238329 -0.0607,-0.501989 -0.33866,-0.57852 -0.34824,-0.0959 -0.71357,0.19126 -1.016,0.296331 -0.35933,0.124709 -0.89899,0.240959 -1.27,0.282189 -0.1916,0.0213 -0.40666,-0.0405 -0.59267,0.0282 -0.55016,0.2032 -0.96799,0.78291 -1.60867,0.81847 -0.72,0.04 -1.25857,-0.586571 -1.86266,-0.846672 -0.22293,-0.096 -0.37313,0.007 -0.59267,-0.0141 -0.33647,-0.0327 -0.85403,-0.16687 -1.18533,-0.268049 -0.3131,-0.0957 -0.74846,-0.407249 -1.10067,-0.282281 m 1.86267,2.116672 c -0.26001,0.0542 -0.50004,0.196678 -0.762,0.225798 -0.17645,0.0196 -0.34951,-0.0374 -0.49386,0.0988 -0.47414,0.447291 -0.034,1.467699 0.49386,1.651 0.69435,0.24104 1.26195,-0.178819 1.86266,-0.437471 0.40319,-0.173569 1.00203,-0.25383 1.43934,-0.296338 0.58242,-0.0566 1.30971,0.105579 1.86266,0.282199 0.70604,0.22555 1.25612,0.750739 2.032,0.395139 0.44975,-0.206168 1.01583,-1.416139 0.33867,-1.665139 -0.15867,-0.0583 -0.34341,-0.01749 -0.508,-0.0564 -0.64516,-0.152318 -1.27059,-0.338579 -1.94733,-0.197609 -0.52477,0.109389 -1.06418,0.54034 -1.60867,0.4798 -0.47498,-0.0527 -0.90712,-0.343069 -1.35467,-0.4798 -0.35848,-0.10948 -0.99043,-0.0759 -1.35466,0 m 0.33866,2.427139 c 0.54932,0.37583 1.07493,0.756661 1.50986,1.27 0.25341,0.29904 0.42385,0.785961 0.86081,0.846661 0.51198,0.0711 0.67293,-0.43154 0.91719,-0.762 0.42368,-0.57319 1.04775,-0.96122 1.62281,-1.354661 -0.12023,-0.404368 -0.49479,-0.385318 -0.84667,-0.522139 -0.94217,-0.366361 -1.98899,-0.30176 -2.96333,-0.0987 -0.4351,0.0906 -0.99517,0.13284 -1.10067,0.620861 m 0.33867,0.762 -0.0847,0.0847 0.42334,1.439339 -0.0847,0.762 -0.42333,1.94733 h 0.16933 c 0.27085,-0.54161 0.54094,-1.114721 0.73381,-1.69333 0.0543,-0.163161 0.0635,-0.48523 0.28219,-0.5362 0.24536,-0.0573 0.30023,0.37719 0.32453,0.5362 0.056,0.366519 0.13843,0.74041 0.18347,1.100661 0.0306,0.245369 0.0127,0.557699 0.18347,0.762 0.32106,0.384048 0.74397,0.0884 0.90306,-0.254 0.15502,-0.333502 0.1485,-0.741 0.18347,-1.100661 0.0384,-0.39455 0.18195,-0.794179 0.254,-1.185339 h 0.16933 l 0.74786,1.862669 0.43748,0.508 -0.508,-2.794 0.33866,-1.43933 c -0.57192,0.12039 -1.00609,0.63931 -1.32647,1.100661 -0.1756,0.252899 -0.43188,0.70553 -0.79019,0.70553 -0.40082,0 -0.71137,-0.499621 -0.889,-0.790191 -0.26332,-0.430869 -0.72704,-0.91059 -1.22767,-1.016 z"
       style="fill:#000000;stroke:none;stroke-width:0.0846667" />
  </g>
</svg>
