<?xml version="1.0" encoding="UTF-8" standalone="no"?>
<svg
   xmlns:dc="http://purl.org/dc/elements/1.1/"
   xmlns:cc="http://creativecommons.org/ns#"
   xmlns:rdf="http://www.w3.org/1999/02/22-rdf-syntax-ns#"
   xmlns:svg="http://www.w3.org/2000/svg"
   xmlns="http://www.w3.org/2000/svg"
   xmlns:sodipodi="http://sodipodi.sourceforge.net/DTD/sodipodi-0.dtd"
   xmlns:inkscape="http://www.inkscape.org/namespaces/inkscape"
   sodipodi:docname="queenwasp.svg"
   inkscape:version="1.0 (4035a4fb49, 2020-05-01)"
   id="svg75"
   version="1.1"
   viewBox="0 0 97.766693 67.976334"
   height="67.976334mm"
   width="97.766693mm">
  <defs
     id="defs69" />
  <sodipodi:namedview
     inkscape:window-maximized="1"
     inkscape:window-y="0"
     inkscape:window-x="0"
     inkscape:window-height="1144"
     inkscape:window-width="1920"
     fit-margin-bottom="0"
     fit-margin-right="0"
     fit-margin-left="0"
     fit-margin-top="0"
     showgrid="false"
     inkscape:document-rotation="0"
     inkscape:current-layer="layer1"
     inkscape:document-units="mm"
     inkscape:cy="71.316355"
     inkscape:cx="130.47024"
     inkscape:zoom="0.35"
     inkscape:pageshadow="2"
     inkscape:pageopacity="0.0"
     borderopacity="1.0"
     bordercolor="#666666"
     pagecolor="#ffffff"
     id="base" />
  <metadata
     id="metadata72">
    <rdf:RDF>
      <cc:Work
         rdf:about="">
        <dc:format>image/svg+xml</dc:format>
        <dc:type
           rdf:resource="http://purl.org/dc/dcmitype/StillImage" />
        <dc:title></dc:title>
      </cc:Work>
    </rdf:RDF>
  </metadata>
  <g
     transform="translate(-71.313081,-129.29755)"
     id="layer1"
     inkscape:groupmode="layer"
     inkscape:label="Layer 1">
    <path
       id="path3380"
       d="m 103.25472,130.57018 c 0.60638,0.25527 1.36601,-0.13284 1.94733,-0.31047 0.38701,-0.11819 0.80366,0.0194 1.18534,0.0565 0.33756,0.0328 0.60714,-0.13783 0.93133,-0.16933 0.41097,-0.04 0.78461,0.13039 1.18533,0.16933 0.36771,0.0357 0.74126,-0.16544 1.10067,-0.0705 0.43011,0.11345 0.81923,0.35924 1.27,0.46566 0.33257,0.0785 0.68453,-0.0264 1.016,0.0564 0.45195,0.11303 0.93311,0.50893 1.35467,0.71967 0.32232,0.1612 0.71814,0.25882 1.016,0.46566 0.36508,0.25358 0.70358,0.59301 1.04419,0.87495 0.26289,0.21751 0.64448,0.3291 0.889,0.56439 0.14901,0.14334 0.16781,0.38828 0.26814,0.56447 0.21429,0.37634 0.60638,0.6836 0.73381,1.10067 0.0587,0.19219 0.008,0.39768 0.0564,0.59266 0.0901,0.36026 0.56448,0.66548 0.56448,1.016 0,0.33232 -0.35171,0.38126 -0.59267,0.45153 -0.49903,0.14554 -1.08086,0.40657 -1.524,0.67733 -0.42088,0.25722 -0.89831,0.48811 -1.27,0.81848 -1.02895,0.91456 -1.778,2.43458 -1.778,3.80999 0,0.53721 0.11193,1.20641 0.508,1.60866 0.50868,0.51664 1.01702,0.31005 1.60867,0.11286 0.50723,-0.16908 0.94327,-0.50503 1.43933,-0.67733 0.24003,-0.0833 0.52197,-0.0577 0.762,-0.14105 0.42884,-0.14893 0.83964,-0.39277 1.27,-0.53628 0.30912,-0.10304 0.61925,-0.0643 0.93133,-0.21167 0.3446,-0.16273 0.58717,-0.66658 0.93134,-0.74786 0.37778,-0.0892 0.83362,0.667 1.18533,0.81847 0.25307,0.10888 0.51308,0.0581 0.762,0.14106 0.45838,0.15282 0.89442,0.38286 1.35467,0.53628 0.41207,0.13733 0.77774,0.18008 1.18533,0.36686 0.82025,0.37592 2.08382,1.19219 2.76581,0.16934 0.49623,-0.74431 0.40199,-1.75718 0.14105,-2.54001 -0.40064,-1.20193 -0.9525,-2.48682 -2.14486,-3.13266 -0.64076,-0.34705 -1.28727,-0.69934 -1.94733,-1.00186 -0.24562,-0.1126 -0.62755,-0.067 -0.81848,-0.28228 -0.3418,-0.38548 0.25815,-0.69968 0.40928,-1.00186 0.12209,-0.24418 0.0152,-0.51113 0.0987,-0.762 0.14368,-0.43103 0.5616,-0.79341 0.79028,-1.18533 0.12175,-0.20879 0.17416,-0.49064 0.36686,-0.64914 0.24156,-0.19871 0.57709,-0.28414 0.81848,-0.47972 0.32571,-0.26399 0.61129,-0.6444 0.95952,-0.87495 0.17755,-0.11751 0.40149,-0.12403 0.59267,-0.21166 0.39785,-0.18229 0.78469,-0.39489 1.18533,-0.57853 0.23978,-0.1099 0.42088,-0.31674 0.67734,-0.39514 0.39497,-0.12065 0.85733,-0.0379 1.27,-0.14105 0.34857,-0.0871 0.68131,-0.344 1.016,-0.39514 0.34654,-0.0529 0.67089,0.11819 1.016,0.0847 0.42401,-0.0412 0.83701,-0.21141 1.27,-0.16933 0.23486,0.0229 0.44246,0.14647 0.67733,0.16933 0.42884,0.0417 0.83608,-0.13284 1.27,-0.0847 0.36694,0.0408 0.72559,0.25163 1.10067,0.32452 0.37515,0.073 0.82473,0.36305 1.016,-0.0705 -0.81949,-0.51757 -1.61951,-0.68707 -2.54,-0.9172 -0.26967,-0.0675 -0.5715,-0.26433 -0.84667,-0.26814 -0.30082,-0.004 -0.55025,0.26281 -0.84667,0.22581 -0.291,-0.0364 -0.54153,-0.24274 -0.84666,-0.22581 -0.43248,0.0241 -0.82898,0.29583 -1.27,0.33867 -0.52807,0.0513 -1.18678,-0.14063 -1.69334,0.0282 -0.40343,0.13454 -0.77614,0.41123 -1.18533,0.53628 -0.26899,0.0822 -0.57523,0.0544 -0.84667,0.14106 -0.62154,0.19854 -1.00863,0.59453 -1.524,0.95961 -0.48158,0.34112 -0.94928,0.59521 -1.35466,1.04419 -0.2303,0.2551 -0.2535,0.5881 -0.45153,0.83253 -0.14868,0.18339 -0.39429,0.23334 -0.53628,0.43747 -0.2098,0.30167 -0.29938,0.69241 -0.46567,1.016 -0.20938,0.4075 -0.54169,0.80722 -0.80433,1.18534 -0.25002,0.36008 -0.66133,1.12039 -1.12886,1.18533 -0.23377,0.0325 -0.44645,-0.0974 -0.67733,-0.0847 -0.2281,0.0127 -0.45001,0.15604 -0.67734,0.0423 -0.5577,-0.27881 -0.99432,-1.14207 -1.29819,-1.651 -0.12666,-0.21209 -0.3142,-0.38143 -0.43747,-0.59267 -0.22344,-0.38303 -0.32961,-0.82499 -0.60681,-1.18533 -0.14808,-0.19262 -0.36669,-0.30734 -0.508,-0.508 -0.12844,-0.18246 -0.1745,-0.41597 -0.31039,-0.59267 -0.43662,-0.56761 -1.03454,-0.78638 -1.56633,-1.21353 -0.4434,-0.35619 -0.80374,-0.70231 -1.36881,-0.87494 -0.29489,-0.0901 -0.63906,-0.0437 -0.93133,-0.14106 -0.45475,-0.15164 -0.86174,-0.51655 -1.35467,-0.56447 -0.47532,-0.0462 -0.96401,0.0462 -1.43933,0 -0.44442,-0.0432 -0.83414,-0.30234 -1.27,-0.33867 -0.36085,-0.03 -0.64728,0.20515 -1.016,0.16934 -0.2308,-0.0224 -0.44433,-0.17137 -0.67733,-0.1552 -0.23064,0.016 -0.45441,0.15587 -0.67734,0.21167 -0.30717,0.0768 -0.62755,0.0693 -0.93133,0.14105 -0.4627,0.10931 -0.85361,0.34214 -1.27,0.55034 -0.23072,0.1154 -0.3672,0.13521 -0.508,0.3528 m -2.45533,3.89467 -0.16934,0.762 1.10067,0.33867 c -0.0391,-0.4959 -0.44069,-0.99738 -0.93133,-1.10067 m 37.846,1.10067 c 0.31191,0.082 1.0077,0.004 1.08652,-0.42334 0.036,-0.19465 -0.14943,-0.45847 -0.15519,-0.67733 -0.50453,0.10626 -0.89112,0.5908 -0.93133,1.10067 m -36.83,0.67733 0.93133,0.254 c 0,-0.20667 0.043,-0.49742 -0.11286,-0.66319 -0.34248,-0.36432 -0.73042,0.10498 -0.81847,0.40919 m 35.814,0.254 c 0.23977,-0.006 1.03928,-0.10533 0.889,-0.508 -0.0994,-0.26653 -0.58285,-0.36085 -0.77614,-0.15519 -0.15588,0.16577 -0.11286,0.45652 -0.11286,0.66319 m -34.45934,-0.16933 c -0.0817,0.11938 -0.22242,0.27254 -0.23986,0.42333 -0.0567,0.48929 0.61773,0.27678 0.83253,0.16933 l -0.59267,-0.59266 m 33.69734,0.127 c -0.5715,0.32148 0.0479,0.83769 0.508,0.508 0.41799,-0.29955 -0.1756,-0.69495 -0.508,-0.508 m -32.766,0.46566 -0.59267,0.508 0.84667,1.016 1.69333,1.60866 1.10067,0.93133 c 0.56692,-0.0613 0.37329,-0.8741 0.0847,-1.18533 -0.61849,-0.66674 -1.38531,-1.21597 -2.032,-1.86266 -0.35289,-0.35289 -0.63136,-0.83075 -1.10066,-1.016 m 31.91933,0 c -0.14123,0.35772 -0.48895,0.65448 -0.762,0.93134 -0.51444,0.52171 -1.06562,1.03369 -1.60867,1.52399 -0.36559,0.33003 -0.79409,0.55964 -0.84666,1.10066 -0.0929,0.95513 0.86935,0.10279 1.18533,-0.16933 0.70095,-0.60359 1.37558,-1.20624 2.032,-1.86266 0.31928,-0.31927 0.70764,-0.62958 0.93133,-1.016 -0.33943,-0.14291 -0.62933,-0.0523 -0.67733,-0.508 h -0.254 m -17.78,1.45348 c 1.30641,-0.19965 1.68529,1.12199 1.07247,2.10251 -0.54906,0.87842 -1.4511,1.26179 -2.34247,1.70748 -0.4605,0.2302 -0.99881,0.52747 -1.524,0.57852 -0.18034,0.0175 -0.41334,0.0249 -0.59267,0 -1.2258,-0.17026 -0.45931,-1.86148 -0.11286,-2.45533 0.0798,-0.13682 0.13166,-0.29007 0.21167,-0.42333 0.16442,-0.27407 0.48556,-0.44967 0.74786,-0.62085 0.83972,-0.54814 1.57488,-0.7416 2.54,-0.889 m 3.21733,0 c 0.34858,-0.0727 0.67607,0.0375 1.016,0.0705 1.27432,0.12387 2.45085,0.74702 3.13267,1.86266 0.37109,0.60723 1.08949,2.10828 0,2.44119 -0.47456,0.14504 -0.93125,-0.0646 -1.35467,-0.21166 -1.00558,-0.34917 -2.39683,-0.88477 -3.0198,-1.8062 -0.43663,-0.64592 -0.99619,-2.10192 0.2258,-2.35651 m -13.462,1.17118 -0.127,1.69333 -0.26814,0.2822 -0.87486,-0.2822 0.39514,0.762 0.59267,1.10067 0.81839,2.032 0.762,1.69333 0.55033,1.016 0.19761,0.381 0.4092,0.0423 c 0,0.64118 -0.0588,1.06764 0.14114,1.69333 0.0528,0.16536 0.0858,0.36212 -0.0565,0.49386 -0.25036,0.23182 -0.58928,-0.0201 -0.84666,-0.0987 -0.28025,-0.0857 -0.56507,-0.0182 -0.84667,-0.0847 -0.26518,-0.0626 -0.50478,-0.20726 -0.762,-0.28228 -0.65236,-0.19023 -1.37058,-0.2445 -2.032,-0.43738 -0.18677,-0.0545 -0.3291,-0.17281 -0.508,-0.23995 -0.31996,-0.11996 -0.68648,-0.1342 -1.016,-0.22571 -1.07882,-0.29973 -2.14579,-0.62113 -3.21733,-0.88901 -1.669211,-0.41732 -3.270001,-1.0933 -4.910671,-1.59461 -0.26899,-0.0822 -0.57523,-0.0544 -0.84667,-0.14106 -1.69689,-0.54212 -3.45262,-1.02912 -5.16466,-1.55228 -0.29464,-0.09 -0.63145,-0.0453 -0.93134,-0.14105 -1.23554,-0.39472 -2.49021,-0.81907 -3.72533,-1.21361 -1.13436,-0.36238 -2.32249,-0.5312 -3.47133,-0.81839 -1.18313,-0.29583 -2.418761,-0.69969 -3.640671,-0.81847 -0.43696,-0.0425 -0.84514,0.061 -1.27,0.0847 -0.28448,0.0158 -0.55262,-0.11328 -0.846669,-0.0847 -0.395901,0.0385 -0.789431,0.13081 -1.185331,0.16933 -0.587589,0.0572 -1.1202,-0.001 -1.69333,0.19753 -0.60964,0.21166 -1.4748,0.69088 -1.83445,1.2418 -0.11727,0.17967 -0.11653,0.39819 -0.19755,0.59267 -0.20899,0.50157 -0.3593,0.95851 -0.22578,1.524 0.0626,0.26509 0.21964,0.49691 0.28223,0.762 0.21726,0.92024 0.6569,1.76826 1.46755,2.34247 0.66502,0.471 1.17217,1.08993 1.778,1.63686 0.70104,0.6329 1.51248,1.03658 2.286,1.5522 0.506301,0.33757 0.92981,0.79638 1.43933,1.12894 1.13445,0.7405 2.39547,1.46397 3.725331,1.778 0.46288,0.10922 0.96901,-0.0175 1.43934,0.0282 1.07535,0.10456 2.16018,0.001 3.21733,0.0847 -0.0995,0.34375 -0.40818,0.53222 -0.57853,0.84667 -0.2766,0.51054 -0.33164,1.46871 0.0423,1.94733 0.26187,0.3352 0.7487,0.46779 1.12886,0.62086 0.65278,0.26298 1.25044,0.24274 1.94733,0.31048 0.29134,0.0284 0.55745,0.19363 0.84667,0.2258 0.27525,0.0306 0.55998,-0.0843 0.84666,-0.0565 2.48954,0.24206 5.12725,0.13851 7.62,0 0.389049,-0.0216 0.780709,0.12404 1.185341,0.0847 0.37609,-0.0366 0.72898,-0.21785 1.10066,-0.254 0.67446,-0.0656 1.35865,-0.0192 2.032,-0.0847 0.69097,-0.0671 1.38329,-0.36627 2.032,-0.56447 0.2949,-0.0901 0.63907,-0.0437 0.93134,-0.14106 0.31123,-0.1038 0.61569,-0.28118 0.93133,-0.39514 0.59334,-0.21429 1.21996,-0.31081 1.778,-0.62086 1.33985,-0.74439 2.66395,-2.07763 4.318,-1.22766 0.40504,0.20811 0.67412,0.60333 0.94547,0.94538 0.13784,0.17391 0.18906,0.40217 -0.0988,0.46567 -0.13454,0.0297 -0.28923,-0.0575 -0.42334,-0.0705 -0.5676,-0.0552 -1.04893,-0.23131 -1.60866,-0.32452 -0.21607,-0.0361 -0.56617,-0.15308 -0.74786,0.014 -0.18331,0.16858 -0.0496,0.44112 -0.11295,0.64915 -0.0579,0.1905 -0.28668,0.28456 -0.22572,0.508 0.14207,0.5212 1.33858,0.46668 1.76386,0.508 0.36347,0.0353 0.73719,-0.0353 1.10067,0 0.23486,0.0229 0.44246,0.14646 0.67733,0.16932 0.42917,0.0417 0.84844,-0.0218 1.27,0.11287 0.38168,0.12192 0.66006,0.45703 1.016,0.635 0.51308,0.25654 1.07781,0.41123 1.60867,0.60681 -0.36035,0.2181 -0.77623,0.19989 -1.18534,0.26814 -0.42375,0.0706 -0.95487,0.24257 -1.35466,0.40918 -0.333,0.13878 -0.63602,0.3419 -1.016,0.22582 -0.50148,-0.15325 -1.04564,-0.54365 -1.524,-0.77614 -0.15689,-0.0763 -0.39243,-0.29219 -0.57853,-0.16933 -0.18737,0.12369 -0.0706,0.43163 -0.0706,0.6068 0,0.27736 -0.0786,0.47498 0.14114,0.70553 0.22098,0.2319 0.83159,0.40445 0.635,0.84667 -0.206,0.46346 -0.66811,0.84505 -0.94548,1.27 -0.41791,0.64025 -0.85894,1.39166 -1.10066,2.11665 -0.0732,0.2198 -0.0539,0.45323 -0.14106,0.67735 -0.18576,0.4776 -0.2258,0.84234 -0.2258,1.35465 0,0.18678 -0.0257,0.42808 0.11286,0.57853 0.15036,0.16324 0.45457,0.142 0.64914,0.22582 0.80585,0.34695 1.63355,0.38929 2.45533,0.66318 0.68749,0.22919 1.40818,0.4733 2.11667,0.62096 0.35585,0.0741 0.75243,0.0395 1.10066,0.14104 0.33477,0.0977 0.66108,0.19127 1.016,0.22582 0.27957,0.0272 0.5671,-0.0272 0.84667,0 0.41368,0.0402 0.75142,0.21149 1.18533,0.16933 0.23487,-0.0229 0.44247,-0.14647 0.67734,-0.16933 0.30751,-0.0299 0.62382,0.0299 0.93133,0 0.66616,-0.0648 1.37592,-0.23022 2.032,-0.36686 0.41283,-0.086 0.7681,-0.28575 1.18533,-0.36696 0.43731,-0.085 0.83719,-0.24849 1.27,-0.33866 0.70782,-0.1474 1.36686,-0.21285 2.032,-0.53619 0.31987,-0.15545 0.67539,-0.1016 0.81848,-0.508 0.18685,-0.53078 -0.0722,-1.10727 -0.19762,-1.60868 -0.27398,-1.09617 -0.7498,-1.99778 -1.32638,-2.96332 -0.1894,-0.317 -0.43578,-0.64407 -0.66328,-0.93133 -0.0967,-0.12218 -0.29634,-0.25122 -0.29634,-0.42335 0,-0.31174 0.46254,-0.43763 0.64914,-0.60679 0.35552,-0.32217 0.17272,-0.5368 0.0988,-0.91721 -0.0229,-0.11725 0.0226,-0.29403 -0.0565,-0.39513 -0.17035,-0.2176 -0.39057,0.0123 -0.55034,0.0988 -0.41563,0.22512 -0.90847,0.59741 -1.35466,0.7338 -0.50182,0.15334 -0.73957,-0.0727 -1.18534,-0.23994 -0.77309,-0.28991 -1.58589,-0.30904 -2.37066,-0.5362 v -0.16934 c 0.51477,-0.14901 1.04097,-0.28727 1.524,-0.52214 0.35737,-0.17373 0.63288,-0.5179 1.016,-0.635 0.39395,-0.12031 0.86351,-0.0676 1.27,-0.11286 0.21099,-0.0234 0.38167,-0.14588 0.59266,-0.16933 0.3904,-0.0434 0.79426,0.038 1.18534,0 0.51308,-0.0499 1.59435,-0.008 1.778,-0.59267 l 0.93133,0.67734 0.94547,0.81847 3.85233,3.683 1.016,1.34053 0.36687,0.67733 v -0.59267 l 2.11666,2.11667 2.70934,2.45533 0.70552,0.73381 0.81848,0.35272 1.35466,1.11481 0.59267,0.55033 0.33867,-0.29633 h 0.0847 c 0.0136,0.51536 0.4909,0.77944 0.84667,1.10066 0.1988,0.17941 0.36508,0.41902 0.59267,0.56448 0.19481,0.12446 0.40165,0.035 0.59266,0.14105 0.41207,0.22894 0.53399,0.69164 1.016,0.81847 l 0.762,-0.59266 c -0.34832,-0.55415 -1.06587,-0.4313 -1.524,-0.86081 -0.16298,-0.15282 -0.18864,-0.40301 -0.3528,-0.53619 -0.3678,-0.29845 -1.02049,-0.29287 -1.4252,-0.57853 -0.27034,-0.19092 -0.23317,-0.50089 -0.43747,-0.73381 -0.68241,-0.77817 -1.70087,-1.18533 -2.69519,-1.18533 0.0603,-0.19169 0.37075,-0.38439 0.29633,-0.59267 -0.1259,-0.35246 -0.77115,-0.58284 -1.05833,-0.79019 -0.76421,-0.55194 -1.48379,-1.2181 -2.11667,-1.91914 -0.24156,-0.26755 -0.43019,-0.58437 -0.67733,-0.84667 -0.25316,-0.26864 -0.59115,-0.46651 -0.81848,-0.762 -0.10346,-0.13445 -0.14258,-0.28388 -0.28219,-0.39514 -0.24706,-0.19685 -0.62518,-0.30971 -0.83253,-0.55033 -0.14503,-0.16815 -0.11294,-0.39785 -0.26814,-0.57853 -0.37888,-0.44103 -0.92947,-0.71137 -1.35466,-1.10066 -0.30006,-0.27475 -0.48972,-0.6339 -0.762,-0.93134 -0.62239,-0.67979 -1.36178,-1.2313 -2.032,-1.86266 -0.66608,-0.62747 -1.14241,-1.52333 -1.86267,-2.08848 -0.17966,-0.14088 -0.46152,-0.34831 -0.67733,-0.42333 -0.75887,-0.26348 -0.94878,0.44501 -0.67734,0.98781 -0.18542,-0.0537 -0.3622,-0.11634 -0.40919,-0.33867 -0.0516,-0.24409 0.21327,-0.62222 -0.18347,-0.73381 -0.20227,-0.0569 -0.55931,0.0707 -0.762,0.11295 -0.49293,0.1027 -0.93481,0.2612 -1.43934,0.28219 -0.17627,0.007 -0.64355,0.14859 -0.64914,-0.16933 -0.002,-0.14004 0.22649,-0.30277 0.29634,-0.42333 0.64837,-1.11845 2.03928,-1.17992 3.1468,-0.73381 0.71146,0.2866 1.25806,0.88307 1.94734,1.22767 0.47032,0.2352 0.95038,0.30268 1.43933,0.46566 0.43349,0.14453 0.83871,0.39845 1.27,0.53628 0.32851,0.1049 0.69503,0.043 1.016,0.14106 0.54144,0.16544 1.06714,0.4075 1.60867,0.55033 0.71255,0.18805 1.55304,0.0275 2.286,0.0988 0.39844,0.0388 0.78189,0.21481 1.18533,0.254 0.42232,0.0411 0.83684,-0.12674 1.27,-0.0847 1.86656,0.18144 3.78926,0.0847 5.67267,0.0847 0.62086,0 1.25594,-0.0847 1.86266,-0.0847 0.25764,0 0.49335,0.11083 0.762,0.0847 0.32284,-0.0314 0.6085,-0.22258 0.93134,-0.254 0.86698,-0.0843 1.65946,-0.0768 2.45533,-0.508 0.27178,-0.14741 0.55626,-0.3191 0.71967,-0.59267 0.42841,-0.71703 0.0381,-2.07145 -0.71967,-2.37067 v -0.16932 c 0.56219,-0.17755 0.95081,-0.0847 1.524,-0.0847 0.57742,0 1.12522,-0.0295 1.69333,-0.0847 0.47159,-0.0459 0.97113,0.0715 1.43933,0 0.23368,-0.0357 0.3683,-0.22615 0.59267,-0.2822 1.06341,-0.26577 1.91939,-0.79375 2.87867,-1.32647 0.65108,-0.36161 1.15908,-0.92219 1.778,-1.32647 0.773,-0.50436 1.59173,-0.92516 2.286,-1.5522 0.39454,-0.35594 0.70612,-0.81144 1.10066,-1.15714 0.64008,-0.56142 1.28186,-0.97307 1.75006,-1.72152 0.81026,-1.29701 1.15401,-3.0182 0.0136,-4.23334 -0.36322,-0.38769 -0.94996,-0.69282 -1.42494,-0.91719 -0.72813,-0.34383 -1.59427,-0.24494 -2.37067,-0.35281 -0.9381,-0.13021 -2.01168,-0.17712 -2.96333,-0.0847 -0.64855,0.0631 -1.31572,0.32198 -1.94733,0.4798 -1.25222,0.31302 -2.56625,0.42105 -3.81,0.81839 -0.78147,0.2496 -1.56464,0.47583 -2.37067,0.67733 -0.6096,0.15249 -1.17348,0.46973 -1.778,0.62095 -1.73533,0.43383 -3.42519,0.97621 -5.16466,1.41105 -0.26416,0.066 -0.497,0.21971 -0.762,0.28228 -0.98781,0.23326 -1.9978,0.42528 -2.96334,0.73372 -1.16162,0.3711 -2.30403,0.81247 -3.47133,1.18534 -0.66497,0.21243 -1.37143,0.30615 -2.032,0.508 -1.62247,0.49581 -3.24942,0.96249 -4.91067,1.35466 -0.2921,0.069 -0.55118,0.22073 -0.84666,0.28228 -0.27644,0.0576 -0.57667,-0.0261 -0.84667,0.0564 -0.2739,0.0837 -0.53916,0.3396 -0.84667,0.18347 -0.3716,-0.18863 0.10279,-1.0524 0.14114,-1.397 0.0271,-0.24443 -0.1369,-0.44458 0.0423,-0.66319 0.11091,-0.13538 0.2788,-0.20286 0.381,-0.35281 0.0895,-0.13148 0.0862,-0.28541 0.15519,-0.42333 0.14749,-0.29498 0.38964,-0.5389 0.52214,-0.84667 0.53594,-1.24485 0.95783,-2.59308 1.56633,-3.81 0.30895,-0.61789 0.9172,-1.15036 0.9172,-1.86266 l -0.98781,0.23986 -0.0282,-0.57853 -0.0847,-0.762 -0.254,-0.46567 -0.254,0.46567 -0.18347,1.524 -1.34053,3.556 -0.889,1.86267 -0.29633,0.508 0.508,0.84666 c -1.21311,-0.51079 -1.01507,1.3854 -1.69334,1.83448 -0.47311,0.31318 -1.24638,0.0718 -1.4958,0.79019 -0.28753,0.82812 0.20006,1.86995 -0.0564,2.70933 -0.27449,0.89823 -0.77758,1.92304 -1.42528,2.62467 -0.67962,0.73626 -1.80264,1.37058 -2.69519,1.79214 -0.7615,0.35958 -1.67683,0.66243 -2.54,0.57853 -1.30412,-0.12675 -2.33172,-0.80713 -3.38667,-1.49581 -0.46423,-0.30302 -1.07823,-0.66539 -1.41114,-1.12886 -0.47007,-0.65439 -0.83532,-1.35263 -1.10067,-2.11667 -0.22487,-0.64778 -0.11286,-1.43865 -0.11286,-2.11666 0,-0.2971 0.0628,-0.66277 -0.0847,-0.93134 -0.36153,-0.6582 -1.13428,-0.40013 -1.60867,-0.84666 -0.46601,-0.43858 -0.27068,-1.2728 -0.84667,-1.66514 -0.2065,-0.14063 -0.51977,-0.1784 -0.762,-0.19753 l 0.57853,-0.762 -0.57853,-1.016 -1.58047,-3.556 -0.53619,-1.778 -0.254,-1.524 h -0.16934 m 11.85334,3.97933 c -0.23868,-0.0754 -0.51054,-0.22242 -0.762,-0.23986 -0.22886,-0.0159 -0.45145,0.12379 -0.67734,0.1552 -1.09914,0.15265 -2.27279,0.68859 -3.0198,1.53814 -0.32775,0.3727 -0.25197,0.87553 -0.5362,1.22766 -0.6002,0.74371 -1.49944,1.26475 -1.83447,2.22953 -0.19812,0.57065 -0.44712,1.13614 0.0423,1.55219 0.16206,0.13776 0.28618,0.3032 0.52214,0.18348 0.22623,-0.11473 0.2739,-0.34121 0.36686,-0.55034 0.1828,-0.41122 0.45686,-0.77817 0.64914,-1.18533 0.44958,-0.95216 1.22631,-1.92794 2.032,-2.61053 0.35814,-0.30344 0.70113,-0.66751 1.10067,-0.91728 0.42122,-0.26322 0.91846,-0.43501 1.35467,-0.67733 0.36381,-0.2021 0.71162,-0.22699 0.762,-0.70553 m 0.67733,0 c 0.0504,0.47854 0.39819,0.50343 0.762,0.70553 0.79561,0.44205 1.61053,0.77479 2.286,1.41114 0.86902,0.81864 1.5969,1.75683 2.17314,2.794 0.20278,0.365 0.4296,0.72551 0.60672,1.10067 0.0821,0.1739 0.10736,0.43992 0.28228,0.55033 0.3357,0.21201 0.91694,-0.10152 0.98772,-0.46567 0.0459,-0.23588 -0.18423,-0.85919 -0.26805,-1.10066 -0.22725,-0.65431 -0.74372,-1.30065 -1.24181,-1.778 -0.18297,-0.17535 -0.42401,-0.30684 -0.57853,-0.508 -0.24198,-0.31496 -0.23351,-0.76632 -0.46566,-1.10067 -0.66963,-0.96427 -1.98849,-1.53831 -3.10448,-1.69333 -0.22792,-0.0317 -0.44526,-0.16688 -0.67733,-0.14114 -0.25578,0.0285 -0.51799,0.14876 -0.762,0.2258 m -29.294668,10.75267 1.60867,-0.11286 0.59267,-0.21167 1.60866,-0.0141 4.826,-0.508 2.709338,-0.0847 2.032,-0.16934 c -0.30506,-0.47142 -0.94852,-0.45051 -1.43934,-0.62086 -0.23359,-0.0811 -0.43628,-0.18711 -0.67733,-0.254 -0.24054,-0.0668 -0.44416,-0.21099 -0.67733,-0.28228 -0.18966,-0.0579 -0.39811,-0.0185 -0.59267,-0.0564 -0.67268,-0.13081 -1.266607,-0.24427 -1.947327,-0.31048 -0.967661,-0.0941 -1.908141,-0.32901 -2.878671,-0.42333 -0.9343,-0.0909 -1.9039,-0.3048 -2.794,-0.56447 -0.38379,-0.11193 -0.79358,-0.005 -1.18533,-0.14106 -2.71992,-0.94445 -5.31495,-2.24273 -8.128,-2.90694 -0.3556,-0.0839 -0.73957,-0.0659 -1.10067,-0.14106 -0.84116,-0.17526 -1.67361,-0.48023 -2.540001,-0.56447 -0.47811,-0.0465 -0.96274,-0.0383 -1.43933,-0.0847 -0.94056,-0.0914 -1.89704,0.51368 -2.794,0.254 v -0.16933 c 0.89823,-0.56727 1.702051,-0.32537 2.70933,-0.42333 0.28533,-0.0278 0.56134,-0.14157 0.84667,-0.16934 0.97764,-0.0951 2.025481,0.17365 2.963331,0.39514 0.80298,0.18957 1.66633,0.23868 2.45533,0.47972 0.51452,0.15723 1.01694,0.37432 1.524,0.53628 0.21734,0.0694 0.46203,0.0604 0.67734,0.14106 0.94462,0.35424 1.85699,0.82211 2.794,1.19947 2.19837,0.88544 4.50985,1.25341 6.858,1.48167 0.26678,0.0259 0.5041,0.16493 0.762001,0.2258 0.37583,0.0887 0.801788,0.0703 1.185328,0.11286 0.283631,0.0315 0.561422,0.17035 0.846669,0.22581 0.47396,0.0921 0.96266,0.0285 1.43933,0.14105 1.66929,0.39413 3.27973,1.05393 4.91067,1.55228 0.30344,0.0927 0.70104,0.0282 1.016,0.0282 h 2.11666 1.60867 c 0.23156,0 0.54144,0.0528 0.762,-0.0282 0.52231,-0.19211 0.1419,-1.0066 0.762,-1.12894 0.19905,-0.0392 0.33833,0.14249 0.39514,0.31047 0.1303,0.38557 -0.16722,0.85302 -0.0283,1.27 0.087,0.26077 0.32216,0.45805 0.19761,0.762 -0.10727,0.2617 -0.54618,0.2065 -0.7338,0.0705 -0.20168,-0.14614 -0.28355,-0.4191 -0.508,-0.5362 -0.28067,-0.14647 -0.64322,0.0303 -0.93134,0.0423 -0.84522,0.0352 -1.69477,-0.0352 -2.54,0 -0.72661,0.0303 -1.47667,0.0989 -2.20133,0.16933 -0.56058,0.0545 -1.1463,-0.0326 -1.69333,0.0282 -0.31446,0.035 -0.61333,0.19491 -0.93134,0.22581 -1.00651,0.0979 -2.04148,-0.0979 -3.048,0 -0.32283,0.0314 -0.6085,0.22259 -0.931328,0.254 -0.58716,0.0571 -1.190921,-0.0571 -1.778,0 -0.87317,0.0849 -1.74092,0.0724 -2.62467,0.0847 -0.3738,0.005 -0.65913,0.21437 -1.016,0.254 -0.61349,0.0682 -1.24815,-0.0598 -1.86266,0 -0.41292,0.0401 -1.1215,0.25171 -1.18534,-0.33867 m 72.728668,-7.366 v 0.0847 c -0.68665,0.41546 -1.76869,-0.16934 -2.54,-0.16934 -1.4097,0 -2.80501,0.25722 -4.14867,0.64914 -0.3556,0.10355 -0.74168,0.0664 -1.10067,0.14106 -2.86511,0.5969 -5.45329,1.98712 -8.21266,2.90694 -0.39523,0.13174 -0.79155,0.0481 -1.18533,0.14106 -2.07121,0.48903 -4.22225,0.78096 -6.35,0.9878 -1.60749,0.1563 -3.12869,0.87215 -4.65667,1.35467 v 0.0847 l 0.93133,0.0847 1.10067,0.16934 2.62467,0.0847 3.97933,0.33867 0.762,0.16933 h 1.778 l 0.762,0.2822 1.43933,0.0565 c -0.0557,0.51494 -0.70256,0.44433 -1.10066,0.36686 -0.66142,-0.12861 -1.36483,0.046 -2.032,-0.0282 -0.3374,-0.0375 -0.57785,-0.24909 -0.93134,-0.254 -0.88375,-0.0123 -1.7515,2.5e-4 -2.62466,-0.0847 -0.58717,-0.0571 -1.19084,0.0571 -1.778,0 -0.32284,-0.0314 -0.6085,-0.22259 -0.93134,-0.254 -0.95055,-0.0925 -1.92811,0.0925 -2.87866,0 -0.40344,-0.0392 -0.7869,-0.21522 -1.18534,-0.254 -0.26077,-0.0253 -0.51003,0.0809 -0.762,0.0565 -1.00575,-0.0978 -2.03733,-0.18372 -3.048,-0.2258 -0.81703,-0.034 -1.6383,0.034 -2.45533,0 -0.30505,-0.0127 -0.62382,-0.16324 -0.93133,-0.0565 -0.36085,0.12531 -0.4572,0.52731 -0.762,0.69148 -0.20033,0.10786 -0.50496,0.003 -0.57853,-0.21167 -0.12548,-0.36508 0.20193,-0.67437 0.23986,-1.016 0.037,-0.33274 -0.16891,-0.69867 -0.0705,-1.016 0.045,-0.14554 0.1574,-0.30336 0.32453,-0.31047 0.6836,-0.0289 0.3379,1.08178 1.016,1.15714 1.12539,0.12505 2.33807,0 3.47133,0 0.53628,0 1.26416,0.12877 1.778,-0.0282 1.65286,-0.50503 3.30344,-1.15273 4.99534,-1.55228 0.5041,-0.11895 1.02497,-0.0371 1.524,-0.14105 1.70349,-0.35492 3.43712,-0.62509 5.16466,-0.889 0.57362,-0.0876 1.12361,-0.20591 1.69334,-0.32461 0.28126,-0.0586 0.57209,-0.0381 0.84666,-0.14106 1.56777,-0.58792 3.1132,-1.21209 4.65667,-1.8768 0.27009,-0.11642 0.57489,-0.10228 0.84667,-0.21167 0.53594,-0.21582 1.12945,-0.44704 1.69333,-0.56447 0.22521,-0.0468 0.45381,-0.004 0.67733,-0.0564 1.19295,-0.28177 2.33087,-0.61468 3.556,-0.73381 0.58843,-0.0572 1.12099,0.11363 1.69333,0.16934 0.60537,0.0588 1.26831,-0.1121 1.86267,0.0282 0.30141,0.0711 0.57827,0.25366 0.84667,0.39514 m -47.92133,6.13833 c -0.3286,0.19397 -0.19271,1.09779 -0.0847,1.397 0.3357,0.92964 1.64456,1.6096 2.54,0.98781 0.43476,-0.30201 1.36085,-1.61409 0.59267,-2.04614 -0.15901,-0.0894 -0.4175,-0.0423 -0.59267,-0.0423 -0.35035,0 -0.67361,-0.0368 -1.016,-0.11286 -0.36712,-0.0816 -1.07865,-0.39633 -1.43933,-0.18348 m 7.70466,-0.0141 c -0.47642,0.0926 -0.95521,0.2634 -1.43933,0.31048 -0.36415,0.0354 -0.89569,-0.13064 -1.17119,0.18347 -0.26442,0.30133 -0.0532,0.8829 0.127,1.17119 0.43942,0.70316 0.95927,1.06782 1.80619,0.90314 0.62416,-0.12141 1.13089,-0.51714 1.32647,-1.15714 0.0732,-0.23986 0.14563,-1.24138 -0.0706,-1.397 -0.13775,-0.0991 -0.42621,-0.0438 -0.57853,-0.0141 m -20.48933,10.47048 c 0.40928,-0.0324 0.44264,0.14054 0.42333,0.508 l -0.33866,-0.42334 c -0.62019,0.16324 -1.09153,0.74676 -1.524,1.18534 -0.97223,0.98593 -1.79333,2.07491 -2.878667,2.94919 -0.4743,0.3821 -1.436201,0.77291 -1.608671,1.36881 l 0.254,0.508 c -0.76386,-0.22115 -1.33273,0.17441 -1.94733,0.59266 -0.49301,0.33554 -0.94607,0.63187 -0.67733,1.27 -0.55973,0 -0.85048,0.20608 -1.35467,0.39514 -0.1894,0.071 -0.41199,0.0532 -0.56447,0.21167 -0.25019,0.26001 -0.35399,0.55795 -0.70553,0.73372 -0.43172,0.2159 -0.94158,0.1419 -1.10067,0.69147 l 0.508,0.18348 0.33867,0.23986 0.84667,-0.6632 0.762,-0.29633 1.18533,-1.143 0.67733,-0.28228 1.96148,-1.651 0.663191,-0.21167 0.762,-0.74786 2.285997,-2.11666 1.69333,-1.69334 0.67734,-0.84666 h 0.0847 l 0.0847,0.508 h -0.33867 l 0.33867,0.33866 c 0.0948,-0.90077 1.04809,-1.86461 1.69333,-2.45534 0.53789,-0.49241 0.98535,-1.09973 1.524,-1.58047 0.80755,-0.72051 1.60274,-1.47345 2.37067,-2.22953 0.44856,-0.4417 1.65159,-1.0165 1.60867,-1.778 -0.0176,-0.31233 -0.32826,-0.41597 -0.59267,-0.42332 -0.43163,-0.012 -0.8001,0.28743 -1.08653,0.59266 -0.56201,0.59885 -1.06214,1.26746 -1.6228,1.86266 -0.20066,0.21303 -0.47067,0.30769 -0.67734,0.508 -0.77944,0.75541 -1.47531,1.58201 -2.21547,2.37068 -0.46406,0.49453 -1.4312,0.77664 -1.50986,1.524 m 0.42333,12.61533 c 0.55863,-0.0588 0.86724,-1.08001 1.15714,-1.524 0.68631,-1.05139 1.14368,-2.21099 1.74972,-3.302 0.2463,-0.44333 0.43324,-0.90712 0.66328,-1.35467 0.12387,-0.24114 0.30988,-0.42579 0.4092,-0.67734 l 0.254,0.16934 c 0.18855,-0.59715 0.3418,-1.29819 0.59266,-1.86266 0.13107,-0.29482 0.34925,-0.55745 0.49386,-0.84668 0.72788,-1.45566 1.50699,-2.89026 2.30014,-4.318 0.33765,-0.60774 0.74041,-1.20532 0.95953,-1.86266 0.0809,-0.24248 0.21268,-0.434 0.0283,-0.67734 -0.38888,-0.51299 -0.95352,-0.0358 -1.21361,0.33868 -0.27119,0.39056 -0.35721,0.84868 -0.55034,1.27 -0.28659,0.62534 -0.60858,1.24544 -0.91719,1.86266 -0.34392,0.68782 -0.72017,1.3556 -1.08653,2.032 -0.15959,0.29456 -0.21768,0.6372 -0.381,0.93134 -0.34163,0.61493 -0.79375,1.15924 -1.12894,1.778 -0.10888,0.20107 -0.0724,0.38649 -0.14106,0.59266 -0.10676,0.3203 -0.39878,0.55169 -0.55033,0.84666 -0.5781,1.12489 -1.01346,2.32665 -1.53814,3.47134 -0.35712,0.77927 -1.25781,1.38532 -1.49581,2.20134 -0.12031,0.41266 0.19135,0.29828 0.36695,0.52214 0.0881,0.11243 0.0416,0.28168 0.0282,0.40919 m 28.78667,-6.68867 0.14114,-0.93134 0.28219,-0.21166 -0.0565,1.05834 1.04428,2.11666 0.22572,0.59267 2.032,3.64067 0.77614,0.67733 1.17119,2.032 0.59267,0.59267 0.762,1.25586 0.53628,0.26814 0.79019,1.43933 h 0.0847 c 0.0863,-0.0841 0.21014,-0.25603 0.33867,-0.28219 0.16967,-0.0346 0.54779,0.10727 0.49387,-0.22581 -0.0909,-0.56185 -0.973,-0.74397 -1.24174,-1.19947 -0.1143,-0.19364 0.0249,-0.37889 -0.11294,-0.57853 -0.32436,-0.47007 -0.97511,-0.65955 -1.31233,-1.11481 -0.14148,-0.19092 0.0279,-0.51943 -0.0564,-0.74786 -0.0945,-0.25594 -0.3827,-0.45618 -0.53628,-0.67733 -0.42418,-0.61087 -0.89823,-1.339 -1.72153,-1.10067 -0.0911,-0.49454 0.54619,-0.35357 0.4092,-0.84666 -0.10922,-0.3932 -0.55466,-0.78529 -0.80434,-1.10067 -0.42316,-0.53459 -0.71441,-1.09525 -1.03005,-1.69333 -0.22166,-0.41995 -0.31259,-0.82914 -0.46567,-1.27 -0.26941,-0.7758 -0.7791,-1.52138 -1.21361,-2.20134 -0.14825,-0.23207 -0.0982,-0.51452 -0.21167,-0.762 -0.29083,-0.63466 -0.78486,-1.17382 -1.12886,-1.778 -0.18406,-0.32317 -0.2772,-0.67657 -0.40919,-1.016 -0.23512,-0.60452 -0.66853,-1.19981 -0.97367,-1.778 -0.49733,-0.94225 -0.92981,-1.89273 -1.34061,-2.87866 -0.15282,-0.36686 -0.52138,-0.97926 -0.95953,-1.05834 -0.2551,-0.0461 -0.75802,0.27203 -0.7338,0.55034 0.0141,0.16238 0.16654,0.2843 0.23994,0.42332 0.17882,0.33893 0.34138,0.68199 0.5362,1.016 1.10532,1.89475 2.08398,3.84438 3.1468,5.75734 0.15672,0.2822 0.12954,0.55796 0.22572,0.84666 0.0699,0.20946 0.22445,0.37373 0.28228,0.59268 0.0593,0.22487 0.049,0.42069 0.19753,0.59266 m -18.71133,-5.334 c 0.0311,-1.18475 1.49555,-1.79518 2.45533,-2.08847 0.99136,-0.30285 1.85505,-0.52138 2.87867,-0.62087 0.40784,-0.0396 0.86131,-0.19201 1.27,-0.16932 0.33917,0.0189 0.67758,0.13639 1.016,0.16932 0.85572,0.0832 1.74472,0.17975 2.54,0.52215 0.82804,0.35645 1.67233,0.55236 2.30014,1.25585 0.16882,0.18923 0.57937,0.65067 0.31038,0.90315 -0.19803,0.18592 -0.74032,0.0282 -1.00186,0.0282 -0.85335,0 -1.88908,-0.13775 -2.70933,0.11286 -0.67386,0.20591 -1.29235,0.69673 -1.86267,1.10067 -0.2512,0.17797 -0.59986,0.47278 -0.93133,0.36695 -0.25747,-0.0823 -0.45864,-0.30582 -0.67733,-0.45162 -0.53916,-0.35941 -1.15418,-0.82533 -1.778,-1.016 -0.19237,-0.0588 -0.39675,-0.009 -0.59267,-0.0282 -1.06545,-0.10355 -2.13936,-0.0847 -3.21733,-0.0847 m 23.114,-0.4798 c 0.0654,0 0.0135,0.0422 -0.0282,0.0283 l 0.0282,-0.0283 m -29.21,5.22114 c -0.0909,-0.0168 -0.16815,-0.0189 -0.254,-0.0565 -0.63094,-0.27601 0.17509,-0.8575 0.29633,-0.19752 0.0155,0.0842 -0.0256,0.17432 -0.0423,0.254 m 3.21733,1.38286 c -0.30031,0.11734 -0.51545,0.93878 -0.57853,1.2418 -0.17492,0.83956 -0.27034,1.69139 -0.3528,2.54 -0.036,0.37017 -0.1011,0.64144 -0.0282,1.016 0.0723,0.37203 -0.10109,0.78207 0.2822,1.00186 0.97595,0.55973 2.16966,0.60994 3.21733,0.97367 0.74109,0.2573 1.57886,0.48751 2.37067,0.56447 0.81076,0.0788 1.64456,-0.0788 2.45533,0 1.34036,0.1303 2.72364,0.1303 4.064,0 0.75489,-0.0734 1.53111,0.0734 2.286,0 0.3208,-0.0312 0.62111,-0.15248 0.93133,-0.2258 0.30768,-0.0726 0.62061,-0.0548 0.93134,-0.14106 0.70637,-0.19626 1.39606,-0.46075 2.11666,-0.62094 0.50064,-0.11126 1.19931,-0.23936 1.60867,-0.56439 0.34603,-0.27483 0.20786,-0.60545 0.28219,-0.98781 0.14504,-0.74566 -0.10261,-1.47481 -0.254,-2.20133 -0.0998,-0.47921 -0.0224,-0.95843 -0.16933,-1.43933 -0.11405,-0.37321 -0.27043,-1.11887 -0.70553,-1.18534 -0.67132,-0.10253 -1.66903,0.008 -2.286,0.2822 -0.27796,0.12353 -0.59266,0.40199 -0.59266,0.7338 0,0.50157 0.67733,0.8443 0.67733,1.35467 0,0.25815 -0.2601,0.50707 -0.42333,0.67733 -0.13014,0.13581 -0.26171,0.2822 -0.42334,0.381 -0.73558,0.4495 -1.68571,0.18077 -2.17314,-0.55033 -0.18728,-0.28101 -0.13352,-0.88909 -0.45152,-1.05833 -0.16527,-0.088 -0.582,0.028 -0.762,0.0705 -0.85378,0.20159 -1.46914,1.08103 -1.96148,1.74981 -0.16823,0.22851 -0.4075,0.81847 -0.74786,0.81847 -0.31809,0 -0.7079,-0.66895 -0.8608,-0.90314 -0.4059,-0.62179 -1.02007,-1.43781 -1.76386,-1.66514 -0.25866,-0.079 -0.93574,-0.12793 -1.07248,0.14114 -0.13758,0.27077 -0.0549,0.58488 -0.22572,0.84667 -0.48014,0.7354 -1.44297,0.99661 -2.17314,0.55033 -0.16307,-0.0996 -0.28939,-0.24705 -0.42333,-0.381 -0.12836,-0.12835 -0.29828,-0.25798 -0.381,-0.42333 -0.34527,-0.69054 0.84328,-1.10973 0.60681,-1.778 -0.28931,-0.81763 -1.64948,-0.84667 -2.34248,-0.84667 -0.20472,0 -0.48319,-0.0476 -0.67733,0.0282 m -9.398,8.18447 v 0.0847 l -0.59267,0.47979 -1.015995,1.04421 0.338665,0.0847 -0.0847,0.254 c -0.500035,-0.10524 -1.399364,0.76361 -1.439324,1.27 0.43493,0 0.543899,-0.0648 0.762,0.33867 h 0.169328 c 0.249941,-0.36525 0.356621,-0.84709 0.620856,-1.18533 0.19381,-0.24799 0.5213,-0.33181 0.71967,-0.59267 0.25637,-0.33706 0.37161,-0.77606 0.62095,-1.10067 0.73355,-0.95504 1.69698,-1.82854 2.01786,-3.048 -0.82914,-0.34908 -1.41131,0.8305 -1.86266,1.35467 -0.23521,0.27313 -0.60538,0.72966 -0.254,1.016 m 28.448,-0.56447 c -0.52367,0.0654 -1.09331,0.28041 -1.60868,0.40928 -0.39573,0.0989 -0.79933,0.11794 -1.18532,0.26805 -0.31768,0.12353 -0.66337,0.2192 -0.80434,0.56447 -0.0956,0.23402 -0.10093,0.77648 -0.0141,1.016 0.12684,0.34993 0.58479,0.45813 0.79028,0.762 0.40673,0.60164 0.0399,1.40818 -0.64914,1.58048 -0.24029,0.06 -0.51588,0.0316 -0.762,0.0282 -0.21421,-0.003 -0.39852,-0.03 -0.59267,-0.127 -0.54508,-0.27254 -0.95826,-0.87842 -0.56447,-1.48167 0.16781,-0.25705 0.45314,-0.42028 0.62094,-0.67733 0.21701,-0.33249 -0.0254,-0.93845 -0.39513,-1.07247 -1.26391,-0.45788 -2.59868,0.67352 -3.38667,1.4958 -0.28042,0.29261 -0.73643,0.95496 -1.18534,0.97367 -0.43569,0.0181 -0.99356,-0.7819 -1.27,-1.05833 -0.81017,-0.81018 -2.04292,-1.81534 -3.302,-1.4252 -0.41046,0.12717 -0.62746,0.73059 -0.39514,1.08653 0.21226,0.32512 0.57667,0.54458 0.70562,0.93133 0.18567,0.55711 -0.30726,1.17027 -0.81848,1.32648 -0.23266,0.071 -0.52137,0.0282 -0.762,0.0282 -0.20235,0 -0.40386,0.002 -0.59266,-0.0847 -0.13276,-0.0609 -0.238,-0.14935 -0.33867,-0.254 -0.10067,-0.10456 -0.20642,-0.2054 -0.26814,-0.33866 -0.36203,-0.78199 0.4771,-1.08679 0.83261,-1.60867 0.16188,-0.23774 0.15232,-0.66065 0.0847,-0.93133 -0.10024,-0.40082 -0.37981,-0.5489 -0.7338,-0.69148 -0.68868,-0.27736 -1.47489,-0.35661 -2.20133,-0.508 -0.29286,-0.061 -0.71857,-0.28837 -1.016,-0.11287 -0.2005,0.11838 -0.16934,0.35146 -0.16934,0.55035 0,0.43942 0.0578,0.84175 0.14115,1.27 0.19159,0.9856 0.30471,1.98788 0.508,2.96333 0.14765,0.70908 0.10566,1.32325 0.87485,1.66514 0.91085,0.40479 1.84489,0.50961 2.794,0.73372 0.23495,0.0555 0.4362,0.19905 0.67734,0.22581 0.78088,0.0868 1.58852,-0.076 2.37066,0 0.34045,0.0331 0.67556,0.13622 1.016,0.16933 1.56202,0.15189 3.2021,-0.0196 4.74134,-0.16933 0.78215,-0.076 1.58979,0.0868 2.37066,0 0.24114,-0.0268 0.44239,-0.17027 0.67734,-0.22581 0.32893,-0.0776 0.68961,-0.0459 1.016,-0.14105 0.63551,-0.18542 1.6267,-0.36399 2.11666,-0.81848 0.39785,-0.36906 0.43782,-0.93345 0.52215,-1.43933 0.11353,-0.68131 0.29049,-1.34756 0.39505,-2.032 0.0343,-0.2242 -0.008,-0.45246 0.0141,-0.67733 0.0513,-0.52748 0.254,-0.98637 0.254,-1.524 0,-0.33046 -0.0813,-0.70248 -0.508,-0.64914 m -17.78,8.636 c -0.59673,0.15798 -0.0434,0.96503 0.0988,1.2418 0.31191,0.60706 0.77656,1.16332 1.05832,1.778 0.26781,0.58437 0.5903,1.58903 1.21353,1.905 0.22361,0.11337 0.60173,0.0423 0.84667,0.0423 h 1.86267 6.18066 c 0.56279,0 1.13115,-0.0235 1.69334,0 0.27728,0.0115 0.49242,0.10447 0.762,-0.0282 0.43822,-0.21581 0.77089,-0.98662 0.95953,-1.41114 0.33213,-0.74727 0.80171,-1.51248 1.2418,-2.20133 0.16484,-0.25798 0.65227,-0.95335 0.32453,-1.24181 -0.1469,-0.12928 -0.32698,-0.0421 -0.49386,-0.0282 -0.40217,0.0335 -0.70993,0.13351 -1.10067,0.2258 -0.68385,0.16146 -1.42468,0.16865 -2.11667,0.19753 -0.37261,0.0155 -0.72093,0.16933 -1.10066,0.16933 -0.50241,0 -1.41884,-0.17526 -1.86267,0.0705 -0.45576,0.25239 -0.7664,0.89596 -1.10067,1.28414 -0.0913,0.10601 -0.26797,0.39514 -0.42333,0.39514 -0.1993,0 -0.38262,-0.34171 -0.49386,-0.47979 -0.32242,-0.40023 -0.68877,-1.06444 -1.19947,-1.24182 -0.57193,-0.19854 -1.34756,0.0301 -1.94734,-0.0282 -0.95918,-0.0932 -1.9204,-0.23216 -2.87866,-0.33866 -0.47117,-0.0523 -1.02659,-0.44214 -1.524,-0.31047 m 4.14866,1.86265 c 1.32445,0 0.97867,1.97148 -0.254,1.83448 -1.22936,-0.13657 -0.86783,-1.83448 0.254,-1.83448 m 7.78934,0.0141 c 0.36576,0.0203 0.80221,0.20736 0.97366,0.55035 0.34003,0.68004 -0.28845,1.34611 -0.97366,1.27 -1.1375,-0.12641 -1.26822,-1.89079 0,-1.82035 m -8.55134,3.9652 c -0.64271,0.2363 0.18728,1.05435 0.39515,1.32647 0.7928,1.03784 1.63787,1.9613 2.56819,2.87867 0.20616,0.20328 0.868,0.88612 1.18533,0.71966 0.28821,-0.15121 0.17305,-0.78875 0.16933,-1.05833 -0.0113,-0.81322 0,-1.63568 0,-2.45533 0,-0.25934 0.0993,-0.77758 -0.0423,-1.00186 -0.18525,-0.29337 -0.76487,-0.18348 -1.05833,-0.18348 -0.45685,0 -0.99373,0.077 -1.43932,-0.0282 -0.54407,-0.12853 -1.19694,-0.41123 -1.778,-0.19761 m 8.04332,0 c -0.7653,0.18068 -1.40639,0.2258 -2.20132,0.2258 -0.21058,0 -0.65592,-0.0809 -0.80435,0.11286 -0.14688,0.19186 -0.0423,0.75379 -0.0423,0.98781 v 2.62467 c 0,0.27254 -0.19634,1.02802 0.254,1.00186 0.39116,-0.0226 0.92456,-0.57176 1.18533,-0.83253 0.84294,-0.84294 1.59656,-1.71264 2.35653,-2.62467 0.20608,-0.24731 0.83634,-0.9304 0.762,-1.27 -0.0881,-0.40267 -1.21277,-0.29591 -1.50986,-0.2258 z"
       style="fill:#000000;stroke:none;stroke-width:0.0846667" />
  </g>
</svg>
