<?xml version="1.0" encoding="UTF-8" standalone="no"?>
<svg
   xmlns:dc="http://purl.org/dc/elements/1.1/"
   xmlns:cc="http://creativecommons.org/ns#"
   xmlns:rdf="http://www.w3.org/1999/02/22-rdf-syntax-ns#"
   xmlns:svg="http://www.w3.org/2000/svg"
   xmlns="http://www.w3.org/2000/svg"
   xmlns:sodipodi="http://sodipodi.sourceforge.net/DTD/sodipodi-0.dtd"
   xmlns:inkscape="http://www.inkscape.org/namespaces/inkscape"
   sodipodi:docname="scorpion.svg"
   inkscape:version="1.0 (4035a4fb49, 2020-05-01)"
   id="svg166"
   version="1.1"
   viewBox="0 0 37.253304 54.959263"
   height="54.959263mm"
   width="37.253304mm">
  <defs
     id="defs160" />
  <sodipodi:namedview
     inkscape:window-maximized="1"
     inkscape:window-y="0"
     inkscape:window-x="0"
     inkscape:window-height="1144"
     inkscape:window-width="1920"
     fit-margin-bottom="0"
     fit-margin-right="0"
     fit-margin-left="0"
     fit-margin-top="0"
     showgrid="false"
     inkscape:document-rotation="0"
     inkscape:current-layer="layer1"
     inkscape:document-units="mm"
     inkscape:cy="539.77966"
     inkscape:cx="380.14821"
     inkscape:zoom="0.35"
     inkscape:pageshadow="2"
     inkscape:pageopacity="0.0"
     borderopacity="1.0"
     bordercolor="#666666"
     pagecolor="#ffffff"
     id="base" />
  <metadata
     id="metadata163">
    <rdf:RDF>
      <cc:Work
         rdf:about="">
        <dc:format>image/svg+xml</dc:format>
        <dc:type
           rdf:resource="http://purl.org/dc/dcmitype/StillImage" />
        <dc:title></dc:title>
      </cc:Work>
    </rdf:RDF>
  </metadata>
  <g
     transform="translate(-5.2524516,-5.3499653)"
     id="layer1"
     inkscape:groupmode="layer"
     inkscape:label="Layer 1">
    <path
       id="path3488"
       d="m 18.037022,6.1966553 c -1.14944,-0.24199 -2.37795,1.09768 -3.13267,1.778 -0.32859,0.29623 -0.65811,0.66883 -1.10067,0.762 0.0334,-0.31721 0.20422,-0.51212 0.39514,-0.762 0.55118,-0.72155 1.28473,-1.30076 2.0602,-1.76388 0.40098,-0.2395 1.08111,-0.37873 1.18533,-0.86078 -1.50165,0 -3.13284,0.86917 -4.23333,1.86266 -0.45305,0.40903 -0.79663,0.94643 -1.27,1.32645 -0.48794,0.39171 -1.09661,0.63216 -1.60867,0.98777 -1.4982604,1.0405297 -3.2238004,3.1965697 -2.7657804,5.1364497 0.0593,0.25129 0.17451,0.6173 0.47978,0.635 0.33528,0.0195 0.42858,-0.17374 0.762,0.0423 0.44111,0.28575 0.56549,0.89408 1.10067,1.07248 0.4012304,0.13368 0.9851804,-0.0539 1.3546604,-0.19762 1.08755,-0.42291 2.31267,-1.01786 2.93514,-2.06019 0.50021,-0.83761 0.70553,-1.73711 0.70553,-2.70933 0,-0.56067 -0.24359,-1.36085 0.0282,-1.8626697 0.50986,-0.9412 1.28685,-1.68035 2.08847,-2.37067 0.35179,-0.30291 0.96419,-0.52343 1.016,-1.016 m 12.36134,-0.84666 c 0.0457,0.42271 0.5069,0.50738 0.84666,0.69144 0.76547,0.41461 1.484891,0.93211 2.046141,1.59456 0.14741,0.174 0.834649,0.72473 0.56439,1.00188 -0.182962,0.18767 -0.851752,-0.55013 -1.00186,-0.67733 -0.894422,-0.75773 -1.782321,-1.76389 -3.048001,-1.76389 0.0145,0.53628 0.71501,0.81825 1.10067,1.12889 0.74853,0.60295 1.510281,1.38769 1.933191,2.25778 0.24469,0.5033397 0.0141,1.2304597 0.0141,1.7779997 0,0.9464 0.193458,1.87985 0.677328,2.70933 0.616802,1.05732 1.91516,1.79553 3.048,2.17314 0.357812,0.11921 0.891971,0.29371 1.27,0.18339 0.5384,-0.15706 0.659471,-0.79747 1.100672,-1.07239 0.518419,-0.32309 1.03691,0.21269 1.241808,-0.6068 0.488871,-1.95572 -1.12903,-4.01549 -2.59648,-5.1364497 -0.4997,-0.38169 -1.108959,-0.60609 -1.608659,-0.98777 -0.455416,-0.3479 -0.781306,-0.83029 -1.199478,-1.21356 -1.159002,-1.06248 -2.769872,-2.06022 -4.388522,-2.06022 M 8.3849816,15.622825 c -0.73874,0.21547 -0.52989,1.47032 -0.36688,2.0038 0.44088,1.44281 1.4314,2.50986 2.7375504,3.21734 0.38583,0.20895 1.13724,0.74388 1.60867,0.46566 0.2534,-0.1496 0.16933,-0.55761 0.16933,-0.80433 0,-0.64635 -0.29269,-1.19363 -0.53619,-1.778 -0.0897,-0.21505 -0.25324,-0.43019 -0.22581,-0.67733 0.0539,-0.48438 0.82,-0.92803 1.18533,-1.18534 0.24647,-0.17356 0.51512,-0.41901 0.4092,-0.762 -0.098,-0.31741 -0.42164,-0.27262 -0.6632,-0.15519 -0.90932,0.44196 -1.80755,1.09076 -2.8786604,0.73372 -0.35112,-0.11701 -0.67505,-0.46871 -0.90314,-0.74786 -0.14436,-0.1767 -0.27051,-0.38794 -0.5362,-0.31047 m 30.8186714,0 c -0.289049,0.0922 -0.413091,0.44594 -0.606801,0.64914 -0.267639,0.28084 -0.701471,0.47057 -1.08653,0.508 -0.804931,0.0782 -1.53162,-0.3617 -2.201341,-0.73381 -0.208949,-0.11608 -0.614759,-0.31538 -0.81847,-0.0987 -0.22157,0.23571 -0.043,0.56083 0.141142,0.74786 0.37592,0.38176 1.142828,0.65659 1.32647,1.18533 0.1099,0.31666 -0.0837,0.64838 -0.197612,0.93134 -0.224028,0.55634 -0.527558,1.07052 -0.536189,1.69333 -0.005,0.37016 -0.0472,0.97248 0.508,0.90314 0.3843,-0.0481 0.766739,-0.2987 1.100659,-0.46567 1.29227,-0.64617 2.365761,-1.66632 2.850481,-3.06214 0.19109,-0.5505 0.35729,-1.20887 0.18339,-1.778 -0.0834,-0.27305 -0.34231,-0.58208 -0.663199,-0.4798 m -17.018001,10.72447 c -0.65185,-0.0172 -1.2584,-0.69063 -1.778,-1.04419 -0.20438,-0.13911 -0.49742,-0.36661 -0.762,-0.28228 -0.47159,0.15037 -0.63974,1.08593 -0.74786,1.4958 -0.2391,0.90585 -0.82567,2.0309 0.49386,2.34248 0.21167,0.05 0.46084,0.0918 0.67733,0.11286 1.60986,0.15655 3.22064,-0.24071 4.826,-0.0847 0.72594,0.0706 1.39192,0.0544 2.11667,0.0141 0.59597,-0.0331 1.19981,0.10414 1.778,-0.19761 0.28338,-0.14783 0.44535,-0.51528 0.42333,-0.83253 -0.0166,-0.23918 -0.16797,-0.44628 -0.2258,-0.67733 -0.12505,-0.50047 -0.22598,-0.9658 -0.42334,-1.43934 -0.12454,-0.29895 -0.23147,-0.71001 -0.62086,-0.74786 -0.29108,-0.0284 -0.54881,0.2634 -0.762,0.42334 -0.48006,0.36 -1.07416,0.90093 -1.69333,0.91719 0.15291,-0.20845 0.36999,-0.25595 0.59267,-0.39514 0.47176,-0.29481 1.06392,-0.69333 1.41114,-1.12886 1.0419,-1.30717 -0.17704,-3.20954 -0.93134,-4.318 -0.17729,-0.26043 -0.5444,-0.4793 -0.66328,-0.762 -0.0927,-0.22073 0.0771,-0.45474 0.0988,-0.67733 0.0757,-0.77851 -0.47768,-1.50318 -1.27,-1.524 l 0.508,1.27 -0.59266,0.254 h -1.524 l -0.635,-0.254 0.46566,-1.27 c -0.75133,0.0198 -1.32545,0.77106 -1.2418,1.524 0.02,0.17932 0.21285,0.41884 0.16933,0.59266 -0.0645,0.25824 -0.4406,0.46262 -0.59266,0.67734 -0.86411,1.21996 -2.14529,3.1617 -0.97367,4.572 0.32385,0.38972 0.85759,0.74346 1.28414,1.016 0.23563,0.15053 0.44137,0.18948 0.59266,0.42333 m -8.29733,-7.76114 c -0.31919,0.0621 -1.04716,0.0842 -1.22767,0.39514 -0.13724,0.23639 0.0423,0.46711 0.127,0.67733 0.11896,0.29541 0.19753,0.66972 0.19753,0.98781 0,0.3247 -0.13284,0.68944 0.14114,0.94539 0.29896,0.2794 0.88731,0.23588 1.27,0.3528 0.95504,0.29185 1.98569,0.37271 2.96333,0.52214 0.48049,0.0734 1.30819,0.22581 1.778,0.0423 0.23622,-0.0923 0.25705,-0.36178 0.35281,-0.56448 0.25248,-0.53467 0.64067,-0.99915 0.90306,-1.524 0.0867,-0.17339 0.14291,-0.40741 -0.014,-0.56447 -0.10499,-0.1049 -0.26501,-0.0977 -0.39514,-0.14105 -0.42732,-0.1425 -0.83329,-0.35044 -1.27,-0.46567 -1.48514,-0.39192 -3.26949,-0.96588 -4.826,-0.66328 m 18.20333,0 -3.64067,0.87495 -1.22766,0.53619 0.55033,1.10067 0.49386,0.93133 0.26814,0.46567 0.67733,0.0423 1.94734,-0.11286 2.370658,-0.53628 1.171202,-0.31039 0.0988,-1.2418 0.296331,-1.35467 -0.719669,-0.28219 -2.286,-0.11295 m -15.40933,6.91447 c -0.60198,-0.30099 -0.97544,-0.0344 -1.524,0.23986 -0.60528,0.30269 -1.19617,0.61816 -1.778,0.97367 -0.2032,0.12421 -0.44154,0.37685 -0.67733,0.42333 -0.28694,0.0567 -0.83905,-0.46863 -1.10067,-0.60672 -0.4699,-0.24799 -1.00914,-0.17331 -1.524,-0.26814 0.42393,-0.53695 0.14461,-1.07687 0.0847,-1.69333 -0.0417,-0.42926 0.0543,-0.60291 -0.2540004,-0.93133 -0.30937,-0.32961 -0.47617,-0.81246 -1.016,-0.49386 -0.14249,0.0841 -0.22369,0.23766 -0.127,0.39505 0.13293,0.21649 0.46025,0.2319 0.62086,0.43747 0.15155,0.19398 0.15121,0.68885 0.14114,0.93134 -0.027,0.64837 -0.46584,1.38489 -0.26814,2.032 0.42426,1.38836 1.7852804,1.38362 2.9351404,1.25586 0.20218,-0.0224 0.38642,0.11023 0.59267,0.0988 0.76868,-0.0427 1.64185,-0.49081 2.37066,-0.7338 0.57921,-0.19304 1.18618,-0.38574 1.69334,-0.73372 0.10431,-0.0716 0.1579,-0.2049 0.26814,-0.26814 0.21513,-0.12345 0.51147,-0.0212 0.74786,-0.14114 0.43654,-0.22132 0.41859,-0.61468 0.6068,-1.00186 0.0627,-0.12912 0.21827,-0.26984 0.21167,-0.42334 -0.0148,-0.33917 -0.49733,-0.33866 -0.73381,-0.33866 -0.56134,0 -1.14562,0.25569 -1.27,0.84666 m 20.997339,0.762 c -0.38464,0.11134 -0.81416,-0.0108 -1.185341,0.11286 -0.32503,0.10838 -0.733719,0.38253 -1.016,0.57862 -0.136729,0.0949 -0.234609,0.25518 -0.423328,0.19752 -0.260601,-0.0796 -0.53594,-0.37143 -0.762,-0.52214 -0.871141,-0.58072 -2.178391,-1.51163 -3.21733,-1.12886 -0.076,-0.96342 -1.40674,-0.98755 -2.032,-0.59266 0.0654,0.22589 0.22529,0.37372 0.31047,0.59266 0.0843,0.21684 0.0996,0.47964 0.23986,0.67734 0.26408,0.37211 0.76115,0.36449 1.143,0.254 0.13623,0.6471 1.133938,0.85776 1.693328,1.04419 0.788932,0.26298 1.7057,0.77216 2.54,0.81847 0.21336,0.0119 0.388292,-0.14689 0.592672,-0.127 0.678939,0.066 1.478529,0.3109 2.116669,-0.14114 0.38989,-0.27609 0.88341,-0.84725 0.931331,-1.34052 0.02249,-0.23165 -0.0772,-0.38346 -0.141142,-0.59267 -0.136739,-0.44746 -0.242988,-1.05672 -0.19753,-1.524 0.0185,-0.19092 0.056,-0.51791 0.183481,-0.66319 0.150029,-0.17111 0.85217,-0.30878 0.62086,-0.67734 -0.0607,-0.0968 -0.19795,-0.10337 -0.296341,-0.127 -0.563279,-0.13563 -0.76377,0.31776 -1.086519,0.71967 -0.15621,0.19439 -0.0764,0.43366 -0.0988,0.66319 -0.0603,0.61976 -0.334349,1.24731 0.0847,1.778 m -14.816669,0.16934 v 0.0847 c -0.25764,0.0678 -0.48548,0.10347 -0.59267,-0.16933 l 0.59267,0.0847 m 2.54,-0.0847 c -0.098,0.26712 -0.26238,0.26628 -0.508,0.16933 l 0.508,-0.16933 m -0.84667,0.16933 c -0.15595,0.48201 -1.08077,0.43324 -1.35466,0.0847 l 1.35466,-0.0847 m -8.636,2.45534 c -0.69985,-0.12895 -0.94725,0.29303 -1.38286,0.77614 -0.43248,0.47955 -0.82626,0.97121 -1.18533,1.50986 -0.20354,0.30531 -0.47092,0.57573 -0.56447,0.93133 -1.06672,-0.22454 -1.84955,-0.37575 -2.8786704,0.0847 0.2915904,-0.79155 -0.127,-1.16747 -0.49386,-1.86267 -0.0843,-0.15977 -0.13022,-0.4384 -0.28228,-0.55033 -0.11633,-0.0857 -0.27957,-0.0547 -0.39506,-0.1552 -0.11684,-0.10168 -0.14283,-0.26585 -0.26814,-0.36694 -0.29607,-0.23876 -0.76702,-0.16713 -0.97366,0.16933 -0.0677,0.11024 -0.0522,0.27458 0.0564,0.35281 0.22467,0.1618 0.59286,-0.0568 0.83255,0.0847 0.19694,0.11625 0.38913,0.75176 0.49386,0.97367 0.18999,0.40225 0.37668,0.99619 0.39514,1.43933 0.007,0.18026 -0.14173,0.32597 -0.0988,0.508 0.11362,0.481 0.8972104,0.86259 1.3264704,0.98781 0.84726,0.24706 1.5384,-0.24054 2.21548,-0.60681 0.20658,-0.11176 0.44865,-0.0181 0.66319,-0.15519 0.71061,-0.45407 1.29506,-1.1115 1.94733,-1.63695 0.55957,-0.45068 1.41182,-1.03623 1.27,-1.80619 0.54847,0 1.04682,-0.17721 1.24181,-0.762 0.0545,-0.16374 0.008,-0.34222 0.0564,-0.508 0.0648,-0.22216 0.31064,-0.69587 0.0423,-0.889 -0.11625,-0.0837 -0.35907,-0.0479 -0.49386,-0.0423 -0.48463,0.0202 -1.39869,0.51342 -1.55219,1.016 -0.0437,0.143 0.0242,0.35585 0.0282,0.508 m 15.32466,0.508 c -0.0568,0.17983 -0.18567,0.40072 -0.127,0.59266 0.0989,0.32352 0.48675,0.54263 0.719668,0.762 0.588182,0.55406 1.166961,1.08255 1.778,1.60867 0.41588,0.35814 0.859282,0.82999 1.439331,0.67733 0.143341,0.35366 0.497671,0.46669 0.846669,0.59267 0.855221,0.30886 2.098972,0.1988 2.624672,-0.67733 0.15621,-0.26027 -0.01349,-0.48895 0.0282,-0.762 0.104561,-0.68419 0.331809,-1.15917 0.606801,-1.778 0.0598,-0.13454 0.01,-0.29659 0.0847,-0.42334 0.28838,-0.48869 1.06164,0.18009 1.143,-0.59266 -0.22165,-0.0875 -0.509609,-0.37008 -0.762,-0.31048 -0.29218,0.069 -0.381249,0.38448 -0.592659,0.55034 -0.124971,0.0981 -0.29083,0.0917 -0.409199,0.19761 -0.171532,0.15342 -0.254932,0.4616 -0.36694,0.66319 -0.33029,0.59453 -0.655151,0.94107 -0.409202,1.60867 -0.278469,-0.022 -0.492498,-0.16214 -0.762,-0.22581 -0.344509,-0.0813 -0.83642,-0.0674 -1.185328,-0.014 -0.22479,0.0343 -0.73542,0.28245 -0.917192,0.14105 -0.270679,-0.21048 -0.425619,-0.72263 -0.63501,-1.00186 -0.41918,-0.55888 -0.855038,-1.09372 -1.32647,-1.60866 -0.33799,-0.36923 -0.663189,-0.72788 -1.185328,-0.508 0.01209,-0.1535 0.094,-0.35772 0.0565,-0.508 -0.1099,-0.43968 -0.7145,-0.68673 -1.07247,-0.86081 -0.24393,-0.11853 -0.86166,-0.34019 -1.03014,0.0141 -0.092,0.19355 0.0325,0.48133 0.0706,0.67733 0.0374,0.19279 -0.006,0.40632 0.0564,0.59267 0.18533,0.55584 0.82905,0.94607 1.32647,0.59267 m 0.508,-0.508 -0.0847,0.0847 0.0847,-0.0847 m -15.494,0.16933 0.0847,0.16933 -0.0847,-0.16933 m 2.11667,0.0423 c -0.21971,0.1276 -0.21726,0.41953 -0.26814,0.635 -0.0374,0.15875 -0.17442,0.33876 -0.14106,0.508 0.0652,0.33071 0.63407,0.4937 0.9172,0.56448 1.28397,0.32097 2.59207,0.15553 3.89466,0.28219 1.4014,0.13623 2.83312,0.0515 4.23334,-0.0847 0.69172,-0.0672 1.36034,-0.0583 2.032,-0.28219 0.18965,-0.0633 0.50478,-0.10668 0.64914,-0.254 0.32926,-0.3363 -0.0549,-1.34535 -0.47981,-1.41114 -0.74227,-0.11498 -1.55414,0.0982 -2.286,0.16933 -0.94327,0.0917 -1.95572,0.005 -2.87867,-0.0847 -0.26924,-0.0262 -0.50114,0.0593 -0.762,0.0847 -0.69062,0.0671 -1.42231,0 -2.11666,0 -0.68377,0 -1.34976,-0.16933 -2.032,-0.16933 -0.21311,0 -0.57142,-0.0683 -0.762,0.0423 m 11.34533,1.905 c -1.8603,0.53848 -3.82008,0.59267 -5.75733,0.59267 -1.31716,0 -2.60604,0.0248 -3.89467,-0.22581 -0.47574,-0.0924 -0.95834,-0.12556 -1.43933,-0.22572 -0.17891,-0.0373 -0.49361,-0.13623 -0.6632,-0.0141 -0.17357,0.12497 -0.13758,0.7068 -0.0706,0.889 0.10931,0.29718 0.39506,0.2822 0.64914,0.36686 0.52832,0.17611 1.06333,0.30972 1.60867,0.42334 1.86122,0.38777 3.86351,0.40995 5.75733,0.2258 0.54475,-0.053 1.16154,-0.072 1.69333,-0.19752 0.51867,-0.12252 1.01736,-0.30379 1.524,-0.45162 0.19948,-0.0582 0.41513,-0.004 0.59267,-0.14105 0.33647,-0.25933 0.18026,-0.94395 0,-1.24181 m -14.224005,3.21734 -0.84667,-0.42334 -0.79019,0.508 -1.97561,2.286 -0.5362,0.80434 -0.508,-0.11286 -1.0160004,-0.18348 -1.778,0.33867 c 0.32758,-0.69164 -0.0522,-0.98366 -0.33866,-1.60867 -0.25269,-0.55135 -0.36005,-0.99136 -0.93134,-1.21352 -0.52652,-0.20481 -0.81808,-0.76183 -1.29822,-0.14114 -0.0899,0.11616 -0.15674,0.21378 -0.22578,0.33866 0.43399,0.217 0.9122,0.0945 1.24178,0.508 0.39795,0.49928 0.644,1.22953 0.70556,1.86267 0.028,0.28795 -0.0627,0.65854 0.0282,0.93133 0.2143,0.64288 1.13772,1.09728 1.74978,1.24181 0.80323,0.18965 1.6346604,-0.35281 2.2860004,-0.70561 0.20819,-0.11269 0.4533,-0.015 0.67733,-0.127 0.95343,-0.47668 1.7178,-1.32732 2.54,-1.98967 0.70739,-0.56981 1.80518,-1.19642 1.10067,-2.14486 0.20523,0.0594 0.37693,0.233 0.59266,0.254 0.27526,0.0268 0.36018,-0.16595 0.52214,-0.33867 0.0871,-0.093 0.22623,-0.16188 0.29634,-0.26814 0.22419,-0.33993 0.0226,-0.64685 0.0423,-1.00186 0.0129,-0.23258 0.18745,-0.61137 0.0282,-0.83252 -0.13361,-0.18559 -0.46508,-0.0826 -0.635,-0.0141 -0.50258,0.20244 -1.07392,0.49572 -1.31234,1.016 -0.18973,0.41402 0.2794,0.66505 0.381,1.016 m 16.848671,-0.0847 c -0.156551,0.28321 -0.458131,0.57362 -0.423331,0.93133 0.0311,0.31987 0.29328,0.48074 0.508,0.67734 0.41393,0.37897 0.85403,0.72517 1.27,1.10066 0.62882,0.56769 1.348571,1.30582 2.116659,1.6792 0.213111,0.10363 0.395571,-0.0202 0.592672,0.0565 0.186179,0.0724 0.319961,0.26662 0.508,0.35281 0.791969,0.36296 1.623229,0.59817 2.455331,0.23986 0.394888,-0.17001 0.890868,-0.49767 1.08653,-0.889 0.192458,-0.38481 0.142499,-0.93337 0.183478,-1.35467 0.0398,-0.40962 0.182462,-0.82795 0.381,-1.18533 0.152061,-0.27381 0.31996,-0.62433 0.635,-0.73381 0.30472,-0.10575 0.552791,-0.0196 0.846672,-0.19753 -0.0429,-0.14825 -0.064,-0.21378 -0.169331,-0.33866 -0.49217,-0.58378 -0.741939,-0.13708 -1.27,0.127 -0.172471,0.0862 -0.340701,0.0704 -0.479819,0.2258 -0.18542,0.20727 -0.26534,0.50301 -0.381,0.74786 -0.264502,0.56024 -0.928201,1.16671 -0.493861,1.778 l -1.439331,-0.32452 -1.354669,0.254 -0.508,0.0564 -0.536191,-0.74786 -1.834481,-2.20133 -0.846659,-0.59267 -0.846669,0.33867 c 0.105328,-0.19058 0.316058,-0.37998 0.381,-0.59267 0.117689,-0.38506 -0.376682,-0.79739 -0.635,-1.00186 -0.243422,-0.1927 -1.127761,-0.67606 -1.397001,-0.32461 -0.16341,0.21345 0.0297,0.59157 0.0423,0.81847 0.0128,0.23089 -0.11718,0.44357 -0.0847,0.67734 0.0466,0.33528 0.58843,0.89653 0.93133,0.93133 0.30472,0.0309 0.529762,-0.36864 0.762,-0.508 m -14.54852,-1.397 c -0.19702,0.14182 -0.0988,0.67386 -0.0988,0.889 0,0.81991 -0.14749,2.06079 0.762,2.42714 0.90517,0.36457 1.91964,0.52764 2.87866,0.62086 0.28533,0.0278 0.56134,0.14156 0.84667,0.16933 1.77478,0.17255 3.79755,0.10245 5.50333,-0.39514 0.59546,-0.17365 1.62484,-0.1662 2.08848,-0.64905 0.48268,-0.50292 0.28219,-1.71315 0.28219,-2.34247 0,-0.21912 0.0932,-0.65752 -0.16933,-0.74786 -0.27898,-0.0961 -0.51766,0.13699 -0.762,0.21166 -0.19296,0.0589 -0.39895,-8e-5 -0.59267,0.0564 -0.44035,0.12844 -0.90509,0.29363 -1.35467,0.38101 -0.49115,0.0955 -1.02565,0.0504 -1.524,0.0988 -0.36821,0.0358 -0.73245,0.13351 -1.10066,0.16933 -0.97519,0.0948 -2.00042,-0.0757 -2.96334,-0.16933 -0.95724,-0.0931 -1.85665,-0.34097 -2.794,-0.5362 -0.25882,-0.0539 -0.74997,-0.36484 -1.00186,-0.18347 m 11.5852,3.72533 c -1.18136,0.0328 -2.36627,0.60402 -3.556,0.71967 -1.30988,0.12733 -2.6698,0.12733 -3.97934,0 -0.86292,-0.0839 -1.77961,-0.32495 -2.62466,-0.5362 -0.30667,-0.0767 -0.78876,-0.28286 -1.10067,-0.0988 -0.32461,0.19161 -0.14029,0.77216 -0.0847,1.05834 0.1612,0.82913 0.1458,2.23071 0.93133,2.7658 0.43409,0.29567 1.03497,0.27966 1.524,0.39505 1.74532,0.41216 3.7156,0.39964 5.50334,0.22581 0.46245,-0.045 0.9061,-0.20413 1.35466,-0.254 0.44264,-0.0492 1.06553,-0.0924 1.43934,-0.36686 0.26001,-0.19092 0.43882,-0.70382 0.59266,-0.9878 0.17154,-0.31666 0.11921,-0.59935 0.19753,-0.93134 0.10524,-0.44552 0.22581,-0.8045 0.22581,-1.27 0,-0.35365 0.0507,-0.73286 -0.42334,-0.71966 m 1.43934,3.25966 c 0,0.81416 0.63771,1.31504 1.185329,1.86267 1.146561,1.14655 3.099221,3.00186 4.826,1.83447 0.354581,-0.23968 0.356791,-0.60884 0.45153,-0.9878 0.118192,-0.47262 0.333161,-1.19693 0.733801,-1.50987 0.210571,-0.16458 0.590891,-0.10938 0.846669,-0.18347 v -0.254 c -0.161459,-0.0892 -0.315129,-0.23257 -0.508,-0.254 -0.946568,-0.10516 -1.862669,1.30497 -1.862669,2.11667 -0.31174,-0.0246 -0.547791,-0.21251 -0.846659,-0.254 -0.307602,-0.0428 -0.706721,-0.0301 -1.016,0 -0.21159,0.0206 -0.387691,0.12319 -0.57853,-0.0282 -0.20202,-0.16018 -0.32013,-0.51358 -0.451612,-0.7338 -0.474559,-0.79467 -1.072309,-2.11667 -2.102529,-2.11667 0.0393,-0.21336 0.10643,-0.38497 0.0141,-0.59266 -0.0668,-0.1502 -0.17484,-0.29981 -0.28228,-0.42334 -0.0678,-0.078 -0.14757,-0.1745 -0.23986,-0.22581 -0.64922,-0.36059 -0.59639,0.44409 -0.70553,0.81848 -0.14435,0.4947 -0.0985,0.91466 0.5362,0.93133 m -14.478,-0.59266 -0.59267,0.127 -1.32647,1.651 -0.7902,1.22766 -1.016,-0.0423 -1.35466,0.33867 c 0,-0.60333 -0.21302,-0.85954 -0.5362,-1.35467 -0.12005,-0.18389 -0.21454,-0.4318 -0.39514,-0.56447 -0.4659204,-0.34213 -1.2495904,-0.42959 -1.4393304,0.2258 0.26509,0.0767 0.63204,10e-4 0.84667,0.16934 0.8757904,0.68537 0.4583004,2.09279 1.4393304,2.61053 0.98975,0.52239 1.75065,0.14299 2.62467,-0.36687 0.18482,-0.10786 0.41232,-0.11962 0.59266,-0.23986 0.50267,-0.3351 0.92804,-0.89984 1.35467,-1.32647 0.5577,-0.5577 1.25078,-1.0342 1.18533,-1.86267 0.71764,-0.0189 0.68411,-0.56837 0.5362,-1.10066 -0.0477,-0.17204 -0.0517,-0.52527 -0.21167,-0.635 -0.18229,-0.12513 -0.43789,0.0282 -0.57853,0.14113 -0.33578,0.26959 -0.59791,0.62298 -0.33866,1.00187 m 0.16933,0.16933 -0.0847,0.0847 0.0847,-0.0847 m 14.81667,0 -0.0847,0.0847 0.0847,-0.0847 m -12.446,1.73567 c -0.35366,0.2087 -0.11464,0.83516 -0.0847,1.143 0.088,0.90551 0.2319,2.2026 1.10066,2.70933 0.4539,0.26484 1.02422,0.33359 1.524,0.45153 1.53086,0.36153 3.29515,0.36153 4.826,0 0.59166,-0.1397 1.26814,-0.19499 1.778,-0.56438 0.32013,-0.232 0.43655,-0.62909 0.5362,-0.98782 0.17018,-0.61265 0.39514,-1.21226 0.39514,-1.86266 0,-0.24832 0.1143,-0.78689 -0.16934,-0.90314 -0.26136,-0.1071 -0.6692,-0.0263 -0.93133,0.0283 -0.53831,0.11209 -1.06189,0.22902 -1.60867,0.2822 -0.70654,0.0687 -1.40775,0.18507 -2.11666,0.254 -0.29811,0.029 -0.5577,-0.0566 -0.84667,-0.0847 -0.65947,-0.0641 -1.29167,-0.0701 -1.94733,-0.19753 -0.27932,-0.0543 -0.57091,-0.0196 -0.84667,-0.0847 -0.4307,-0.10169 -1.17102,-0.44179 -1.60867,-0.18348 m 1.03014,4.572 c -0.21115,0.15197 -0.0509,0.52688 0,0.71966 0.18881,0.71544 0.54949,1.5213 0.98773,2.11668 1.25848,1.70959 3.42146,2.24553 5.1788,0.90314 0.78596,-0.60038 1.31911,-1.85066 1.63686,-2.76582 0.0831,-0.23909 0.41826,-0.87138 0.0565,-1.00186 -0.48565,-0.17517 -1.22072,0.19788 -1.69333,0.29633 -0.9663,0.20127 -1.96139,0.37966 -2.96333,0.28221 -0.80485,-0.0782 -1.57574,-0.39761 -2.37067,-0.508 -0.22538,-0.0313 -0.61976,-0.19558 -0.83253,-0.0423 m -6.36414,3.59834 c 0.0729,0.33722 0.23504,0.32461 0.47981,0.52214 0.18897,0.15248 0.32097,0.37219 0.53619,0.49386 0.43561,0.24621 1.01516,0.0634 1.15714,-0.42334 0.0599,-0.20531 -0.0284,-0.39056 -0.0565,-0.59266 -0.0293,-0.21091 -0.0589,-0.32555 -0.16933,-0.508 l -0.84667,0.39514 -1.10066,0.11286 m 5.334,5.41866 c -0.26704,-0.32774 -0.72644,-0.0676 -1.10067,-0.19752 -0.31056,-0.10787 -0.55516,-0.44061 -0.67733,-0.73381 -0.5522,-1.32537 1.45448,-2.24062 0.9878,-3.64067 -0.18635,-0.55897 -0.77969,-0.9922 -1.32647,-1.12886 -0.17425,-0.0436 -0.50487,-0.14359 -0.635,0.0423 -0.13623,0.19455 0.0473,0.6581 -0.0282,0.91718 -0.13581,0.46541 -0.62366,0.78157 -0.69147,1.27 -0.11244,0.80976 0.0753,1.86276 0.53619,2.54 0.63432,0.93202 1.88536,1.56677 2.93514,0.93134 m -5.67267,-4.79781 c -0.12649,0.0449 -0.20557,0.18356 -0.2258,0.31047 -0.0425,0.26695 0.0838,0.56524 0.0565,0.84667 -0.0246,0.25213 -0.12997,0.51858 -0.19753,0.762 -0.40513,1.45838 -1.2601,2.73058 -1.55228,4.23333 -0.14427,0.74219 0.1822,1.53856 1.07247,1.24181 2.01346,-0.67116 1.89586,-3.15434 2.21548,-4.79781 0.0889,-0.4572 0.52129,-0.96622 0.49386,-1.43933 -0.0182,-0.3142 -0.37279,-0.32445 -0.59267,-0.43748 -0.37304,-0.19168 -0.77013,-0.89704 -1.27,-0.71966 m 8.55133,0.31047 c 0,0.6698 -0.13038,1.27567 0.0282,1.94733 0.29913,1.2667 1.86758,2.39209 3.10448,1.49581 0.46524,-0.33714 0.77106,-1.12082 0.84666,-1.66514 0.056,-0.40361 0.0847,-0.77394 0.0847,-1.18533 0,-0.15452 0.0362,-0.38049 -0.0988,-0.49386 -0.17543,-0.14741 -0.93836,0.2501 -1.17119,0.32452 -1.05901,0.33825 -1.80501,-0.42333 -2.794,-0.42333 m -0.0847,3.21733 c -0.36153,0.65414 -0.778,1.29735 -1.15714,1.94734 -0.13183,0.22597 -0.29735,0.48929 -0.28219,0.762 0.0539,0.96918 1.46278,1.83413 2.37066,1.59452 0.6698,-0.17669 1.11371,-1.13394 1.43934,-1.67919 0.21225,-0.35543 0.7631,-1.28778 0.39513,-1.67919 -0.19727,-0.20989 -0.50181,-0.0335 -0.7338,-0.0141 -0.22843,0.019 -0.54983,-0.0416 -0.762,-0.127 -0.49903,-0.201 -0.73161,-0.76183 -1.27,-0.80434 m -9.82134,4.48734 c 0.0873,0.41478 0.36399,0.52798 0.67734,0.77614 0.77978,0.6173 1.90906,1.13978 2.87866,1.36872 0.31573,0.0746 0.86902,0.30937 1.18534,0.21166 0.19312,-0.0596 0.26009,-0.23774 0.33866,-0.40919 0.27712,-0.60452 0.22352,-1.21581 -0.254,-1.69333 -0.3208,-0.3208 -0.74066,-0.37093 -1.10066,-0.62086 -0.38693,-0.26874 -1.08983,-1.47193 -1.66514,-1.11481 -0.3153,0.19567 -0.49259,0.62518 -0.7902,0.86081 -0.39547,0.31309 -0.8299,0.40081 -1.27,0.62086 m 7.36601,-1.32648 c -0.5881,0.12252 -1.12819,0.47888 -1.60867,0.83262 -0.1259,0.0926 -0.30235,0.18254 -0.381,0.32452 -0.21429,0.38685 0.24773,0.84159 0.3528,1.18534 0.11456,0.37507 -0.52967,1.22123 0.0282,1.35466 0.0991,0.0237 0.23631,0 0.33867,0 0.11633,0 0.22428,-0.004 0.33867,-0.0282 0.89255,-0.18601 1.72982,-0.43324 2.54,-0.86081 0.31199,-0.16467 0.78079,-0.3578 0.90314,-0.71966 0.0548,-0.16205 0.0207,-0.35941 -0.0847,-0.49386 -0.21751,-0.27763 -0.62281,-0.4081 -0.889,-0.635 -0.32597,-0.27788 -0.55787,-0.75167 -0.94548,-0.94548 -0.16713,-0.0836 -0.41732,-0.0506 -0.59266,-0.0141 z"
       style="fill:#000000;stroke:none;stroke-width:0.0846667" />
  </g>
</svg>
