<?xml version="1.0" encoding="UTF-8" standalone="no"?>
<svg
   xmlns:dc="http://purl.org/dc/elements/1.1/"
   xmlns:cc="http://creativecommons.org/ns#"
   xmlns:rdf="http://www.w3.org/1999/02/22-rdf-syntax-ns#"
   xmlns:svg="http://www.w3.org/2000/svg"
   xmlns="http://www.w3.org/2000/svg"
   xmlns:sodipodi="http://sodipodi.sourceforge.net/DTD/sodipodi-0.dtd"
   xmlns:inkscape="http://www.inkscape.org/namespaces/inkscape"
   sodipodi:docname="shieldbug.svg"
   inkscape:version="1.0 (4035a4fb49, 2020-05-01)"
   id="svg207"
   version="1.1"
   viewBox="0 0 47.582741 58.772293"
   height="58.772293mm"
   width="47.582741mm">
  <defs
     id="defs201" />
  <sodipodi:namedview
     inkscape:window-maximized="1"
     inkscape:window-y="0"
     inkscape:window-x="0"
     inkscape:window-height="1144"
     inkscape:window-width="1920"
     fit-margin-bottom="0"
     fit-margin-right="0"
     fit-margin-left="0"
     fit-margin-top="0"
     showgrid="false"
     inkscape:document-rotation="0"
     inkscape:current-layer="layer1"
     inkscape:document-units="mm"
     inkscape:cy="-243.21995"
     inkscape:cx="458.49157"
     inkscape:zoom="0.35"
     inkscape:pageshadow="2"
     inkscape:pageopacity="0.0"
     borderopacity="1.0"
     bordercolor="#666666"
     pagecolor="#ffffff"
     id="base" />
  <metadata
     id="metadata204">
    <rdf:RDF>
      <cc:Work
         rdf:about="">
        <dc:format>image/svg+xml</dc:format>
        <dc:type
           rdf:resource="http://purl.org/dc/dcmitype/StillImage" />
        <dc:title></dc:title>
      </cc:Work>
    </rdf:RDF>
  </metadata>
  <g
     transform="translate(15.475894,-212.51861)"
     id="layer1"
     inkscape:groupmode="layer"
     inkscape:label="Layer 1">
    <path
       id="path3550"
       d="m -3.7918946,212.57325 c 0.14308,0.48123 0.778,0.48498 1.18533,0.67734 0.80196,0.3787 1.54407,0.92678 2.28600003,1.41111 0.20929,0.13663 0.47354,0.16938 0.67733,0.31044 0.2838,0.1965 0.49073,0.52671 0.76199997,0.74789 0.45542,0.37132 1.00466,0.64299 1.43933,1.03008 0.42749,0.38075 0.72687,1.01973 1.0442,1.49581 0.24147,0.3622 0.59969,0.64093 0.81847,1.016 0.25662,0.43993 0.43849,0.91762 0.70553,1.35467 0.12539,0.20514 0.33384,0.37956 0.43747,0.59266 0.11413,0.2347 -0.01,0.51876 0.0847,0.762 0.23122,0.59453 0.66861,1.11303 0.70552,1.778 0.0268,0.4832 -0.46329,1.17518 -0.77605,1.50987 -0.51342,0.5494 -1.35526,0.9635 -1.72161,1.6228 -0.28338,0.5102 -0.0809,1.09237 -0.31039,1.60867 -0.28575,0.64287 -0.90407,1.08356 -1.397,1.55219 -0.28626,0.27221 -0.54635,0.61714 -0.94547,0.73381 -0.45050997,0.13165 -1.11353997,-0.33698 -1.52399997,-0.508 -0.92845003,-0.38684 -1.81432003,-0.82254 -2.70933003,-1.27 -0.44306,-0.22149 -0.95487,-0.41157 -1.35467,-0.70553 -0.44492,-0.32724 -0.254,-1.25264 -0.254,-1.74981 0,-1.00694 0.12776,-1.9657 0.16933,-2.96333 0.0135,-0.32224 0.21387,-0.72424 -0.0141,-1.016 -0.266269,-0.34087 -0.738459,-0.20938 -1.0865194,-0.33867 0.1452004,-0.36787 -0.1082899,-0.54347 -0.31048,-0.84666 -0.17051,-0.25578 -0.3129201,-0.54221 -0.5361901,-0.762 -0.3594899,-0.35391 -0.71213,-0.54517 -0.9736698,-1.016 -0.1857502,-0.33435 -0.1998102,-0.88164 -0.635,-0.93134 0,0.6461 -0.3163102,0.59267 -0.8466601,0.59267 0.1485001,0.47244 0.9208299,0.61502 1.2841399,0.95953 0.31149,0.2954 0.3136,0.68546 0.5926601,0.9878 0.35052,0.37982 0.93405,0.62213 1.24172,1.016 0.1452901,0.18593 0.2521399,0.69436 0.3246204,0.93134 0.15858,0.519 -0.006,1.17483 -0.0565,1.69333 -0.0794,0.81712 -0.0899,1.63881 -0.16934,2.45533 -0.0481,0.49471 -0.37769,1.12031 -0.0847,1.60867 0.30108,0.50174 1.18822,0.78444 1.69334,1.016 0.63254,0.2899 1.18474,0.7946 1.778,1.15714 0.32554,0.19888 1.19016,0.53518 1.25586,0.95953 0.0653,0.42105 -0.95055,0.68427 -1.25586,0.74786 -0.88121,0.18364 -1.87766,0.34493 -2.70934,0.69147 -0.5069001,0.21124 -1.00584,0.41038 -1.27,0.93133 -0.2003999,0.39531 0.003,0.73407 0.254,1.0442 0.44874,0.5538 1.0657,0.95809 1.50986,1.49581 0.21108,0.25552 0.32707,0.98298 0.0706,1.25586 -0.24502,0.2606 -0.71467,0.0222 -0.9878,-0.0423 -0.42308,-0.0998 -1.28956,-0.14647 -1.5804699,0.22581 -0.32267,0.413 -0.4395902,0.96791 -0.64906,1.43933 -0.28981,0.65194 -0.61307,1.30329 -0.91728,1.94734 -0.20032,0.42434 -0.5245902,0.77318 -0.7478601,1.18534 -0.6182299,1.14138 -1.1369004,2.28142 -2.0178604,3.24553 -0.10228,0.11183 -0.11083,0.2738 -0.21167,0.381 -0.13538,0.14384 -0.38921,0.13427 -0.56447,0.1976 -0.32783,0.11836 -0.711619,0.25612 -1.016,0.42334 -0.38786,0.21301 -0.57602,0.63931 -1.016,0.80433 -0.38159,0.14309 -1.23081,0.0687 -1.35466,0.45152 0.58249,0.10728 0.63444,0.31742 0.59266,0.84668 0.63049,-0.13276 0.91416,-0.82162 1.43934,-1.15715 0.16446,-0.10507 0.33121,-0.0846 0.508,-0.14105 0.25874,-0.0826 0.53627,-0.27288 0.762,-0.42333 0.21776,-0.14521 0.46736,-0.31971 0.64913,-0.508 0.0964,-0.10001 0.16417,-0.29558 0.29634,-0.35281 0.1662,-0.0721 0.32563,0.127 0.49386,0.127 0.1883,0 0.44543,-0.17645 0.59267,-0.28219 0.5771699,-0.41461 0.98475,-1.3887 1.3264699,-2.00381 0.6419401,-1.15562 1.2410401,-2.35923 1.8061901,-3.556 0.1680699,-0.35594 0.5102,-1.13504 0.9313399,-1.24181 0.1997202,-0.0506 0.48827,0.0834 0.6773305,0.14115 0.51105,0.15612 1.09821,0.33374 1.25586,0.93132 0.15079,0.57142 0.0141,1.35518 0.0141,1.94734 0,1.48066 -0.0674,3.0303 0.15519,4.48734 0.0947,0.61967 0.0263,1.32969 -0.0423,1.94732 -0.0231,0.20846 -10e-4,0.41157 -0.127,0.59268 -0.27567,0.39708 -0.71568,0.66598 -1.08652,0.95953 -0.3440898,0.27244 -0.6273799,0.61678 -0.9595299,0.90313 -0.32072,0.27652 -0.8148299,0.59901 -0.9596099,1.016 -0.1572302,0.45288 0.017899,1.05063 -0.0282,1.524 -0.0385,0.3959 -0.13081,0.78943 -0.1693399,1.18534 -0.0743,0.7647 0.0847,1.5367 0.0847,2.286 0,0.55193 -0.1309802,1.14121 -0.1693302,1.69332 -0.021399,0.30844 0.0859,0.62883 0.0565,0.93134 -0.0912,0.93769 -0.19363,1.95986 -0.4233302,2.87866 -0.1129498,0.45178 -0.5516099,0.61257 -0.56448,1.10068 0.2211501,0.0233 0.4591502,0.20675 0.6773402,0.15518 0.45965,-0.10845 0.6236499,-0.60883 0.7055199,-1.00186 0.15342,-0.73626 0.2379199,-1.45482 0.3104801,-2.20132 0.14689,-1.51114 0.508,-3.04437 0.508,-4.572 0,-0.94488 -0.25087,-2.36839 0.2398598,-3.21734 0.1303002,-0.22539 0.38828,-0.25265 0.6068001,-0.35281 0.47253,-0.21658 0.90611,-0.49385 1.43934,-0.49385 0.0237,0.90034 0.39294,1.82744 0.56447,2.70932 0.0486,0.25002 -0.0149,0.51749 0.0564,0.762 0.34409,1.17949 0.62586,2.38557 1.016,3.556 0.44103,1.323 1.25180003,2.53705 1.96147003,3.72534 1.07425,1.79875 2.36278997,3.52382 3.76766997,5.08 0.77394,0.85725 1.89179,1.86622 2.96333,2.34247 2.21183,0.98298 4.9043216,0.45373 6.6886716,-1.15713 0.87604,-0.79088 1.792139,-1.59792 2.5118,-2.54 2.394969,-3.1353 3.610269,-6.88189 4.741339,-10.58334 0.308009,-1.00821 0.475821,-2.0911 0.635,-3.13266 0.0423,-0.27729 0.102021,-0.93354 0.409191,-1.05834 0.181269,-0.0737 0.51325,0.17653 0.677328,0.254 0.631452,0.2982 1.232411,0.38625 1.411142,1.143 0.196178,0.83108 -0.0543,1.77657 0.0282,2.62466 l 0.338658,3.556 c 0.0583,0.59919 0.254,1.17069 0.254,1.778 0,0.28414 0.0771,0.49115 0.141142,0.762 0.14436,0.61138 0.202859,2.11887 1.21353,1.69334 l 0.95953,1.86266 0.81847,0.84668 0.508,1.12885 0.423328,-0.49385 0.592672,-0.0423 c -0.1099,-0.50843 -0.99754,-0.76971 -1.354672,-1.18534 -0.22733,-0.26458 -0.22656,-0.62543 -0.451519,-0.90314 -0.227161,-0.28024 -0.47371,-0.54322 -0.762,-0.762 -0.119891,-0.0908 -0.275,-0.14376 -0.352809,-0.28219 -0.10651,-0.18931 -0.008,-0.4009 -0.141142,-0.59267 -0.145198,-0.20904 -0.378288,-0.34103 -0.465669,-0.59266 -0.0659,-0.18974 -1.59e-4,-0.3998 -0.0564,-0.59267 -0.17467,-0.59885 -0.165362,-1.15655 -0.225811,-1.778 -0.02289,-0.23487 -0.146471,-0.44247 -0.169331,-0.67733 -0.18805,-1.93387 0.0186,-3.90873 -0.169338,-5.842 -0.0567,-0.58361 0.075,-1.20913 -0.0988,-1.778 -0.117009,-0.38312 -0.61663,-0.70121 -0.90306,-0.95953 -0.46092,-0.41563 -0.886799,-0.86284 -1.368801,-1.25595 -0.22488,-0.1833 -0.485568,-0.328 -0.649139,-0.57852 -0.148511,-0.22759 -0.112861,-0.50326 -0.112861,-0.762 0,-0.65134 0.17839,-1.29769 0.169331,-1.94734 -0.008,-0.58716 -0.112519,-1.19354 -0.169331,-1.778 -0.103629,-1.06629 0.019,-2.15155 -0.0847,-3.21733 -0.0587,-0.60359 -0.476081,-1.64736 0.169331,-2.07433 0.245538,-0.16248 1.084408,-0.46245 1.34053,-0.26814 0.496398,0.37659 0.748448,1.21606 1.030139,1.7498 0.657609,1.24604 1.248659,2.50817 1.97553,3.72534 0.36254,0.60706 0.85852,1.79832 1.749801,1.43933 0.105748,-0.0426 0.317,-0.0814 0.381,-0.18347 0.118448,-0.18873 -0.0984,-0.37211 -0.211662,-0.49386 -0.37779,-0.40598 -0.7024,-0.8769 -0.987808,-1.35467 -0.304972,-0.51071 -0.52705,-1.08331 -0.804331,-1.60867 -0.20642,-0.39116 -0.53594,-0.70502 -0.733721,-1.10066 -0.263988,-0.52799 -0.511638,-1.0784 -0.762,-1.60867 -0.29354,-0.62162 -0.493358,-1.63551 -1.03014,-2.08847 -0.498599,-0.42063 -1.23004,-0.12937 -1.778,0 -0.32004,0.0756 -0.679198,0.0874 -0.81848,-0.2822 -0.429509,-1.14003 0.4186,-1.5897 0.95962,-2.45533 0.12987,-0.20777 0.18288,-0.46245 0.29633,-0.67734 0.240372,-0.45542 0.68648,-1.09609 0.21167,-1.58047 -0.44332,-0.45212 -1.419609,-0.47938 -2.003809,-0.53619 -0.796369,-0.0774 -1.599689,-0.34349 -2.370669,-0.5362 -0.297852,-0.0745 -0.53975,-0.25391 -0.846662,-0.31047 v -0.254 c 0.466932,-0.13513 0.956652,-0.53094 1.354662,-0.81847 0.64398,-0.46508 1.333759,-0.84057 2.032,-1.19939 0.366609,-0.18847 1.008888,-0.43984 1.157139,-0.86081 0.192699,-0.54745 -0.0924,-1.32215 -0.197609,-1.86266 -0.173652,-0.8934 -0.0437,-1.81864 -0.254,-2.70934 -0.101682,-0.43078 0.01331,-0.86868 0.169328,-1.27 0.0629,-0.16162 0.23555,-0.40843 0.0423,-0.55033 -0.3429,-0.25197 -1.099992,-0.0657 -1.171202,0.381 -0.0802,0.50292 0.120571,1.10727 0.169342,1.60867 0.0754,0.77631 -0.0108,1.59021 0,2.37066 0.005,0.3788 0.227409,0.90509 0.0423,1.27 -0.225719,0.44518 -0.909231,0.62561 -1.312329,0.86081 -0.606811,0.35391 -1.225211,0.60037 -1.862671,0.87486 -0.672,0.28931 -1.334519,0.71289 -2.032,0.94547 -0.47329,0.15774 -0.882309,-0.0648 -1.27,-0.29633 -0.771139,-0.46059 -1.56168,-0.90475 -1.91914,-1.79214 -0.209971,-0.52138 0.01479,-1.12073 -0.31039,-1.60867 -0.362371,-0.54356 -1.052061,-0.78714 -1.467611,-1.28413 -0.33502,-0.40073 -0.6228896,-1.0939 -0.7619996,-1.59453 -0.1557,-0.56075 0.5028396,-1.16188 0.6209496,-1.69334 0.041,-0.18465 -0.0883,-0.41698 -0.0141,-0.57852 0.10786,-0.23504 0.40987,-0.45068 0.550329,-0.69148 0.237742,-0.40758 0.397,-0.87155 0.635,-1.27 0.18161,-0.30403 0.481751,-0.55634 0.69147,-0.84666 0.361281,-0.50021 0.694521,-1.04233 1.072391,-1.524 0.32893,-0.41919 0.915421,-0.63416 1.32647,-0.95953 0.336219,-0.26618 0.58937,-0.63254 0.931341,-0.88903 0.35001,-0.26253 0.807379,-0.4339 1.185328,-0.64911 0.551691,-0.31417 1.036572,-0.77406 1.608672,-1.04422 0.44373,-0.20954 1.287518,-0.26545 1.439328,-0.77611 l -1.693328,0.43744 -0.338672,0.28222 -1.778,0.83256 -0.592669,0.62089 -1.016,0.40922 -0.903137,0.80432 -0.366861,0.56448 -1.157139,0.95952 -0.536192,1.18534 -0.81847,0.93133 -0.6490596,1.43933 -0.36694,0.26814 -0.465669,0.7902 -1.001861,-0.2822 -0.931329,0.32453 c -0.103381,-0.39294 -0.387521,-0.97561 -0.67734,-1.27 -0.118781,-0.12065 -0.291501,-0.18957 -0.381001,-0.33867 -0.213859,-0.35653 -0.286589,-0.81457 -0.508,-1.18533 -0.262459,-0.4395 -0.69257,-0.74117 -0.945469,-1.18533 -0.21962,-0.38566 -0.28914,-0.82499 -0.564391,-1.18534 -0.17703,-0.23173 -0.40877,-0.48217 -0.64914,-0.64914 -0.18999,-0.13191 -0.41334,-0.1772 -0.56447,-0.36686 -0.2496,-0.31328 -0.3937,-0.65416 -0.70553,-0.93133 -0.44602,-0.39644 -1.08253897,-0.41614 -1.52399997,-0.77611 -0.13572,-0.11067 -0.20997,-0.27636 -0.33866,-0.39511 -0.30209,-0.27889 -0.74058,-0.49642 -1.10067,-0.69145 -0.30065003,-0.16287 -0.64287003,-0.1786 -0.93133003,-0.36688 -0.48768,-0.31833 -1.35873,-0.88144 -1.94733,-0.64912 m 27.4319906,5.92667 c -0.0951,0.51621 -0.38472,1.2369 -0.776139,1.59453 -0.11557,0.10566 -0.27381,0.11625 -0.39505,0.21166 -0.397851,0.31302 -1.052322,1.15757 -0.94547,1.66514 0.616289,-0.16222 1.23308,-0.65422 1.59452,-1.18533 0.0996,-0.1463 0.0291,-0.2551 0.0847,-0.39514 0.0638,-0.16095 0.311409,-0.33773 0.43747,-0.45153 0.36576,-0.3302 0.94116,-0.43594 1.185338,-0.84666 -0.43307,-0.18237 -0.8294,0.0644 -0.846669,-0.59267 h -0.338668 m -17.8646626,8.382 c 0,0.23614 0.0156,0.45593 -0.0705,0.67733 -0.10312,0.26501 -0.7449,1.13513 -1.00195,0.508 -0.16543,-0.40377 0.23851,-1.1391 0.64914,-1.2418 0.12794,-0.0319 0.29718,0.0333 0.42334,0.0565 m 4.4026596,0.0141 c 0.61054,-0.21023 1.18407,1.13233 0.59267,1.32639 -0.45322,0.14876 -0.74727,-0.47871 -0.762,-0.83253 -0.008,-0.18102 -0.0385,-0.42232 0.16933,-0.49386 m 9.652002,6.77333 c 0.660659,-0.10092 1.521888,0.27974 1.241808,1.08653 -0.0836,0.24071 -0.310808,0.49015 -0.479808,0.67734 -0.72449,0.80248 -1.649471,1.28701 -2.624662,1.69334 -0.562189,0.23418 -1.099478,0.58529 -1.693338,0.73379 -0.71949,0.17984 -1.35246,-0.14088 -2.032,-0.22579 -1.27186,-0.15902 -2.530261,-0.38354 -3.810002,-0.508 -0.7068796,-0.0687 -1.3448396,0.10253 -2.0319996,0.16932 -0.64304,0.0625 -1.30429,-0.0625 -1.94733,0 -0.99187,0.0964 -1.97045,0.24216 -2.96333,0.33868 -0.75506,0.0734 -1.59224,0.46362 -2.37067,0.22579 -0.39310997,-0.12013 -0.82905997,-0.34256 -1.18532997,-0.55032 -1.19880003,-0.69936 -2.66946003,-0.64042 -3.89467003,-1.27 -0.34163,-0.1756 -1.02294,-0.7466 -0.889,-1.19947 0.16663,-0.56338 1.01685,-0.5991 1.48167,-0.59268 0.2573,0.004 0.43502,0.10813 0.67733,0.15521 0.72475,0.14097 1.4053,0.28641 2.11667003,0.49394 0.48691,0.14199 1.02472,0.12174 1.524,0.22572 0.51197997,0.10668 1.00676997,0.0908 1.52399997,0.14113 0.31284,0.0304 0.61849,0.13895 0.93133,0.16934 1.20184,0.11684 2.45034,0.0496 3.64067,0 1.11997,-0.0467 2.2716,0.10838 3.3866596,0 1.13318,-0.11015 2.275421,-0.25357 3.386671,-0.42334 0.329689,-0.0504 0.693081,-0.0367 1.016,-0.11285 0.80958,-0.19118 1.657601,-0.27534 2.455331,-0.508 0.834818,-0.2435 1.675389,-0.5876 2.54,-0.71968 m -22.3519916,4.23334 c 0.26001,-0.0513 0.51257,0.075 0.762,0.127 0.76149003,0.15858 1.56328003,0.39624 2.28599003,0.67733 0.29066,0.11303 0.62974997,0.18796 0.83252997,0.45153 0.55829,0.72576 -0.81787997,0.99467 -0.49385997,1.60867 0.63237997,1.1982 1.56302997,2.28633 2.34246997,3.38666 1.03836,1.46592 2.07705,2.94107 3.13267,4.40267 0.57734,0.79951 1.07696,1.64905 1.63686,2.45533 0.26509,0.38176 0.61112,0.8858 1.10067,0.98781 0.3727,0.0776 0.70671,-0.28719 0.90314,-0.56447 0.5300896,-0.74846 0.9102496,-1.60342 1.4110486,-2.37067 1.155282,-1.76979 2.223431,-3.58326 3.414953,-5.334 0.416388,-0.61188 0.80535,-1.22012 1.171189,-1.86267 0.23749,-0.41707 0.552201,-0.87002 0.649139,-1.35466 0.113112,-0.56574 -0.964858,-0.64634 -0.747948,-1.27 0.107699,-0.30955 0.45289,-0.41589 0.733809,-0.49387 0.732451,-0.20345 1.462021,-0.50283 2.201331,-0.67733 0.282199,-0.0666 0.675388,-0.17213 0.903139,0.0847 0.19313,0.21785 0.112861,0.6499 0.112861,0.91719 0,0.87148 -0.0505,1.68402 -0.169331,2.54 -0.0613,0.44145 -0.02241,0.92058 -0.112861,1.35467 -0.10863,0.52138 -0.303948,1.01786 -0.451609,1.524 -0.155279,0.53238 -0.188471,1.14436 -0.310391,1.69333 -0.244599,1.10076 -0.646258,2.14317 -0.959609,3.21735 -0.258911,0.88789 -0.464309,1.81634 -0.762,2.70932 -0.0995,0.29845 -0.0929,0.65515 -0.310391,0.90315 -0.251878,0.28709 -0.66489,0.45626 -0.987808,0.64904 -0.84505,0.50471 -1.697821,0.97875 -2.54,1.48167 -0.39192,0.2341 -1.15324,0.49462 -1.227662,1.03014 -0.0596,0.42892 0.630002,1.11354 0.860801,1.43933 0.875461,1.23598 1.840399,2.37965 2.68106,3.64068 0.30294,0.4544 0.795951,0.92379 0.62094,1.524 -0.21971,0.75319 -0.758269,1.5709 -1.213609,2.20132 -1.13877,1.57684 -2.60621,3.62196 -4.600192,4.12048 -0.19702,0.0492 -0.3940396,0.009 -0.5926696,0.0282 -0.23486,0.0229 -0.44247,0.14648 -0.67733,0.16934 -0.62764,0.0611 -1.56972,-0.23994 -2.11667,-0.53619 -0.60918,-0.32995 -1.04123,-0.8437 -1.524,-1.32647 -0.78266,-0.78266 -1.56345,-1.56718 -2.22953,-2.45534 -0.24257,-0.32334 -0.40259,-0.68783 -0.635,-1.016 -0.3832,-0.54102 -0.93175,-1.06206 -0.66328,-1.778 0.21303,-0.56794 0.66548,-1.07934 0.95962,-1.60866 0.61154,-1.10092 1.33096,-2.13801 1.97552,-3.21734 0.21616,-0.36195 0.93726,-1.06832 0.80434,-1.524 -0.13589,-0.46593 -0.76048,-0.55678 -1.143,-0.70552 -0.46296,-0.1801 -0.90289,-0.42799 -1.35467,-0.635 -0.55355,-0.25376 -1.24748,-0.50699 -1.66514,-0.97367 -0.35594,-0.39785 -0.28075,-0.92676 -0.39505,-1.41115 -0.0888,-0.37592 -0.25552997,-0.73608 -0.36694997,-1.10066 -0.1016,-0.33274 -0.0628,-0.68437 -0.14105,-1.016 -0.11464,-0.48539 -0.25265,-0.95539 -0.36695,-1.43934 -0.65151,-2.75928 -2.05858003,-5.28717 -2.70933003,-8.04333 -0.15257,-0.64634 -0.41487,-1.37134 -0.45153,-2.03199 -0.016,-0.28863 0.13632,-0.52197 0.42334,-0.57853 m 30.7339916,8.53719 c -0.18973,0.45068 0.165359,0.56176 0.508,0.79019 0.2507,0.16713 0.479639,0.40453 0.762,0.52215 0.42224,0.17593 0.736179,0.22123 1.100669,0.55032 0.327491,0.29567 0.513249,0.68166 0.931331,0.84668 l -0.0141,-0.56448 0.606809,-0.36686 v -0.16934 l -1.524,-0.33866 -0.677328,-0.635 -1.693341,-0.635 m -39.623991,21.16666 0.59266,0.0423 0.33867,0.55034 h 0.16933 c 0.3188599,-0.50487 0.3737197,-1.13919 0.7901998,-1.60867 0.1334299,-0.15037 0.32698,-0.19533 0.46566,-0.33867 0.4403501,-0.455 0.86081,-1.14791 0.86081,-1.778 -0.5221398,0.15113 -1.3117399,0.8592 -1.5663299,1.35467 -0.1919401,0.37346 -0.2143,0.60935 -0.5503399,0.93133 -0.32046,0.30717 -0.92676,0.45246 -1.10066,0.84667 z"
       style="fill:#000000;stroke:none;stroke-width:0.0846667" />
  </g>
</svg>
