<?xml version="1.0" encoding="UTF-8" standalone="no"?>
<svg
   xmlns:dc="http://purl.org/dc/elements/1.1/"
   xmlns:cc="http://creativecommons.org/ns#"
   xmlns:rdf="http://www.w3.org/1999/02/22-rdf-syntax-ns#"
   xmlns:svg="http://www.w3.org/2000/svg"
   xmlns="http://www.w3.org/2000/svg"
   xmlns:sodipodi="http://sodipodi.sourceforge.net/DTD/sodipodi-0.dtd"
   xmlns:inkscape="http://www.inkscape.org/namespaces/inkscape"
   sodipodi:docname="tick.svg"
   inkscape:version="1.0 (4035a4fb49, 2020-05-01)"
   id="svg248"
   version="1.1"
   viewBox="0 0 57.743046 54.267517"
   height="54.267517mm"
   width="57.743046mm">
  <defs
     id="defs242" />
  <sodipodi:namedview
     inkscape:window-maximized="1"
     inkscape:window-y="0"
     inkscape:window-x="0"
     inkscape:window-height="1144"
     inkscape:window-width="1920"
     fit-margin-bottom="0"
     fit-margin-right="0"
     fit-margin-left="0"
     fit-margin-top="0"
     showgrid="false"
     inkscape:document-rotation="0"
     inkscape:current-layer="layer1"
     inkscape:document-units="mm"
     inkscape:cy="-366.01864"
     inkscape:cx="20.549292"
     inkscape:zoom="0.35"
     inkscape:pageshadow="2"
     inkscape:pageopacity="0.0"
     borderopacity="1.0"
     bordercolor="#666666"
     pagecolor="#ffffff"
     id="base" />
  <metadata
     id="metadata245">
    <rdf:RDF>
      <cc:Work
         rdf:about="">
        <dc:format>image/svg+xml</dc:format>
        <dc:type
           rdf:resource="http://purl.org/dc/dcmitype/StillImage" />
        <dc:title></dc:title>
      </cc:Work>
    </rdf:RDF>
  </metadata>
  <g
     transform="translate(-100.39633,-245.0091)"
     id="layer1"
     inkscape:groupmode="layer"
     inkscape:label="Layer 1">
    <path
       id="path3612"
       d="m 138.75072,245.58752 -0.254,0.0847 v 0.16933 c 0.52705,0.22191 1.07662,0.10426 1.60867,0.45156 0.59597,0.38903 0.74481,0.93882 1.10066,1.49578 0.49691,0.77781 1.0685,1.51801 1.58048,2.286 0.20049,0.30082 0.34366,0.64236 0.56438,0.93133 0.27263,0.35687 0.63035,0.67733 0.98781,0.94547 0.16214,0.12158 0.47862,0.27314 0.52214,0.49386 0.0359,0.18204 -0.1778,0.44019 -0.254,0.59267 -0.18889,0.37778 -0.38938,0.76733 -0.49395,1.18533 -0.0648,0.25925 -0.0677,0.54856 -0.29633,0.73381 -0.32503,0.2634 -1.17627,0.1386 -1.59453,0.22572 -0.45093,0.094 -0.863,0.19448 -1.27,0.40928 -0.2247,0.11853 -0.58504,0.47718 -0.84666,0.46567 -0.26399,-0.0117 -0.2546,-0.39489 -0.508,-0.46567 -0.26518,-0.0741 -0.59318,0.15181 -0.84667,0.21167 -0.16739,0.0394 -0.34349,0.006 -0.508,0.0564 -1.05571,0.32258 -2.04715,0.9724 -3.13267,1.21362 -0.33917,0.0753 -0.58648,-0.22784 -0.93133,-0.11295 -0.47159,0.15723 -0.99737,0.80797 -1.524,0.70561 -0.26738,-0.052 -0.98315,-0.31293 -0.97367,-0.64914 0.007,-0.23334 0.32208,-0.56422 0.43748,-0.762 0.22259,-0.38167 0.4053,-0.83515 0.508,-1.27 0.0992,-0.42045 0.0282,-0.92371 0.0282,-1.35466 0,-0.47219 0.0456,-0.96969 0,-1.43934 -0.0931,-0.95758 -0.52239,-1.9326 -0.91719,-2.794 -0.32876,-0.71723 -0.67971,-1.53519 -1.53814,-1.69333 -0.31081,0.51356 -0.1397,1.21181 -0.0847,1.778 0.0435,0.44729 -0.0435,0.90737 0,1.35467 0.0706,0.72644 0.32546,1.51299 0.56447,2.20133 0.14682,0.42283 0.29828,0.85446 0.46567,1.27 0.0622,0.15452 0.21776,0.41927 0.16933,0.59267 -0.0745,0.26653 -0.3197,0.23681 -0.52214,0.16933 -0.37558,-0.12522 -0.99017,-0.37016 -1.2418,-0.69147 -0.27957,-0.35687 -0.0726,-1.07815 -0.19753,-1.50986 0.24401,-0.0706 0.78181,0.16281 0.889,-0.0847 0.11633,-0.26839 -0.33613,-0.71823 -0.45153,-0.93133 -0.40166,-0.74151 -0.31089,-1.57455 -0.46566,-2.37067 -0.049,-0.25186 -0.0909,-0.77432 -0.47981,-0.66322 -0.34679,0.0991 -0.22868,0.57178 -0.254,0.83255 -0.0645,0.6632 -0.22945,1.42427 -0.508,2.032 -0.1336,0.29143 -0.49869,0.60071 -0.508,0.93134 -0.0145,0.51418 0.42232,0.20591 0.67733,0.31047 0.18551,0.076 0.16705,0.28736 0.16934,0.45153 0.004,0.31064 0.0957,0.82922 -0.11286,1.08652 -0.20608,0.25434 -0.61866,0.32114 -0.90314,0.45162 -0.17873,0.0819 -0.56024,0.34205 -0.762,0.26805 -0.20921,-0.0767 -0.14046,-0.30353 -0.0705,-0.45153 0.17653,-0.37397 0.3843,-0.70392 0.52205,-1.10066 0.50792,-1.46279 0.6698,-2.87317 0.81848,-4.40267 0.0344,-0.35401 0.31504,-1.37308 -0.33867,-1.35467 -0.55135,0.0155 -1.15587,1.1828 -1.36881,1.60867 -0.2838,0.56761 -0.46092,1.18525 -0.69138,1.778 -0.14495,0.3727 -0.35586,0.78156 -0.39514,1.18533 -0.087,0.89459 0.0426,1.76183 0.28219,2.62467 0.14216,0.51164 0.2976,1.0353 0.508,1.524 0.0753,0.17501 0.31259,0.39184 0.254,0.59267 -0.11371,0.3898 -0.82067,0.68478 -1.12886,0.90314 -0.11625,0.0823 -0.26949,0.20904 -0.42333,0.18338 -0.31894,-0.0532 -0.54856,-0.48835 -0.84667,-0.62086 -0.3335,-0.14816 -0.64795,0.13657 -1.016,-0.0423 -0.30539,-0.14842 -0.54271,-0.41817 -0.84667,-0.57853 -0.94115,-0.49674 -2.02632,-1.11303 -3.048,-1.42528 -0.35111,-0.10727 -0.6151,0.17001 -0.93133,0.11295 -0.63551,-0.11481 -1.20929,-0.58564 -1.86267,-0.64914 -0.41588,-0.0405 -1.0861,0.15723 -1.43933,-0.0988 -0.27559,-0.19964 -0.37228,-0.54855 -0.52214,-0.83252 -0.24917,-0.47219 -0.6052,-0.88485 -0.84667,-1.35467 -0.0921,-0.17932 -0.38379,-0.47989 -0.381,-0.67733 0.003,-0.23106 0.31962,-0.36627 0.47981,-0.47981 0.37761,-0.26746 0.68944,-0.63297 1.016,-0.95953 0.50013,-0.50012 1.08712,-1.03174 1.49581,-1.60866 0.42028,-0.59338 0.87274,-1.38943 1.63686,-1.58045 0.49987,-0.12496 0.89001,0.12796 1.35466,0.22578 0.2253,-0.57084 -0.5185,-0.45932 -0.762,-0.84667 0.32089,0 0.49547,-0.0117 0.59267,-0.33866 -1.19507,-0.34595 -1.86292,0.28239 -2.794,0.90311 -1.40335,0.93556 -2.7719,1.91104 -4.064,3.00569 -0.58513,0.49573 -1.42782,1.64169 -1.07247,2.4412 0.56176,1.26399 1.90457,2.10041 2.93514,2.90686 0.19329,0.1513 0.28244,0.3672 0.45152,0.53628 0.23174,0.23164 0.60376,0.37329 0.90314,0.49386 0.67353,0.27127 1.41317,0.30065 2.11667,0.43747 0.18796,0.0365 0.41478,-0.0189 0.59267,0.0423 0.26678,0.0917 0.29836,0.4467 0.59266,0.55034 0.21091,0.0742 0.45839,0.0108 0.67734,0.0564 0.92507,0.19271 1.90474,0.45576 2.794,0.74795 0.41419,0.13606 0.13936,0.48328 0.3528,0.74786 0.18559,0.23021 0.56727,0.26187 0.83253,0.33867 -0.13741,0.20074 -0.31149,0.61121 -0.59267,0.635 -0.3611,0.0305 -0.61019,-0.43172 -1.016,-0.381 -0.19879,0.0249 -0.32529,0.16484 -0.508,0.2258 -0.19117,0.0637 -0.39996,-0.002 -0.59266,0.0564 -0.24808,0.0759 -0.43324,0.28558 -0.67734,0.36695 -0.18736,0.0624 -0.39937,0.0162 -0.59266,0.0564 -1.15621,0.24088 -2.32673,0.72653 -3.38667,1.24181 -0.34764,0.16899 -0.63026,0.52984 -1.016,0.62086 -0.30006,0.0709 -0.63458,-0.084 -0.93133,-0.11286 -0.32936,-0.032 -0.69444,0.0655 -1.016,-0.0282 -0.23182,-0.0677 -0.42876,-0.20168 -0.67734,-0.22581 -0.47616,-0.0463 -0.68927,0.26475 -1.10066,0.31047 -0.21599,0.024 -0.46,-0.11701 -0.67734,-0.14114 -0.66751,-0.0742 -1.35636,-0.28211 -1.94733,-0.6068 -0.51884,-0.28499 -0.57836,-1.00144 -0.79019,-1.50986 -0.17454,-0.41885 -0.46013,-0.72467 -0.70559,-1.10067 -0.17283,-0.26475 -0.13931,-0.59546 -0.31044,-0.84667 -0.48324,-0.70942 -1.33773,-1.17314 -2.17311,-0.93133 v 0.16933 l 0.84666,0.16934 v 0.0847 l -1.27,0.16934 c 0.0469,0.43383 0.32909,0.3048 0.67734,0.33866 0.44571,0.0434 0.94735,0.0665 1.17122,0.508 0.30437,0.60029 0.2296,1.39074 0.381,2.032 0.22588,0.95665 0.55367,1.77741 1.19944,2.52586 0.15952,0.18492 0.50089,0.15918 0.71967,0.18348 0.59089,0.0656 1.18559,0.0271 1.778,0.0847 0.22547,0.0219 0.64872,0.028 0.84667,0.127 0.28956,0.14478 0.41114,0.42664 0.762,0.46567 0.60274,0.067 1.34357,0.0587 1.94733,0 0.36474,-0.0355 0.66683,-0.22801 1.016,-0.31047 0.26856,-0.0634 0.50072,0.003 0.762,0.0283 0.33875,0.0329 0.69308,-0.11684 1.016,-0.19762 1.01422,-0.25349 1.963,-0.81635 2.87867,-1.31233 0.31064,-0.16823 0.62975,-0.32368 0.93133,-0.508 0.11659,-0.0712 0.28499,-0.23834 0.42333,-0.254 0.23707,-0.0267 0.52959,0.4108 0.57853,0.60681 0.0892,0.35687 -0.29261,0.8956 -0.46567,1.18533 -0.67784,1.13496 -2.19049,1.46973 -3.24552,2.17314 -0.86801,0.57861 -1.71289,1.14613 -2.54,1.778 -0.24638,0.18813 -0.53628,0.32046 -0.762,0.53619 -0.26416,0.25256 -0.17264,0.59242 -0.42334,0.81848 -0.28397,0.25594 -0.69096,0.45042 -1.016,0.64905 -0.80856,0.4942 -1.63262,1.01177 -2.37066,1.60867 -0.37423,0.30268 -0.0967,0.70104 -0.508,0.95961 -0.34383,0.21607 -0.81187,0.28931 -1.18534,0.46567 -0.57979,0.27381 -1.12643,0.59605 -1.69333,0.90305 -0.32908,0.17831 -0.88509,0.50936 -1.05833,0.86081 -0.0994,0.20159 0.0257,0.46643 0.0423,0.67733 -0.88451,0 -2.02214,0.42858 -2.794,0.84667 -0.31851,0.17255 -0.66434,0.47167 -1.016,0.56447 -0.45802,0.12082 -0.95857,-0.39514 -1.43933,-0.39514 l 0.67733,0.67733 c -0.17417,0.0504 -0.95114,0.0548 -0.71967,0.4092 0.0768,0.1176 0.2601,0.10185 0.381,0.127 0.38919,0.0811 0.78668,0.0565 1.18534,0.0565 1.02137,0 1.94107,-0.14664 2.87866,-0.55033 0.41819,-0.18009 0.77751,-0.49607 1.18534,-0.67734 0.33609,-0.14935 0.65767,0.14842 1.016,-0.0705 1.10464,-0.67505 2.15866,-1.66125 3.13266,-2.51181 0.23326,-0.20371 0.42588,-0.48616 0.67734,-0.66319 0.2137,-0.15054 0.44805,-0.0488 0.67733,-0.14114 0.40174,-0.1618 0.86411,-0.59902 1.18533,-0.889 0.51774,-0.46736 1.0403,-0.93464 1.524,-1.43934 0.19025,-0.19854 0.34163,-0.50766 0.59267,-0.635 0.21031,-0.10668 0.46296,0.0136 0.67733,-0.0847 0.28795,-0.132 0.51918,-0.41114 0.762,-0.60681 0.65388,-0.52671 1.2678,-1.12666 1.86267,-1.72153 0.19431,-0.19431 0.79019,-1.02048 1.08653,-0.74786 0.18559,0.17069 0.0678,0.45991 0.0283,0.6632 -0.10787,0.55456 -0.28296,1.08492 -0.49395,1.60866 -0.13631,0.3385 -0.19871,0.79985 -0.39505,1.10067 -0.18627,0.28524 -0.48751,0.455 -0.73381,0.67733 -0.42706,0.38549 -0.88477,0.81907 -1.24181,1.27 -0.71746,0.90628 -1.16603,1.85166 -1.651,2.87867 -0.24917,0.52773 -0.38785,1.06519 -0.60672,1.60867 -0.19109,0.4743 -0.41715,0.95487 0.11286,1.27 v 0.0847 c -0.31233,0.22903 -0.48878,0.66709 -0.66319,1.016 -0.3981,0.79621 -0.68758,1.63322 -1.03014,2.45534 -0.16984,0.40758 -0.48929,0.90551 -0.508,1.35466 -0.0165,0.3965 0.46101,0.52697 0.46567,0.84667 0.004,0.29752 -0.27102,0.7217 -0.35281,1.016 -0.17475,0.62933 -0.30395,1.29997 -0.36686,1.94733 -0.0591,0.60774 0,1.25163 0,1.86267 0,0.27466 -0.0134,0.6847 0.127,0.93133 0.13581,0.23859 0.42367,0.30921 0.52214,0.59267 0.14893,0.42901 -0.0154,0.99128 0.0282,1.43933 0.11803,1.21353 0.59242,2.3103 1.10067,3.38667 0.35535,0.75252 0.81018,1.41046 1.24181,2.11667 0.23207,0.37981 0.35119,0.80475 0.57852,1.18533 0.40674,0.68106 1.0541,1.04419 1.82034,1.18533 l -0.508,-0.84666 h 0.93133 l -0.762,-0.381 -1.08653,-0.97367 -0.26814,-1.35467 -0.45152,-3.048 -0.57862,-1.69333 -0.53619,-1.27 0.635,-0.67733 -0.254,-1.60867 -0.254,-2.87867 0.59267,-1.27 0.64914,-3.21733 0.40919,-1.86267 0.59267,-0.508 0.40919,-1.524 0.98781,-1.94733 h 0.16933 c 0.122,0.42139 0,0.75878 0,1.18533 0,1.05546 -0.10202,2.16755 0,3.21734 0.28533,2.93446 0.89442,5.91777 2.90686,8.21266 1.12556,1.28347 2.78274,2.11007 4.37447,2.59648 0.7217,0.22047 1.54238,0.20988 2.286,0.28219 2.52629,0.24562 5.29514,-0.0367 7.53534,-1.31233 0.86444,-0.49226 1.58623,-1.20523 2.286,-1.905 0.5842,-0.5842 1.16865,-1.2242 1.58047,-1.94734 0.34976,-0.61425 0.48167,-1.29921 0.73372,-1.94733 0.69478,-1.78647 0.81847,-3.68673 0.81847,-5.588 0,-0.63881 0.0618,-1.31191 0,-1.94733 -0.0426,-0.43815 -0.16933,-0.81932 -0.16933,-1.27 l 0.56447,1.016 0.52206,1.18533 0.28228,0.67733 0.87486,0.508 0.15519,1.524 0.56447,2.11667 0.0847,1.94733 0.67733,0.67734 -0.0847,2.11666 -0.16934,2.70934 0.33867,0.93133 -0.31047,0.67733 -0.84667,2.286 -1.143,4.572 -0.49386,1.59453 -1.27,0.0988 c 0.0157,0.59961 0.71078,0.508 1.18533,0.508 l -0.93133,0.67733 c 0.53518,0 1.08737,0.093 1.524,-0.28219 0.46634,-0.40082 0.51096,-1.21946 0.77614,-1.74981 0.33613,-0.67234 0.80569,-1.28939 1.17119,-1.94733 0.5914,-1.06443 1.04242,-2.15875 1.43934,-3.302 0.18787,-0.54111 0.36737,-1.11769 0.42333,-1.69334 0.0304,-0.31225 -0.008,-0.62704 0.0988,-0.93133 0.12691,-0.3606 0.60342,-0.30251 0.66319,-0.67733 0.13547,-0.84946 -0.0876,-1.8691 -0.16933,-2.70934 -0.0602,-0.61933 0.0725,-1.25603 -0.11286,-1.86266 -0.11396,-0.37288 -0.47761,-0.71688 -0.53628,-1.10067 -0.0825,-0.54026 0.81229,-0.20168 0.80433,-0.762 -0.008,-0.53941 -0.44213,-1.19753 -0.635,-1.69333 -0.33138,-0.85209 -0.59283,-1.70925 -0.97367,-2.54 -0.22267,-0.48582 -0.61163,-1.09017 -0.71966,-1.60867 -0.053,-0.25468 0.15562,-0.50106 0.14114,-0.762 -0.0287,-0.51587 -0.37465,-1.08424 -0.60681,-1.524 -0.55651,-1.05452 -1.39014,-2.08043 -2.18719,-2.96333 -0.4622,-0.51198 -1.01194,-0.97706 -1.524,-1.43934 -0.18847,-0.17018 -0.42097,-0.29125 -0.56448,-0.508 -0.19888,-0.30048 -0.21522,-0.75802 -0.31038,-1.10066 -0.11015,-0.3965 -0.35289,-0.78376 -0.39514,-1.18534 0.69308,0.27356 1.19185,1.11642 1.778,1.58048 0.39107,0.30962 0.81712,0.79425 1.27,1.00186 0.27279,0.12505 0.5875,-0.10618 0.83252,0.0705 0.19812,0.14292 0.33808,0.39828 0.52214,0.56448 0.50487,0.45576 1.05529,0.78054 1.60867,1.15714 0.2711,0.18448 0.54644,0.44509 0.84667,0.57852 0.25705,0.11422 0.49885,-0.0986 0.762,0 0.39429,0.14783 0.74252,0.46347 1.10066,0.67734 0.50275,0.30031 1.13598,0.60579 1.69334,0.77614 0.42799,0.13072 0.72838,-0.18627 1.10066,-0.15528 0.32301,0.0269 0.69969,0.31699 1.016,0.40928 0.43612,0.12717 0.90958,0.19913 1.35467,0.31038 1.4257,0.35645 3.13631,0.43578 4.48733,-0.18338 0.51071,-0.23411 1.05605,-0.41623 1.18534,-1.03014 l -0.762,0.254 c -0.03,-0.37923 0.23334,-0.70181 -0.254,-0.84667 -0.16671,0.52798 -0.56134,1.08433 -1.18534,1.05833 -0.54576,-0.0228 -1.02319,-0.34129 -1.524,-0.52214 -0.96723,-0.34925 -1.93776,-0.74693 -2.96333,-0.84666 -0.28067,-0.0273 -0.66209,0.1822 -0.93133,0.0847 -0.23521,-0.0852 -0.36187,-0.3953 -0.59267,-0.52205 -0.44416,-0.24401 -1.03344,-0.37126 -1.524,-0.49395 -0.36339,-0.0908 -0.73304,-0.18245 -1.10067,-0.254 -0.15968,-0.031 -0.36203,0.007 -0.508,-0.0705 -0.2573,-0.13623 -0.24197,-0.43917 -0.43747,-0.62086 -0.20261,-0.18839 -0.58505,-0.29964 -0.83253,-0.42334 -0.41571,-0.20785 -0.83591,-0.42596 -1.27,-0.6068 -0.32689,-0.13623 -0.83176,-0.2126 -1.10066,-0.43748 -0.26111,-0.21827 -0.18009,-0.64355 -0.42334,-0.91719 -0.57099,-0.64237 -1.45288,-1.10448 -2.20133,-1.50986 -0.54449,-0.29498 -1.0624,-0.64956 -1.60867,-0.94547 -0.33909,-0.18365 -0.73236,-0.22437 -1.016,-0.508 -0.34831,-0.34832 -0.53678,-0.93032 -0.79019,-1.35467 -0.1988,-0.33291 -0.66836,-0.94573 -0.62095,-1.35467 0.0647,-0.55744 0.73593,-0.19642 0.98781,-0.0565 0.93692,0.52053 1.92735,0.70146 2.96333,0.91728 0.31666,0.066 0.58116,0.32791 0.93134,0.22572 0.15587,-0.0455 0.26348,-0.19685 0.42333,-0.22572 0.19228,-0.0347 0.41326,0.12861 0.59267,0.18339 0.25586,0.0782 0.57937,0.11514 0.84666,0.14114 0.68259,0.0664 1.439,-0.0188 2.11667,-0.0847 0.53205,-0.0517 0.80019,-0.37854 1.27,-0.52214 0.30886,-0.0943 0.62035,-0.034 0.93133,-0.0987 0.56109,-0.11693 1.19228,-0.30717 1.69334,-0.57861 0.47591,-0.25773 0.51833,-0.65744 0.84666,-1.00186 0.47278,-0.49607 1.20058,-0.73364 1.6792,-1.27 0.66395,-0.74405 1.0077,-2.08441 1.1148,-3.048 0.0359,-0.32343 0.2021,-0.59462 0.16934,-0.93134 -0.0464,-0.47752 -0.55889,-0.87477 -0.889,-0.32452 -0.17975,0.29963 0.0257,0.75277 -0.14114,1.08652 -0.275,0.55 -0.91356,0.79782 -1.28406,1.27 -0.27897,0.35552 -0.54644,0.78232 -0.74794,1.18534 -0.12438,0.24875 -0.17027,0.55829 -0.4092,0.7338 -0.31386,0.23047 -0.74312,0.15782 -1.10066,0.19753 -0.2772,0.0308 -0.58217,0.19042 -0.84667,0.28219 -0.6278,0.21802 -1.10439,0.67556 -1.69333,0.94548 -0.4815,0.22064 -1.25536,-0.008 -1.778,0.0423 -0.57455,0.0559 -1.21675,0.14969 -1.778,0.28219 -0.14173,0.0335 -0.33782,0.17916 -0.47981,0.16934 -0.20591,-0.0141 -0.42443,-0.33604 -0.62086,-0.42334 -0.55956,-0.24866 -1.18491,-0.36796 -1.778,-0.508 -0.59639,-0.1408 -1.25417,-0.22301 -1.86267,-0.28219 -0.38921,-0.0378 -0.91304,0.14571 -1.27,0.0565 -0.22148,-0.0554 -0.3909,-0.28016 -0.59266,-0.381 -0.33266,-0.16637 -1.06003,-0.0296 -1.15714,-0.52214 -0.10363,-0.52569 0.58471,-0.32994 0.81847,-0.46566 0.20168,-0.1171 0.20667,-0.39015 0.42333,-0.508 0.21116,-0.1149 0.53078,-0.10135 0.762,-0.127 0.53798,-0.0598 1.07011,-0.20168 1.60867,-0.254 0.42621,-0.0414 0.83795,-0.0847 1.27,-0.0847 0.22496,0 0.55025,0.0586 0.762,-0.0282 0.29506,-0.12091 0.11176,-0.49751 0.508,-0.56448 0.99238,-0.16772 2.2153,-0.0111 3.13267,-0.508 0.48683,-0.26373 0.67504,-0.82016 1.10066,-1.15714 0.81179,-0.64262 1.74778,-1.22986 2.00381,-2.31419 0.18974,-0.80357 -0.32207,-1.20845 -0.64914,-1.86267 -0.42062,-0.84116 -1.1093,-1.78663 -1.778,-2.45533 -0.41588,-0.41585 -0.96207,-0.71277 -1.43933,-1.04422 -0.47278,-0.32829 -0.90534,-0.74248 -1.35467,-1.10067 -0.51156,-0.40774 -0.63635,-1.18878 -1.18533,-1.55222 -0.44272,-0.29306 -2.08229,-0.52408 -1.86267,0.31044 m -6.604,22.43667 0.254,-0.762 -0.0141,-1.43933 -1.08653,-3.302 0.11286,-1.86267 0.31048,-1.10067 -0.254,-0.93133 c 0.57065,0 1.08017,0.4009 1.524,0.73381 0.773,0.57971 1.60985,1.33375 2.17314,2.14486 0.25137,0.36195 0.42579,0.80247 0.64905,1.18533 0.52697,0.90331 1.05385,1.9282 1.29828,2.96333 0.21531,0.91186 0.11752,1.95961 0.0282,2.87867 -0.0673,0.69223 -0.0858,1.44314 -0.28219,2.11667 -0.78478,2.69045 -2.81186,4.84132 -5.47514,5.72914 -1.02785,0.34256 -2.07611,0.30022 -3.13267,0.19752 -0.48801,-0.0474 -0.95402,-0.0118 -1.43933,-0.11286 -1.05757,-0.22038 -2.18584,-0.78079 -3.048,-1.43933 -0.59512,-0.45458 -1.02218,-1.22149 -1.43933,-1.83447 -0.28237,-0.41487 -0.63602,-0.81043 -0.84667,-1.27 -0.72094,-1.57294 -0.84176,-3.30404 -0.67733,-4.99534 0.0326,-0.33519 -0.05,-0.68503 0.0282,-1.016 0.10338,-0.43781 0.33113,-0.83642 0.45161,-1.27 0.0774,-0.2788 0.11024,-0.57835 0.22572,-0.84666 0.52096,-1.20981 1.2049,-2.23867 2.08848,-3.21734 0.40919,-0.45322 0.65743,-0.7995 1.18533,-1.1148 0.29235,-0.17459 0.57302,-0.37711 0.84667,-0.57853 0.11574,-0.0852 0.254,-0.22631 0.40919,-0.127 0.20616,0.13191 0.21277,0.90212 0.29633,1.143 0.16807,0.48387 0.42825,0.9089 0.47981,1.43933 0.10406,1.06985 -0.51706,2.37355 -1.11481,3.21734 -0.3887,0.54872 -0.90051,1.71907 -0.15519,2.20133 0,-0.41419 -0.0933,-0.95707 0.0282,-1.35467 0.21565,-0.70561 0.80535,-1.38252 1.15714,-2.032 0.35264,-0.65108 0.508,-1.46321 0.508,-2.20133 0,-0.8062 -0.91753,-1.95131 -0.14114,-2.68114 0.23199,-0.21802 0.77945,-0.11286 1.07248,-0.11286 0.96968,0 2.31157,-0.21582 2.921,0.762 0.25171,0.40394 0.0854,0.93303 -0.0141,1.35467 -0.14436,0.61146 -0.25925,1.22766 -0.19753,1.86266 0.1143,1.17535 0.90297,2.19329 1.24181,3.302 0.25425,0.83219 0.0935,1.54297 0.0282,2.37067 z"
       style="fill:#000000;stroke:none;stroke-width:0.0846667" />
  </g>
</svg>
