<?xml version="1.0" encoding="UTF-8" standalone="no"?>
<svg
   xmlns:dc="http://purl.org/dc/elements/1.1/"
   xmlns:cc="http://creativecommons.org/ns#"
   xmlns:rdf="http://www.w3.org/1999/02/22-rdf-syntax-ns#"
   xmlns:svg="http://www.w3.org/2000/svg"
   xmlns="http://www.w3.org/2000/svg"
   xmlns:sodipodi="http://sodipodi.sourceforge.net/DTD/sodipodi-0.dtd"
   xmlns:inkscape="http://www.inkscape.org/namespaces/inkscape"
   sodipodi:docname="mosquito.svg"
   inkscape:version="1.0 (4035a4fb49, 2020-05-01)"
   id="svg34"
   version="1.1"
   viewBox="0 0 66.498611 62.018925"
   height="62.018925mm"
   width="66.498611mm">
  <defs
     id="defs28" />
  <sodipodi:namedview
     inkscape:window-maximized="1"
     inkscape:window-y="0"
     inkscape:window-x="0"
     inkscape:window-height="1144"
     inkscape:window-width="1920"
     fit-margin-bottom="0"
     fit-margin-right="0"
     fit-margin-left="0"
     fit-margin-top="0"
     showgrid="false"
     inkscape:document-rotation="0"
     inkscape:current-layer="layer1"
     inkscape:document-units="mm"
     inkscape:cy="334.34396"
     inkscape:cx="39.952371"
     inkscape:zoom="0.35"
     inkscape:pageshadow="2"
     inkscape:pageopacity="0.0"
     borderopacity="1.0"
     bordercolor="#666666"
     pagecolor="#ffffff"
     id="base" />
  <metadata
     id="metadata31">
    <rdf:RDF>
      <cc:Work
         rdf:about="">
        <dc:format>image/svg+xml</dc:format>
        <dc:type
           rdf:resource="http://purl.org/dc/dcmitype/StillImage" />
        <dc:title></dc:title>
      </cc:Work>
    </rdf:RDF>
  </metadata>
  <g
     transform="translate(-95.262602,-59.704827)"
     id="layer1"
     inkscape:groupmode="layer"
     inkscape:label="Layer 1">
    <path
       id="path188"
       d="m 153.2262,108.9666 c -0.91561,-0.62903 -2.18296,-0.78481 -3.18429,-1.31927 -0.76239,-0.40724 -1.43498,-0.87689 -2.13952,-1.38876 -0.72169,-0.52437 -1.2168,-1.44036 -1.93275,-1.90142 -0.2911,-0.18685 -0.81876,-0.0805 -0.82619,0.33884 -0.005,0.26656 0.30291,0.64496 0.4686,0.83759 1.41506,1.64419 3.1953,2.62262 5.21246,3.31741 0.67713,0.23334 1.8624,0.71094 2.40174,0.11551 m 6.24382,-10.874727 c -0.98481,-0.440811 -2.42948,0.088 -3.5122,0.0444 -1.3985,-0.0565 -2.75184,-0.268462 -4.06127,-0.79643 -0.34395,-0.138721 -1.03782,-0.602872 -1.38988,-0.291761 -0.30858,0.27274 -0.0573,0.61587 0.19086,0.801542 0.45956,0.34376 1.15513,0.462118 1.69892,0.626747 1.67576,0.507371 3.14589,0.826151 4.91535,0.533231 0.80898,-0.133951 1.66013,-0.23223 2.15814,-0.91767 m -18.9897,-12.636855 c -1.00407,-0.33546 -2.09205,-0.27264 -3.14102,-0.23838 -0.31098,0.0102 -0.98779,0.19471 -1.17793,-0.1653 -0.18876,-0.35738 0.15334,-0.63131 0.42174,-0.77072 0.8787,-0.4561 1.78333,-0.8806 2.62446,-1.40743 0.28831,-0.18061 0.86985,-0.65806 0.58756,-1.03681 -0.24972,-0.33507 -0.80146,-0.28837 -1.15158,-0.20153 -0.67392,0.16749 -1.25413,0.65099 -1.86242,0.96681 -0.25889,0.13441 -0.56052,0.34429 -0.87221,0.25008 -0.39437,-0.11944 -0.68412,-0.89195 -0.95664,-1.1922 -0.51449,-0.56663 -1.13771,-0.67745 -1.81079,-0.92885 -0.21266,-0.0797 -0.4098,-0.21556 -0.44049,-0.45825 -0.0452,-0.35581 0.28851,-0.70009 0.34607,-1.04657 0.10764,-0.64762 -0.0699,-1.35411 -0.41323,-1.90208 -0.21465,-0.34272 -0.5729,-0.80284 -0.90076,-1.04104 -0.54837,-0.39842 -1.47737,-0.39914 -1.62688,-1.18202 -0.19149,-1.00181 -0.0421,-2.17092 -0.0573,-3.19017 -0.0294,-1.92174 -0.13106,-3.84376 -0.17694,-5.76273 -0.0259,-1.07902 0.31397,-3.03822 -0.36319,-3.90957 -0.49477,2.97779 -0.50808,6.13883 -0.62977,9.15371 -0.0363,0.90463 -0.10123,1.80527 -0.14626,2.71062 -0.0198,0.39742 0.031,1.0236 -0.1488,1.38328 -0.17719,0.35497 -0.67037,0.44691 -0.9919,0.60503 -0.59725,0.29357 -1.4299,0.58593 -1.70629,1.24598 -0.2577,0.6152 -0.48608,1.37473 -0.38013,2.04379 0.061,0.38482 0.56245,1.18649 0.29146,1.5375 -0.20284,0.26293 -0.79555,0.3644 -1.08237,0.53929 -0.51226,0.31255 -1.1521,0.9795 -1.77693,1.00129 -0.70645,0.0247 -1.6695,-0.64314 -2.30684,-0.93036 -0.61095,-0.27487 -1.93728,-0.91105 -2.21443,0.15855 -0.14621,0.56395 0.67024,0.65055 1.02223,0.79788 0.58421,0.24449 1.13349,0.57396 1.72849,0.81407 0.25422,0.10264 0.6892,0.1779 0.87743,0.38888 0.1987,0.2226 0.22969,0.92333 0.0579,1.17454 -0.24191,0.35384 -0.75954,0.0777 -1.04642,-0.0423 -0.68081,-0.28499 -1.35533,-0.5776 -2.05062,-0.8268 -0.30932,-0.11095 -0.68152,-0.20238 -0.91006,0.11215 -0.38967,0.53635 0.27888,1.0928 0.70375,1.3122 0.87897,0.45401 2.18763,0.55503 2.95418,1.179791 0.28515,0.232285 0.40683,0.840264 0.25027,1.176134 -0.12257,0.263511 -0.41088,0.268361 -0.64715,0.358359 -0.74067,0.282303 -1.48081,0.565491 -2.21236,0.878282 -0.37025,0.15839 -1.05177,0.37429 -0.94245,0.91721 0.13639,0.677018 1.10838,0.501179 1.56081,0.360629 0.71059,-0.2208 1.36609,-0.587711 2.07933,-0.80923 0.21234,-0.0659 0.4933,-0.212979 0.71776,-0.113721 0.26012,0.114472 0.436,0.54878 0.60163,0.76853 0.17082,0.226531 0.35924,0.472152 0.37823,0.771962 0.0354,0.559228 -0.36407,1.223899 -0.50507,1.759558 -0.39645,1.505821 -0.9024,2.98042 -1.40735,4.445982 -0.6651,1.930828 -1.25129,3.914047 -2.02102,5.822927 -0.50849,1.26125 -1.12052,2.50886 -1.27294,3.88076 -0.19517,1.75641 0.0234,3.78343 0.29831,5.5195 0.26712,1.68685 0.63433,3.32089 1.22786,4.92433 0.14767,0.39913 0.32157,1.27677 0.75967,1.46336 0.26977,0.11495 0.47799,-0.1628 0.59776,-0.36659 0.34666,-0.58992 0.60241,-1.36081 0.89932,-1.99799 0.66319,-1.42265 1.56602,-2.73388 2.36029,-4.08502 0.69163,-1.17666 1.02351,-2.67225 1.38785,-3.96301 l 0.18719,-0.0301 c 0.38846,0.87532 0.48499,2.36093 0.20203,3.29527 -0.16481,0.54456 -0.56992,0.96303 -0.56601,1.57733 0.013,2.08278 1.24951,4.11568 2.14984,5.8981 0.39819,0.78828 0.80277,1.51621 1.3876,2.19563 0.17317,0.20138 0.4239,0.56833 0.74435,0.45799 0.41658,-0.1434 0.63864,-1.15283 0.84858,-1.51003 0.44615,-0.75894 0.96144,-1.39424 0.82681,-2.3544 -0.16202,-1.15625 -1.56733,-2.19431 -2.69996,-2.09988 -0.4875,0.0406 -1.01099,0.48892 -1.40101,0.74978 l -1.00665,-2.71993 0.20151,-1.1516 0.67195,0.40558 1.35417,0.87315 1.24357,0.075 0.95098,-0.3585 1.00921,1.11983 c 0.48566,-0.84158 -0.45202,-1.15529 -0.59234,-1.92172 -0.22638,-1.23665 0.61692,-2.60258 -0.51073,-3.63033 -0.59687,-0.5438 -2.10715,-0.59057 -2.87839,-0.59987 -0.24675,-0.003 -0.61267,0.14155 -0.84444,0.0218 -0.40983,-0.21182 -0.37056,-1.22886 -0.33262,-1.59499 0.50941,0.14388 1.02111,0.22218 1.55738,0.13724 0.60916,-0.0965 1.61347,-0.35066 2.04325,-0.83544 0.55433,-0.62549 0.49416,-2.35866 0.46174,-3.14447 -0.0341,-0.82499 -0.33733,-1.47293 0.1632,-2.20139 0.32568,0.41892 0.40607,0.99798 0.55923,1.51111 0.29265,0.98003 0.57998,1.99848 1.02325,2.92517 1.17654,2.46054 2.87703,4.60117 3.68979,7.23787 0.31633,1.02657 0.54215,2.0573 0.71761,3.11767 0.0471,0.28458 0.0598,0.89411 0.4653,0.91807 0.26415,0.0154 0.44114,-0.32263 0.54187,-0.51776 0.2926,-0.56612 0.49435,-1.17681 0.79591,-1.74168 0.89352,-1.67379 1.29766,-3.51133 1.77816,-5.33652 0.27629,-1.04955 0.74064,-2.16728 0.76401,-3.2563 0.0406,-1.90399 -0.85149,-3.54907 -1.62561,-5.21329 -0.78575,-1.689462 -1.76596,-3.294443 -2.75552,-4.874452 -1.07894,-1.72247 -2.51441,-3.081251 -2.40427,-5.28193 0.0151,-0.29695 0.1739,-0.519999 0.29215,-0.782019 0.11939,-0.26403 0.23646,-0.64349 0.53346,-0.772411 0.24408,-0.10586 0.4489,0.01151 0.67189,0.1016 0.70506,0.284239 1.33024,0.772872 2.0277,1.086472 0.45854,0.206438 0.9643,0.396409 1.36675,-0.0564 0.36608,-0.411911 0.002,-0.66866 -0.33556,-0.906621 -0.7461,-0.52632 -1.65582,-0.991219 -2.4878,-1.365528 -0.30818,-0.13844 -0.94741,-0.342032 -0.71821,-0.79806 0.22372,-0.444836 1.10697,-0.280347 1.50619,-0.286546 1.19022,-0.0181 2.69647,0.245115 3.03856,-1.21717 m -2.63746,29.403275 c -0.47758,-0.43017 -0.50614,-0.99282 -0.66769,-1.58991 -0.26805,-0.99029 -0.54879,-2.01126 -1.02324,-2.92519 -0.73856,-1.42279 -1.74261,-2.71672 -2.44963,-4.15507 -1.9246,-3.91545 -2.61022,-8.266691 -2.96628,-12.567239 -0.0836,-1.01066 -0.0764,-2.026801 -0.28729,-3.02582 -0.16396,-0.776692 -0.62105,-1.796632 -0.3791,-2.59539 0.16451,-0.543431 0.74542,-1.131602 1.17555,-1.465884 0.53989,0.567703 0.9882,1.232024 1.47602,1.845794 0.324,0.407559 0.82564,0.852728 1.01267,1.34321 0.41488,1.088919 0.0843,2.569131 0.72449,3.564509 2.45473,3.81622 5.78079,7.64281 6.2484,12.38333 0.0725,0.73524 -0.27777,1.47732 -0.40467,2.19165 -0.30041,1.69022 -0.93759,3.39876 -1.59611,4.9717 -0.28499,0.6808 -0.4748,1.39018 -0.86327,2.02423 m 7.27201,-11.45342 c 0.27223,-0.75872 -0.14076,-1.44309 -0.37236,-2.14852 -0.23036,-0.70245 -0.41995,-1.47769 -0.76981,-2.133579 -0.20862,-0.391181 -1.04462,-1.00656 -1.35051,-0.34602 -0.17849,0.38535 0.0686,0.902169 0.18464,1.266439 0.26086,0.82039 0.58177,1.6256 0.8816,2.43588 0.14594,0.39417 0.28554,0.95178 0.56906,1.26948 0.32545,0.36487 0.72715,0.0191 0.85735,-0.34368 m 4.71784,-7.17781 c 0.15109,-0.497801 -0.0635,-0.95467 -0.25366,-1.399458 -0.36632,-0.856552 -0.60511,-1.980092 -1.16762,-2.726503 -0.2751,-0.3649 -1.07626,-0.82088 -1.32576,-0.189849 -0.15584,0.394171 0.10286,0.859531 0.24197,1.225331 0.31326,0.82187 0.68456,1.624398 1.06885,2.406189 0.18228,0.370901 0.2714,0.947039 0.60848,1.215279 0.36788,0.292981 0.72508,-0.192669 0.82765,-0.530979 m -6.95823,0.910169 c 0.24291,-0.585599 -0.19332,-1.330248 -0.43462,-1.834798 -0.59498,-1.244081 -0.88615,-2.638991 -1.49348,-3.8745 -0.16467,-0.33492 -0.79082,-0.9643 -1.13375,-0.492331 -0.28708,0.395271 0.0624,1.170191 0.17172,1.58841 0.36872,1.408642 0.92308,2.90613 1.59213,4.194932 0.2098,0.40413 0.96841,1.212448 1.29799,0.418409 M 140.9239,86.440166 c 0.90174,1.568186 2.72526,2.790347 4.0825,3.960355 0.3189,0.274931 1.6825,0.991672 1.78573,0.165111 0.0924,-0.73973 -0.77268,-1.08621 -1.21463,-1.407308 -1.03421,-0.751361 -1.94947,-1.747751 -2.98775,-2.502136 -0.58966,-0.42844 -1.04048,-0.781381 -1.66585,-0.216022 m 20.83728,-19.328739 -0.32535,-0.23642 -0.0491,0.29572 0.10842,0.0788 0.26606,-0.13812 m -40.93982,49.962713 c -0.46076,-0.39374 -0.57227,-0.91609 -0.74648,-1.48146 -0.40241,-1.30568 -0.61161,-2.59177 -0.78387,-3.93892 -0.19684,-1.53806 -0.47546,-3.28823 -0.27005,-4.83608 0.23484,-1.77084 1.21386,-3.34278 1.74714,-5.02765 0.85572,-2.703459 2.01986,-5.355158 2.7461,-8.113217 0.39385,-1.495941 0.78998,-2.986841 1.11163,-4.49512 0.0963,-0.45189 0.0317,-0.93772 0.1488,-1.3833 0.10827,-0.412231 0.73024,-1.353767 1.18038,-1.434695 0.50937,-0.0915 1.33102,1.337755 1.47941,1.765205 0.18597,0.53444 -0.002,1.18713 -0.0452,1.734799 l -0.36908,4.53749 c -0.33795,4.22783 -0.72258,8.563418 -1.70244,12.682808 -0.32083,1.34914 -0.5964,2.86089 -1.13473,4.14693 -0.42159,1.00696 -1.09005,1.85443 -1.63819,2.78684 -0.59431,1.01088 -1.02943,2.10103 -1.72343,3.05637 m 9.27722,-15.96213 c -0.91068,-0.55773 -1.93975,-0.41159 -2.86819,0.0704 -0.26259,-0.34289 -0.41924,-1.474138 0.14868,-1.687148 0.22475,-0.0843 0.44577,0.0794 0.65881,0.119599 0.34087,0.0645 0.6802,0.005 1.00861,-0.0958 0.53368,-0.16459 0.87794,-0.587751 1.33676,-0.851599 0.47967,0.62642 0.10109,1.814898 -0.28466,2.444558 m 14.22035,-25.959013 c -0.60483,-0.27046 -1.12006,0.0444 -1.5291,0.54612 -0.43501,0.53374 -0.71238,1.28488 -1.06201,1.87979 -0.3464,0.58917 -0.785,1.07867 -1.09165,1.69252 -0.17025,0.34054 -0.83218,1.17334 -0.71387,1.55277 0.23902,0.76626 1.27855,-0.18645 1.4717,-0.50501 0.48637,-0.8023 0.96227,-1.62614 1.43787,-2.43523 0.55331,-0.94128 1.39062,-1.58672 1.48701,-2.73099 m -16.52014,19.316784 c 0.71785,0.185182 1.39074,-0.207018 2.0501,-0.0848 0.42308,0.0785 0.60841,0.842201 0.30796,1.13488 -0.26526,0.258541 -0.77854,-0.0347 -1.08254,-0.0685 -0.78436,-0.0871 -1.78518,0.157789 -1.27527,-0.98175 m 17.56753,-20.378084 c 0.38926,-0.72997 0.0213,-1.52175 -0.13253,-2.25054 -0.1468,-0.69558 -0.19892,-1.43413 -0.46101,-2.1025 -0.13291,-0.33867 -0.86117,-1.09552 -1.21593,-0.60723 -0.23551,0.32407 -0.0706,0.84661 -0.0173,1.20252 0.18011,1.20927 0.29706,2.58714 0.73601,3.73858 0.22618,0.59319 0.80219,0.55975 1.09085,0.0192 m -10.73032,10.92941 c -0.43897,0.84997 -2.08135,0.15168 -2.87633,0.11961 -1.02448,-0.0412 -2.07047,0.21066 -3.0818,0.13625 -0.87371,-0.0644 -1.5947,-0.46004 -2.5267,-0.39971 -0.64914,0.0422 -1.5947,0.54653 -2.20771,0.3017 -0.55704,-0.22217 -0.28317,-0.98076 -0.10583,-1.3749 0.24454,-0.54272 0.74059,-0.7901 1.19875,-1.11758 1.00472,-0.71851 1.92217,-0.84838 3.13055,-1.03976 1.45388,-0.23028 2.81777,-0.35307 4.23836,0.0966 1.30801,0.41418 3.04823,1.6951 2.23074,3.27786 m 14.45635,-23.96481 -0.2169,-0.15766 c -0.49451,0.31457 -1.08053,0.49349 -1.56023,0.85497 -1.50176,1.13206 -2.3674,2.67478 -3.20627,4.29894 -0.20423,0.39628 -1.42863,2.05529 -0.50973,2.33627 0.56598,0.17302 1.0125,-1.3081 1.17216,-1.68927 0.55555,-1.32726 1.47002,-2.63917 2.4196,-3.71053 0.5541,-0.62518 1.6615,-1.15375 1.90137,-1.93281 m -36.1331,43.346453 c -0.77017,-0.33939 -1.30893,0.48076 -1.84432,0.98 -1.01498,0.94632 -1.99505,1.98834 -3.26787,2.59704 -0.88547,0.42339 -2.12596,0.45621 -2.8891,1.04949 0.49101,0.77182 1.81265,0.28859 2.52984,0.0153 1.56173,-0.59517 2.9393,-1.65625 4.16798,-2.77167 0.58001,-0.52644 1.23491,-1.05634 1.30358,-1.86999 m 0.73373,-1.12401 c 0.30729,-1.06195 0.3153,-2.24947 0.41399,-3.344839 0.0389,-0.430779 0.1751,-0.97544 0.0815,-1.40452 -0.18006,-0.826849 -1.12593,-0.0916 -1.30418,0.35056 -0.28214,0.699762 -0.21154,1.544679 -0.2781,2.283599 -0.055,0.60994 -0.21878,1.14934 -0.0715,1.7709 0.14867,0.62757 0.888,1.27801 1.1583,0.34441 m 1.75929,-7.173058 c 0.62809,-1.34743 1.51537,-2.569522 2.07616,-3.960039 0.14017,-0.347592 0.67782,-1.10948 0.23757,-1.429351 -0.51269,-0.37247 -1.14717,0.599588 -1.35319,0.95019 -0.70142,1.193229 -1.37017,2.47137 -1.93666,3.730009 -0.16948,0.37674 -0.55186,0.82873 -0.48556,1.27659 0.14332,0.969331 1.29363,-0.20701 1.4618,-0.567359 m 1.76373,-11.588866 c -0.008,-0.65793 -1.02133,-0.51128 -1.39167,-0.40345 -1.45639,0.42417 -3.00162,0.88121 -4.41173,1.43463 -0.36296,0.14245 -1.17299,0.52085 -1.05245,1.03049 0.14371,0.608404 1.2499,0.308906 1.63459,0.220996 1.39608,-0.319006 2.81443,-0.883116 4.098,-1.496816 0.32029,-0.15325 1.12894,-0.30529 1.12326,-0.78584 m 0.93621,-3.68349 c 0.14366,-0.57869 -0.11088,-1.06515 -0.31953,-1.61296 -0.49154,-1.28973 -1.11289,-2.51438 -1.77264,-3.71839 -0.23392,-0.42679 -0.80192,-1.53332 -1.44608,-1.05062 -0.5271,0.39474 0.13552,1.47567 0.34581,1.88073 0.48122,0.92715 1.00262,1.83824 1.46332,2.77562 0.42355,0.86171 0.64215,1.63416 1.72923,1.72548 m -14.24861,8.207455 c 0.50542,0.347372 0.81729,0.178322 1.37658,0.006 0.98668,-0.304099 1.95445,-0.640299 2.90719,-1.036338 0.34726,-0.14424 1.28956,-0.362583 1.09855,-0.941792 -0.24569,-0.745435 -1.19827,-0.481865 -1.69868,-0.322774 -0.97381,0.309616 -2.57549,0.649595 -3.29474,1.417625 -0.2061,0.219919 -0.2596,0.6077 -0.38887,0.877419 m -8.586765,-3.918774 c -0.27875,0.78961 0.56388,1.403921 1.15409,1.832755 1.52355,1.106871 2.91293,1.91377 4.768355,2.33214 0.57498,0.12958 1.83357,0.57249 2.21115,-0.0783 0.43636,-0.752588 -0.9879,-0.74708 -1.39351,-0.819009 -1.33816,-0.2378 -2.841185,-0.59952 -4.028614,-1.297549 -0.947331,-0.556756 -1.821931,-1.323637 -2.711501,-1.969977 m 21.331445,-16.81539 c -1.57058,-0.70275 -1.97019,1.76379 -2.38065,2.74456 -0.20575,0.49147 -0.49454,0.90392 -0.48726,1.46884 0.005,0.38541 0.24149,1.23997 0.79547,0.88167 0.41476,-0.26821 0.66585,-1.0928 0.81264,-1.53619 0.16121,-0.48745 0.41474,-0.93805 0.55953,-1.41629 0.21665,-0.71599 0.4627,-1.43102 0.70055,-2.14247 m -5.68147,-8.60201 -0.15771,0.21683 c 0.39284,0.64966 1.24435,1.07856 1.7684,1.67144 1.03244,1.16817 1.84965,2.47132 2.48571,3.87734 0.18008,0.3983 0.48209,1.92483 1.17865,1.68493 0.80803,-0.2783 -0.19531,-2.06602 -0.41355,-2.5099 -0.93517,-1.90257 -2.66677,-4.42734 -4.86162,-4.94073 z"
       style="fill:#000000;stroke:none;stroke-width:0.134063" />
  </g>
</svg>
