<?xml version="1.0" encoding="UTF-8" standalone="no"?>
<svg
   xmlns:dc="http://purl.org/dc/elements/1.1/"
   xmlns:cc="http://creativecommons.org/ns#"
   xmlns:rdf="http://www.w3.org/1999/02/22-rdf-syntax-ns#"
   xmlns:svg="http://www.w3.org/2000/svg"
   xmlns="http://www.w3.org/2000/svg"
   xmlns:sodipodi="http://sodipodi.sourceforge.net/DTD/sodipodi-0.dtd"
   xmlns:inkscape="http://www.inkscape.org/namespaces/inkscape"
   sodipodi:docname="pillbug.svg"
   inkscape:version="1.0 (4035a4fb49, 2020-05-01)"
   id="svg54"
   version="1.1"
   viewBox="0 0 54.863998 69.592056"
   height="69.592056mm"
   width="54.863998mm">
  <defs
     id="defs48" />
  <sodipodi:namedview
     inkscape:window-maximized="1"
     inkscape:window-y="0"
     inkscape:window-x="0"
     inkscape:window-height="1144"
     inkscape:window-width="1920"
     fit-margin-bottom="0"
     fit-margin-right="0"
     fit-margin-left="0"
     fit-margin-top="0"
     showgrid="false"
     inkscape:document-rotation="0"
     inkscape:current-layer="layer1"
     inkscape:document-units="mm"
     inkscape:cy="179.16935"
     inkscape:cx="-59.529329"
     inkscape:zoom="0.98994949"
     inkscape:pageshadow="2"
     inkscape:pageopacity="0.0"
     borderopacity="1.0"
     bordercolor="#666666"
     pagecolor="#ffffff"
     id="base" />
  <metadata
     id="metadata51">
    <rdf:RDF>
      <cc:Work
         rdf:about="">
        <dc:format>image/svg+xml</dc:format>
        <dc:type
           rdf:resource="http://purl.org/dc/dcmitype/StillImage" />
        <dc:title></dc:title>
      </cc:Work>
    </rdf:RDF>
  </metadata>
  <g
     transform="translate(-80.68265,-135.40892)"
     id="layer1"
     inkscape:groupmode="layer"
     inkscape:label="Layer 1">
    <path
       id="path138"
       d="m 105.82865,144.55288 c -1.20955,-0.35017 -0.95885,-1.0907 -1.60858,-1.94734 -0.72721,-0.95847 -1.60506,-1.52291 -2.41308,-2.37066 -0.69347,-0.72756 -1.20653,-1.63485 -2.07434,-2.20134 -1.72169,-1.12385 -4.17726,-0.40612 -6.096,-0.59266 -1.92941,-0.18758 -3.9306,-0.30566 -5.842,-0.67734 -2.33932,-0.45487 -4.70548,-1.54328 -7.112,-0.84666 v 0.508 c 1.04701,0.49596 1.96085,0.53254 3.048,0.80434 0.71549,0.17887 1.26817,0.64539 2.032,0.71966 0.68171,0.0663 1.35768,-0.14536 2.032,-0.0423 1.70139,0.25994 3.36324,0.63744 5.08,0.80434 0.9529,0.0926 2.09509,0.0926 3.048,0 0.64935,-0.0631 1.39293,-0.48095 2.032,-0.127 0.53045,0.29378 0.82895,0.98791 1.27,1.397 0.8572,0.79507 3.048,1.91183 3.048,3.302 0,1.19512 -3.17721,3.97734 -1.524,4.953 1.51955,0.8968 3.65125,-0.467 5.08,-0.80434 2.57937,-0.60899 4.42493,0.13703 6.858,0.84668 0.72644,0.21186 2.41427,0.30191 3.00558,-0.254 1.33452,-1.2544 -1.79578,-3.61254 -1.73558,-4.99534 0.0272,-0.62395 0.59004,-0.83302 0.93142,-1.27 0.82296,-1.05349 2.17678,-2.52362 3.38658,-3.175 1.11557,-0.60073 3.56692,-0.127 4.826,-0.127 1.92024,0 3.70611,-0.57902 5.588,-0.762 1.38277,-0.13444 2.09982,-0.0637 3.34442,-0.635 1.14249,-0.52451 3.32663,-0.0158 3.51358,-1.651 -4.02235,0 -7.68528,1.38923 -11.684,1.778 -2.33782,0.22728 -4.95148,-0.53523 -7.112,0.635 -0.97587,0.5286 -1.64795,1.61542 -2.37058,2.413 -0.76886,0.84839 -1.67488,1.45954 -2.413,2.37066 -0.37186,0.45875 -0.20422,1.3286 -0.80442,1.60868 -0.64669,0.30181 -0.98908,-0.64089 -1.524,-0.84668 -1.31293,-0.50498 -3.49174,-0.28707 -3.81,1.18534 m 11.43,3.302 c -1.39243,4.40937 -6.53872,0.45931 -9.652,0.762 -1.6698,0.16233 -3.18186,1.11016 -4.826,1.27 -1.69726,0.16502 -3.64521,0.30953 -3.81,-1.778 l -2.54,1.651 -2.032,-0.635 0.635,2.032 -1.56634,2.794 -1.35466,4.064 3.048,-1.94734 3.302,0.59269 5.334,0.84665 11.43,-0.508 5.842,-1.016 3.048,1.778 -1.31242,-4.064 -1.56616,-2.70934 0.0846,-1.86266 -1.27,0.59266 -2.794,-1.86266 m -26.416,11.43 1.397,1.778 -0.127,2.286 2.794,-1.016 6.096,0.93142 6.858,0.33858 2.032,0.254 7.874,-1.10058 3.81,-0.59283 2.54,0.93141 -0.0846,-2.032 1.60858,-1.778 -1.524,-0.127 -3.048,-1.778 -6.096,1.05842 -9.144,0.59258 -7.366,-1.016 -3.302,-0.508 -3.048,1.82042 -1.27,-0.0424 m 0.762,10.414 c 0.94498,-0.24866 1.80393,-0.90601 2.794,-1.016 0.88963,-0.0988 1.6927,0.24689 2.54,0.42342 1.435,0.29896 2.88214,0.46279 4.318,0.762 3.30962,0.68936 7.53846,0.66751 10.922,0.33858 3.37413,-0.32817 7.00481,-1.90271 10.414,-1.524 0.73634,0.0818 1.35788,0.51359 2.032,0.762 0,-2.02717 -0.14859,-4.64642 -2.286,-5.715 -0.7046,-0.35229 -1.57531,-0.0338 -2.286,0.0846 -1.52451,0.25425 -3.05842,0.40436 -4.572,0.71983 -4.33299,0.90272 -9.33933,0.96495 -13.716,0.29617 -1.67762,-0.25629 -3.42387,-0.48235 -5.08,-0.80417 -0.90325,-0.17577 -1.91001,-0.52806 -2.794,-0.0424 -1.84638,1.01423 -2.286,3.84328 -2.286,5.715 m -3.556,1.27 c 0.69563,1.89713 3.99273,0.59335 4.064,3.302 l 3.556,-0.508 5.334,1.69342 8.636,0.46558 7.366,-0.97358 5.334,-1.43942 2.032,0.762 0.127,-1.27 3.937,-2.286 -4.064,-0.0424 -2.54,-0.71958 -10.668,1.778 -10.668,-0.59258 -4.572,-0.93142 -3.81,0.67742 -4.064,0.0846 m 36.576,7.874 c 0.40716,-2.21081 -0.30988,-3.88366 -2.794,-4.02158 -1.49047,-0.0828 -2.97612,0.93091 -4.318,1.397 -1.81864,0.63144 -3.93929,0.91567 -5.842,1.10058 -3.57632,0.34773 -7.69341,0.18136 -11.176,-0.59258 -2.19111,-0.48692 -4.31437,-2.01803 -6.68866,-1.60884 -1.31496,0.22683 -3.45201,2.81458 -1.69334,3.85242 0.80177,0.4732 2.36707,0.1049 3.302,0.33858 2.58216,0.64567 5.007,1.651 7.62,2.159 2.90068,0.56414 6.23062,0.45263 9.144,0.16942 4.30225,-0.41834 8.06882,-2.794 12.446,-2.794 m -36.83,2.032 v 0.508 l 3.76766,1.016 0.80434,3.25958 4.064,0.127 6.604,1.86284 9.652,0.0846 4.318,-1.18542 7.62,-1.10058 0.254,-3.556 c 1.1049,-0.0289 3.66471,-0.18085 4.064,-1.27 -1.57404,-0.0414 -3.26035,-0.5527 -4.826,-0.46558 -2.92049,0.16205 -5.59232,1.38405 -8.382,2.159 -3.48895,0.96901 -7.55193,1.19888 -11.176,0.84658 -3.1254,-0.30378 -5.86948,-1.74218 -8.89,-2.45542 -2.39062,-0.56438 -5.5196,-0.51206 -7.874,0.16942 m -0.508,10.922 v 0.508 l 5.842,-0.254 0.254,1.27 3.556,-1.27 7.112,0.508 h 7.62 l 6.858,-0.762 4.826,1.27 0.254,-1.27 c 1.79806,0.37846 4.04698,1.00965 5.842,0.254 v -0.508 l -5.03758,-1.86258 -1.31242,-2.921 -3.302,0.508 -7.874,1.98958 -9.652,-0.33858 -6.858,-1.69342 -2.032,-0.21158 -1.31234,2.921 -4.78366,1.86258 m 10.414,1.60858 c -1.81671,0.35332 -3.65504,0.50267 -2.58234,2.70942 0.16571,0.34087 0.30312,0.91059 0.635,1.143 0.62087,0.4346 1.21958,-0.26086 1.69334,-0.55042 0.8402,-0.51333 2.08315,-0.80695 3.048,-0.59258 3.29438,0.73203 6.17626,1.86182 9.652,1.524 2.41503,-0.23469 4.69316,-1.55016 7.112,-1.651 0.62077,-0.0259 1.51282,0.1143 2.032,0.46558 0.46177,0.31268 0.8349,1.11075 1.524,0.80442 0.67615,-0.30048 1.75412,-2.48361 1.22758,-3.13258 -0.43663,-0.53823 -1.84531,-0.74092 -2.49758,-0.80442 -1.99289,-0.1938 -3.89357,0.31852 -5.842,0.508 -2.60909,0.25375 -5.49478,0.51003 -8.128,0.254 -2.4318,-0.23647 -5.46009,-1.14681 -7.874,-0.67742 m -5.08,9.05942 c 1.24213,-0.0328 2.98445,-0.49835 4.064,-1.143 0.42705,-0.25501 0.76893,-0.81991 1.27,-0.93142 0.48933,-0.10871 0.75951,0.3109 1.27,0 1.31046,-0.79756 1.21374,-2.26644 3.048,-1.73558 -0.55586,1.00584 -1.50919,2.04445 -1.43934,3.302 0.0437,0.78639 0.86923,1.60833 1.69334,1.143 0.71475,-0.4036 0.69875,-2.15697 1.778,-1.98958 2.12318,0.32893 1.9243,4.51841 4.572,3.81 1.40132,-0.37516 1.86639,-2.23545 2.794,-3.21742 0.23825,-0.25222 0.61925,-0.762 1.016,-0.762 1.15062,0 0.9238,1.71806 1.56642,2.159 0.69189,0.47498 1.43764,-0.28346 1.651,-0.889 0.59207,-1.68173 -1.03785,-2.40792 -1.18542,-3.81 0.39751,0 0.90602,-0.0747 1.27,0.127 0.91821,0.50851 1.59486,2.86868 2.794,1.397 h 0.254 c 0.79857,1.37922 3.79908,2.81102 5.334,2.286 l -2.794,-2.45542 -3.048,-2.286 -3.81,0.46584 -7.366,1.22758 -5.334,-1.10058 -3.302,-0.59284 -2.286,1.524 -3.81,3.47142 m 11.684,0 c -0.75819,1.25248 -0.4092,1.778 1.016,1.778 l -1.016,-1.778 m 7.112,1.524 c 1.33248,0.56109 1.77165,-0.33248 1.27,-1.524 z"
       style="fill:#000000;stroke:none;stroke-width:0.254" />
    <path
       d=""
       id="path122"
       style="fill:#000000;stroke-width:0.254" />
  </g>
</svg>
